solid OpenSCAD_Model
  facet normal -0.85799 0.135894 0.495364
    outer loop
      vertex -2.5 0 1.76602
      vertex -2.37764 0.772542 1.76602
      vertex -3 0 0.9
    endloop
  endfacet
  facet normal -0.85799 0.135892 0.495365
    outer loop
      vertex -2.37764 0.772542 1.76602
      vertex -2.85317 0.927051 0.9
      vertex -3 0 0.9
    endloop
  endfacet
  facet normal 0.85799 -0.135894 0.495364
    outer loop
      vertex -1 0 0.9
      vertex -0.951056 0.309016 0.9
      vertex -1.5 0 1.76602
    endloop
  endfacet
  facet normal 0.857991 -0.135901 0.495362
    outer loop
      vertex -0.951056 0.309016 0.9
      vertex -1.42658 0.463525 1.76602
      vertex -1.5 0 1.76602
    endloop
  endfacet
  facet normal 0.857991 -0.135901 -0.495361
    outer loop
      vertex -1.42658 0.463525 0.033975
      vertex -1 0 0.9
      vertex -1.5 0 0.033975
    endloop
  endfacet
  facet normal 0.857993 -0.135895 -0.495359
    outer loop
      vertex -0.951056 0.309016 0.9
      vertex -1 0 0.9
      vertex -1.42658 0.463525 0.033975
    endloop
  endfacet
  facet normal 0 0 -1
    outer loop
      vertex -0.5 -2.42081 0.033975
      vertex 0.5 -2.42081 0.033975
      vertex 0.5 -101.5 0.033975
    endloop
  endfacet
  facet normal 0 -0 -1
    outer loop
      vertex 0 -1.5 0.033975
      vertex 0.5 -2.42081 0.033975
      vertex -0.5 -2.42081 0.033975
    endloop
  endfacet
  facet normal 0 0 -1
    outer loop
      vertex 0.5 -2.42081 0.033975
      vertex 0 -1.5 0.033975
      vertex 0.463525 -1.42658 0.033975
    endloop
  endfacet
  facet normal 0 0 -1
    outer loop
      vertex -0.5 -2.42081 0.033975
      vertex 0.5 -101.5 0.033975
      vertex -0.5 -101.5 0.033975
    endloop
  endfacet
  facet normal -0 0 -1
    outer loop
      vertex 0 -1.5 0.033975
      vertex -0.5 -2.42081 0.033975
      vertex -0.463525 -1.42658 0.033975
    endloop
  endfacet
  facet normal 0 0 -1
    outer loop
      vertex -0.772542 -2.37764 0.033975
      vertex -0.463525 -1.42658 0.033975
      vertex -0.5 -2.42081 0.033975
    endloop
  endfacet
  facet normal 0 0 -1
    outer loop
      vertex -0.772542 -2.37764 0.033975
      vertex -0.881678 -1.21352 0.033975
      vertex -0.463525 -1.42658 0.033975
    endloop
  endfacet
  facet normal 0 0 -1
    outer loop
      vertex -1.46946 -2.02254 0.033975
      vertex -0.881678 -1.21352 0.033975
      vertex -0.772542 -2.37764 0.033975
    endloop
  endfacet
  facet normal -0 0 -1
    outer loop
      vertex -0.881678 -1.21352 0.033975
      vertex -1.46946 -2.02254 0.033975
      vertex -1.21352 -0.881678 0.033975
    endloop
  endfacet
  facet normal 0 0 -1
    outer loop
      vertex -2.02254 -1.46946 0.033975
      vertex -1.21352 -0.881678 0.033975
      vertex -1.46946 -2.02254 0.033975
    endloop
  endfacet
  facet normal -0 0 -1
    outer loop
      vertex -1.21352 -0.881678 0.033975
      vertex -2.02254 -1.46946 0.033975
      vertex -1.42658 -0.463525 0.033975
    endloop
  endfacet
  facet normal 0 0 -1
    outer loop
      vertex -2.37764 -0.772542 0.033975
      vertex -1.42658 -0.463525 0.033975
      vertex -2.02254 -1.46946 0.033975
    endloop
  endfacet
  facet normal 0 0 -1
    outer loop
      vertex 1.5 0 0.033975
      vertex 2.5 0 0.033975
      vertex 2.37764 -0.772542 0.033975
    endloop
  endfacet
  facet normal 0 0 -1
    outer loop
      vertex 1.42658 -0.463525 0.033975
      vertex 2.37764 -0.772542 0.033975
      vertex 2.02254 -1.46946 0.033975
    endloop
  endfacet
  facet normal 0 0 -1
    outer loop
      vertex 2.5 0 0.033975
      vertex 1.5 0 0.033975
      vertex 2.37764 0.772542 0.033975
    endloop
  endfacet
  facet normal 0 0 -1
    outer loop
      vertex 1.42658 0.463525 0.033975
      vertex 2.37764 0.772542 0.033975
      vertex 1.5 0 0.033975
    endloop
  endfacet
  facet normal 0 0 -1
    outer loop
      vertex 1.21352 -0.881678 0.033975
      vertex 2.02254 -1.46946 0.033975
      vertex 1.46946 -2.02254 0.033975
    endloop
  endfacet
  facet normal 0 0 -1
    outer loop
      vertex 2.37764 -0.772542 0.033975
      vertex 1.42658 -0.463525 0.033975
      vertex 1.5 0 0.033975
    endloop
  endfacet
  facet normal 0 0 -1
    outer loop
      vertex 2.02254 -1.46946 0.033975
      vertex 1.21352 -0.881678 0.033975
      vertex 1.42658 -0.463525 0.033975
    endloop
  endfacet
  facet normal 0 0 -1
    outer loop
      vertex 1.46946 -2.02254 0.033975
      vertex 0.881678 -1.21352 0.033975
      vertex 1.21352 -0.881678 0.033975
    endloop
  endfacet
  facet normal 0 0 -1
    outer loop
      vertex 0.772542 -2.37764 0.033975
      vertex 0.881678 -1.21352 0.033975
      vertex 1.46946 -2.02254 0.033975
    endloop
  endfacet
  facet normal 0 0 -1
    outer loop
      vertex 0.463525 -1.42658 0.033975
      vertex 0.772542 -2.37764 0.033975
      vertex 0.5 -2.42081 0.033975
    endloop
  endfacet
  facet normal 0 0 -1
    outer loop
      vertex 0.772542 -2.37764 0.033975
      vertex 0.463525 -1.42658 0.033975
      vertex 0.881678 -1.21352 0.033975
    endloop
  endfacet
  facet normal -0 0 -1
    outer loop
      vertex 2.37764 0.772542 0.033975
      vertex 1.42658 0.463525 0.033975
      vertex 2.02254 1.46946 0.033975
    endloop
  endfacet
  facet normal 0 0 -1
    outer loop
      vertex 1.21352 0.881678 0.033975
      vertex 2.02254 1.46946 0.033975
      vertex 1.42658 0.463525 0.033975
    endloop
  endfacet
  facet normal -0 0 -1
    outer loop
      vertex 2.02254 1.46946 0.033975
      vertex 1.21352 0.881678 0.033975
      vertex 1.46946 2.02254 0.033975
    endloop
  endfacet
  facet normal 0 0 -1
    outer loop
      vertex 0.881678 1.21352 0.033975
      vertex 1.46946 2.02254 0.033975
      vertex 1.21352 0.881678 0.033975
    endloop
  endfacet
  facet normal 0 0 -1
    outer loop
      vertex 0.881678 1.21352 0.033975
      vertex 0.772542 2.37764 0.033975
      vertex 1.46946 2.02254 0.033975
    endloop
  endfacet
  facet normal 0 0 -1
    outer loop
      vertex 0.463525 1.42658 0.033975
      vertex 0.772542 2.37764 0.033975
      vertex 0.881678 1.21352 0.033975
    endloop
  endfacet
  facet normal 0 0 -1
    outer loop
      vertex 0 1.5 0.033975
      vertex 0.772542 2.37764 0.033975
      vertex 0.463525 1.42658 0.033975
    endloop
  endfacet
  facet normal 0 0 -1
    outer loop
      vertex 0 1.5 0.033975
      vertex 0 2.5 0.033975
      vertex 0.772542 2.37764 0.033975
    endloop
  endfacet
  facet normal 0 0 -1
    outer loop
      vertex -0.463525 1.42658 0.033975
      vertex 0 2.5 0.033975
      vertex 0 1.5 0.033975
    endloop
  endfacet
  facet normal 0 0 -1
    outer loop
      vertex -0.463525 1.42658 0.033975
      vertex -0.772542 2.37764 0.033975
      vertex 0 2.5 0.033975
    endloop
  endfacet
  facet normal 0 0 -1
    outer loop
      vertex -0.881678 1.21352 0.033975
      vertex -0.772542 2.37764 0.033975
      vertex -0.463525 1.42658 0.033975
    endloop
  endfacet
  facet normal 0 0 -1
    outer loop
      vertex -1.46946 2.02254 0.033975
      vertex -0.881678 1.21352 0.033975
      vertex -1.21352 0.881678 0.033975
    endloop
  endfacet
  facet normal 0 0 -1
    outer loop
      vertex -2.02254 1.46946 0.033975
      vertex -1.21352 0.881678 0.033975
      vertex -1.42658 0.463525 0.033975
    endloop
  endfacet
  facet normal 0 0 -1
    outer loop
      vertex -0.881678 1.21352 0.033975
      vertex -1.46946 2.02254 0.033975
      vertex -0.772542 2.37764 0.033975
    endloop
  endfacet
  facet normal 0 0 -1
    outer loop
      vertex -2.37764 0.772542 0.033975
      vertex -1.42658 0.463525 0.033975
      vertex -1.5 0 0.033975
    endloop
  endfacet
  facet normal -0 0 -1
    outer loop
      vertex -1.42658 -0.463525 0.033975
      vertex -2.37764 -0.772542 0.033975
      vertex -1.5 0 0.033975
    endloop
  endfacet
  facet normal 0 0 -1
    outer loop
      vertex -1.21352 0.881678 0.033975
      vertex -2.02254 1.46946 0.033975
      vertex -1.46946 2.02254 0.033975
    endloop
  endfacet
  facet normal 0 0 -1
    outer loop
      vertex -2.5 0 0.033975
      vertex -1.5 0 0.033975
      vertex -2.37764 -0.772542 0.033975
    endloop
  endfacet
  facet normal 0 0 -1
    outer loop
      vertex -1.42658 0.463525 0.033975
      vertex -2.37764 0.772542 0.033975
      vertex -2.02254 1.46946 0.033975
    endloop
  endfacet
  facet normal 0 0 -1
    outer loop
      vertex -1.5 0 0.033975
      vertex -2.5 0 0.033975
      vertex -2.37764 0.772542 0.033975
    endloop
  endfacet
  facet normal -0.857992 0.135892 -0.495362
    outer loop
      vertex -2.85317 0.927051 0.9
      vertex -2.5 0 0.033975
      vertex -3 0 0.9
    endloop
  endfacet
  facet normal -0.857991 0.135894 -0.495363
    outer loop
      vertex -2.37764 0.772542 0.033975
      vertex -2.5 0 0.033975
      vertex -2.85317 0.927051 0.9
    endloop
  endfacet
  facet normal -0.774003 0.394377 0.495365
    outer loop
      vertex -2.37764 0.772542 1.76602
      vertex -2.02254 1.46946 1.76602
      vertex -2.85317 0.927051 0.9
    endloop
  endfacet
  facet normal -0.774003 0.394373 0.495368
    outer loop
      vertex -2.02254 1.46946 1.76602
      vertex -2.42705 1.76336 0.9
      vertex -2.85317 0.927051 0.9
    endloop
  endfacet
  facet normal 0.774006 -0.394376 0.495361
    outer loop
      vertex -0.951056 0.309016 0.9
      vertex -0.809016 0.587785 0.9
      vertex -1.42658 0.463525 1.76602
    endloop
  endfacet
  facet normal 0.774006 -0.394376 0.495361
    outer loop
      vertex -0.809016 0.587785 0.9
      vertex -1.21352 0.881678 1.76602
      vertex -1.42658 0.463525 1.76602
    endloop
  endfacet
  facet normal 0.774007 -0.394377 -0.495359
    outer loop
      vertex -1.21352 0.881678 0.033975
      vertex -0.951056 0.309016 0.9
      vertex -1.42658 0.463525 0.033975
    endloop
  endfacet
  facet normal 0.774007 -0.394376 -0.495359
    outer loop
      vertex -0.809016 0.587785 0.9
      vertex -0.951056 0.309016 0.9
      vertex -1.21352 0.881678 0.033975
    endloop
  endfacet
  facet normal -0.774005 0.394375 -0.495363
    outer loop
      vertex -2.42705 1.76336 0.9
      vertex -2.37764 0.772542 0.033975
      vertex -2.85317 0.927051 0.9
    endloop
  endfacet
  facet normal -0.774002 0.394377 -0.495366
    outer loop
      vertex -2.02254 1.46946 0.033975
      vertex -2.37764 0.772542 0.033975
      vertex -2.42705 1.76336 0.9
    endloop
  endfacet
  facet normal -0.614251 0.614251 0.495369
    outer loop
      vertex -2.42705 1.76336 0.9
      vertex -1.46946 2.02254 1.76602
      vertex -1.76336 2.42705 0.9
    endloop
  endfacet
  facet normal -0.614251 0.614251 0.495369
    outer loop
      vertex -1.46946 2.02254 1.76602
      vertex -2.42705 1.76336 0.9
      vertex -2.02254 1.46946 1.76602
    endloop
  endfacet
  facet normal 0.614254 -0.614254 0.495362
    outer loop
      vertex -1.21352 0.881678 1.76602
      vertex -0.587785 0.809016 0.9
      vertex -0.881678 1.21352 1.76602
    endloop
  endfacet
  facet normal 0.614254 -0.614254 0.495362
    outer loop
      vertex -0.587785 0.809016 0.9
      vertex -1.21352 0.881678 1.76602
      vertex -0.809016 0.587785 0.9
    endloop
  endfacet
  facet normal 0.614255 -0.614255 -0.49536
    outer loop
      vertex -0.881678 1.21352 0.033975
      vertex -0.809016 0.587785 0.9
      vertex -1.21352 0.881678 0.033975
    endloop
  endfacet
  facet normal 0.614255 -0.614255 -0.49536
    outer loop
      vertex -0.809016 0.587785 0.9
      vertex -0.881678 1.21352 0.033975
      vertex -0.587785 0.809016 0.9
    endloop
  endfacet
  facet normal -0.614252 0.614252 -0.495367
    outer loop
      vertex -1.46946 2.02254 0.033975
      vertex -2.42705 1.76336 0.9
      vertex -1.76336 2.42705 0.9
    endloop
  endfacet
  facet normal -0.614252 0.614252 -0.495367
    outer loop
      vertex -2.42705 1.76336 0.9
      vertex -1.46946 2.02254 0.033975
      vertex -2.02254 1.46946 0.033975
    endloop
  endfacet
  facet normal -0.394376 0.774001 0.495368
    outer loop
      vertex -1.46946 2.02254 1.76602
      vertex -0.772542 2.37764 1.76602
      vertex -1.76336 2.42705 0.9
    endloop
  endfacet
  facet normal -0.394374 0.774004 0.495366
    outer loop
      vertex -0.772542 2.37764 1.76602
      vertex -0.927051 2.85317 0.9
      vertex -1.76336 2.42705 0.9
    endloop
  endfacet
  facet normal 0.394376 -0.774006 0.495361
    outer loop
      vertex -0.587785 0.809016 0.9
      vertex -0.309016 0.951056 0.9
      vertex -0.881678 1.21352 1.76602
    endloop
  endfacet
  facet normal 0.394376 -0.774005 0.495361
    outer loop
      vertex -0.309016 0.951056 0.9
      vertex -0.463525 1.42658 1.76602
      vertex -0.881678 1.21352 1.76602
    endloop
  endfacet
  facet normal 0.394377 -0.774007 -0.495359
    outer loop
      vertex -0.463525 1.42658 0.033975
      vertex -0.587785 0.809016 0.9
      vertex -0.881678 1.21352 0.033975
    endloop
  endfacet
  facet normal 0.394376 -0.774007 -0.495359
    outer loop
      vertex -0.463525 1.42658 0.033975
      vertex -0.309016 0.951056 0.9
      vertex -0.587785 0.809016 0.9
    endloop
  endfacet
  facet normal -0.394374 0.774004 -0.495365
    outer loop
      vertex -0.927051 2.85317 0.9
      vertex -1.46946 2.02254 0.033975
      vertex -1.76336 2.42705 0.9
    endloop
  endfacet
  facet normal -0.394377 0.774004 -0.495363
    outer loop
      vertex -0.927051 2.85317 0.9
      vertex -0.772542 2.37764 0.033975
      vertex -1.46946 2.02254 0.033975
    endloop
  endfacet
  facet normal -0.135894 0.857989 0.495366
    outer loop
      vertex -0.772542 2.37764 1.76602
      vertex 0 2.5 1.76602
      vertex -0.927051 2.85317 0.9
    endloop
  endfacet
  facet normal -0.135892 0.857991 0.495364
    outer loop
      vertex 0 2.5 1.76602
      vertex 0 3 0.9
      vertex -0.927051 2.85317 0.9
    endloop
  endfacet
  facet normal 0.135894 -0.857992 0.495361
    outer loop
      vertex -0.309016 0.951056 0.9
      vertex 0 1 0.9
      vertex -0.463525 1.42658 1.76602
    endloop
  endfacet
  facet normal 0.135901 -0.857989 0.495364
    outer loop
      vertex 0 1 0.9
      vertex 0 1.5 1.76602
      vertex -0.463525 1.42658 1.76602
    endloop
  endfacet
  facet normal 0.135902 -0.857992 -0.495359
    outer loop
      vertex 0 1.5 0.033975
      vertex -0.309016 0.951056 0.9
      vertex -0.463525 1.42658 0.033975
    endloop
  endfacet
  facet normal 0.135894 -0.857991 -0.495362
    outer loop
      vertex 0 1.5 0.033975
      vertex 0 1 0.9
      vertex -0.309016 0.951056 0.9
    endloop
  endfacet
  facet normal -0.135892 0.857991 -0.495363
    outer loop
      vertex 0 3 0.9
      vertex -0.772542 2.37764 0.033975
      vertex -0.927051 2.85317 0.9
    endloop
  endfacet
  facet normal -0.135894 0.857992 -0.495362
    outer loop
      vertex 0 3 0.9
      vertex 0 2.5 0.033975
      vertex -0.772542 2.37764 0.033975
    endloop
  endfacet
  facet normal 0.135894 0.85799 0.495364
    outer loop
      vertex 0.772542 2.37764 1.76602
      vertex 0 3 0.9
      vertex 0 2.5 1.76602
    endloop
  endfacet
  facet normal 0.135892 0.85799 0.495365
    outer loop
      vertex 0.772542 2.37764 1.76602
      vertex 0.927051 2.85317 0.9
      vertex 0 3 0.9
    endloop
  endfacet
  facet normal -0.135894 -0.85799 0.495364
    outer loop
      vertex 0.309016 0.951056 0.9
      vertex 0 1.5 1.76602
      vertex 0 1 0.9
    endloop
  endfacet
  facet normal -0.135901 -0.857991 0.495362
    outer loop
      vertex 0.309016 0.951056 0.9
      vertex 0.463525 1.42658 1.76602
      vertex 0 1.5 1.76602
    endloop
  endfacet
  facet normal -0.135901 -0.857991 -0.495361
    outer loop
      vertex 0 1.5 0.033975
      vertex 0.463525 1.42658 0.033975
      vertex 0 1 0.9
    endloop
  endfacet
  facet normal -0.135895 -0.857993 -0.495359
    outer loop
      vertex 0.463525 1.42658 0.033975
      vertex 0.309016 0.951056 0.9
      vertex 0 1 0.9
    endloop
  endfacet
  facet normal 0.135892 0.857992 -0.495362
    outer loop
      vertex 0 3 0.9
      vertex 0.927051 2.85317 0.9
      vertex 0 2.5 0.033975
    endloop
  endfacet
  facet normal 0.135894 0.857991 -0.495363
    outer loop
      vertex 0.927051 2.85317 0.9
      vertex 0.772542 2.37764 0.033975
      vertex 0 2.5 0.033975
    endloop
  endfacet
  facet normal 0.394377 0.774003 0.495365
    outer loop
      vertex 1.46946 2.02254 1.76602
      vertex 0.927051 2.85317 0.9
      vertex 0.772542 2.37764 1.76602
    endloop
  endfacet
  facet normal 0.394373 0.774003 0.495368
    outer loop
      vertex 1.46946 2.02254 1.76602
      vertex 1.76336 2.42705 0.9
      vertex 0.927051 2.85317 0.9
    endloop
  endfacet
  facet normal -0.394376 -0.774006 0.495361
    outer loop
      vertex 0.587785 0.809016 0.9
      vertex 0.463525 1.42658 1.76602
      vertex 0.309016 0.951056 0.9
    endloop
  endfacet
  facet normal -0.394376 -0.774006 0.495361
    outer loop
      vertex 0.587785 0.809016 0.9
      vertex 0.881678 1.21352 1.76602
      vertex 0.463525 1.42658 1.76602
    endloop
  endfacet
  facet normal -0.394377 -0.774007 -0.495359
    outer loop
      vertex 0.463525 1.42658 0.033975
      vertex 0.881678 1.21352 0.033975
      vertex 0.309016 0.951056 0.9
    endloop
  endfacet
  facet normal -0.394376 -0.774007 -0.495359
    outer loop
      vertex 0.881678 1.21352 0.033975
      vertex 0.587785 0.809016 0.9
      vertex 0.309016 0.951056 0.9
    endloop
  endfacet
  facet normal 0.394375 0.774005 -0.495363
    outer loop
      vertex 0.927051 2.85317 0.9
      vertex 1.76336 2.42705 0.9
      vertex 0.772542 2.37764 0.033975
    endloop
  endfacet
  facet normal 0.394377 0.774002 -0.495366
    outer loop
      vertex 1.76336 2.42705 0.9
      vertex 1.46946 2.02254 0.033975
      vertex 0.772542 2.37764 0.033975
    endloop
  endfacet
  facet normal 0.614251 0.614251 0.495369
    outer loop
      vertex 1.46946 2.02254 1.76602
      vertex 2.42705 1.76336 0.9
      vertex 1.76336 2.42705 0.9
    endloop
  endfacet
  facet normal 0.614251 0.614251 0.495369
    outer loop
      vertex 2.42705 1.76336 0.9
      vertex 1.46946 2.02254 1.76602
      vertex 2.02254 1.46946 1.76602
    endloop
  endfacet
  facet normal -0.614254 -0.614254 0.495362
    outer loop
      vertex 0.587785 0.809016 0.9
      vertex 1.21352 0.881678 1.76602
      vertex 0.881678 1.21352 1.76602
    endloop
  endfacet
  facet normal -0.614254 -0.614254 0.495362
    outer loop
      vertex 1.21352 0.881678 1.76602
      vertex 0.587785 0.809016 0.9
      vertex 0.809016 0.587785 0.9
    endloop
  endfacet
  facet normal -0.614255 -0.614255 -0.49536
    outer loop
      vertex 1.21352 0.881678 0.033975
      vertex 0.587785 0.809016 0.9
      vertex 0.881678 1.21352 0.033975
    endloop
  endfacet
  facet normal -0.614255 -0.614255 -0.49536
    outer loop
      vertex 0.587785 0.809016 0.9
      vertex 1.21352 0.881678 0.033975
      vertex 0.809016 0.587785 0.9
    endloop
  endfacet
  facet normal 0.614252 0.614252 -0.495367
    outer loop
      vertex 2.42705 1.76336 0.9
      vertex 1.46946 2.02254 0.033975
      vertex 1.76336 2.42705 0.9
    endloop
  endfacet
  facet normal 0.614252 0.614252 -0.495367
    outer loop
      vertex 1.46946 2.02254 0.033975
      vertex 2.42705 1.76336 0.9
      vertex 2.02254 1.46946 0.033975
    endloop
  endfacet
  facet normal 0.774001 0.394376 0.495368
    outer loop
      vertex 2.37764 0.772542 1.76602
      vertex 2.42705 1.76336 0.9
      vertex 2.02254 1.46946 1.76602
    endloop
  endfacet
  facet normal 0.774004 0.394374 0.495366
    outer loop
      vertex 2.85317 0.927051 0.9
      vertex 2.42705 1.76336 0.9
      vertex 2.37764 0.772542 1.76602
    endloop
  endfacet
  facet normal -0.774006 -0.394376 0.495361
    outer loop
      vertex 0.951056 0.309016 0.9
      vertex 1.21352 0.881678 1.76602
      vertex 0.809016 0.587785 0.9
    endloop
  endfacet
  facet normal -0.774005 -0.394376 0.495361
    outer loop
      vertex 1.42658 0.463525 1.76602
      vertex 1.21352 0.881678 1.76602
      vertex 0.951056 0.309016 0.9
    endloop
  endfacet
  facet normal -0.774007 -0.394377 -0.495359
    outer loop
      vertex 1.21352 0.881678 0.033975
      vertex 1.42658 0.463525 0.033975
      vertex 0.809016 0.587785 0.9
    endloop
  endfacet
  facet normal -0.774007 -0.394376 -0.495359
    outer loop
      vertex 1.42658 0.463525 0.033975
      vertex 0.951056 0.309016 0.9
      vertex 0.809016 0.587785 0.9
    endloop
  endfacet
  facet normal 0.774004 0.394374 -0.495365
    outer loop
      vertex 2.42705 1.76336 0.9
      vertex 2.85317 0.927051 0.9
      vertex 2.02254 1.46946 0.033975
    endloop
  endfacet
  facet normal 0.774004 0.394377 -0.495363
    outer loop
      vertex 2.85317 0.927051 0.9
      vertex 2.37764 0.772542 0.033975
      vertex 2.02254 1.46946 0.033975
    endloop
  endfacet
  facet normal 0.857989 0.135894 0.495366
    outer loop
      vertex 2.5 0 1.76602
      vertex 2.85317 0.927051 0.9
      vertex 2.37764 0.772542 1.76602
    endloop
  endfacet
  facet normal 0.857991 0.135892 0.495364
    outer loop
      vertex 3 0 0.9
      vertex 2.85317 0.927051 0.9
      vertex 2.5 0 1.76602
    endloop
  endfacet
  facet normal -0.857992 -0.135894 0.495361
    outer loop
      vertex 1 0 0.9
      vertex 1.42658 0.463525 1.76602
      vertex 0.951056 0.309016 0.9
    endloop
  endfacet
  facet normal -0.857989 -0.135901 0.495364
    outer loop
      vertex 1.5 0 1.76602
      vertex 1.42658 0.463525 1.76602
      vertex 1 0 0.9
    endloop
  endfacet
  facet normal -0.857992 -0.135902 -0.495359
    outer loop
      vertex 1.42658 0.463525 0.033975
      vertex 1.5 0 0.033975
      vertex 0.951056 0.309016 0.9
    endloop
  endfacet
  facet normal -0.857991 -0.135894 -0.495362
    outer loop
      vertex 1.5 0 0.033975
      vertex 1 0 0.9
      vertex 0.951056 0.309016 0.9
    endloop
  endfacet
  facet normal 0.857991 0.135892 -0.495363
    outer loop
      vertex 2.85317 0.927051 0.9
      vertex 3 0 0.9
      vertex 2.37764 0.772542 0.033975
    endloop
  endfacet
  facet normal 0.857992 0.135894 -0.495362
    outer loop
      vertex 3 0 0.9
      vertex 2.5 0 0.033975
      vertex 2.37764 0.772542 0.033975
    endloop
  endfacet
  facet normal 0.85799 -0.135894 0.495364
    outer loop
      vertex 3 0 0.9
      vertex 2.5 0 1.76602
      vertex 2.37764 -0.772542 1.76602
    endloop
  endfacet
  facet normal 0.85799 -0.135892 0.495365
    outer loop
      vertex 2.85317 -0.927051 0.9
      vertex 3 0 0.9
      vertex 2.37764 -0.772542 1.76602
    endloop
  endfacet
  facet normal -0.85799 0.135894 0.495364
    outer loop
      vertex 1.5 0 1.76602
      vertex 1 0 0.9
      vertex 0.951056 -0.309016 0.9
    endloop
  endfacet
  facet normal -0.857991 0.135901 0.495362
    outer loop
      vertex 1.42658 -0.463525 1.76602
      vertex 1.5 0 1.76602
      vertex 0.951056 -0.309016 0.9
    endloop
  endfacet
  facet normal -0.857991 0.135901 -0.495361
    outer loop
      vertex 1.5 0 0.033975
      vertex 1.42658 -0.463525 0.033975
      vertex 1 0 0.9
    endloop
  endfacet
  facet normal -0.857993 0.135895 -0.495359
    outer loop
      vertex 1 0 0.9
      vertex 1.42658 -0.463525 0.033975
      vertex 0.951056 -0.309016 0.9
    endloop
  endfacet
  facet normal 0.857992 -0.135892 -0.495362
    outer loop
      vertex 3 0 0.9
      vertex 2.85317 -0.927051 0.9
      vertex 2.5 0 0.033975
    endloop
  endfacet
  facet normal 0.857991 -0.135894 -0.495363
    outer loop
      vertex 2.5 0 0.033975
      vertex 2.85317 -0.927051 0.9
      vertex 2.37764 -0.772542 0.033975
    endloop
  endfacet
  facet normal 0.774003 -0.394377 0.495365
    outer loop
      vertex 2.85317 -0.927051 0.9
      vertex 2.37764 -0.772542 1.76602
      vertex 2.02254 -1.46946 1.76602
    endloop
  endfacet
  facet normal 0.774003 -0.394373 0.495368
    outer loop
      vertex 2.42705 -1.76336 0.9
      vertex 2.85317 -0.927051 0.9
      vertex 2.02254 -1.46946 1.76602
    endloop
  endfacet
  facet normal -0.774006 0.394376 0.495361
    outer loop
      vertex 1.42658 -0.463525 1.76602
      vertex 0.951056 -0.309016 0.9
      vertex 0.809016 -0.587785 0.9
    endloop
  endfacet
  facet normal -0.774006 0.394376 0.495361
    outer loop
      vertex 1.21352 -0.881678 1.76602
      vertex 1.42658 -0.463525 1.76602
      vertex 0.809016 -0.587785 0.9
    endloop
  endfacet
  facet normal -0.774007 0.394377 -0.495359
    outer loop
      vertex 1.42658 -0.463525 0.033975
      vertex 1.21352 -0.881678 0.033975
      vertex 0.951056 -0.309016 0.9
    endloop
  endfacet
  facet normal -0.774007 0.394376 -0.495359
    outer loop
      vertex 0.951056 -0.309016 0.9
      vertex 1.21352 -0.881678 0.033975
      vertex 0.809016 -0.587785 0.9
    endloop
  endfacet
  facet normal 0.774005 -0.394375 -0.495363
    outer loop
      vertex 2.85317 -0.927051 0.9
      vertex 2.42705 -1.76336 0.9
      vertex 2.37764 -0.772542 0.033975
    endloop
  endfacet
  facet normal 0.774002 -0.394377 -0.495366
    outer loop
      vertex 2.37764 -0.772542 0.033975
      vertex 2.42705 -1.76336 0.9
      vertex 2.02254 -1.46946 0.033975
    endloop
  endfacet
  facet normal 0.614251 -0.614251 0.495369
    outer loop
      vertex 1.46946 -2.02254 1.76602
      vertex 2.42705 -1.76336 0.9
      vertex 2.02254 -1.46946 1.76602
    endloop
  endfacet
  facet normal 0.614251 -0.614251 0.495369
    outer loop
      vertex 2.42705 -1.76336 0.9
      vertex 1.46946 -2.02254 1.76602
      vertex 1.76336 -2.42705 0.9
    endloop
  endfacet
  facet normal -0.614254 0.614254 0.495362
    outer loop
      vertex 0.587785 -0.809016 0.9
      vertex 1.21352 -0.881678 1.76602
      vertex 0.809016 -0.587785 0.9
    endloop
  endfacet
  facet normal -0.614254 0.614254 0.495362
    outer loop
      vertex 1.21352 -0.881678 1.76602
      vertex 0.587785 -0.809016 0.9
      vertex 0.881678 -1.21352 1.76602
    endloop
  endfacet
  facet normal -0.614255 0.614255 -0.49536
    outer loop
      vertex 0.881678 -1.21352 0.033975
      vertex 0.809016 -0.587785 0.9
      vertex 1.21352 -0.881678 0.033975
    endloop
  endfacet
  facet normal -0.614255 0.614255 -0.49536
    outer loop
      vertex 0.809016 -0.587785 0.9
      vertex 0.881678 -1.21352 0.033975
      vertex 0.587785 -0.809016 0.9
    endloop
  endfacet
  facet normal 0.614252 -0.614252 -0.495367
    outer loop
      vertex 2.42705 -1.76336 0.9
      vertex 1.46946 -2.02254 0.033975
      vertex 2.02254 -1.46946 0.033975
    endloop
  endfacet
  facet normal 0.614252 -0.614252 -0.495367
    outer loop
      vertex 1.46946 -2.02254 0.033975
      vertex 2.42705 -1.76336 0.9
      vertex 1.76336 -2.42705 0.9
    endloop
  endfacet
  facet normal 0.394376 -0.774001 0.495368
    outer loop
      vertex 1.76336 -2.42705 0.9
      vertex 1.46946 -2.02254 1.76602
      vertex 0.772542 -2.37764 1.76602
    endloop
  endfacet
  facet normal 0.394373 -0.774003 0.495368
    outer loop
      vertex 1.76336 -2.42705 0.9
      vertex 0.894427 -2.75276 1.08286
      vertex 1 -2.816 0.9
    endloop
  endfacet
  facet normal 0.394373 -0.774005 0.495364
    outer loop
      vertex 0.894427 -2.75276 1.08286
      vertex 1.76336 -2.42705 0.9
      vertex 0.772542 -2.37764 1.76602
    endloop
  endfacet
  facet normal -0.394376 0.774006 0.495361
    outer loop
      vertex 0.881678 -1.21352 1.76602
      vertex 0.587785 -0.809016 0.9
      vertex 0.309016 -0.951056 0.9
    endloop
  endfacet
  facet normal -0.394376 0.774005 0.495361
    outer loop
      vertex 0.463525 -1.42658 1.76602
      vertex 0.881678 -1.21352 1.76602
      vertex 0.309016 -0.951056 0.9
    endloop
  endfacet
  facet normal -0.394377 0.774007 -0.495359
    outer loop
      vertex 0.587785 -0.809016 0.9
      vertex 0.881678 -1.21352 0.033975
      vertex 0.463525 -1.42658 0.033975
    endloop
  endfacet
  facet normal -0.394376 0.774007 -0.495359
    outer loop
      vertex 0.587785 -0.809016 0.9
      vertex 0.463525 -1.42658 0.033975
      vertex 0.309016 -0.951056 0.9
    endloop
  endfacet
  facet normal 0.394372 -0.774001 -0.495372
    outer loop
      vertex 0.965009 -2.79504 0.839394
      vertex 1.76336 -2.42705 0.9
      vertex 1 -2.816 0.9
    endloop
  endfacet
  facet normal 0.394373 -0.774005 -0.495365
    outer loop
      vertex 1.76336 -2.42705 0.9
      vertex 0.965009 -2.79504 0.839394
      vertex 1.46946 -2.02254 0.033975
    endloop
  endfacet
  facet normal 0.394378 -0.774005 -0.49536
    outer loop
      vertex 1.46946 -2.02254 0.033975
      vertex 0.894427 -2.75276 0.717142
      vertex 0.772542 -2.37764 0.033975
    endloop
  endfacet
  facet normal 0.394366 -0.774005 -0.495371
    outer loop
      vertex 0.894427 -2.75276 0.717142
      vertex 1.46946 -2.02254 0.033975
      vertex 0.965009 -2.79504 0.839394
    endloop
  endfacet
  facet normal 0.135903 -0.857989 0.495365
    outer loop
      vertex 0.894427 -2.75276 1.08286
      vertex 0.772542 -2.37764 1.76602
      vertex 0.5 -2.42081 1.76602
    endloop
  endfacet
  facet normal -0.135894 0.857992 0.495361
    outer loop
      vertex 0.463525 -1.42658 1.76602
      vertex 0.309016 -0.951056 0.9
      vertex 0 -1 0.9
    endloop
  endfacet
  facet normal -0.135901 0.857989 0.495364
    outer loop
      vertex 0.463525 -1.42658 1.76602
      vertex 0 -1 0.9
      vertex 0 -1.5 1.76602
    endloop
  endfacet
  facet normal -0.135902 0.857992 -0.495359
    outer loop
      vertex 0.309016 -0.951056 0.9
      vertex 0.463525 -1.42658 0.033975
      vertex 0 -1.5 0.033975
    endloop
  endfacet
  facet normal -0.135894 0.857991 -0.495362
    outer loop
      vertex 0 -1 0.9
      vertex 0.309016 -0.951056 0.9
      vertex 0 -1.5 0.033975
    endloop
  endfacet
  facet normal 0.135889 -0.857994 -0.49536
    outer loop
      vertex 0.772542 -2.37764 0.033975
      vertex 0.894427 -2.75276 0.717142
      vertex 0.607086 -2.51093 0.219453
    endloop
  endfacet
  facet normal 0.135905 -0.857998 -0.495348
    outer loop
      vertex 0.772542 -2.37764 0.033975
      vertex 0.607086 -2.51093 0.219453
      vertex 0.5 -2.42081 0.033975
    endloop
  endfacet
  facet normal -0.135903 -0.857988 0.495365
    outer loop
      vertex -0.607086 -2.51093 1.58055
      vertex -0.5 -2.42081 1.76602
      vertex -0.772542 -2.37764 1.76602
    endloop
  endfacet
  facet normal -0.135903 -0.857988 0.495365
    outer loop
      vertex -0.607086 -2.51093 1.58055
      vertex -0.772542 -2.37764 1.76602
      vertex -0.894427 -2.75276 1.08286
    endloop
  endfacet
  facet normal 0.135894 0.85799 0.495364
    outer loop
      vertex 0 -1.5 1.76602
      vertex 0 -1 0.9
      vertex -0.309016 -0.951056 0.9
    endloop
  endfacet
  facet normal 0.135901 0.857991 0.495362
    outer loop
      vertex 0 -1.5 1.76602
      vertex -0.309016 -0.951056 0.9
      vertex -0.463525 -1.42658 1.76602
    endloop
  endfacet
  facet normal 0.135901 0.857991 -0.495361
    outer loop
      vertex 0 -1 0.9
      vertex 0 -1.5 0.033975
      vertex -0.463525 -1.42658 0.033975
    endloop
  endfacet
  facet normal 0.135895 0.857993 -0.495359
    outer loop
      vertex -0.309016 -0.951056 0.9
      vertex 0 -1 0.9
      vertex -0.463525 -1.42658 0.033975
    endloop
  endfacet
  facet normal -0.135904 -0.857991 -0.495361
    outer loop
      vertex -0.772542 -2.37764 0.033975
      vertex -0.5 -2.42081 0.033975
      vertex -0.894427 -2.75276 0.717142
    endloop
  endfacet
  facet normal -0.394377 -0.774003 0.495364
    outer loop
      vertex -1.46946 -2.02254 1.76602
      vertex -0.894427 -2.75276 1.08286
      vertex -0.772542 -2.37764 1.76602
    endloop
  endfacet
  facet normal -0.394374 -0.774003 0.495367
    outer loop
      vertex -0.894427 -2.75276 1.08286
      vertex -1.46946 -2.02254 1.76602
      vertex -0.965009 -2.79504 0.960606
    endloop
  endfacet
  facet normal -0.394373 -0.774003 0.495368
    outer loop
      vertex -1.76336 -2.42705 0.9
      vertex -0.965009 -2.79504 0.960606
      vertex -1.46946 -2.02254 1.76602
    endloop
  endfacet
  facet normal -0.394372 -0.774001 0.495372
    outer loop
      vertex -0.965009 -2.79504 0.960606
      vertex -1.76336 -2.42705 0.9
      vertex -1 -2.816 0.9
    endloop
  endfacet
  facet normal 0.394376 0.774006 0.495361
    outer loop
      vertex -0.463525 -1.42658 1.76602
      vertex -0.309016 -0.951056 0.9
      vertex -0.587785 -0.809016 0.9
    endloop
  endfacet
  facet normal 0.394376 0.774006 0.495361
    outer loop
      vertex -0.463525 -1.42658 1.76602
      vertex -0.587785 -0.809016 0.9
      vertex -0.881678 -1.21352 1.76602
    endloop
  endfacet
  facet normal 0.394377 0.774007 -0.495359
    outer loop
      vertex -0.309016 -0.951056 0.9
      vertex -0.463525 -1.42658 0.033975
      vertex -0.881678 -1.21352 0.033975
    endloop
  endfacet
  facet normal 0.394376 0.774007 -0.495359
    outer loop
      vertex -0.587785 -0.809016 0.9
      vertex -0.309016 -0.951056 0.9
      vertex -0.881678 -1.21352 0.033975
    endloop
  endfacet
  facet normal -0.394372 -0.774001 -0.495372
    outer loop
      vertex -1.76336 -2.42705 0.9
      vertex -0.894427 -2.75276 0.717142
      vertex -1 -2.816 0.9
    endloop
  endfacet
  facet normal -0.394372 -0.774008 -0.495361
    outer loop
      vertex -0.894427 -2.75276 0.717142
      vertex -1.76336 -2.42705 0.9
      vertex -0.772542 -2.37764 0.033975
    endloop
  endfacet
  facet normal -0.394377 -0.774002 -0.495366
    outer loop
      vertex -1.46946 -2.02254 0.033975
      vertex -0.772542 -2.37764 0.033975
      vertex -1.76336 -2.42705 0.9
    endloop
  endfacet
  facet normal -0.614251 -0.614251 0.495369
    outer loop
      vertex -2.42705 -1.76336 0.9
      vertex -1.46946 -2.02254 1.76602
      vertex -2.02254 -1.46946 1.76602
    endloop
  endfacet
  facet normal -0.614251 -0.614251 0.495369
    outer loop
      vertex -1.46946 -2.02254 1.76602
      vertex -2.42705 -1.76336 0.9
      vertex -1.76336 -2.42705 0.9
    endloop
  endfacet
  facet normal 0.614254 0.614254 0.495362
    outer loop
      vertex -1.21352 -0.881678 1.76602
      vertex -0.587785 -0.809016 0.9
      vertex -0.809016 -0.587785 0.9
    endloop
  endfacet
  facet normal 0.614254 0.614254 0.495362
    outer loop
      vertex -0.587785 -0.809016 0.9
      vertex -1.21352 -0.881678 1.76602
      vertex -0.881678 -1.21352 1.76602
    endloop
  endfacet
  facet normal 0.614255 0.614255 -0.49536
    outer loop
      vertex -0.881678 -1.21352 0.033975
      vertex -0.809016 -0.587785 0.9
      vertex -0.587785 -0.809016 0.9
    endloop
  endfacet
  facet normal 0.614255 0.614255 -0.49536
    outer loop
      vertex -0.809016 -0.587785 0.9
      vertex -0.881678 -1.21352 0.033975
      vertex -1.21352 -0.881678 0.033975
    endloop
  endfacet
  facet normal -0.614252 -0.614252 -0.495367
    outer loop
      vertex -1.46946 -2.02254 0.033975
      vertex -2.42705 -1.76336 0.9
      vertex -2.02254 -1.46946 0.033975
    endloop
  endfacet
  facet normal -0.614252 -0.614252 -0.495367
    outer loop
      vertex -2.42705 -1.76336 0.9
      vertex -1.46946 -2.02254 0.033975
      vertex -1.76336 -2.42705 0.9
    endloop
  endfacet
  facet normal -0.774001 -0.394376 0.495368
    outer loop
      vertex -2.02254 -1.46946 1.76602
      vertex -2.37764 -0.772542 1.76602
      vertex -2.42705 -1.76336 0.9
    endloop
  endfacet
  facet normal -0.774004 -0.394374 0.495366
    outer loop
      vertex -2.42705 -1.76336 0.9
      vertex -2.37764 -0.772542 1.76602
      vertex -2.85317 -0.927051 0.9
    endloop
  endfacet
  facet normal 0.774006 0.394376 0.495361
    outer loop
      vertex -0.809016 -0.587785 0.9
      vertex -0.951056 -0.309016 0.9
      vertex -1.21352 -0.881678 1.76602
    endloop
  endfacet
  facet normal 0.774005 0.394376 0.495361
    outer loop
      vertex -1.21352 -0.881678 1.76602
      vertex -0.951056 -0.309016 0.9
      vertex -1.42658 -0.463525 1.76602
    endloop
  endfacet
  facet normal 0.774007 0.394377 -0.495359
    outer loop
      vertex -0.809016 -0.587785 0.9
      vertex -1.21352 -0.881678 0.033975
      vertex -1.42658 -0.463525 0.033975
    endloop
  endfacet
  facet normal 0.774007 0.394376 -0.495359
    outer loop
      vertex -0.951056 -0.309016 0.9
      vertex -0.809016 -0.587785 0.9
      vertex -1.42658 -0.463525 0.033975
    endloop
  endfacet
  facet normal -0.774004 -0.394374 -0.495365
    outer loop
      vertex -2.02254 -1.46946 0.033975
      vertex -2.42705 -1.76336 0.9
      vertex -2.85317 -0.927051 0.9
    endloop
  endfacet
  facet normal -0.774004 -0.394377 -0.495363
    outer loop
      vertex -2.37764 -0.772542 0.033975
      vertex -2.02254 -1.46946 0.033975
      vertex -2.85317 -0.927051 0.9
    endloop
  endfacet
  facet normal -0.857989 -0.135894 0.495366
    outer loop
      vertex -2.37764 -0.772542 1.76602
      vertex -2.5 0 1.76602
      vertex -2.85317 -0.927051 0.9
    endloop
  endfacet
  facet normal -0.857991 -0.135892 0.495364
    outer loop
      vertex -2.85317 -0.927051 0.9
      vertex -2.5 0 1.76602
      vertex -3 0 0.9
    endloop
  endfacet
  facet normal 0 0 1
    outer loop
      vertex -0.463525 -1.42658 1.76602
      vertex -0.772542 -2.37764 1.76602
      vertex -0.5 -2.42081 1.76602
    endloop
  endfacet
  facet normal 0 0 1
    outer loop
      vertex -0.881678 -1.21352 1.76602
      vertex -0.772542 -2.37764 1.76602
      vertex -0.463525 -1.42658 1.76602
    endloop
  endfacet
  facet normal 0 0 1
    outer loop
      vertex -1.46946 -2.02254 1.76602
      vertex -0.881678 -1.21352 1.76602
      vertex -1.21352 -0.881678 1.76602
    endloop
  endfacet
  facet normal 0 0 1
    outer loop
      vertex -2.02254 -1.46946 1.76602
      vertex -1.21352 -0.881678 1.76602
      vertex -1.42658 -0.463525 1.76602
    endloop
  endfacet
  facet normal 0 0 1
    outer loop
      vertex -0.881678 -1.21352 1.76602
      vertex -1.46946 -2.02254 1.76602
      vertex -0.772542 -2.37764 1.76602
    endloop
  endfacet
  facet normal 0 0 1
    outer loop
      vertex -2.37764 -0.772542 1.76602
      vertex -1.42658 -0.463525 1.76602
      vertex -1.5 0 1.76602
    endloop
  endfacet
  facet normal 0 0 1
    outer loop
      vertex -1.42658 0.463525 1.76602
      vertex -2.37764 0.772542 1.76602
      vertex -1.5 0 1.76602
    endloop
  endfacet
  facet normal 0 0 1
    outer loop
      vertex -1.21352 -0.881678 1.76602
      vertex -2.02254 -1.46946 1.76602
      vertex -1.46946 -2.02254 1.76602
    endloop
  endfacet
  facet normal 0 0 1
    outer loop
      vertex -2.5 0 1.76602
      vertex -1.5 0 1.76602
      vertex -2.37764 0.772542 1.76602
    endloop
  endfacet
  facet normal 0 0 1
    outer loop
      vertex -1.42658 -0.463525 1.76602
      vertex -2.37764 -0.772542 1.76602
      vertex -2.02254 -1.46946 1.76602
    endloop
  endfacet
  facet normal 0 0 1
    outer loop
      vertex -1.5 0 1.76602
      vertex -2.5 0 1.76602
      vertex -2.37764 -0.772542 1.76602
    endloop
  endfacet
  facet normal 0 0 1
    outer loop
      vertex 1.5 0 1.76602
      vertex 2.5 0 1.76602
      vertex 2.37764 0.772542 1.76602
    endloop
  endfacet
  facet normal 0 0 1
    outer loop
      vertex 1.42658 0.463525 1.76602
      vertex 2.37764 0.772542 1.76602
      vertex 2.02254 1.46946 1.76602
    endloop
  endfacet
  facet normal 0 0 1
    outer loop
      vertex 2.5 0 1.76602
      vertex 1.5 0 1.76602
      vertex 2.37764 -0.772542 1.76602
    endloop
  endfacet
  facet normal -0 0 1
    outer loop
      vertex 1.42658 -0.463525 1.76602
      vertex 2.37764 -0.772542 1.76602
      vertex 1.5 0 1.76602
    endloop
  endfacet
  facet normal 0 0 1
    outer loop
      vertex 1.21352 0.881678 1.76602
      vertex 2.02254 1.46946 1.76602
      vertex 1.46946 2.02254 1.76602
    endloop
  endfacet
  facet normal 0 0 1
    outer loop
      vertex 2.37764 0.772542 1.76602
      vertex 1.42658 0.463525 1.76602
      vertex 1.5 0 1.76602
    endloop
  endfacet
  facet normal 0 0 1
    outer loop
      vertex 2.02254 1.46946 1.76602
      vertex 1.21352 0.881678 1.76602
      vertex 1.42658 0.463525 1.76602
    endloop
  endfacet
  facet normal 0 0 1
    outer loop
      vertex 1.46946 2.02254 1.76602
      vertex 0.881678 1.21352 1.76602
      vertex 1.21352 0.881678 1.76602
    endloop
  endfacet
  facet normal 0 0 1
    outer loop
      vertex 0.772542 2.37764 1.76602
      vertex 0.881678 1.21352 1.76602
      vertex 1.46946 2.02254 1.76602
    endloop
  endfacet
  facet normal 0 0 1
    outer loop
      vertex 0.772542 2.37764 1.76602
      vertex 0.463525 1.42658 1.76602
      vertex 0.881678 1.21352 1.76602
    endloop
  endfacet
  facet normal 0 0 1
    outer loop
      vertex 0 2.5 1.76602
      vertex 0.463525 1.42658 1.76602
      vertex 0.772542 2.37764 1.76602
    endloop
  endfacet
  facet normal 0 0 1
    outer loop
      vertex 0 2.5 1.76602
      vertex 0 1.5 1.76602
      vertex 0.463525 1.42658 1.76602
    endloop
  endfacet
  facet normal 0 0 1
    outer loop
      vertex 0 2.5 1.76602
      vertex -0.463525 1.42658 1.76602
      vertex 0 1.5 1.76602
    endloop
  endfacet
  facet normal -0 0 1
    outer loop
      vertex -0.772542 2.37764 1.76602
      vertex -0.463525 1.42658 1.76602
      vertex 0 2.5 1.76602
    endloop
  endfacet
  facet normal 0 0 1
    outer loop
      vertex -0.772542 2.37764 1.76602
      vertex -0.881678 1.21352 1.76602
      vertex -0.463525 1.42658 1.76602
    endloop
  endfacet
  facet normal -0 0 1
    outer loop
      vertex -1.46946 2.02254 1.76602
      vertex -0.881678 1.21352 1.76602
      vertex -0.772542 2.37764 1.76602
    endloop
  endfacet
  facet normal 0 0 1
    outer loop
      vertex -0.881678 1.21352 1.76602
      vertex -1.46946 2.02254 1.76602
      vertex -1.21352 0.881678 1.76602
    endloop
  endfacet
  facet normal -0 0 1
    outer loop
      vertex -2.02254 1.46946 1.76602
      vertex -1.21352 0.881678 1.76602
      vertex -1.46946 2.02254 1.76602
    endloop
  endfacet
  facet normal 0 0 1
    outer loop
      vertex -1.21352 0.881678 1.76602
      vertex -2.02254 1.46946 1.76602
      vertex -1.42658 0.463525 1.76602
    endloop
  endfacet
  facet normal -0 0 1
    outer loop
      vertex -2.37764 0.772542 1.76602
      vertex -1.42658 0.463525 1.76602
      vertex -2.02254 1.46946 1.76602
    endloop
  endfacet
  facet normal 0 0 1
    outer loop
      vertex 2.37764 -0.772542 1.76602
      vertex 1.42658 -0.463525 1.76602
      vertex 2.02254 -1.46946 1.76602
    endloop
  endfacet
  facet normal -0 0 1
    outer loop
      vertex 1.21352 -0.881678 1.76602
      vertex 2.02254 -1.46946 1.76602
      vertex 1.42658 -0.463525 1.76602
    endloop
  endfacet
  facet normal 0 0 1
    outer loop
      vertex 2.02254 -1.46946 1.76602
      vertex 1.21352 -0.881678 1.76602
      vertex 1.46946 -2.02254 1.76602
    endloop
  endfacet
  facet normal -0 0 1
    outer loop
      vertex 0.881678 -1.21352 1.76602
      vertex 1.46946 -2.02254 1.76602
      vertex 1.21352 -0.881678 1.76602
    endloop
  endfacet
  facet normal 0 0 1
    outer loop
      vertex 0.881678 -1.21352 1.76602
      vertex 0.772542 -2.37764 1.76602
      vertex 1.46946 -2.02254 1.76602
    endloop
  endfacet
  facet normal -0 0 1
    outer loop
      vertex 0.463525 -1.42658 1.76602
      vertex 0.772542 -2.37764 1.76602
      vertex 0.881678 -1.21352 1.76602
    endloop
  endfacet
  facet normal 0 0 1
    outer loop
      vertex 0.772542 -2.37764 1.76602
      vertex 0.463525 -1.42658 1.76602
      vertex 0.5 -2.42081 1.76602
    endloop
  endfacet
  facet normal -0 0 1
    outer loop
      vertex 0 -1.5 1.76602
      vertex 0.5 -2.42081 1.76602
      vertex 0.463525 -1.42658 1.76602
    endloop
  endfacet
  facet normal 0 0 1
    outer loop
      vertex 0.5 -2.42081 1.76602
      vertex 0 -1.5 1.76602
      vertex -0.5 -2.42081 1.76602
    endloop
  endfacet
  facet normal 0 0 1
    outer loop
      vertex -0.5 -2.42081 1.76602
      vertex 0 -1.5 1.76602
      vertex -0.463525 -1.42658 1.76602
    endloop
  endfacet
  facet normal 0 0 1
    outer loop
      vertex 0.5 -2.42081 1.76602
      vertex -0.5 -2.42081 1.76602
      vertex 0.5 -101.5 1.76602
    endloop
  endfacet
  facet normal 0 0 1
    outer loop
      vertex 0.5 -101.5 1.76602
      vertex -0.5 -2.42081 1.76602
      vertex -0.5 -101.5 1.76602
    endloop
  endfacet
  facet normal 0.857992 0.135894 0.495361
    outer loop
      vertex -0.951056 -0.309016 0.9
      vertex -1 0 0.9
      vertex -1.42658 -0.463525 1.76602
    endloop
  endfacet
  facet normal 0.857989 0.135901 0.495364
    outer loop
      vertex -1.42658 -0.463525 1.76602
      vertex -1 0 0.9
      vertex -1.5 0 1.76602
    endloop
  endfacet
  facet normal 0.857992 0.135902 -0.495359
    outer loop
      vertex -0.951056 -0.309016 0.9
      vertex -1.42658 -0.463525 0.033975
      vertex -1.5 0 0.033975
    endloop
  endfacet
  facet normal 0.857991 0.135894 -0.495362
    outer loop
      vertex -1 0 0.9
      vertex -0.951056 -0.309016 0.9
      vertex -1.5 0 0.033975
    endloop
  endfacet
  facet normal -0.857991 -0.135892 -0.495363
    outer loop
      vertex -2.37764 -0.772542 0.033975
      vertex -2.85317 -0.927051 0.9
      vertex -3 0 0.9
    endloop
  endfacet
  facet normal -0.857992 -0.135894 -0.495362
    outer loop
      vertex -2.5 0 0.033975
      vertex -2.37764 -0.772542 0.033975
      vertex -3 0 0.9
    endloop
  endfacet
  facet normal 0.866023 -0 0.500004
    outer loop
      vertex 0.5 -101.5 1.76602
      vertex 0.894427 -2.75276 1.08286
      vertex 0.5 -2.42081 1.76602
    endloop
  endfacet
  facet normal 0.866028 -7.99295e-08 0.499996
    outer loop
      vertex 0.5 -101.5 1.76602
      vertex 1 -2.816 0.9
      vertex 0.894427 -2.75276 1.08286
    endloop
  endfacet
  facet normal 0.866024 0 0.500002
    outer loop
      vertex 1 -2.816 0.9
      vertex 0.5 -101.5 1.76602
      vertex 1 -101.5 0.9
    endloop
  endfacet
  facet normal -0.133284 -0.85899 0.494339
    outer loop
      vertex -0.894427 -2.75276 1.08286
      vertex -0.5 -2.42081 1.76602
      vertex -0.607086 -2.51093 1.58055
    endloop
  endfacet
  facet normal -0.866024 0 0.500002
    outer loop
      vertex -0.5 -101.5 1.76602
      vertex -1 -2.816 0.9
      vertex -1 -101.5 0.9
    endloop
  endfacet
  facet normal -0.866025 -1.3596e-08 0.500001
    outer loop
      vertex -1 -2.816 0.9
      vertex -0.5 -101.5 1.76602
      vertex -0.965009 -2.79504 0.960606
    endloop
  endfacet
  facet normal -0.86603 -1.0587e-07 0.499993
    outer loop
      vertex -0.965009 -2.79504 0.960606
      vertex -0.5 -101.5 1.76602
      vertex -0.894427 -2.75276 1.08286
    endloop
  endfacet
  facet normal -0.866023 0 0.500004
    outer loop
      vertex -0.894427 -2.75276 1.08286
      vertex -0.5 -101.5 1.76602
      vertex -0.5 -2.42081 1.76602
    endloop
  endfacet
  facet normal -0.866025 0 -0.5
    outer loop
      vertex -0.5 -101.5 0.033975
      vertex -0.894427 -2.75276 0.717142
      vertex -0.5 -2.42081 0.033975
    endloop
  endfacet
  facet normal -0.866026 -6.82656e-09 -0.5
    outer loop
      vertex -0.5 -101.5 0.033975
      vertex -1 -2.816 0.9
      vertex -0.894427 -2.75276 0.717142
    endloop
  endfacet
  facet normal -0.866025 -0 -0.5
    outer loop
      vertex -1 -2.816 0.9
      vertex -0.5 -101.5 0.033975
      vertex -1 -101.5 0.9
    endloop
  endfacet
  facet normal 0 -1 0
    outer loop
      vertex -1 -101.5 0.9
      vertex 0.5 -101.5 1.76602
      vertex -0.5 -101.5 1.76602
    endloop
  endfacet
  facet normal 0 -1 0
    outer loop
      vertex -1 -101.5 0.9
      vertex 1 -101.5 0.9
      vertex 0.5 -101.5 1.76602
    endloop
  endfacet
  facet normal 0 -1 0
    outer loop
      vertex -0.5 -101.5 0.033975
      vertex 1 -101.5 0.9
      vertex -1 -101.5 0.9
    endloop
  endfacet
  facet normal 0 -1 0
    outer loop
      vertex 1 -101.5 0.9
      vertex -0.5 -101.5 0.033975
      vertex 0.5 -101.5 0.033975
    endloop
  endfacet
  facet normal 0.858738 -0.0321328 -0.511406
    outer loop
      vertex 0.894427 -2.75276 0.717142
      vertex 0.5 -2.42081 0.033975
      vertex 0.607086 -2.51093 0.219453
    endloop
  endfacet
  facet normal 0.866025 0 -0.5
    outer loop
      vertex 0.5 -101.5 0.033975
      vertex 1 -2.816 0.9
      vertex 1 -101.5 0.9
    endloop
  endfacet
  facet normal 0.866025 1.16608e-08 -0.500001
    outer loop
      vertex 1 -2.816 0.9
      vertex 0.5 -101.5 0.033975
      vertex 0.965009 -2.79504 0.839394
    endloop
  endfacet
  facet normal 0.866026 -1.40565e-08 -0.499999
    outer loop
      vertex 0.965009 -2.79504 0.839394
      vertex 0.5 -101.5 0.033975
      vertex 0.894427 -2.75276 0.717142
    endloop
  endfacet
  facet normal 0.866025 0 -0.5
    outer loop
      vertex 0.894427 -2.75276 0.717142
      vertex 0.5 -101.5 0.033975
      vertex 0.5 -2.42081 0.033975
    endloop
  endfacet
  facet normal 0.707107 -0.707107 0
    outer loop
      vertex 1.17557 3.48197 20
      vertex 1.61803 3.92443 0
      vertex 1.61803 3.92443 20
    endloop
  endfacet
  facet normal 0.707107 -0.707107 0
    outer loop
      vertex 1.61803 3.92443 0
      vertex 1.17557 3.48197 20
      vertex 1.17557 3.48197 0
    endloop
  endfacet
  facet normal 0.891007 0.453989 0
    outer loop
      vertex 1.90211 5.71803 20
      vertex 1.61803 6.27557 0
      vertex 1.61803 6.27557 20
    endloop
  endfacet
  facet normal 0.891007 0.453989 0
    outer loop
      vertex 1.61803 6.27557 0
      vertex 1.90211 5.71803 20
      vertex 1.90211 5.71803 0
    endloop
  endfacet
  facet normal 0.987687 0.15644 0
    outer loop
      vertex 2 5.1 20
      vertex 1.90211 5.71803 0
      vertex 1.90211 5.71803 20
    endloop
  endfacet
  facet normal 0.987687 0.15644 0
    outer loop
      vertex 1.90211 5.71803 0
      vertex 2 5.1 20
      vertex 2 5.1 0
    endloop
  endfacet
  facet normal 0.707107 0.707107 0
    outer loop
      vertex 1.61803 6.27557 20
      vertex 1.17557 6.71803 0
      vertex 1.17557 6.71803 20
    endloop
  endfacet
  facet normal 0.707107 0.707107 0
    outer loop
      vertex 1.17557 6.71803 0
      vertex 1.61803 6.27557 20
      vertex 1.61803 6.27557 0
    endloop
  endfacet
  facet normal 0.987687 -0.15644 0
    outer loop
      vertex 1.90211 4.48197 20
      vertex 2 5.1 0
      vertex 2 5.1 20
    endloop
  endfacet
  facet normal 0.987687 -0.15644 0
    outer loop
      vertex 2 5.1 0
      vertex 1.90211 4.48197 20
      vertex 1.90211 4.48197 0
    endloop
  endfacet
  facet normal 0.156439 -0.987688 0
    outer loop
      vertex 0 3.1 0
      vertex 0.618033 3.19789 20
      vertex 0 3.1 20
    endloop
  endfacet
  facet normal 0.156439 -0.987688 0
    outer loop
      vertex 0.618033 3.19789 20
      vertex 0 3.1 0
      vertex 0.618033 3.19789 0
    endloop
  endfacet
  facet normal -0.453991 0.891006 0
    outer loop
      vertex -0.618033 7.00211 0
      vertex -1.17557 6.71803 20
      vertex -0.618033 7.00211 20
    endloop
  endfacet
  facet normal -0.453991 0.891006 0
    outer loop
      vertex -1.17557 6.71803 20
      vertex -0.618033 7.00211 0
      vertex -1.17557 6.71803 0
    endloop
  endfacet
  facet normal 0.453991 -0.891006 0
    outer loop
      vertex 0.618033 3.19789 0
      vertex 1.17557 3.48197 20
      vertex 0.618033 3.19789 20
    endloop
  endfacet
  facet normal 0.453991 -0.891006 0
    outer loop
      vertex 1.17557 3.48197 20
      vertex 0.618033 3.19789 0
      vertex 1.17557 3.48197 0
    endloop
  endfacet
  facet normal -0.891007 0.453989 0
    outer loop
      vertex -1.90211 5.71803 0
      vertex -1.61803 6.27557 20
      vertex -1.61803 6.27557 0
    endloop
  endfacet
  facet normal -0.891007 0.453989 0
    outer loop
      vertex -1.61803 6.27557 20
      vertex -1.90211 5.71803 0
      vertex -1.90211 5.71803 20
    endloop
  endfacet
  facet normal 0.891007 -0.453989 0
    outer loop
      vertex 1.61803 3.92443 20
      vertex 1.90211 4.48197 0
      vertex 1.90211 4.48197 20
    endloop
  endfacet
  facet normal 0.891007 -0.453989 0
    outer loop
      vertex 1.90211 4.48197 0
      vertex 1.61803 3.92443 20
      vertex 1.61803 3.92443 0
    endloop
  endfacet
  facet normal -0.987687 0.15644 0
    outer loop
      vertex -2 5.1 0
      vertex -1.90211 5.71803 20
      vertex -1.90211 5.71803 0
    endloop
  endfacet
  facet normal -0.987687 0.15644 0
    outer loop
      vertex -1.90211 5.71803 20
      vertex -2 5.1 0
      vertex -2 5.1 20
    endloop
  endfacet
  facet normal -0.156439 -0.987688 0
    outer loop
      vertex -0.618033 3.19789 0
      vertex 0 3.1 20
      vertex -0.618033 3.19789 20
    endloop
  endfacet
  facet normal -0.156439 -0.987688 -0
    outer loop
      vertex 0 3.1 20
      vertex -0.618033 3.19789 0
      vertex 0 3.1 0
    endloop
  endfacet
  facet normal 0.156439 0.987688 -0
    outer loop
      vertex 0.618033 7.00211 0
      vertex 0 7.1 20
      vertex 0.618033 7.00211 20
    endloop
  endfacet
  facet normal 0.156439 0.987688 0
    outer loop
      vertex 0 7.1 20
      vertex 0.618033 7.00211 0
      vertex 0 7.1 0
    endloop
  endfacet
  facet normal 0.453991 0.891006 -0
    outer loop
      vertex 1.17557 6.71803 0
      vertex 0.618033 7.00211 20
      vertex 1.17557 6.71803 20
    endloop
  endfacet
  facet normal 0.453991 0.891006 0
    outer loop
      vertex 0.618033 7.00211 20
      vertex 1.17557 6.71803 0
      vertex 0.618033 7.00211 0
    endloop
  endfacet
  facet normal -0.891007 -0.453989 0
    outer loop
      vertex -1.61803 3.92443 0
      vertex -1.90211 4.48197 20
      vertex -1.90211 4.48197 0
    endloop
  endfacet
  facet normal -0.891007 -0.453989 0
    outer loop
      vertex -1.90211 4.48197 20
      vertex -1.61803 3.92443 0
      vertex -1.61803 3.92443 20
    endloop
  endfacet
  facet normal -0.156439 0.987688 0
    outer loop
      vertex 0 7.1 0
      vertex -0.618033 7.00211 20
      vertex 0 7.1 20
    endloop
  endfacet
  facet normal -0.156439 0.987688 0
    outer loop
      vertex -0.618033 7.00211 20
      vertex 0 7.1 0
      vertex -0.618033 7.00211 0
    endloop
  endfacet
  facet normal -0.453991 -0.891006 0
    outer loop
      vertex -1.17557 3.48197 0
      vertex -0.618033 3.19789 20
      vertex -1.17557 3.48197 20
    endloop
  endfacet
  facet normal -0.453991 -0.891006 -0
    outer loop
      vertex -0.618033 3.19789 20
      vertex -1.17557 3.48197 0
      vertex -0.618033 3.19789 0
    endloop
  endfacet
  facet normal -0.707107 -0.707107 0
    outer loop
      vertex -1.17557 3.48197 0
      vertex -1.61803 3.92443 20
      vertex -1.61803 3.92443 0
    endloop
  endfacet
  facet normal -0.707107 -0.707107 0
    outer loop
      vertex -1.61803 3.92443 20
      vertex -1.17557 3.48197 0
      vertex -1.17557 3.48197 20
    endloop
  endfacet
  facet normal 0 0 1
    outer loop
      vertex 1.05 5.1 20
      vertex 2 5.1 20
      vertex 1.90211 5.71803 20
    endloop
  endfacet
  facet normal 0 0 1
    outer loop
      vertex 1.05 5.1 20
      vertex 1.90211 5.71803 20
      vertex 1.61803 6.27557 20
    endloop
  endfacet
  facet normal 0 0 1
    outer loop
      vertex 2 5.1 20
      vertex 1.05 5.1 20
      vertex 1.90211 4.48197 20
    endloop
  endfacet
  facet normal 0 0 1
    outer loop
      vertex 0.525 6.00933 20
      vertex 1.61803 6.27557 20
      vertex 1.17557 6.71803 20
    endloop
  endfacet
  facet normal 0 0 1
    outer loop
      vertex 1.90211 4.48197 20
      vertex 1.05 5.1 20
      vertex 1.61803 3.92443 20
    endloop
  endfacet
  facet normal -0 0 1
    outer loop
      vertex 0.525 4.19067 20
      vertex 1.61803 3.92443 20
      vertex 1.05 5.1 20
    endloop
  endfacet
  facet normal 0 0 1
    outer loop
      vertex 0.525 6.00933 20
      vertex 1.17557 6.71803 20
      vertex 0.618033 7.00211 20
    endloop
  endfacet
  facet normal 0 0 1
    outer loop
      vertex 1.61803 6.27557 20
      vertex 0.525 6.00933 20
      vertex 1.05 5.1 20
    endloop
  endfacet
  facet normal 0 0 1
    outer loop
      vertex 0 7.1 20
      vertex 0.525 6.00933 20
      vertex 0.618033 7.00211 20
    endloop
  endfacet
  facet normal 0 0 1
    outer loop
      vertex 0 7.1 20
      vertex -0.525 6.00933 20
      vertex 0.525 6.00933 20
    endloop
  endfacet
  facet normal -0 0 1
    outer loop
      vertex -0.618033 7.00211 20
      vertex -0.525 6.00933 20
      vertex 0 7.1 20
    endloop
  endfacet
  facet normal -0 0 1
    outer loop
      vertex -1.17557 6.71803 20
      vertex -0.525 6.00933 20
      vertex -0.618033 7.00211 20
    endloop
  endfacet
  facet normal -0 0 1
    outer loop
      vertex -1.61803 6.27557 20
      vertex -0.525 6.00933 20
      vertex -1.17557 6.71803 20
    endloop
  endfacet
  facet normal 0 0 1
    outer loop
      vertex 1.61803 3.92443 20
      vertex 0.525 4.19067 20
      vertex 1.17557 3.48197 20
    endloop
  endfacet
  facet normal 0 0 1
    outer loop
      vertex 1.17557 3.48197 20
      vertex 0.525 4.19067 20
      vertex 0.618033 3.19789 20
    endloop
  endfacet
  facet normal 0 0 1
    outer loop
      vertex 0.525 4.19067 20
      vertex 0 3.1 20
      vertex 0.618033 3.19789 20
    endloop
  endfacet
  facet normal -0 0 1
    outer loop
      vertex -0.525 4.19067 20
      vertex 0 3.1 20
      vertex 0.525 4.19067 20
    endloop
  endfacet
  facet normal 0 0 1
    outer loop
      vertex -0.525 4.19067 20
      vertex -0.618033 3.19789 20
      vertex 0 3.1 20
    endloop
  endfacet
  facet normal 0 0 1
    outer loop
      vertex -1.61803 3.92443 20
      vertex -0.525 4.19067 20
      vertex -1.05 5.1 20
    endloop
  endfacet
  facet normal 0 0 1
    outer loop
      vertex -0.525 4.19067 20
      vertex -1.17557 3.48197 20
      vertex -0.618033 3.19789 20
    endloop
  endfacet
  facet normal 0 0 1
    outer loop
      vertex -0.525 6.00933 20
      vertex -1.61803 6.27557 20
      vertex -1.05 5.1 20
    endloop
  endfacet
  facet normal -0 0 1
    outer loop
      vertex -1.90211 5.71803 20
      vertex -1.05 5.1 20
      vertex -1.61803 6.27557 20
    endloop
  endfacet
  facet normal 0 0 1
    outer loop
      vertex -0.525 4.19067 20
      vertex -1.61803 3.92443 20
      vertex -1.17557 3.48197 20
    endloop
  endfacet
  facet normal 0 0 1
    outer loop
      vertex -2 5.1 20
      vertex -1.05 5.1 20
      vertex -1.90211 5.71803 20
    endloop
  endfacet
  facet normal 0 0 1
    outer loop
      vertex -1.05 5.1 20
      vertex -1.90211 4.48197 20
      vertex -1.61803 3.92443 20
    endloop
  endfacet
  facet normal 0 0 1
    outer loop
      vertex -1.05 5.1 20
      vertex -2 5.1 20
      vertex -1.90211 4.48197 20
    endloop
  endfacet
  facet normal -0.987687 -0.15644 0
    outer loop
      vertex -1.90211 4.48197 0
      vertex -2 5.1 20
      vertex -2 5.1 0
    endloop
  endfacet
  facet normal -0.987687 -0.15644 0
    outer loop
      vertex -2 5.1 20
      vertex -1.90211 4.48197 0
      vertex -1.90211 4.48197 20
    endloop
  endfacet
  facet normal 0 0 -1
    outer loop
      vertex 1.90211 4.48197 0
      vertex 1.90211 5.71803 0
      vertex 2 5.1 0
    endloop
  endfacet
  facet normal 0 0 -1
    outer loop
      vertex 1.61803 3.92443 0
      vertex 1.90211 5.71803 0
      vertex 1.90211 4.48197 0
    endloop
  endfacet
  facet normal 0 0 -1
    outer loop
      vertex 1.61803 3.92443 0
      vertex 1.61803 6.27557 0
      vertex 1.90211 5.71803 0
    endloop
  endfacet
  facet normal 0 0 -1
    outer loop
      vertex 1.17557 3.48197 0
      vertex 1.61803 6.27557 0
      vertex 1.61803 3.92443 0
    endloop
  endfacet
  facet normal 0 0 -1
    outer loop
      vertex 1.17557 3.48197 0
      vertex 1.17557 6.71803 0
      vertex 1.61803 6.27557 0
    endloop
  endfacet
  facet normal 0 0 -1
    outer loop
      vertex 0.618033 3.19789 0
      vertex 1.17557 6.71803 0
      vertex 1.17557 3.48197 0
    endloop
  endfacet
  facet normal 0 0 -1
    outer loop
      vertex 0.618033 3.19789 0
      vertex 0.618033 7.00211 0
      vertex 1.17557 6.71803 0
    endloop
  endfacet
  facet normal 0 0 -1
    outer loop
      vertex 0 3.1 0
      vertex 0.618033 7.00211 0
      vertex 0.618033 3.19789 0
    endloop
  endfacet
  facet normal 0 0 -1
    outer loop
      vertex 0 3.1 0
      vertex 0 7.1 0
      vertex 0.618033 7.00211 0
    endloop
  endfacet
  facet normal 0 0 -1
    outer loop
      vertex -0.618033 3.19789 0
      vertex 0 7.1 0
      vertex 0 3.1 0
    endloop
  endfacet
  facet normal 0 0 -1
    outer loop
      vertex -0.618033 3.19789 0
      vertex -0.618033 7.00211 0
      vertex 0 7.1 0
    endloop
  endfacet
  facet normal 0 0 -1
    outer loop
      vertex -1.17557 3.48197 0
      vertex -0.618033 7.00211 0
      vertex -0.618033 3.19789 0
    endloop
  endfacet
  facet normal 0 0 -1
    outer loop
      vertex -1.17557 3.48197 0
      vertex -1.17557 6.71803 0
      vertex -0.618033 7.00211 0
    endloop
  endfacet
  facet normal 0 0 -1
    outer loop
      vertex -1.61803 3.92443 0
      vertex -1.17557 6.71803 0
      vertex -1.17557 3.48197 0
    endloop
  endfacet
  facet normal 0 0 -1
    outer loop
      vertex -1.61803 3.92443 0
      vertex -1.61803 6.27557 0
      vertex -1.17557 6.71803 0
    endloop
  endfacet
  facet normal 0 0 -1
    outer loop
      vertex -1.90211 4.48197 0
      vertex -1.61803 6.27557 0
      vertex -1.61803 3.92443 0
    endloop
  endfacet
  facet normal 0 0 -1
    outer loop
      vertex -1.90211 4.48197 0
      vertex -1.90211 5.71803 0
      vertex -1.61803 6.27557 0
    endloop
  endfacet
  facet normal 0 -0 -1
    outer loop
      vertex -1.90211 5.71803 0
      vertex -1.90211 4.48197 0
      vertex -2 5.1 0
    endloop
  endfacet
  facet normal -0.707107 0.707107 0
    outer loop
      vertex -1.61803 6.27557 0
      vertex -1.17557 6.71803 20
      vertex -1.17557 6.71803 0
    endloop
  endfacet
  facet normal -0.707107 0.707107 0
    outer loop
      vertex -1.17557 6.71803 20
      vertex -1.61803 6.27557 0
      vertex -1.61803 6.27557 20
    endloop
  endfacet
  facet normal 0 1 -0
    outer loop
      vertex 0.525 4.19067 10
      vertex -0.525 4.19067 20
      vertex 0.525 4.19067 20
    endloop
  endfacet
  facet normal 0 1 0
    outer loop
      vertex -0.525 4.19067 20
      vertex 0.525 4.19067 10
      vertex -0.525 4.19067 10
    endloop
  endfacet
  facet normal -0.866026 0.499999 0
    outer loop
      vertex 0.525 4.19067 10
      vertex 1.05 5.1 20
      vertex 1.05 5.1 10
    endloop
  endfacet
  facet normal -0.866026 0.499999 0
    outer loop
      vertex 1.05 5.1 20
      vertex 0.525 4.19067 10
      vertex 0.525 4.19067 20
    endloop
  endfacet
  facet normal 0 -1 0
    outer loop
      vertex -0.525 6.00933 10
      vertex 0.525 6.00933 20
      vertex -0.525 6.00933 20
    endloop
  endfacet
  facet normal 0 -1 -0
    outer loop
      vertex 0.525 6.00933 20
      vertex -0.525 6.00933 10
      vertex 0.525 6.00933 10
    endloop
  endfacet
  facet normal -0.866026 -0.499999 0
    outer loop
      vertex 1.05 5.1 10
      vertex 0.525 6.00933 20
      vertex 0.525 6.00933 10
    endloop
  endfacet
  facet normal -0.866026 -0.499999 0
    outer loop
      vertex 0.525 6.00933 20
      vertex 1.05 5.1 10
      vertex 1.05 5.1 20
    endloop
  endfacet
  facet normal 0.866026 -0.499999 0
    outer loop
      vertex -1.05 5.1 20
      vertex -0.525 6.00933 10
      vertex -0.525 6.00933 20
    endloop
  endfacet
  facet normal 0.866026 -0.499999 0
    outer loop
      vertex -0.525 6.00933 10
      vertex -1.05 5.1 20
      vertex -1.05 5.1 10
    endloop
  endfacet
  facet normal 0.866026 0.499999 0
    outer loop
      vertex -0.525 4.19067 20
      vertex -1.05 5.1 10
      vertex -1.05 5.1 20
    endloop
  endfacet
  facet normal 0.866026 0.499999 0
    outer loop
      vertex -1.05 5.1 10
      vertex -0.525 4.19067 20
      vertex -0.525 4.19067 10
    endloop
  endfacet
  facet normal 0 0 1
    outer loop
      vertex 0.525 6.00933 10
      vertex 0.525 4.19067 10
      vertex 1.05 5.1 10
    endloop
  endfacet
  facet normal -0 0 1
    outer loop
      vertex -0.525 6.00933 10
      vertex 0.525 4.19067 10
      vertex 0.525 6.00933 10
    endloop
  endfacet
  facet normal 0 0 1
    outer loop
      vertex -0.525 6.00933 10
      vertex -0.525 4.19067 10
      vertex 0.525 4.19067 10
    endloop
  endfacet
  facet normal 0 -0 1
    outer loop
      vertex -0.525 4.19067 10
      vertex -0.525 6.00933 10
      vertex -1.05 5.1 10
    endloop
  endfacet
endsolid OpenSCAD_Model
