<?xml version="1.0" encoding="UTF-8"?>
<svg xmlns:cc="http://creativecommons.org/ns#"
     xmlns="http://www.w3.org/2000/svg"
     xml:space="preserve" width="5.6493235in"
     height="7.7384214in"
     style="fill-rule:evenodd;image-rendering:optimizeQuality;shape-rendering:geometricPrecision;text-rendering:geometricPrecision"
     viewBox="0 0 5649.3235 7959.5292" version="1.1">
    <g transform="translate(-1205.2112,-1672.5488)">
  <path d="m 1886.27,1674.19 c -89.7943,14.7352 -117.691,124.35 -142.392,195.714 -66.8229,193.044 -105.158,393.417 -168.773,586.83 -12.8305,39.0095 -33.12,196.149 -71.04,210.971 -24.2438,9.4781 -25.6305,-34.7695 -27.4171,-47.9771 -8.2095,-60.7848 0.4114,-113.326 2.16,-173.859 5.4514,-188.678 67.4362,-376.137 126.781,-554.229 11.8705,-35.6305 64.1981,-159.444 -7.7333,-164.556 -101.067,-7.181 -149.909,198.61 -175.585,267.794 -66.2743,178.575 -121.2,396.057 -127.882,586.83 -4.48,127.848 20.419,253.158 28.5562,380.354 6.5371,102.183 -123.196,230.655 -165.638,326.015 -70.2743,157.89 -74.6171,339.581 -57.4705,510.762 18.4533,184.221 187.09,356.59 324.632,463.928 59.8324,46.6971 152.179,94.5105 195.768,156.907 23.341,33.4057 -5.4515,66.9295 -7.8895,101.836 -2.56,36.6171 14.6667,81.2724 29.6076,114.107 48.9943,107.634 101.189,219.208 170.709,315.15 41.859,57.7752 98.6895,103.444 138.659,163.006 36.5219,54.419 44.2667,121.509 85.6724,173.878 85.6076,108.274 218.507,157.173 338.358,217.101 57.1124,28.5562 109.029,68.9829 168.442,92.7505 140.682,56.2857 248.545,34.259 309.299,206.343 39.9505,113.143 -68.339,276.331 -70.1181,396.655 -1.28,86.6552 27.9505,164.85 30.6667,249.943 2.1219,66.5143 -17.4286,133.044 -11.5505,201.048 5.84,67.6152 43.6381,157.482 31.1352,222.777 -22.6324,118.175 -111.912,239.189 -154.194,353.185 -46.8876,126.385 -52.4152,255.653 -76.4457,385.787 -17.1238,92.6971 -46.5333,180.777 -47.4476,277.116 -3.1353,331.177 80.701,699.25 322.789,936.484 190.922,187.078 445.242,300.533 665.653,447.566 64.6552,43.1429 130.728,88.7848 175.265,153.665 32.1371,46.8381 70.7467,142.632 129.604,159.314 107.6,30.5333 241.52,-95.7981 336.297,-135.135 71.5886,-29.7219 160.027,-4.8343 233.646,5.4857 113.8509,15.9238 245.078,49.3943 353.185,88.5143 121.867,44.1219 252.217,103.402 385.787,80.0914 82.2019,-14.3429 157.208,-103.402 228.213,-145.021 106.808,-62.5981 217.086,-97.5886 309.608,-184.583 232.922,-218.971 92.4952,-546.891 150.164,-824.987 19.2686,-92.9143 54.819,-181.699 107.07,-260.811 24.2667,-36.7314 87.3333,-76.7238 81.7524,-124.975 -6.4,-55.3676 -66.0381,-132.85 -101.886,-173.764 -127.3371,-145.406 -355.223,-238.267 -530.4081,-307.272 -79.9732,-31.4629 -149.223,-86.9943 -222.777,-130.789 -147.2839,-87.699 -306.35,-163.55 -390.789,-322.758 -57.1275,-107.714 -45.7752,-214.438 -49.6495,-331.448 -1.2609,-38.0952 -20.1943,-76.579 -17.3562,-114.107 3.1086,-41.0095 30.7848,-78.4419 37.6343,-119.539 22.739,-136.51 34.3695,-281.627 48.0038,-418.389 5.5848,-56.0229 -26.7543,-107.364 -27.6114,-163.01 -0.7238,-47.0667 37.4781,-77.6914 52.1943,-119.539 13.4324,-38.1981 6.7353,-84.0038 28.8267,-119.051 39.76,-63.0971 109.604,-18.4267 166.602,-39.1238 101.227,-36.7581 198.145,-87.4857 298.85,-125.608 59.3371,-22.4571 130.202,-32.3505 183.615,-67.9619 65.3067,-43.5467 84.8762,-130.008 143.349,-180.891 96.5448,-84.0267 202.267,-166.11 303.3371,-244.811 58.5981,-45.6343 130.1409,-85.2229 174.484,-146.297 54.8152,-75.4933 -4.4762,-202.971 54.7619,-256.629 209.211,-189.512 558.088,-257.851 671.158,-547.52 78.4076,-200.876 44.5562,-419.242 -31.8933,-614 -26.3543,-67.2229 -102.206,-158.762 -105.303,-228.21 -2.1219,-48.2552 29.5581,-95.3219 40.861,-141.276 19.2876,-78.5867 25.101,-163.996 31.7867,-244.51 17.7105,-212.37 -25.2152,-439.253 -65.5848,-646.602 -15.3219,-78.781 -22.1676,-163.135 -48.739,-239.078 -8.9677,-25.6267 -18.9638,-64.2057 -48.5219,-73.2 -90.2552,-27.4667 -75.6914,149.699 -77.8095,192.739 -8.7505,177.577 40.8038,373.886 64.9295,548.796 4.0228,28.8343 35.5924,160.053 -5.2686,170.933 -20.8114,5.5314 -32.6552,-26.0952 -37.2762,-40.5829 -16.8419,-52.899 -22.9295,-109.036 -35.4819,-162.952 -46.9981,-202.48 -83.6724,-409.966 -125.135,-614 -6.4457,-31.7067 -60.2476,-204.389 -115.638,-121.589 -35.6495,53.2876 -9.1733,186.461 -1.44,246.56 16.8571,131.04 58.179,251.604 85.6952,380.354 21.3371,99.8476 24.5905,206.64 55.0286,304.282 23.5657,75.5886 50.739,159.806 55.3067,239.082 1.3028,22.9829 13.1467,69.6152 -12.3924,83.76 -48.4114,26.7924 -131.817,-112.777 -154.282,-143.531 -63.2876,-86.6476 -146.789,-159.459 -212.77,-244.51 -60.5143,-77.9962 -103.89,-169.893 -162.724,-249.947 -23.4286,-31.8819 -147.627,-193.15 -189.931,-107.234 -18.499,37.5619 19.0324,108.792 31.4438,145.269 45.7867,134.552 105.154,275.6 196.354,385.787 128.069,154.739 295.139,318.568 366.042,510.762 21.2533,57.6114 8.1371,109.65 11.9848,168.442 17.04,260.617 -113.623,672.343 -377.044,776.149 -251.192,98.9829 -492.149,49.2381 -749.84,39.2457 -123.158,-4.7771 -278.933,-15.0133 -314.149,-157.928 -20.9905,-85.1657 1.4819,-195.12 4.1295,-282.549 4.5562,-150.469 -5.059,-291.124 -16.3352,-440.122 -3.4171,-45.1962 -17.3905,-226.903 -81.7029,-226.903 -49.4095,0 -68.9486,75.059 -69.8819,112.796 -3.2038,129.261 47.7219,246.35 26.0267,380.354 -40.9752,253.074 -126.278,605.859 -341.451,772.75 -73.0971,56.7086 -189.394,84.2171 -277.059,110.667 -46.1105,13.9124 -89.4362,-5.219 -135.84,-1.8171 -63.4819,4.6476 -125.745,24.701 -190.175,12.1867 -46.8495,-9.0972 -87.9467,-38.5752 -135.844,-47.7143 -38.0495,-7.2572 -77.3333,5.619 -114.103,-9.181 -35.9848,-14.48 -63.7219,-45.0743 -97.8057,-63.5314 -58.5371,-31.6952 -126.747,-40.4952 -170.659,-94.2933 -117.135,-143.493 -155.825,-401.672 -155.349,-581.261 0.4076,-151.421 27.6571,-311.219 45.2838,-461.859 3.8971,-33.261 44.1714,-134.358 -8.5752,-147.524 -30.2438,-7.5505 -53.9771,30.0229 -69.5162,49.7562 -49.4286,62.7695 -105.836,131.867 -123.413,211.874 -34.8305,158.507 -60.259,306.03 -71.1657,467.291 -4.1219,60.9981 17.7181,158.389 -18.5829,210.731 -32.1676,46.381 -125.211,61.6343 -177.863,69.3752 -239.162,35.1657 -517.608,-31.8819 -733.539,-134.804 -73.1848,-34.8838 -152.983,-62.739 -209.242,-124.499 -105.539,-115.859 -134.488,-286.956 -164.019,-433.76 -18.1333,-90.1562 -26.4571,-169.928 -33.7676,-260.815 -3.2953,-41.0286 -18.1638,-81.7029 5.0285,-119.539 67.6914,-110.423 171.531,-195.524 260.377,-287.981 136.45,-142.004 276.152,-294.171 395.314,-450.99 57.6343,-75.8552 185.272,-216.838 137.501,-320.392 -20.0267,-43.421 -65.8667,-70.8762 -106.107,-34.819 -50.0381,44.8419 -79.501,114.008 -123.429,165.036 -115.695,134.381 -237.299,260.415 -362.701,385.787 -43.7143,43.7029 -90.781,82.7924 -135.836,124.945 -9.9771,9.3295 -40.6743,43.8552 -56.1448,26.2933 -14.979,-17.0057 6.8838,-53.5657 14.1257,-69.7333 27.1848,-60.659 47.7029,-122.907 71.6724,-184.747 92.1029,-237.589 149.044,-491.467 207.779,-738.971 10.96,-46.1714 84.8952,-246.442 -25.581,-228.316 z m -493.482,1859.34 c -25.5314,2.8038 -33.4629,44.7352 -38.6476,64.2629 -14.3962,54.2743 3.9086,203.303 94.5295,183.806 24.0305,-5.1657 18.16,-41.6533 15.6762,-58.8381 -4.7086,-32.5981 -25.6381,-194.27 -71.5581,-189.23 z m 5180.09,262.491 c -47.8133,17.4781 -73.4629,143.223 -72.6476,187.547 0.4914,27.5429 12.9867,66.5143 48.3619,56.5371 58.6819,-16.5181 114.811,-99.2076 104.488,-159.764 -5.1086,-30.2438 -40.2629,-98.9143 -80.2019,-84.32 z m -4653.95,598.518 c -24.9829,1.2609 -151.573,15.3333 -129.276,62.9448 10.1181,21.6076 51.4781,10.9029 69.5086,10.1714 69.9352,-2.8419 137.219,3.52 206.476,11.4743 247.547,28.4381 500.682,112.88 717.238,237.939 83.68,48.32 151.505,123.124 223.516,186.32 21.0133,18.4343 62.6895,58.5029 93.9771,45.0857 41.9429,-17.9848 -3.6533,-76.7924 -20.1562,-95.5162 -67.0019,-76.0495 -141.642,-140.709 -226.701,-195.383 -200.35,-128.781 -407.352,-169.6 -635.733,-214.312 -94.4571,-18.4952 -202.232,-53.619 -298.85,-48.7238 z m 2.0838,144.712 c -18.9105,9.7829 -19.0286,31.3714 0,41.1124 70.941,36.3238 142.381,43.0514 211.307,94.8419 51.581,38.7581 105.493,43.1848 160.03,65.3257 25.3752,10.2971 32.2857,43.7562 61.8248,47.0933 36.2514,4.0952 76.499,-22.7238 113.55,-25.859 39.1505,-3.3143 104.293,6.4724 138.042,-16.4305 59.0476,-40.0686 -131.124,-99.4857 -154.343,-110.282 -118.331,-55.0438 -237.916,-67.8514 -364.05,-90.9486 -46.3543,-8.4914 -121.749,-27.9238 -166.362,-4.8533 z m 3176.59,23.0552 c -162.145,20.1105 -392.922,106.091 -510.762,220.042 -50.7505,49.0705 -96.3086,94.3048 -129.608,157.547 -10.5295,19.9962 -27.0057,68.5143 11.2267,70.88 35.5467,2.2019 68.9905,-43.261 91.2152,-65.4514 69.4248,-69.3105 127.07,-138.613 211.909,-189.836 212.118,-128.053 446.503,-161.497 690.069,-146.251 134.549,8.4229 319.33,60.0495 434.693,129.783 30.5143,18.4419 123.935,134.876 150.499,127.059 36.9486,-10.8648 12.1333,-63.92 -2.8648,-81.7943 -47.6686,-56.8267 -117.2879,-92.301 -185.6719,-117.444 -239.204,-87.9543 -505.303,-136.206 -760.705,-104.533 z m -3318.35,66.3124 c -65.2914,34.1981 34.6781,166.301 61.6648,202.606 30.64,41.2 72.6171,97.9238 121.486,118.088 31.2876,12.9105 67.5848,2.5486 96.3962,23.6533 28.2781,20.7124 19.3562,51.7905 37.3867,76.7314 45.7867,63.3371 131.41,77.4019 196.328,38.9486 57.5238,-34.0724 -43.779,-50.6743 -50.1524,-78.739 -6.32,-27.84 35.5352,-43.0324 20.2514,-74.1676 -16,-32.5905 -65.2267,-33.1581 -93.7333,-49.261 -80.72,-45.6152 -155.901,-79.4667 -226.731,-142.594 -30.6895,-27.3486 -122.286,-136.537 -162.895,-115.265 z m 3541.13,55.2648 c -41.4743,5.0933 -162.731,52.8152 -95.5619,106.141 65.9886,52.3848 194.373,89.9771 274.507,113.444 57.0933,16.7238 13.0629,-57.981 51.3867,-60.7467 38.4495,-2.7771 71.4476,35.5771 110.282,32.0038 28.0305,-2.5829 35.4476,-38.739 67.0895,-36.8457 35.7067,2.141 63.821,33.92 101.585,19.4743 78.1905,-29.92 -79.6571,-96.3543 -101.768,-104.979 -123.368,-48.1257 -275.124,-84.7467 -407.52,-68.4914 z m -1804.33,75.9467 c -65.1276,2.3276 -136.872,12.7314 -194.975,44.2514 -17.5505,9.5238 -63.3676,60.019 -20.0381,68.0876 40.9905,7.6419 183.657,-33.859 220.133,-56.019 27.4819,-16.6933 38.3162,-57.8667 -5.12,-56.32 z m -798.373,5.059 c -50.6933,8.6782 -233.333,79.0705 -217.989,142.3771 11.0057,45.4019 75.3524,48.8381 83.1581,88.0838 5.7486,28.88 -32.3086,46.8114 -34.1905,75.021 -2.3047,34.4952 37.7524,49.5276 50.9448,76.9181 12.3124,25.5657 -0.038,54.301 13.699,80.5867 35.8819,68.6552 104.975,85.417 164.149,126.6549 22.4495,15.6419 54.6629,57.9468 85.6381,49.8096 36.08,-9.4819 50.9562,-80.2514 37.7638,-110.099 -11.2,-25.3295 -40.8876,-33.6686 -54.179,-57.28 -12.7352,-22.6401 -4.2171,-49.9733 -10.4267,-74.2895 -10.2133,-40 -44.941,-77.0971 -45.6076,-119.539 -0.9295,-59.1162 61.4971,-95.5314 45.7333,-163.01 -12.6133,-53.9771 -53.5124,-126.396 -118.693,-115.234 z m 2325.59,38.0724 c -89.299,17.04 -293.684,150.6481 -224.038,261.771 28.0648,44.7771 159.684,71.9733 151.912,130.065 -6.7695,50.6019 -159.893,52.5029 -194.686,96.3314 -26.9829,34 16.941,85.859 23.6038,121.49 21.299,113.935 15.6076,217.497 167.139,184.29 43.7448,-9.5847 118.236,-72.7238 53.3486,-108.217 -43.9924,-24.0648 -196.499,14.0952 -96.1371,-86.2095 11.2876,-11.2914 23.699,-21.6152 37.36,-29.9352 115.718,-70.4914 173.68,91.04 271.676,116.545 26.7429,6.9639 124.865,22.8076 130.446,-22.9829 3.8895,-31.9314 -57.8857,-35.3714 -57.901,-69.0019 -0.011,-17.1848 136.758,-110.731 35.8171,-131.097 -94.7581,-19.12 -94.9029,136.9751 -200.29,65.9124 -13.9733,-9.4247 -29.4286,-21.6724 -33.2,-39.0895 -4.659,-21.5276 14.0038,-38.9714 13.7371,-60.259 -0.4762,-38.179 -25.9238,-86.5789 -20.5943,-122.274 2.5676,-17.1543 19.139,-28.419 20.64,-46.0457 1.7143,-20.1143 -20.3467,-36.7771 -15.2876,-56.3999 6.64,-25.7638 48,-21.882 50.4152,-52.8838 1.8743,-24.1867 -19.6343,-42.6324 -27.2457,-63.9771 -17.6495,-49.4895 -9.2914,-102.804 -86.7162,-88.0305 z m -877.185,25.7143 c -54.3962,22.5143 99.3676,121.326 134.983,108.4041 26.9105,-9.7639 2.0838,-43.9391 -9.0857,-55.459 -24.1333,-24.8876 -88.5143,-68.4229 -125.897,-52.9448 z m 13.539,150 c -57.5505,9.981 0.701,113.893 22.6629,142.061 18.4305,23.6419 55.0705,22.6362 76.2171,44.579 53.1657,55.1505 28.1105,90.8229 47.8248,149.501 8.9143,26.5295 38.8038,46.24 40.9067,75.0895 2.5105,34.4 -87.2038,11.661 -107.672,55.5886 -39.3638,84.4686 -28.4724,131.829 -28.7314,217.07 -0.099,32.88 -21.619,70.1371 -3.9924,101.44 13.7067,24.3543 44.6476,34.8457 66.5943,50.0343 24.4838,16.9371 53.5505,50.1143 86.6324,43.8286 38.7886,-7.3752 60.4762,-44.0838 103.543,-48.1486 52.6895,-4.9676 106.19,-19.3867 145.703,-56.9867 17.3829,-16.541 42.6819,-57.9276 4.9181,-68.4381 -29.5657,-8.2323 -60.701,16.4229 -85.4171,28.7733 -65.6152,32.7886 -280.088,26.1448 -227.905,-88.5371 31.0514,-68.2248 118.754,-150.728 200.735,-124.008 29.859,9.7372 131.924,108.773 152.484,75.4438 25.5619,-41.4438 -58.3352,-122.411 -73.1467,-157.909 -25.4286,-60.9638 -80.4114,-62.9333 -116.457,-110.617 -27.2876,-36.099 -31.7714,-84.6552 -60.7505,-122.975 -30.6667,-40.5448 -79.2495,-62.6438 -107.406,-103.71 -31.8743,-46.48 -65.6914,-114.411 -136.743,-102.08 z m 1613.49,-0.1028 c -66.0229,11.6686 -122.712,81.2686 -190.175,96.3695 -62.2248,13.92 -162.48,-17.0667 -219.558,16.0343 -55.4248,32.1448 47.501,127.211 89.0514,125.185 37.0971,-1.8095 57.7143,-40.4305 92.5181,-49.6533 89.4895,-23.7181 176.59,3.3067 260.659,-53.779 67.8286,-46.0571 72.5143,-152.712 -32.4952,-134.156 z m -2526.01,16.9029 c -89.1162,24.941 -90.9486,200.93 -111.276,265.002 -11.0895,34.9562 -42.1867,59.6114 -57.699,92.3733 -10.4762,22.1371 -43.1048,96.6895 -23.6152,117.924 13.3562,14.5486 131.924,-50.3695 170.232,-43.8095 31.6495,5.4171 58.0419,26.8038 80.8876,48.1181 14.8038,13.8095 27.8057,28.9905 38.4076,46.259 83.84,136.568 -152.316,113.97 -222.53,90.9181 -21.3981,-7.0171 -56.2857,-13.1048 -66.0343,14.4495 -24.0533,67.9924 121.17,95.04 157.924,119.154 16.5638,10.8686 36.861,41.3257 59.2914,36.8457 28.7962,-5.7562 49.6571,-55.7181 68.6514,-75.5124 24.16,-25.1733 60.7314,-37.9695 79.7676,-67.8667 21.581,-33.8933 12.5981,-74.899 17.0514,-112.606 7.7295,-65.5238 52.1714,-106.347 0.4229,-167.794 -30.1181,-35.7524 -103.2,-78.7886 -144.762,-100.244 -22.0038,-11.3562 -57.1505,1.0971 -72.2019,-23.0019 -10.64,-17.0438 1.3943,-36.6971 12.5067,-49.9695 16.6857,-19.9276 51.0438,-33.5086 60.5943,-58.1867 10.4381,-26.9562 -6.0343,-143.691 -47.619,-132.053 z m 1261.76,111.322 c -23.2038,20.2629 28.7771,71.9048 38.5105,88.4762 13.9048,23.6876 10.6286,51.5657 23.4019,75.1543 34.8876,64.4381 83.5086,107.177 111.211,180.229 4.24,11.1924 32.1371,102.396 48.5905,91.4286 19.4857,-12.979 -10.8724,-74.6781 -14.9676,-91.4286 -22.8876,-93.6076 -69.8019,-199.04 -118.171,-282.545 -11.4171,-19.7067 -58.5867,-87.4971 -88.5752,-61.3143 z m -2175.23,54.179 c -52.9219,10.9562 -149.31,61.699 -80.819,118.263 31.76,26.2362 67.9924,4.56 99.6762,22.979 24.6857,14.3581 39.6686,46.48 62.9029,64.4495 35.5276,27.4667 76.0952,37.0629 110.884,60.6819 49.5467,33.6343 46.4571,144.427 148.933,110.564 43.5048,-14.3771 57.92,-78.6667 29.92,-112.156 -57.2076,-68.4152 -146.545,-86.4533 -212.72,-137.474 -67.0819,-51.7219 -44.4457,-150.968 -158.777,-127.307 z m 598.053,273.246 c -60.1448,26.5448 -74.5676,112.293 -49.9352,163.139 9.4933,19.5848 24.8152,77.8552 57.7371,60.6476 43.04,-22.5029 17.2076,-146.232 17.7752,-185.528 0.2057,-14.7124 -1.8933,-48.7124 -25.5771,-38.259 z m 293.295,57.0857 c -40.5524,6.0533 -37.3105,66.4267 4.9791,62.7543 43.0095,-3.7333 38.6171,-69.2686 -4.9791,-62.7543 z m 1223.71,70.6171 c -43.4895,17.3067 -20.0571,86.1486 24.6019,70.7771 46.4686,-15.9962 21.0362,-88.9371 -24.6019,-70.7771 z m 265.425,239.84 c -36.301,11.0248 -57.7562,104.411 -7.2647,86.3962 30.56,-10.9029 49.8171,-99.3219 7.2647,-86.3962 z m -1650.4,39.981 c -33.9771,14.9295 -40.0152,72.5181 -48.8267,103.368 -32.3238,113.139 -28.2286,230.61 -29.1695,347.752 -0.16,20.6324 -3.7105,142.75 44.6781,119.337 25.421,-12.2933 15.859,-83.9657 23.8743,-108.469 13.3562,-40.8305 67.4362,-113.84 60.1448,-155.371 -4.6857,-26.6781 -45.4095,-14.9181 -57.7829,-37.5619 -16.499,-30.1867 7.5391,-89.1276 10.5371,-122.217 1.6457,-18.2286 44.6476,-167.985 -3.4552,-146.838 z m 671.741,-5.1581 c -61.2076,8.0648 -110.282,72.4952 -142.046,119.394 -73.8819,109.078 -147.646,211.39 -202.659,331.451 -10.9676,23.9352 -53.2914,181.291 0.6629,181.291 18.9371,0 17.661,-33.4286 17.9429,-45.4971 1.3257,-57.2267 -1.2762,-103.33 33.9162,-152.084 43.1771,-59.8095 114.602,-99.7829 183.566,-123.49 35.0857,-12.0648 77.68,-7.5886 107.364,-32.3657 32.8838,-27.4438 30.3238,-68.5295 45.8095,-104.971 19.219,-45.2229 47.2571,-185.817 -44.5562,-173.73 z m 190.85,12.8533 c -69.9238,16.6514 -60.419,176 -40.6895,226.053 18.9905,48.1943 67.4667,72.301 105.276,103.874 66.0838,55.2 153.787,138.621 171.798,227.604 8.6895,42.9371 -21.5543,74.0267 -27.0248,114.107 -4.1105,30.1181 21.9505,84.5562 59.6533,75.1848 41.7029,-10.3695 28.3543,-160.267 26.7352,-194.724 -8.2095,-174.419 -84.2552,-279.17 -170.526,-429.257 -22.4724,-39.101 -66.7086,-136.777 -125.223,-122.842 z m -602.67,34.899 c -33.3981,6.3238 -64.6057,79.4933 -66.7276,109.676 -3.8476,54.6095 43.6152,90.339 31.2114,152.141 -20.6476,102.888 -99.9848,192.67 -105.897,298.85 -1.6647,29.8438 -4.1295,185.71 46.8914,174.88 42.3162,-8.9791 32.1562,-75.1352 27.261,-104.244 -19.5162,-116.034 46.5867,-228.747 91.2419,-331.448 15.4095,-35.4438 50.1752,-73.5771 47.7105,-114.107 -2.1943,-36.1181 -20.6514,-195.417 -71.6914,-185.749 z m 1214.19,32.2476 c -41.6952,24.4343 47.2762,151.63 58.2248,186.103 39.059,122.941 -51.6229,162.987 -88.8152,277.112 -5.5657,17.0857 -43.741,114.987 6.16,97.4362 143.23,-50.3733 204.64,-273.044 163.28,-401.718 -11.8019,-36.7162 -85.3067,-190.316 -138.85,-158.933 z m -295.398,25.5314 c -59.2381,21.8819 -17.9429,189.581 1.4286,231.204 8.9028,19.1352 27.5429,60.5829 54.1448,57.8019 26.499,-2.7733 38.0343,-69.0667 67.3486,-23.68 55.379,85.7486 -11.5962,232.682 -55.3257,308.194 -7.4057,12.7924 -28.4876,62.9333 7.1467,55.3486 42.2514,-8.9943 74.5105,-85.1695 89.0895,-120.549 61.4819,-149.204 46.4152,-255.356 -43.2038,-385.787 -22.0495,-32.0876 -68.4876,-141.794 -120.629,-122.533 z m -1348.62,188.21 c -43.7486,5.6419 -35.2267,100.872 -36.8952,129.935 -5.0362,87.6343 9.5772,173.307 9.8438,260.815 0.1105,36.3695 -19.7867,72.7619 -12.7467,108.67 6.1829,31.5505 42.5295,100.785 82.3238,93.8895 31.2952,-5.4248 70.08,-57.0705 66.7048,-88.4533 -4.5752,-42.5562 -54.6629,-78.6476 -70.1752,-119.543 -28.3733,-74.7962 -26.5867,-170.918 -22.7276,-249.947 1.0438,-21.379 28.8495,-141.192 -16.3276,-135.368 z m 646.141,183.265 c -79.36,15.4552 -34.8076,154.99 36.5829,144.472 48.56,-7.1581 -1.1962,-151.36 -36.5829,-144.472 z m 508.724,50.8495 c -36.3543,12.8114 -125.463,168.419 -35.9581,143.882 35.5467,-9.741 75.8857,-41.261 80.96,-79.6457 2.8457,-21.5048 -14.08,-75.1352 -45.0019,-64.2362 z m -405.234,196.4 c -22.4571,8.6438 -143.756,65.0552 -153.276,82.5676 -37.6114,69.2152 126.48,48.3276 152.971,38.221 70.3505,-26.8381 90.7086,-155.604 0.3048,-120.789 z m 261.097,7.2076 c -33.9771,8.9791 -39.1581,50.6438 -17.779,74.1867 25.6267,28.2057 93.6762,52.0686 130.754,40.061 85.5733,-27.7105 -76.8914,-123.771 -112.975,-114.248 z m 672.617,-0.1676 c -104.145,20.6362 -128.625,203.821 -94.7695,284.648 17.0895,40.8038 67.2686,66.5371 68.5143,114.103 3.3867,129.211 -113.509,212.347 -144.758,326.019 -17.7448,64.5524 28.5257,140.35 20.9257,201.044 -6.339,50.5867 -69.8971,80.1448 -81.7638,130.408 -9.0057,38.1448 24.5105,65.2038 0.9676,103.238 -42.221,68.2476 -109.566,126.93 -170.13,178.331 -9.6419,8.2057 -51.0476,48.8495 -14.6438,52 54,4.6705 119.219,-77.0514 155.413,-108.347 113.429,-98.0229 224.888,-186.971 358.621,-255.977 35.0743,-18.0952 160.899,-37.8743 164.617,-83.8971 3.3257,-41.1314 -73.9352,-94.2705 -94.2362,-129.863 -52.3429,-91.7752 -69.2838,-196.48 -87.619,-298.85 -17.3448,-96.8419 -7.4971,-196.301 -17.0324,-293.413 -3.3638,-34.259 -23.4971,-63.6762 -27.3714,-97.8057 -3.2152,-28.3543 16.0533,-132.099 -36.7352,-121.638 z m -1151.5,168.59 c -21.1962,16.48 9.28,38.6476 22.381,46.6133 48.1676,29.2876 101.253,54.3276 151.634,79.6952 128.354,64.6286 364.05,75.1352 463.653,-50.3048 17.8819,-22.5219 13.3371,-50.3695 -18.6019,-53.1581 -45.3105,-3.9581 -90.3124,19.9962 -135.333,21.8705 -113.189,4.7124 -224,-8.5448 -336.884,-16.141 -37.2343,-2.5105 -114.617,-53.6381 -146.85,-28.5752 z m 896.686,197.851 c -79.421,21.7219 -138.339,92.2438 -217.345,109.745 -93.581,20.7505 -180.16,-16.5448 -271.68,-22.3048 -103.01,-6.4838 -207.078,14.7619 -309.714,2.8076 -162.297,-18.8952 -365.265,-139.051 -510.754,-12.7505 -164.91,143.143 -103.204,289.577 -78.1638,471.006 24.5333,177.733 18.099,341.013 186.83,456.316 68.2667,46.6743 143.935,1.741 217.345,6.4114 60.8343,3.8591 114.568,35.2648 173.874,45.1543 98.16,16.3543 205.124,-0.2171 298.85,-29.939 241.181,-76.3429 279.924,-329.006 375.653,-532.278 44.8914,-95.36 111.177,-174.53 160.248,-266.248 28.061,-52.4343 124.907,-268.952 -25.1429,-227.92 z m -1549.06,357.459 c -19.1695,12.8229 -22.4876,56.3467 -29.0248,76.9371 -25.4286,80.1486 -38.6057,166.381 -46.8114,249.947 -35.1886,358.457 107.886,767.39 344.552,1037.82 83.8248,95.7943 181.429,146.815 285.992,213.269 21.8095,13.8552 84.7467,68.2476 112.488,43.6876 31.6495,-27.9848 -79.1314,-104.381 -94.8457,-121.608 -57.5467,-63.139 20.4571,-51.0743 14.5867,-93.1314 -5.2076,-37.3295 -86.5143,-82.4838 -113.733,-105.737 -119.81,-102.152 -282.168,-224.789 -349.893,-371.17 -19.4095,-41.9505 12.5981,-80.9067 -7.4933,-124.975 -77.2914,-169.528 -137.09,-300.697 -137.074,-489.025 0.011,-86.9943 27.0933,-160.076 38.7429,-244.514 1.3867,-10.0533 16.3771,-94.2171 -17.4857,-71.5048 z"
        style="fill: rgb(16, 14, 12); stroke: rgb(19, 21, 22); stroke-width: 0.967619;"/>
 </g>
</svg>