<?xml version="1.0" encoding="UTF-8"?>
<svg xmlns:cc="http://creativecommons.org/ns#"
     xmlns="http://www.w3.org/2000/svg"
     xml:space="preserve" width="6.9869423in"
     height="7.2717161in"
     style="fill-rule:evenodd;image-rendering:optimizeQuality;shape-rendering:geometricPrecision;text-rendering:geometricPrecision"
     viewBox="0 0 6986.9423 7479.4889"
     version="1.1"
>
<g transform="translate(-428.7951,-1985.5034)">
  <path d="m 2221.29,1986.9 c -47.0667,9.8057 -39.5276,52.819 -39.5276,90.5829 0,86.6324 8.7543,173.002 12.3543,259.394 4.0495,97.181 9.4629,199.135 0,296.453 -15.5048,159.467 -66.4838,321.112 -105.406,476.792 -16.3733,65.501 -14.2857,136.282 -27.1771,202.575 -4.1181,21.1924 -7.4781,59.5886 -21.4057,76.5867 -11.4552,13.9695 -47.2076,-4.0114 -60.941,-7.8248 -52.339,-14.541 -139.204,-40.8495 -172.107,-86.4648 -22.9562,-31.8324 -53.821,-54.5295 -72.0533,-90.9943 -77.581,-155.166 -82.6552,-340.202 -163.874,-494.088 -21.7448,-41.2 -47.4819,-94.3238 -88.5219,-119.402 -25.6152,-15.6571 -66.3962,-2.64 -75.76,27.9962 -9.6229,31.4933 0.6552,67.3448 4.5295,98.819 9.0095,73.1771 33.9086,144.354 44.0571,217.398 25.5086,183.672 47.6952,376.644 153.989,536.084 66.6095,99.9086 150.842,191.615 241.28,270.922 49.2686,43.2076 106.072,82.499 138.343,139.17 65.0362,114.206 66.7314,263.592 79.0552,390.328 11.6,119.295 49.8362,245.238 21.4095,365.623 -12.2781,52.0038 -62.3505,92.8152 -79.8781,143.288 -11.6305,33.4971 16.4381,20.9714 20.9981,39.5238 5.8895,23.939 -30.7238,62.0838 -46.5257,76.1638 -21.6381,19.3181 -63.5162,59.341 -91.4057,66.701 -67.5543,17.84 -155.996,-7.7066 -224.808,-14.4 -96.5638,-9.3904 -184.903,-36.9105 -274.217,-72.88 -81.1162,-32.659 -170.945,-61.4895 -231.81,-129.695 -28.6743,-32.141 -51.7867,-85.3295 -68.7619,-123.524 -17.0286,-38.3162 -11.6952,-85.3524 -15.6457,-125.992 -10.1295,-104.175 2.7315,-209.417 -7.4095,-313.745 -4.179,-42.96 0.8419,-89.1619 -5.7638,-131.756 -12.8762,-82.9638 -37.0705,-165.768 -48.5867,-248.69 -4.8191,-34.6857 -22.88761,-65.2038 -31.29521,-98.8152 -20.0533,-80.2248 -50.2019,-162.541 -84.4038,-237.162 -14.4152,-31.4476 -33.821,-84.4152 -74.5257,-88.9371 -76.1714,-8.4647 -31.3829,120.606 -23.0552,160.579 2.86095,13.7333 5.26476,45.4438 14.4076,55.9962 22.9562,26.4876 13.4362,84.3619 26.7657,124.343 73.6457,220.933 33.76,445.322 33.76,671.958 0,63.8629 11.5886,153.909 -16.0571,212.457 -7.56571,16.0343 -12.6324,38.0952 -28.4076,48.1752 -37.101,23.6914 -55.1124,-10.6971 -86.4648,-25.939 -86.6057,-42.0952 -156.137,-114.457 -181.992,-207.516 -22.8533,-82.2895 -18.8914,-180.122 -10.7048,-264.339 10.7505,-110.549 6.46095,-224.545 17.2952,-335.977 4.49524,-46.2514 22.64,-91.7181 27.1733,-138.343 4.50286,-46.3048 8.20571,-92.339 15.2343,-138.347 3.28381,-21.4971 12.9067,-51.8743 0.82286,-71.6419 -12.7086,-20.7962 -48.2248,-25.9429 -70.4038,-27.1733 -30.1524,-1.6762 -47.0895,45.2267 -57.2343,66.701 -36.08,76.4038 -41.0248,166.072 -64.64,247.044 -36.1181,123.829 -90.4,256.423 -102.937,385.387 -17.4514,179.501 22.4343,345.17 96.3467,506.438 8.73524,19.0476 10.541,41.0362 20.1752,59.2914 56.0114,106.13 140.899,201.81 226.457,284.518 84.8686,82.0457 159.017,168.263 257.337,231.802 116.94095,75.5695 256.64395,147.36 392.79595,179.528 25.2267,5.9543 55.5657,0.3924 79.0552,6.1753 8.7315,2.1485 3.92,19.1962 17.2914,23.4705 55.139,17.6114 116.583,19.539 172.933,31.2724 49.0629,10.2286 100.579,23.9657 150.693,28.8305 90.861,8.8457 182.667,13.341 274.221,22.2362 43.4248,4.2247 87.2267,-4.2515 130.933,0 90.8305,8.819 186.114,-8.7962 276.686,0 112.282,10.9181 223.87,31.101 335.981,41.9962 68.0343,6.6209 131.204,12.2019 197.634,28.8305 66.1333,16.5257 128.411,21.3676 190.221,52.2743 9.8096,4.9143 28.8305,6.9181 35.8248,15.661 7.9048,9.859 -13.2419,30.7314 -18.1105,39.1086 -16.4762,28.2133 -14.6476,81.4476 -59.7105,70.8267 -104.72,-24.7276 -202.945,-92.221 -296.45,-142.891 -40.541,-21.9619 -96.3962,-52.2743 -138.347,-14.4 -45.4552,41.0324 -26.1371,80.56 -15.6381,130.933 14.1067,67.7867 33.6495,136.59 84.8114,187.752 26.3352,26.3352 42.7886,44.1219 62.179,76.5829 7.3867,12.3771 20.48,29.421 9.4629,41.9962 -54.8914,62.7238 -156.971,79.1048 -219.867,135.874 -77.4743,69.939 -117.204,166.781 -195.166,237.162 -94.5486,85.3524 -199.257,166.583 -303.863,239.211 -22.8533,15.8857 -51.6838,21.1733 -74.1143,38.2933 -157.288,120.16 -318.777,238.076 -466.91,369.749 -39.939,35.501 -80.5257,74.4838 -128.465,98.819 -112.587,57.1619 -258.869,114.75 -266.392,260.21 -1.6609,32.1638 27.139,63.0705 30.0571,93.059 4.8952,50.3505 -19.52,106.08 -9.8819,155.638 4.1752,21.4705 12.1371,51.0895 24.701,69.1733 6.2552,9.0171 21.4895,16.6514 24.7048,27.1733 2.6438,8.6476 -10.2171,25.5695 -12.3505,34.5867 -4.6781,19.8133 -5.2724,43.8743 -3.2952,64.2324 8.4038,86.4152 78.6781,174.632 155.638,212.038 61.04,29.6686 127.859,21.2914 192.693,27.5924 100.644,9.7828 198.945,34.659 301.394,24.7048 43.6876,-4.2476 87.101,-10.5714 130.933,-14.8229 12.0343,-1.1619 26.8914,-9.2648 38.7048,-8.2248 28.5905,2.4457 55.5429,28.4571 77.4057,44.4648 31.261,22.9029 69.1771,47.3371 103.756,64.6286 33.3867,16.701 71.2914,26.4076 103.76,44.8876 21.7143,12.3771 41.619,32.88 64.2324,41.9962 29.9581,12.0571 67.4057,12.6743 96.3467,25.939 43.7486,20.061 88.4648,41.1086 135.87,52.301 73.2762,17.2914 142.103,30.3619 217.398,23.0476 33.4286,-3.2609 67.3714,-2.0495 100.869,-5.36 10.6971,-1.0362 32.2895,-6.9676 42,-0.8152 10.5486,6.6438 13.3638,41.3067 15.661,53.1162 9.76,50.1981 19.5886,100.472 30.0419,150.693 29.0514,139.36 76.9752,275.379 121.89,410.091 13.1924,39.6267 26.6324,82.0457 46.9371,118.583 6.3009,11.3638 4.3504,25.84 15.6381,34.1676 21.0971,15.6114 45.0629,-15.9619 56.0076,-31.699 28.7771,-41.4514 70.2552,-78.3619 114.453,-101.707 13.4629,-7.1162 26.3581,-20.0838 41.9962,-21.8133 82.1181,-9.1162 165.543,27.741 234.693,69.9886 26.0114,15.9086 46.2705,41.1543 74.1105,53.5314 43.2571,19.2229 110.971,24.3619 158.11,19.7638 78.0152,-7.5848 154.968,-69.3676 201.76,-128.461 18.1067,-22.8762 34.8571,-46.5943 49.8019,-71.6419 2.9904,-4.9676 12.8457,-24.7048 19.3676,-24.7048 3.3866,0 9.4133,14.5257 11.12,17.2914 11.3867,18.6781 23.8362,33.8476 32.1143,54.3505 24.7276,61.44 69.4171,134.564 130.514,165.101 30.7543,15.3905 68.899,36.56 103.756,39.9467 23.1238,2.2476 40.1448,-8.5981 61.76,-14.0076 17.1962,-4.301 35.0057,-0.1257 51.8819,-4.1029 47.5276,-11.2381 99.6305,-57.2152 150.693,-49.4095 17.4438,2.6705 37.6267,26.0876 49.4095,37.8743 46.1981,46.1943 57.7333,123.398 113.642,162.232 39.9467,27.741 95.68,25.5695 140.811,36.2171 17.8629,4.2248 35.4286,13.3638 54.3505,11.5352 17.3676,-1.68 54.5981,-28.0876 69.1733,-20.9981 40.8343,19.8629 60.9714,112.255 116.11,99.2381 42.1448,-9.9581 54.2019,-87.6762 65.8857,-122.709 9.7104,-29.1505 12.4495,-60.5486 23.8629,-88.9333 8.2514,-20.5067 20.8762,-36.96 25.5467,-59.2914 16.2552,-78.0419 13.1657,-159.836 13.1657,-239.63 0,-114.309 -9.7067,-226.933 -32.9295,-338.45 -25.5429,-122.533 -69.1467,-240.423 -94.7162,-363.154 -33.7981,-162.21 -46.9638,-335.189 -95.5086,-494.088 -39.7714,-130.168 -84.7086,-252.305 -142.888,-375.505 -62.6781,-132.762 -152.13,-239.905 -237.558,-358.213 -22.381,-30.979 -42.9105,-61.8819 -64.2324,-93.8743 -4.2248,-6.3505 -20.3048,-25.4705 -16.8952,-33.7714 4.6933,-11.3143 66.8229,2 77.0019,4.5448 25.8171,6.4495 48.8419,-2.9143 74.1143,-5.36 46.0724,-4.4724 97.8514,-4.5714 140.815,-23.0514 126.659,-54.5448 219.547,-178.857 302.206,-283.284 25.6686,-32.4114 55.661,-60.7733 77.4248,-96.3467 50.5676,-82.7848 65.1695,-183.208 95.5048,-274.217 20.3314,-60.9943 48.1486,-122.362 71.6457,-182.811 23.0705,-59.3143 59.6571,-131.924 43.2305,-197.634 -13.4629,-53.8819 -82.2895,-96.3733 -132.983,-106.229 -18.7276,-3.6343 -38.4914,-3.3105 -57.2419,-4.5219 -1.8743,-0.1257 -16.8724,0.2971 -16.8724,-2.0762 0,-3.0362 30.9562,-9.0171 34.5867,-9.8819 36.1905,-8.5219 72.8533,-11.0895 108.701,-23.0476 45.4057,-15.1429 86.5867,-27.8171 128.461,-52.301 16.5029,-9.6343 31.2495,-41.28 44.0495,-46.9371 12.4,-5.4857 31.2,3.6305 47.3562,-5.3371 45.6533,-25.3714 79.7448,-65.4895 123.524,-92.2438 11.3371,-6.9181 27.3219,-5.5086 39.5238,-11.1162 166.88,-76.4876 331.09,-178.762 457.032,-318.267 44.6895,-49.5086 78.3619,-104.747 116.926,-158.107 7.0133,-9.6877 21.5429,-3.3105 31.299,-12.3543 22.6286,-20.9981 48.2476,-48.7162 65.8857,-74.1143 65.9848,-95.0362 107.737,-214.579 186.099,-301.39 42.541,-47.1352 109.71,-98.8419 167.989,-124.758 9.5619,-4.2477 23.3714,1.8285 34.5867,-2.0496 41.1581,-14.3048 88.4419,-45.5314 121.051,-74.1143 72.9029,-63.9352 103.387,-158.823 153.981,-236.347 25.2229,-38.6362 58.2781,-69.4438 80.2895,-111.17 77.3257,-146.491 133.848,-295.76 174.168,-457.029 16.9714,-67.8819 38.7086,-147.417 38.7086,-217.398 0,-33.1848 -10.2248,-68.461 -46.9371,-80.701 -24.1371,-8.0419 -46.5676,22.6286 -55.5848,41.1733 -26.0381,53.5429 -35.2762,124.811 -47.3562,182.811 -6.4,30.7962 -23.0514,36.259 -37.4552,61.7638 -13.3143,23.52 -24.3581,51.3448 -34.1905,76.5829 -24.8,63.8133 -40.9333,134.651 -60.9181,200.103 -34.9829,114.45 -99.5352,222.663 -179.528,311.276 -41.5276,46 -86.7848,86.9105 -140.815,116.926 -8.1524,4.5448 -43.6267,28.1638 -51.459,22.6514 -8.5715,-6 13.44,-53.581 16.0571,-62.9943 18.9486,-68.2819 45.8514,-135.109 68.3314,-202.575 23.3981,-70.1448 58.3543,-134.484 84.8343,-202.575 29.4514,-75.7714 54.7238,-171.116 62.579,-251.985 3.4323,-35.3905 -24.5829,-66.7771 -59.2914,-43.6457 -47.901,31.939 -77.9429,99.779 -107.044,147.406 -42.2438,69.101 -94.8648,131.284 -129.699,205.044 -41.3524,87.5467 -53.8057,187.604 -94.7162,274.217 -115.097,243.76 -307.345,421.901 -486.255,620.08 -80.8571,89.5771 -140.37,199.634 -239.63,271.326 -28.3619,20.48 -83.2533,60.4038 -121.051,51.4857 -22.8762,-5.4095 -55.4362,-12.1562 -70.8267,-31.7219 -9.6115,-12.2019 -4.5943,-28.0381 -3.2877,-41.5771 4.5486,-46.64 21.2724,-85.8971 32.5371,-130.933 45.6267,-182.537 133.109,-355.939 188.149,-536.084 19.9352,-65.2419 20.8495,-132.758 37.0552,-197.634 29.5238,-118.065 71.3714,-236.739 83.181,-358.213 8.6705,-89.0857 8.4229,-181.291 25.52,-269.276 17.6876,-90.9029 54.4724,-182.198 63.4133,-274.217 8.8686,-91.2571 13.341,-182.819 22.2362,-274.217 6.9677,-71.539 12.7962,-143.337 19.7638,-214.93 2.1219,-21.8857 12.0305,-44.5029 9.8819,-66.701 -6.2285,-63.9467 -24.2362,-134.453 -44.4686,-195.166 -29.8667,-89.5771 -62.2057,-175.771 -100.472,-261.863 -24.781,-55.7867 -49.3333,-118.45 -91.4057,-163.463 -29.2267,-31.2762 -43.2343,-74.8724 -87.28,-90.1714 -36.9105,-12.8114 -105.81,24.7771 -95.5314,68.3505 20.381,86.2667 89.7257,147.425 121.89,227.28 49.8781,123.882 50.2248,264.419 50.2248,395.269 0,64.7124 -8.5485,133.101 -14.8229,197.634 -10.5257,108.343 -4.5219,215.295 -35.4019,321.158 -31.1276,106.659 -65.6152,214.895 -89.7752,323.627 -32.461,146.145 -53.1657,298.613 -93.0362,442.206 -45.5314,163.912 -97.6571,326.171 -136.712,491.615 -39.4286,167.051 -118.065,357.326 -265.154,455.375 -26.6819,17.8133 -77.0514,57.8819 -108.697,60.9448 -79.2267,7.7105 -177.253,-6.3962 -249.516,-39.5238 -25.0971,-11.4895 -46.8114,-29.8705 -71.6419,-41.5771 -27.5695,-13.021 -48.3695,-29.8705 -74.1105,-44.8876 -10.5752,-6.179 -23.101,-5.1885 -29.2267,-17.2952 -19.8362,-39.1048 0.6667,-93.7029 4.5219,-133.402 7.8058,-80.1905 21.8629,-159.691 29.6419,-239.634 7.0172,-72.1829 25.101,-142.815 32.1181,-214.926 6.4458,-66.259 -1.4819,-133.924 4.941,-200.107 6.6933,-68.7429 22.9486,-136.21 29.6457,-205.044 7.9276,-81.6076 0.4419,-173.6 -7.4133,-254.457 -7.04,-72.3657 -3.1848,-143.227 -18.1067,-214.926 -11.1924,-53.7029 -43.4819,-116.571 -67.939,-165.52 -21.2457,-42.4648 -45.901,-115.623 -101.707,-121.051 -49.7067,-4.8304 -62.9448,56.3162 -59.2914,93.8781 11.3638,116.796 60.9219,230.008 49.4095,348.331 -15.9848,164.286 -69.7143,316.198 -105.413,476.792 -29.9657,134.884 -41.8476,275.577 -55.1657,412.564 -9.9543,102.347 -31.7448,201.832 -90.5905,286.568 -9.4591,13.6381 -14.179,36.4876 -27.9886,46.1257 -56.5486,39.3257 -134.171,7.3105 -192.693,0.8153 -25.7181,-2.8686 -56.6248,0.8609 -81.5238,-5.3638 -18.7505,-4.6667 -86.3162,-25.1238 -90.1714,-46.5181 -2.8648,-15.9086 21.4171,-51.4095 27.5962,-66.701 21.44,-53.2876 36.56,-120.335 34.1638,-177.87 -2.8648,-68.5295 -68.0838,-31.821 -90.1714,0 -12.1029,17.4171 -28.0381,31.299 -39.1048,49.4095 -22.3581,36.5867 -47.8781,58.4 -77.0057,88.9333 -5.9772,6.2514 -4.3962,19.4171 -10.301,23.8895 -6.4953,4.9409 -21.219,-6.2743 -26.7543,-9.8819 -23.4438,-15.3143 -48.8419,-24.6057 -74.1143,-35.821 -6.4457,-2.8648 -22.7771,-3.8781 -23.8895,-12.7733 -2.0724,-16.6476 26.659,-48.7162 33.7714,-64.2286 35.3524,-77.1048 96.2743,-138.221 135.455,-212.457 27.0248,-51.1886 54.5714,-108.701 68.7771,-165.52 19.539,-78.221 22.1333,-162.274 43.6267,-239.63 38.3162,-137.95 101.337,-273.89 115.295,-417.505 6.2514,-64.2057 5.2609,-118.804 -4.5219,-182.811 -4.3467,-28.3543 -9.261,-62.8305 -35.0057,-80.701 -31.0781,-21.581 -58.6971,-3.181 -65.8857,31.2914 -9.5619,45.8781 -6.2019,89.7067 -10.6971,135.874 -3.4591,35.6152 -16.4762,69.2495 -25.1238,103.756 -24.2857,97.1886 -82.4648,191.208 -125.15,281.63 -36.5638,77.4248 -38.8114,170.537 -74.9562,247.044 -33.0514,70.0114 -89.0324,120.979 -140.392,177.87 -39.4552,43.7029 -73.9429,92.6438 -110.75,138.347 -7.1162,8.819 -30.56,41.9962 -42.4152,41.9962 -16.48,0 -35.4286,-59.1657 -42,-71.6419 -40.3924,-76.5333 -68.1105,-155.07 -101.288,-234.693 -37.28,-89.4933 -58.5486,-184.446 -94.6895,-274.217 -25.9657,-64.4305 -70.0152,-158.602 -55.1924,-229.749 10.7962,-51.7714 40.8381,-99.0362 55.1924,-150.697 28.4571,-102.45 37.8933,-210.08 60.9181,-313.745 9.5352,-42.88 57.981,-118.602 28.4114,-160.579 -26.7314,-37.9619 -82.4152,-33.8971 -100.053,9.8819 -40.5143,100.629 -40.7124,216.095 -82.7581,313.745 -11.8819,27.6457 -19.1733,56.0533 -30.0419,83.9962 -1.8019,4.6171 -8.6705,28.0419 -15.661,23.8819 -16.4533,-9.8096 -27.9924,-65.3676 -35.4019,-83.1733 -17.0705,-40.9486 -40.4648,-75.0819 -61.341,-113.642 -22.9752,-42.381 -43.0362,-93.0133 -77.0019,-128.461 -25.0514,-26.141 -44.099,-62.5867 -86.4686,-46.1143 -53.7295,20.899 -7.581,111.817 5.7562,144.933 56.8952,141.219 123.105,278.107 163.89,424.914 13.9848,50.3619 -6.72,86.8533 -23.0743,135.87 -16.1295,48.4533 -28.16,99.3029 -44.4686,148.229 -46.541,139.684 -71.1467,277.131 -62.5752,424.914 6.4495,111.093 37.8971,218.731 89.3562,316.213 25.7181,48.7695 95.4819,105.143 100.869,160.579 8.4,86.5143 -46.8876,147.509 -83.5733,219.87 -9.2915,18.3276 -39.7257,74.7276 -59.7105,81.101 -50.4495,16.0838 -117.867,-16.9448 -167.992,-21.8133 -82.659,-8.0267 -177.474,-21.3943 -251.985,-61.76 -97.8514,-53.0133 -160.225,-210.975 -170.457,-316.213 -3.6,-37.0095 -0.141,-74.3352 -5.7639,-111.17 -24.8419,-162.579 -13.0286,-331.31 -46.9371,-494.088 -34.2971,-164.61 -83.3257,-336.937 -85.6457,-503.97 -0.3085,-22.4648 -9.6342,-43.8362 -7.4095,-66.701 13.6571,-140.465 41.6952,-281.497 72.4648,-419.973 22.7619,-102.427 60.4114,-212.712 55.9962,-318.686 -3.0781,-73.9429 -0.2095,-148.282 -7.4095,-222.339 -12.2057,-125.524 -39.3752,-252.796 -68.3505,-375.505 -10.9486,-46.3771 -24.339,-100.579 -54.7581,-138.347 -14.3581,-17.8171 -31.8095,-36.5867 -57.2343,-31.2914 z m 956.008,1955.27 c -6.7924,1.92 -9.6838,26.7771 -11.2876,32.6019 -9.44,34.5562 -13.2419,70.4267 -13.3676,106.229 -0.221,63.1962 -13.4857,135.775 2.7695,197.634 18.0571,68.8267 71.0476,133.257 111.242,190.225 22.3086,31.6229 45.0362,63.0705 68.5067,93.8781 6.621,8.6438 17.9581,27.0971 31.299,22.061 42.7124,-16.1829 -16.0838,-94.2248 -26.6057,-118.408 -53.6838,-123.352 -97.9276,-248.526 -125.573,-380.45 -7.9047,-37.7486 -20.0114,-72.979 -26.9029,-111.17 -0.64,-3.6152 -4.9638,-34.0495 -10.08,-32.6019 z m 453.745,972.453 c -10.7695,2.4952 -31.6952,48.621 -40.7619,58.8724 -50.8648,57.4857 -101.855,117.345 -152.328,175.623 -6.621,7.6343 -58.621,62.7962 -28.0114,62.3276 89.9238,-1.3562 176.857,-97.2838 232.541,-157.143 16.9448,-18.2324 49.901,-39.4057 59.4133,-62.6019 6.4229,-15.6381 -55.139,-80.6857 -70.8533,-77.0781 z m 311.375,228.194 c -14.2057,7.6343 -17.5429,31.5733 -23.9162,44.9371 -13.5352,28.3848 -36.4876,51.9771 -52.6171,79.0552 -45.8019,76.9029 -76.4876,158.552 -119.349,237.086 -15.1695,27.8171 -48.941,43.2571 -60.9714,71.7905 -9.8819,23.4933 -5.4819,60.1562 -11.8552,86.3924 -9.6343,39.699 -59.021,104.13 -47.8057,145.707 18.4076,68.0838 115.89,27.5924 154.232,10.0533 96.541,-44.221 153.04,-135.676 239.977,-191.73 36.659,-23.6419 90.541,-45.8248 133.055,-55.6076 38.6133,-8.8952 84.7619,-10.5257 118.533,-33.2533 42.4648,-28.5829 42.2933,-109.81 64.3276,-154.328 9.1657,-18.5029 31.9429,-41.0362 35.5276,-60.9448 1.9733,-10.8952 -13.2419,-15.3181 -20.7543,-18.7505 -23.6914,-10.8229 -47.3562,-21.6419 -71.6419,-31.0552 -84.7086,-32.88 -166.358,-76.56 -251.985,-106.35 -18.4038,-6.4 -66.4533,-32.8838 -84.7581,-23.0019 z m 725.688,267.92 c -2.6933,5.3105 13.1695,12.6743 16.2552,14.1562 12.3543,5.9276 47.1848,14.8229 56.7962,-0.7429 2.2971,-3.7295 -67.12,-24.9752 -73.0514,-13.4133 z m 651.109,313.916 c -17.3905,3.3867 -38.3924,-2.3962 -54.3505,2.4724 -72.061,22.0343 -142.347,35.3029 -209.985,72.8762 -19.4933,10.8457 -38.9105,21.84 -59.2914,30.88 -2.099,0.9409 -17.0476,7.7066 -15.6381,10.301 2.1981,4.0762 17.1924,-0.9867 20.579,-1.6533 21.0705,-4.1029 44.3429,-12.0305 64.2324,-19.7638 61.3638,-23.8629 125.916,-48.9143 187.752,-70.4076 18.3543,-6.3734 75.3714,-9.3867 87.28,-23.8629 0.9371,-1.1391 -18.259,-1.2877 -20.579,-0.842 z m -480.004,176.465 c -38.64,5.6571 -74.24,35.0057 -110.43,47.901 -132.811,47.3562 -260.286,116.899 -387.859,177.821 -36.2133,17.3181 -71.1467,37.699 -106.229,57.1657 -8.2514,4.5714 -31.6686,13.7105 -33.6686,24.0114 -1.8781,9.5391 29.3219,18.259 36.141,20.061 78.0648,20.6552 173.87,-22.8 247.044,-45.0362 17.7371,-5.4095 68.0114,-8.4495 79.3486,-20.0076 28.88,-29.4743 51.2114,-67.3448 79.0781,-98.2743 37.4781,-41.5543 79.5238,-73.7181 123.2,-107.836 16.0114,-12.499 61.9619,-54.1257 73.3752,-55.8057 z m -1612.45,686.457 c -53.6343,8.5257 -95.901,40.96 -120.335,89.8514 -4.3733,8.7695 -23.4933,33.9657 -16.6248,43.4286 7.5848,10.4267 40.7352,14.4762 52.9638,17.9352 58.2057,16.5029 125.893,16.7276 185.284,6.6476 18.2819,-3.1124 36.7124,-7.1657 54.3505,-12.8724 69.1962,-22.4571 76.6057,-67.7867 14.4762,-110.949 -41.3562,-28.7276 -120.507,-41.92 -170.114,-34.0419 z m -1535.09,721.912 c -7.7867,7.3105 9.6495,30.781 13.1581,37.4248 20.8,39.4057 41.0171,69.3219 57.059,111.17 21.9848,57.3638 11.8133,120.903 62.0876,163.939 65.8514,56.3733 182.164,4.3962 251.566,-16.3314 28.7048,-8.5714 68.0533,-11.04 85.1619,-40.4648 17.3714,-29.8933 -57.2838,-9.3143 -65.3981,-5.9771 -54.579,22.4305 -107.478,26.2857 -165.516,29.5695 -37.7067,2.1485 -67.6724,9.3143 -95.7524,-22.8762 -20.8419,-23.9124 -15.4743,-47.3333 -22.7619,-75.741 -7.9505,-31.0057 -23.6076,-61.1962 -34.4305,-91.36 -10.1333,-28.259 -38.7238,-52.5943 -58.5067,-74.6286 -4.24,-4.72 -18.8419,-22.0648 -26.6667,-14.7238 z"
        style="fill: rgb(16, 14, 12); stroke: rgb(19, 21, 22); stroke-width: 0.967619;"/>
 </g>
</svg>