<svg
        xmlns:cc="http://creativecommons.org/ns#"
        xmlns:svg="http://www.w3.org/2000/svg"
        xmlns="http://www.w3.org/2000/svg"
        xml:space="preserve" width="7.5197868in"
        height="6.6903262in"
        style="fill-rule:evenodd;image-rendering:optimizeQuality;shape-rendering:geometricPrecision;text-rendering:geometricPrecision"
        viewBox="0 0 7519.7868 6881.4871"
        version="1.1"
>
    <g transform="translate(-237.13913,-2173.2389)">
  <path
          d="m 2536.48,4998.96 c -33.4019,10.8267 -78.781,-7.8019 -112.888,-9.859 -83.3562,-5.0362 -168.469,-0.221 -251.985,-0.221 -50.1752,0 -99.7067,7.299 -149.173,8.0229 -240.987,3.5695 -481.261,0.9485 -721.684,-4.0496 -54.8762,-1.1504 -108.004,-10.16 -163.288,-7.8628 -45.1581,1.8552 -91.52,14.0724 -137.078,15.8438 -85.1429,3.3676 -164.411,0.1219 -243.92,35.1162 -108.251,47.6343 -170.171,173.65 -246.888,257.246 -42.9981,46.8686 -117.356,14.5371 -160.27,72.6514 -89.4514,121.154 -64.2514,270.956 -86.88,409.223 -15.3829,94 -72.08,158.469 -109.539,241.905 -15.7371,35.0552 -24.5905,82.9752 -28.8571,120.952 -6.5181,57.9962 34.4152,120.571 52.4838,173.368 6.24,18.221 5.45524,48.8838 6.42667,68.5371 1.71048,34.6743 -12.941,77.1695 -21.181,110.872 -17.1124,69.9924 -32.2057,160 -6.74286,229.81 33.181,90.979 95.7448,142.926 163.928,206.126 59.0324,54.7314 122.335,117.04 174.229,178.907 57.4971,68.541 110.739,142.404 164.537,213.684 36.96,48.9638 82.8533,112.545 141.086,137.623 90.3886,38.9067 188.309,45.9429 280.20999,80.4533 91.741,34.4533 174.891,98.5371 274.156,111.76 49.9352,6.6514 102.739,-3.6267 153.208,-1.0476 53.261,2.72 104.648,16.9752 159.253,13.6876 47.8705,-2.9029 94.3467,-19.4743 143.128,-15.5619 50.8419,4.0914 87.9581,38.461 135.063,52.9562 62.3505,19.1924 148.792,18.4648 213.684,12.3771 144.152,-13.5467 260.549,-70.3733 391.078,-128.149 30.0762,-13.3257 62.4114,-19.3714 92.7314,-32.819 43.44,-19.2914 80.1486,-37.3524 118.937,-65.3943 8.5867,-6.2096 29.9543,-23.4057 41.2229,-17.3752 18.9905,10.1371 5.8476,77.2686 0.7657,93.3943 -28.1829,89.7257 -67.1086,173.669 -98.819,262.065 -34.1067,95.0248 -90.9562,175.459 -86.0381,280.206 2.7848,59.0857 50.2781,107.89 82.0495,153.204 60.0724,85.6571 105.086,178.789 174.472,257.992 53.52,61.0819 158.872,117.909 230.434,51.3029 34.1486,-31.7905 49.4286,-88.2133 85.5124,-115.992 32.9181,-25.3371 79.0019,-8.9296 114.686,-33.9657 25.2762,-17.741 51.4819,-35.68 74.5867,-56.1448 15.1771,-13.4248 32.3924,-30.1371 54.4076,-25.4971 17.0133,3.5657 25.1581,21.5886 36.5257,32.9562 14.5981,14.5943 32.9219,25.261 52.1943,32.4381 40.4952,15.0971 92.5067,10.1371 135.063,10.1181 18.1219,0 44.8724,-4.8381 59.7295,7.8819 13.8895,11.8743 9.5962,45.1962 15.44,62.6743 13.5886,40.64 41.5695,78.6781 80.0533,99.1619 47.2914,25.1771 118.994,-16.0876 164.998,9.1314 17.4781,9.5962 18.5867,35.779 21.2457,52.9752 4.5181,29.1314 16.5905,55.1162 45.581,66.1029 29.4286,11.1657 69.7067,4.4533 100.792,4.4533 13.3448,0 32.4571,-3.2838 43.5238,5.8476 10.0381,8.3048 7.9429,21.0057 10.019,32.4533 5.4629,30.259 5.04,60.6781 10.019,90.7162 15.8438,95.3905 78.6781,197.192 182.373,210.758 61.8095,8.0838 129.139,-5.8247 183.425,-35.8819 28.8076,-15.9467 45.9429,-41.0019 80.6552,-48.259 36.0648,-7.52 58.5029,18.1638 86.6819,34.3505 26.5905,15.28 61.5848,19.2305 90.7162,9.6343 39.3486,-12.941 58.56,-48.8648 92.7314,-68.9219 67.9924,-39.8743 130.77,-85.3714 197.554,-126.819 35.8629,-22.2743 85.7752,-40.659 113.029,-73.8629 40.0952,-48.8648 35.6,-111.901 72.7924,-160.968 17.379,-22.9181 46.6476,-38.179 68.179,-57.2076 33.1619,-29.2914 58.781,-64.6705 74.5257,-106.156 13.4857,-35.5619 0.3238,-77.2076 -3.4476,-112.891 -4.1714,-39.5505 3.9505,-84.5638 19.8781,-120.952 21.5505,-49.1657 75.2533,-84.8457 122.728,-105.47 15.139,-6.5714 34.5105,-4.7543 48.0152,-14.1105 35.44,-24.5105 52.0914,-85.5124 50.621,-126.354 -0.6667,-18.3657 -9.6571,-34.8343 -13.9924,-52.4114 -13.0629,-52.9981 -30.8419,-104.183 -45.459,-157.238 -4.5752,-16.6324 -1.0248,-33.6457 -4.0305,-50.3962 -7.2762,-40.499 -25.501,-86.019 -50.1524,-118.937 -30.621,-40.861 -75.5352,-59.6114 -107.147,-96.7619 -25.6419,-30.1181 -32.979,-74.1867 -60.1105,-102.065 -30.0571,-30.9029 -67.3333,-42.7162 -89.8895,-81.379 25.0362,0.2819 44.5295,21.3676 64.5067,33.8857 38.141,23.9086 80.3124,44.4914 120.952,63.8438 42.3962,20.179 86.8267,35.859 129.017,57.0286 44.9333,22.5562 85.8971,50.1524 133.048,68.6781 62.2286,24.4724 132.404,40.5219 197.554,55.0971 54.7314,12.2552 127.082,32.8762 183.448,22.7162 71.0781,-12.8 135.082,-45.1543 179.512,-103.695 22.2743,-29.3524 31.8705,-77.5924 64.4267,-97.3676 77.9124,-47.3333 170.179,-14.3733 253.981,-28.7048 62.7543,-10.7238 128.13,-87.5886 151.836,-144.053 40.1752,-95.7943 -11.9581,-196.126 -8.5676,-292.305 2.0152,-57.1276 37.0895,-107.566 67.3676,-153.082 22.861,-34.3924 81.8057,-19.2952 115.935,-25.7257 24.0686,-4.5562 46.7276,-14.1486 70.5562,-19.2305 68.2971,-14.5943 140.564,-24.0305 195.539,-72.6514 64.8305,-57.3105 123.349,-134.762 139.699,-221.181 7.5581,-40.0152 9.4743,-78.1143 9.4743,-118.937 0,-19.3333 -2.3162,-39.7524 16.2476,-51.6686 23.7676,-15.2571 55.4552,8.5486 74.4686,22.1143 38.621,27.5581 69.4248,45.4781 118.933,38.8686 115.47,-15.4438 118.05,-185.261 177.943,-257.269 35.8629,-43.0781 98.6362,-61.0781 79.0629,-129.013 -7.6419,-26.4686 -38.4229,-45.76 -59.4476,-61.1619 -28.2438,-20.6819 -63.459,-41.0857 -96.7619,-52.3733 -20.061,-6.7924 -40.6819,-5.36 -60.4762,-15.4629 -18.3848,-9.3943 -34.7962,-27.8362 -50.0152,-41.7067 -21.1657,-19.3143 -24.0495,-75.2914 -33.6038,-103.455 -17.1771,-50.579 -48.9067,-92.6895 -86.1371,-130.75 -51.5467,-52.7124 -116.175,-85.7752 -181.006,-118.533 -26.0457,-13.1619 -49.5505,-30.739 -76.6057,-42.1905 -25.1581,-10.6248 -54.6095,-13.4857 -78.6171,-25.5429 -36.0038,-18.1029 -65.779,-52.7962 -100.792,-74 -72.3505,-43.8248 -168.853,-82.7124 -254,-82.7124 -22.8419,0 -45.7029,0.2019 -68.541,-0.019 -6.0876,-0.061 -19.3524,0.9447 -21.2876,-7.0972 -2.5829,-10.8648 21.0857,-27.9619 27.5352,-35.219 26.5486,-29.9352 52.3733,-64.2438 72.6324,-98.7771 91.661,-156.309 220.697,-281.131 287.989,-451.554 25.501,-64.6286 42.1714,-131.497 53.6838,-199.573 5.0971,-30.1562 14.6743,-64.2438 6.2895,-94.7429 -12.2171,-44.4305 -30.0571,-85.8171 -54.2705,-124.987 -10.48,-16.9714 -38.1371,-39.6305 -38.1371,-60.4762 0.019,-20.5981 29.6724,-35.3562 42.3505,-48.419 24.1295,-24.8876 42.941,-57.1619 44.3924,-92.6895 1.4095,-33.8857 6.7733,-78.8305 -5.1809,-110.876 -11.8133,-31.6495 -44.5105,-64.0076 -48.5448,-96.7619 -12.3352,-100.43 33.2229,-203.981 -22.8,-296.331 -42.0876,-69.379 -95.5924,-128.537 -157.177,-181.082 -38.7238,-33.0286 -86.8648,-62.1333 -119.722,-101.15 -45.4781,-53.9886 -41.5467,-141.345 -96.5181,-188.046 -35.1581,-29.8514 -89.5467,5.7029 -120.408,23.9962 -87.2495,51.7143 -174.598,133.314 -278.19,147.192 -84.2667,11.2914 -176.994,1.0134 -260.05,-17.6 -58.099,-13.021 -118.19,-35.581 -177.398,-41.6152 -87.6305,-8.9333 -170.945,3.36 -254,30.8457 -39.7524,13.1505 -76.461,35.2914 -116.918,46.1257 -79.5086,21.2952 -156.05,15.0857 -231.825,56.0495 -63.6229,34.3924 -131.657,91.261 -175.482,148.682 -28.0838,36.7848 -48.7467,88.9638 -82.8952,119.688 -34.0876,30.6667 -81.36,45.779 -122.625,63.7981 -48.019,20.9676 -93.84,46.7124 -141.112,69.1505 -34.2667,16.259 -61.2229,50.1867 -86.179,77.9657 -5.9848,6.6667 -19.5124,29.7752 -30.56,26.9562 -9.2915,-2.3733 -6.2286,-24.1752 -6.2286,-30.9867 v -96.7619 c 0,-135.973 39.5505,-273.219 10.5638,-409.223 -21.5886,-101.349 -53.379,-201.596 -104.503,-292.301 -22.0724,-39.1886 -59.5505,-71.2724 -87.2876,-106.842 -75.4933,-96.819 -151.714,-193.714 -246.137,-273.352 -33.6267,-28.3619 -79.9505,-39.4286 -114.907,-66.8457 -53.501,-41.9581 -79.3029,-126.945 -139.093,-158.183 -55.0743,-28.7657 -120.187,-5.4552 -177.398,-5.7295 -41.4057,-0.2019 -84.6857,-21.9886 -124.983,-30.5867 -33.4248,-7.1314 -76.7848,-3.36 -110.872,-1.299 -64.7505,3.9124 -125.166,50.6933 -191.509,44.9943 -46.5486,-4 -79.2648,-29.0133 -116.922,-53.2 -60.2552,-38.7048 -116.518,-80.24 -189.49,-86.4076 -38.7276,-3.2686 -77.7524,-0.96 -114.907,10.1257 -19.2305,5.7409 -36.3657,17.0324 -56.4457,20.64 -41.3829,7.4324 -84.7848,-1.9619 -124.983,15.4133 -28.2819,12.221 -52.1714,26.1562 -76.6019,44.9943 -16.9562,13.0819 -34.1905,31.5962 -56.4457,34.7924 -17.84,2.5638 -45.4781,4.1485 -62.4914,-2.2629 -15.12,-5.7028 -22.941,-20.381 -36.3467,-28.4267 -28.5867,-17.1352 -75.8781,-16.8 -104.766,-0.5752 -24.6933,13.8743 -36.9714,41.3867 -51.6876,64.1943 -27.1733,42.1333 -50.7581,82.621 -74.2629,126.998 -42.3124,79.9276 -109.101,142.975 -154.316,221.749 -21.4895,37.4514 -22.2362,80.3505 -39.2876,118.933 -30.6629,69.3714 -95.9581,123.909 -110.69,201.589 -13.0248,68.701 27.4552,137.783 13.4514,203.604 -18.5867,87.3524 -67.4362,174.309 -54.1181,266.095 16.4152,113.124 90.8,211.691 109.002,324.556 13.1848,81.6076 -23.3867,158.038 -38.0952,235.855 -7.5429,39.9048 -3.181,95.3714 4.5905,135.063 28.2819,144.499 145.627,240.072 208.4,366.891 23.8705,48.179 44.8343,99.9276 60.899,151.189 15.1619,48.381 30.9257,104.423 66,143.128 64.9714,71.7257 162.019,100.876 227.432,169.333 z m 2128.76,-764.015 c -7.2152,66.4038 0.9067,131.211 -4.5981,197.554 -8.1829,98.819 -30.9219,197.718 -37.4743,296.335 -2.72,40.88 -14.7352,82.5105 -21.9505,122.968 -1.5124,8.4267 -3.6114,36.4876 -13.5276,39.4286 -9.3333,2.7619 -11.4286,-18.0419 -12.1562,-23.3029 -4.1714,-30.3162 -8.3657,-60.8571 -15.12,-90.7124 -11.4476,-50.5371 -39.5695,-99.9276 -45.5962,-151.192 -4.2743,-36.3848 74.4648,-86.4 15.219,-121.234 -6.7733,-3.9924 -14.2743,-5.3029 -22.0343,-5.6229 -9.3524,-0.4038 -19.0514,-0.3847 -28.221,1.7334 -32.1752,7.4781 -86.461,48.8038 -76.9257,86.8229 9.9581,39.6914 53.3371,24.2705 69.5276,50.9029 10.019,16.4686 8.9105,45.1124 13.7257,64.0038 14.9181,58.56 29.1695,117.2 36.0648,177.394 2.1562,18.7276 18.0838,53.9238 9.2914,71.4819 -1.2076,2.4228 -50.6781,19.5543 -57.1467,21.6114 -18.3048,5.8247 -35.1162,-44.9752 -42.4571,-56.8076 -10.48,-16.8533 -31.021,-35.0743 -35.779,-54.4267 -4.1752,-16.9943 7.5772,-36.7695 6.8343,-54.4305 -1.7143,-40.5371 -42.1752,-68.2971 -80.3733,-54.7086 -53.6038,19.0895 -93.9429,99.28 -32.1943,135.044 21.8133,12.6362 54.9943,-4.1943 71.4438,11.2876 25.3981,23.8895 45.2533,69.2648 56.5829,101.863 6.0076,17.2762 -14.6324,21.6495 -23.3219,32.7162 -9.4743,12.0952 -11.6343,29.0476 -11.9733,43.9276 -0.6666,30.1943 4.7962,55.3752 9.6953,84.6667 1.3104,7.7981 2.7009,24.2476 -5.3638,29.1886 -10.9638,6.7123 -45.76,-25.8857 -56.8076,-31.3486 -28.2629,-13.9695 -53.5619,-40.4571 -68.3771,-68.3962 -13.5657,-25.5619 -17.3752,-48.7467 -42.4952,-66.8076 -29.7943,-21.3867 -83.9619,-30.7619 -111.276,0.8457 -6.2286,7.2 -10.301,16.3924 -12.2362,25.6419 -14.9562,71.3638 58.541,71.5657 92.1256,112.891 21.8325,26.8914 24.8344,64.2667 32.6172,96.7619 4.2133,17.5962 28.5447,80.3924 10.259,91.2762 -40.3353,24.0114 -71.5619,-39.2876 -90.7924,-61.04 -9.2724,-10.48 -21.1887,-18.9905 -29.3334,-30.419 -20.297,-28.4838 2.0381,-68.579 -14.6742,-98.5752 -25.0782,-45.0971 -61.303,-16.1257 -98.4343,-21.5505 -38.2019,-5.5848 -52.3733,-31.6876 -92.6705,-7.8019 -7.741,4.5981 -14.2324,10.5219 -20.0571,17.379 -24.2324,28.5029 -18.3657,54.5867 6.4685,80.1905 7.2991,7.4971 20.461,14.5143 24.1714,24.6933 4.6972,12.8838 -15.8248,26.1448 -21.4895,36.0838 -11.9733,20.9676 -3.1047,53.059 12.0152,70.1943 26.0038,29.4514 82.4686,13.0019 117.768,25.459 39.0057,13.7486 47.0895,47.5771 72.4914,75.6952 9.8591,10.9295 46.9905,44.1486 40.56,59.9543 -12.2781,30.1371 -76.6438,8.3238 -98.941,11.8324 -13.8476,2.179 -28.6438,9.3752 -42.3124,2.7619 -28.5638,-13.7676 -23.101,-43.6229 -30.381,-68.499 -6.3085,-21.5886 -30.7619,-38.5029 -52.2895,-42.5943 -29.7943,-5.6648 -76.3429,5.4819 -81.5238,40.579 -2.419,16.3886 15.5048,39.0476 -2.0952,51.4629 -17.539,12.3581 -51.3448,-9.2305 -71.6038,-8.5067 -70.1105,2.56 -73.76,73.661 -44.9943,120.29 41.8705,67.9124 99.9886,-42.0533 143.771,-45.2381 29.3905,-2.1371 23.9886,34.8343 46.5067,43.12 18.1829,6.6933 63.7219,2.8838 66.9486,30.461 2.1943,18.8267 -24.5143,30.2781 -38.8686,34.2095 -48.099,13.2038 -101.375,10.461 -132.823,56.4229 -15.4248,22.5562 5.5428,72.3086 -30.461,76.5638 -36.7695,4.3543 -79.5467,-49.9543 -100.994,-72.5333 -36.5676,-38.5029 -74.7695,-73.5162 -96.8229,-122.968 -26.6514,-59.7105 -27.6381,-132.644 -46.3276,-195.539 -39.4095,-132.545 -151.109,-185.036 -261.84,-249.566 -52.1295,-30.3581 -126.232,-72.6514 -187.474,-77.0057 5.28,13.1048 20.541,18.0038 32.2514,24.3924 28.0229,15.3219 56.7467,29.3105 84.6667,44.8114 85.1924,47.2952 192.678,106.861 248.598,188.827 59.0438,86.5448 35.2571,206.446 82.8114,296.335 28.9067,54.6514 77.4514,89.7067 112.122,139.093 10.1829,14.4952 0.9905,31.5886 12.0152,45.8438 12.56,16.1867 56.4876,26.6095 61.6648,44.4076 3.5276,12.0952 -25.7219,32.5181 -33.4819,39.8743 -23.4667,22.3352 -33.9276,55.859 -15.4629,85.5543 3.7905,6.1067 8.4076,11.9352 14.0114,16.4914 45.1543,36.8495 65.1314,-32.3771 102.103,-34.5333 10.8457,-0.6247 17.539,14.7771 22.72,22.0952 16.4686,23.181 30.9638,49.7905 50.3962,70.5333 6.3505,6.7733 23.1619,17.5581 23.1619,27.859 0,7.9238 -11.5314,11.3714 -17.4362,13.4476 -21.7295,7.661 -44.6324,12.3581 -66.5219,19.7752 -54.3505,18.4038 -100.453,10.6629 -157.238,13.8095 -40.32,2.2172 -84.7086,13.3829 -122.971,25.9238 -159.916,52.4914 -332.556,163.566 -411.337,318.507 -53.6419,105.49 -72.4114,228.64 -100.792,342.697 -15.7067,63.12 -37.4362,124.663 -54.4914,187.478 -3.7105,13.6457 -22.4762,50.7581 -11.5505,62.7352 7.6419,8.3657 17.5581,-1.4743 21.3486,-8.4495 9.4552,-17.3562 12.4571,-39.4286 17.84,-58.3162 24.2324,-85.0095 51.4438,-169.276 77.2076,-254 27.939,-91.9657 52.7352,-199.09 110.27,-278.19 24.5105,-33.7257 62.0457,-55.3562 95.4895,-78.8038 76.5448,-53.6419 150.606,-92.2438 239.89,-119.783 27.0324,-8.3238 50.4571,-26.7695 78.621,-31.5886 89.3219,-15.28 178.122,21.4514 266.095,7.6 22.8571,-3.5886 43.3981,-21.1048 66.5219,-26.3657 34.0686,-7.741 68.2362,0.3619 100.792,-18.7467 18.5257,-10.8876 39.9962,-54.8533 64.5105,-47.5771 51.4629,15.28 60.3733,46.0038 84.9257,87.4705 50.9029,85.9543 60.72,187.615 93.2343,280.206 56.9714,162.259 133.07,312.64 287.505,402.427 45.299,26.3276 89.9695,39.1086 139.097,54.5714 33.8057,10.6248 72.4305,14.3924 104.823,28.4038 20.6438,8.9105 60.0343,32.8381 83.821,24.7962 19.1924,-6.4724 -26.6476,-28.0419 -31.4057,-30.9638 -39.8362,-24.3543 -83.84,-55.3181 -127.002,-72.7924 -68.1752,-27.6 -132.362,-52.1333 -191.509,-97.8743 -144.434,-111.676 -199.048,-294.579 -231.863,-465.806 -10.221,-53.379 -9.5162,-107.707 -19.5962,-161.269 -2.64,-13.9924 -17.859,-44.6324 -7.9619,-57.0324 8.5867,-10.7619 31.6076,-4.3124 43.7257,-6.6095 21.3067,-4.0724 39.8324,-20.2819 52.4724,-37.1543 19.1886,-25.581 24.9143,-59.4476 21.5886,-90.7124 -1.5505,-14.3962 -17.0743,-36.5905 0.8266,-45.699 16.2895,-8.3086 35.539,1.2876 52.1105,4.1905 38.8876,6.8152 77.2686,14.0305 116.922,15.181 126.678,3.6876 272.926,-5.8058 395.109,-41.1657 148.328,-42.9371 299.68,-96.339 437.448,-166.994 121.634,-62.4114 232.389,-143.73 356.808,-200.396 111.638,-50.8229 230.415,-88.941 338.667,-146.373 27.4743,-14.5752 88.6781,-26.7505 104.827,-53.7448 -43.5429,-4.8572 -102.45,23.8286 -143.128,38.221 -67.1505,23.7486 -138.027,36.6705 -205.619,60.3352 -155.909,54.6324 -292.423,139.299 -435.429,219.931 -39.7524,22.3962 -75.6952,49.9733 -116.922,69.8933 -124.015,59.9314 -257.345,87.2457 -389.063,124.053 -109.322,30.541 -229.566,37.5962 -342.697,37.901 -34.9371,0.099 -81.7448,15.379 -114.663,-2.1372 -13.8514,-7.379 -11.6724,-23.5848 -17.4171,-36.1638 -6.4914,-14.1943 -25.9657,-26.7124 -27.821,-42.2133 -1.3904,-11.5314 12.3581,-15.5848 20.8038,-18.5257 23.8895,-8.3276 48.141,-11.5733 65.3562,-32.1333 15.0362,-17.9619 5.421,-56.2819 25.68,-66.8686 16.7124,-8.7086 37.0743,9.6991 52.0914,15.341 23.3638,8.7695 52.4724,9.901 76.6019,3.2267 13.6686,-3.8095 27.5581,-12.2362 37.1733,-22.64 5.04,-5.4629 10.9257,-18.6857 19.5543,-18.7467 13.9924,-0.061 25.5429,35.6 32.2743,45.4781 15.7829,23.2038 5.341,47.6343 18.5676,68.179 8.7277,13.5848 36.7086,20.4381 51.6876,24.4914 51.7257,13.9505 111.074,-15.1581 136.533,-60.4152 34.2095,-60.8 -19.2533,-108.415 -80.0914,-89.5848 -18.6057,5.7638 -46.061,31.4667 -64.4686,29.9962 -16.9524,-1.3714 -56.2629,-59.7524 -48.32,-76.24 6.8343,-14.1333 65.0933,-19.7981 80.5371,-25.3219 45.7371,-16.3695 88.6971,-3.4248 135.063,-10.9029 14.9752,-2.4191 23.059,-15.8857 36.3238,-21.8324 25.44,-11.4324 50.1143,-14.8571 74.5486,-30.461 25.2381,-16.1067 63.7829,-46.3848 63.76,-80.0495 -0.019,-28.4648 -32.7771,-44.4914 -57.7143,-44.1486 -51.04,0.7467 -93.8971,43.8057 -137.078,64.6895 -12.9829,6.2895 -57.9352,13.4057 -60.88,-10.7238 -0.9485,-7.8819 11.3105,-12.541 16.5295,-15.7638 17.619,-10.9257 28.3048,-29.8781 46.3657,-39.9771 40.7429,-22.7162 94.1638,-20.7619 134.945,-45.68 14.3733,-8.7886 26.4076,-26.5867 37.1124,-39.4286 11.5886,-13.9086 31.0019,-32.4762 28.099,-52.4114 -9.9771,-68.16 -95.8743,-38.8457 -133.63,-26.2286 -10.5257,3.5086 -45.8438,14.1905 -52.4343,-0.8648 -3.9695,-9.1124 20.7848,-16.2286 26.2286,-18.7505 28.2819,-13.04 65.4552,-19.2305 90.4914,-37.4743 46.9676,-34.2705 -13.4476,-61.6038 -18.8876,-94.08 -5.1809,-30.9219 31.2838,-66.6057 -13.1848,-87.0057 -66.5867,-30.541 -98.0343,45.3981 -137.261,77.3676 -24.0914,19.6381 -62.1714,27.901 -90.4914,40.701 -43.9086,19.8362 -78.7619,49.4705 -103.962,-12.9219 -8.2247,-20.3771 26.1257,-37.9581 39.4514,-47.6533 40.5181,-29.4743 78.621,-62.9143 116.903,-95.1086 13.8286,-11.6114 27.8971,-35.1962 46.3848,-39.3105 10.9029,-2.4381 22.0114,6.5905 32.2514,9.2115 24.5562,6.2514 49.0895,1.9771 67.9771,-15.7029 52.7352,-49.3295 -10.08,-158.971 -76.0381,-125.688 -21.8552,11.0248 -39.5543,29.6533 -44.3695,54.2057 -2.8038,14.3733 5.44,28.9067 -5.4438,41.2457 -19.7943,22.4762 -51.3448,37.6152 -75.1733,55.5581 -41.6686,31.4057 -80.7962,73.4362 -129.013,94.7048 0.8458,-22.0152 21.4057,-43.6838 31.9086,-62.4914 23.6267,-42.2933 43.9086,-86.6629 63.341,-131.032 26.5867,-60.781 42.1524,-125.752 59.5695,-189.493 5.7448,-21.0057 2.8419,-49.2267 12.64,-68.3581 14.0305,-27.3752 59.5657,-18 74.7276,-52.5943 25.821,-58.9829 -70.3352,-117.002 -116.983,-77.4286 -46.8267,39.7524 5.4019,71.581 -3.5885,113.714 -22.3962,105.048 -60.2552,201.65 -101.234,300.366 -12.7619,30.781 -27.7181,59.9124 -44.5105,88.6971 -3.6496,6.2704 -14.5752,28.2248 -24.6552,22.739 -12.419,-6.7734 4.1333,-39.6914 7.0552,-48.9448 15.28,-48.179 24.4914,-99.4819 33.8248,-149.173 37.3371,-199.048 56.9295,-413.699 20,-614.842 h -8.0648 z"
          style="fill: rgb(16, 14, 12); stroke: rgb(19, 21, 22); stroke-width: 0.967619;"/>
 </g>
</svg>