<?xml version="1.0" encoding="UTF-8"?>
<svg xmlns:cc="http://creativecommons.org/ns#"
     xmlns="http://www.w3.org/2000/svg"
     xml:space="preserve"
     width="7.9573951in"
     height="6.7242107in"
     style="clip-rule:evenodd;fill-rule:evenodd;image-rendering:optimizeQuality;shape-rendering:geometricPrecision;text-rendering:geometricPrecision"
     viewBox="0 0 7957.3951 6724.2107"
     version="1.1"
>
<g transform="translate(-183.10079,-2150.0561)">
        <path d="m 6442.19,6995.68 c -3.874,4.2559 8.4055,10.8228 10.8071,12.2992 15.6732,9.5512 32.189,17.748 47.9843,27.1299 53.4409,31.7795 107.26,47.5591 166.358,64.5551 11.7677,3.3937 32.3031,2.4095 41.4094,-9.3228 4.3228,-5.5709 -7.2559,-9.8937 -10.6339,-11.3189 -15.1417,-6.4134 -10.1772,-1.1733 -25.6299,-6.7481 -58.0551,-20.9055 -115.835,-41.4882 -173.217,-63.5945 -8.3346,-3.2047 -50.5433,-20.1693 -57.0787,-13 z M 2614.72,3430.93 c -25.689,5.2441 -37.3346,65.8819 -45.2756,87.3583 -32.3622,87.4646 -73.9331,173.091 -110.531,258.969 -11.4764,26.8976 -20.0866,54.7953 -29.878,82.3228 -2.8976,8.1457 -5.0748,25.1772 -12.8465,30.1142 -12.5197,7.9567 -41.9291,-49.9409 -59.374,-12.7244 -6.1221,13.0669 -3.7205,30.3189 -5.9331,44.3504 -5.9685,37.7835 -11.8504,75.4764 -18.1457,113.193 -10.752,64.5709 -20.0315,129.224 -30.3031,193.795 -11.0276,69.2362 -22.811,140.839 -11.4213,210.949 15.3661,94.4488 62.3228,180.85 74.2756,276.122 9.0551,72.1181 9.504,149.449 -3.311,221.24 -8.3661,46.8701 -25.122,91.8228 -33.2362,138.917 -4.5787,26.5472 -15.1614,55.2559 -13.7362,82.3189 0.4803,9.2953 2.8977,28.2126 16.5827,25.3819 11.3543,-2.3307 13.4488,-17.7835 15.0433,-27.0945 4.8189,-28.5394 8.3347,-57.5748 14.9213,-85.752 29.4961,-126.142 49.9724,-245.492 32.7913,-375.594 -11.5945,-87.7913 -57.2323,-166.921 -70.248,-253.823 -9.7244,-65 -0.6338,-127.803 8.2835,-192.083 8.6102,-62.1378 15.9646,-123.776 29.0866,-185.224 6.9803,-32.7205 9.8937,-66.5433 16.2244,-99.4724 2.0393,-10.6142 1.3189,-25.5866 6.3976,-35.1417 4.6614,-8.7795 11.9685,1.3898 14.7638,6.0905 6.3622,10.6654 27.937,50.1457 44.5591,33.0157 11.9528,-12.3504 7.063,-44.4567 8.8819,-60.5591 4.2362,-37.5945 19.4134,-73.3189 33.374,-108.047 37.7992,-93.9843 79.7323,-186.106 118.646,-279.551 8.6968,-20.878 23.4646,-48.6969 27.6969,-70.311 2.1102,-10.6732 -5.8819,-21.0827 -17.2874,-18.7598 z m 4328.67,-725.61 c -6.0709,2.0118 -10.9055,7.7402 -15.3661,12.0394 -4.5787,4.4055 -21.5079,14.8622 -20.5984,22.0984 1.374,10.7283 53.5433,19.2638 62.2756,15.7913 11.1654,-4.4331 -10.8071,-55.0591 -26.311,-49.9291 z m -49.5039,4433.28 c -9.5945,27.563 -14.0866,60.7165 -18.5197,78.8268 -29.9449,122.539 -97.1142,319.811 -132.461,440.945 -9.5551,32.7244 -19.6063,66.063 -26.5,99.4724 -2.2795,11.0787 -2.4685,30.6299 -15.0394,35.3819 -11.4409,4.3189 -28.5394,1.4724 -40.8858,3.0512 -41.0236,5.2126 -82.3071,6.0354 -123.484,10.3937 -73.8661,7.8189 -151.437,33.9921 -221.236,58.7559 -29.4843,10.4606 -59.3583,22.7756 -89.185,31.7126 -8.5906,2.5866 -23.4409,9.5669 -31.5197,3.0669 -9.9134,-7.9921 -4.1339,-25.4134 -3.2598,-36.0315 2.2992,-27.3543 15.8661,-71.9606 6.4133,-97.7559 -10.2717,-28.0236 -47.5551,-15.3858 -53.8504,-37.7835 -17.4921,-62.2362 -15.6575,-129.673 -19.2087,-193.748 -2.4527,-44.2126 -11.1811,-87.9094 -14.7323,-132.055 -1.8464,-22.9921 0.055,-96.3622 -1.2283,-157.874 63.8071,16.6181 128.638,28.4134 196.28,39.4331 50.5945,8.2323 95.4764,-1.4409 145.776,-3.2401 22.2126,-0.7914 57.0433,-2.4882 72.4606,-21.0433 18.5591,-22.382 -3.3071,-42.5157 -22.7244,-53.0119 -47.4724,-25.6575 -97.8425,-42.4291 -145.776,-66.2362 -15.7795,-7.8543 -31.6929,-14.1811 -48.0039,-20.7835 -1.5787,-0.6377 -16.7913,-7.2204 -11.4055,-10.3071 9.3622,-5.3543 54.8976,14.3543 66.2677,17.7323 60.7126,18.0433 123.74,37.4213 186.941,44.5197 58.3937,6.5709 118.508,-3.5472 173.217,-25.0551 10.0315,-3.9448 20.8386,-10.2047 25.6575,-20.3228 4.6811,-9.7598 -4.3228,-27.1653 12.1575,-25.6929 45.1181,4.0316 89.7795,24.9724 133.85,37.6496 z m -729.051,-2994.15 c -17.748,5.7598 -29.9252,27.7323 -39.0157,42.7047 -26.0512,42.8583 -43.6142,97.6181 -49.752,147.492 -17.8031,144.524 89.1969,259.449 139.638,385.882 17.4409,43.748 15.8622,105.646 19.1024,152.638 9.2126,133.256 -98.6142,242.075 -169.067,344.72 -16.189,23.5827 -34.4724,43.8346 -46.0984,70.315 -20.1181,45.7598 -10.2913,104.531 -7.685,152.638 1.7007,31.1811 -2.9489,63.2835 -5.3662,94.3268 -12.5394,160.819 -29.2953,322.665 -36.874,483.638 -2.5905,55.0197 1.8189,111.102 -1.8858,166.358 -2.9646,44.1024 -19.2992,173.543 -39.9567,255.575 -9.689,38.4843 -4.7244,28.6929 -45.1457,20.1772 -66.2756,-13.9724 -132.224,-29.9134 -197.98,-46.6457 20.0118,-77.8465 51.3268,-232.52 63.6614,-271.98 45.3268,-145.075 81.8228,-307.11 90.7913,-459.63 3.5157,-59.6654 18.3189,-120.567 -12.9134,-174.933 -43.1142,-75.0315 -131.575,-32.4488 -191.398,-12.5709 -19.8583,6.5866 -40.2323,11.748 -60.0236,18.4724 -23.0866,7.8543 -45.5866,17.6969 -68.6024,25.8465 -8.4567,3 -20.8543,6.0512 -25.2638,-4.6654 -5.5709,-13.618 6.9134,-33.3936 11.252,-45.9488 13.1181,-37.8307 26.3071,-74.3779 41.5394,-111.4759 55.2047,-134.4211 120.996,-270.768 142.622,-415.035 7.9055,-52.7047 2.8976,-106.709 -0.7047,-159.5 -1.9213,-28.2953 -7.4449,-59.4252 -0.7717,-87.4646 5.4213,-22.7756 25.622,-39.9962 38.9646,-58.311 26.2244,-35.9803 53.5118,-75.3583 73.9882,-114.909 48.6024,-93.7756 92.252,-189.768 135.248,-286.409 18.5197,-41.6063 27.9016,-91.0315 53.9528,-128.626 32.4134,-46.7677 85.9921,-74.1575 136.295,-96.5748 28.4528,-12.6732 70.8976,-23.6299 85.4921,-54.3465 8.3858,-17.7008 -5.9488,-26.9606 -20.3228,-33.3937 -27.1142,-12.1575 -54.0394,-21.1969 -84.0354,-22.9646 -8.1968,-0.4804 -36.7362,3.9448 -34.2835,-10.7362 4.0315,-24.1142 36.9567,-54.1614 51.2795,-73.5394 39.5827,-53.5787 73.9685,-109.78 111.512,-164.642 60.6772,-88.6535 111.512,-182.846 167.539,-274.406 28.0945,-45.9134 62.5669,-87.374 89.7638,-133.772 31.9882,-54.5394 64.9488,-107.071 100.142,-159.5 12.4016,-18.4646 18.248,-43.5354 35.0039,-59.0709 13.1024,-12.1417 27.7835,10.7441 35.0197,19.626 19.9803,24.5866 43.2205,45.2402 66.5787,66.5669 7.6339,6.9685 20.5472,21.2323 31.8661,13.4921 14.6457,-9.9922 -1.7677,-25.6142 -9.2441,-33.752 -26.2047,-28.4724 -50.6299,-58.0157 -75.685,-87.4488 -5.3346,-6.252 -27.9528,-19.8701 -24.3031,-28.9409 12.248,-30.4213 71.7244,-19.3189 94.5157,-15.5276 11.185,1.8622 29.6732,7.3346 36.3425,-5.7284 12.5354,-24.5866 -52.4803,-27.563 -65.4961,-29.7126 -3.9803,-0.6575 -19.8937,-0.8858 -20.752,-6.2402 -1.185,-7.3267 17.7323,-19.3661 22.4646,-23.5276 8.2323,-7.2283 25.8465,-32.3425 37.748,-30.2126 14.8346,2.6536 38.126,50.4094 54.3858,27.6811 15.3504,-21.4646 -41.4882,-59.3898 -16.189,-76.2559 10.2047,-6.7952 31.622,-19.0709 44.1102,-18.1575 10.6142,0.7717 21.5551,12.0394 29.1024,18.7244 28.2283,25.0354 40.9724,54.2953 49.0866,90.122 3.0512,13.4685 -4.5118,59.7756 17.8701,58.2598 16.9606,-1.1496 17.3543,-21.8819 17.0787,-34.248 -0.7874,-34.4606 -4.185,-75.6299 -20.1339,-106.335 -3.7559,-7.2244 -28.4685,-30.7598 -16.9764,-35.4921 18.6063,-7.6535 79.9882,-21.4488 91.4252,1.4056 10.7559,21.4882 13.2756,50.2874 19.2795,73.5315 2.3662,9.1378 5.7441,23.1535 17.3898,23.9606 30.5787,2.122 7.374,-65.4291 4.0473,-78.8386 -1.5079,-6.0394 -7.3583,-22.2638 3.7047,-22.6496 19.2244,-0.6693 48.2087,33.7126 60.1969,46.7323 7.4764,8.1259 16.9291,21.2638 29.3268,13.1417 25.9843,-17.0394 -30.7165,-54.7835 -42.4291,-65.2559 -18.1457,-16.2283 -44.9331,-19.5276 -60.9016,-34.8189 -16.6024,-15.8898 -20.9409,-52.8661 -26.378,-74.3543 -1.937,-7.6575 -7.3543,-17.7992 -4.9882,-25.7244 4.6457,-15.5236 30.1142,-37.2047 44.248,-44.437 18.7087,-9.5827 47.3858,-2.6693 66.8858,1.2165 33.5945,6.7008 64.4685,6.7795 92.4567,30.4843 32.6535,27.6575 41.2992,73.1535 72.252,100.819 19.4173,17.3425 41.315,32.0118 59.3425,50.8504 6.3779,6.6614 15.4843,17.5984 25.8976,12.3071 27.0433,-13.7441 -28.5039,-65.7559 -38.315,-79.2087 -18.626,-25.5591 -20.5472,-57.5551 -33.3386,-85.752 -22.7598,-50.1535 -67.4528,-71.5236 -119.984,-76.0748 -6.4843,-0.5591 -54.0394,0.9646 -44.7795,-9.9764 13.685,-16.1299 41.4528,-24.7205 60.2126,-33.2244 20.6496,-9.3701 43.0157,-23.7835 65.1732,-28.748 51.7598,-11.5906 97.8583,24.3386 133.772,55.0394 30.6142,26.1614 51.6378,48.3583 89.1811,64.311 10.8583,4.6181 25.6417,13.8425 37.6457,8.8307 10.7874,-4.5078 15.9331,-16.2874 7.5787,-25.626 -11.7283,-13.1142 -32.6378,-17.2402 -46.9213,-27.1299 -18.9843,-13.1457 -32.8425,-33.1654 -51.4685,-47.2323 -4.9055,-3.7086 -33.0472,-20.1378 -29.1732,-27.6181 3.567,-6.8622 29.3976,-1.7677 36.0315,-1.7598 26.5827,0.031 54.1969,-2.1221 80.6063,1.2559 11.1339,1.4252 27.5276,5.6811 36.1732,-4.0315 25.0394,-28.1339 -43.2717,-27.626 -55.0354,-29.3228 -66.7323,-9.6142 -134.547,-21.8583 -202.374,-15.1299 -47.7323,4.7323 -87.9488,23.1299 -132.059,40.7795 -11.0079,4.4094 -23.9055,2.5315 -34.2992,7.685 -16.0354,7.9449 -27.3031,24.2283 -42.878,33.374 -53.748,31.5472 -102.299,60.0551 -150.921,98.8465 -25.622,20.4449 -55.0512,34.311 -78.8228,57.2047 -13.4134,12.9173 -17.5118,30.0394 -28.6063,44.2992 -20.1693,25.9173 -51.8622,58.3898 -76.9882,79.248 -13.4449,11.1614 -30.563,-9.2047 -44.1457,4.1457 -15.6575,15.374 -4.8189,37.7008 -12.5197,55.5236 -11.7126,27.1142 -38.878,52.2283 -56.9567,75.4606 -8.9173,11.4606 -17.748,27.5709 -29.9252,35.7559 -15.1457,10.1693 -33.2874,11.9685 -46.4606,26.5039 -3.2401,3.5748 -8.1653,14.2402 -14.3031,12.5984 -7.0315,-1.874 -9.8779,-15.8898 -12.0551,-21.6929 -10.5157,-28.1575 -0.5,-50.2913 1.937,-78.8898 1.063,-12.4449 -7.685,-25.8661 -21.3189,-18.3189 -31.0079,17.1654 -35.5354,57.1575 -30.063,88.6339 4.2874,24.752 19.2756,47.4488 24.8504,72.0315 5.3859,23.7205 -7.4606,84.311 -22.8976,102.902 -50.2835,60.5866 -105.37,115.937 -154.028,178.366 -21.815,27.9685 -36.3071,61.4921 -58.0866,89.1732 -32.4488,41.2283 -71.2244,76.874 -102.457,120.059 -24.6614,34.1299 -41.315,73.5433 -65.1024,108.047 -50.1299,72.7362 -107.465,141.547 -149.909,219.524 -32.7402,60.1811 -49.6496,125.866 -76.3189,188.654 -50.4409,118.764 -113.689,234.016 -176.528,346.437 -27.6457,49.4409 -52.311,109.28 -86.0079,154.35 -24.252,32.4331 -48.1417,25.9843 -84.4685,29.6024 -53.0945,5.315 -117.512,2.5197 -168.071,19.5 -57.1969,19.2087 -108.819,62.9921 -156.067,99.0079 -65.8583,50.1811 -136.5,97.7913 -192.996,158.984 -84.5472,91.5669 -128.846,204.362 -172.598,318.894 -63.6614,166.614 -119.984,343.657 -204.74,500.787 -34.5748,64.0748 -109.374,193.953 -128.72,264.252 -2.3543,8.5394 -6.4409,20.1024 -9.0826,31.9606 -15.5709,-6.9094 -31.0748,-13.9724 -46.4764,-21.2913 -75.2717,-35.7756 -161.283,-67.6772 -222.799,-126.157 -5.6615,-5.3701 -12.9488,-13.189 -8.2835,-21.3543 12.7913,-22.4488 35.0197,-26.4094 29.9606,-57.0945 -3,-18.2283 -36.5669,-53.9173 -27.7323,-69.8346 15.1614,-27.3386 58,-30.0827 69.6142,-63.937 6.6535,-19.3976 -2.2126,-43.937 -13.2756,-60.0236 -5.2835,-7.685 -19.1417,-18.7638 -17.0315,-29.122 4.5787,-22.6378 43.185,-32.5354 52.685,-54.9173 8.1811,-19.2598 -1.9016,-43.4921 -14.7638,-58.2087 -5.6772,-6.5157 -19.1575,-14.4921 -19.122,-24.1299 0.051,-10.2559 14.4921,-18.0748 20.8189,-24.5591 11.7992,-12.0709 22.8976,-29.9252 21.8661,-47.4528 -1.3386,-22.5709 -12.1063,-46.0512 -26.0157,-63.4567 -7.185,-9.0039 -24.7323,-22.2441 -25.7087,-34.2677 -1.0276,-12.7598 22.2087,-26.9921 30.0984,-35.1063 20.4606,-21.0433 25.6063,-52.9606 9.4488,-78.1181 -22.0197,-34.3346 -60.4724,-65.0354 -96.4331,-83.5748 -9.8307,-5.0591 -49.3425,-15.126 -52.0866,-25.8976 -2.4527,-9.6221 33.2874,-22.5157 40.0787,-26.685 32.3819,-19.8937 68.0866,-44.7087 66.5945,-86.7992 -1.559,-43.9882 -41.4528,-80.8976 -78.5984,-99.2795 -10.7874,-5.3347 -53.2874,-14.3386 -55.8425,-26.5 -3.0866,-14.8701 35.5709,-41.7953 45.4488,-50.7638 37.6102,-34.0945 89.0118,-80.622 100.965,-132.161 12.2283,-52.685 -62.1693,-65.0512 -99.1457,-72.8346 -8.4212,-1.7677 -38.0039,0.1024 -40.563,-10.5157 -3.1378,-13.0315 30.3425,-31.7087 38.8465,-38.4331 29.7756,-23.4961 68.9094,-59.6142 73.1457,-99.4528 2.8662,-26.8583 -18.6063,-35.315 -40.5591,-41.2992 -44.1969,-12.0236 -107.102,-15.5748 -152.638,-11.0787 -8.7126,0.8583 -61.9646,11.1457 -63.6299,-1.1142 -1.0787,-7.9252 14.1181,-18.815 19.0394,-23.6339 21.7441,-21.2323 45.6181,-39.7559 66.7323,-61.7913 72.4606,-75.6181 139.244,-155.469 195.614,-243.535 17.9213,-27.9882 49.6496,-79.4921 29.7244,-113.157 -17.185,-29.0354 -49.1535,-20.2717 -74.2638,-9.3661 -62.752,27.3031 -122.949,64.1417 -183.508,96.0591 -18.7598,9.8976 -37.2677,20.4961 -56.5945,29.2441 -3.5669,1.6102 -17.3386,9.2756 -20.685,4.5787 -4.4921,-6.311 15.2323,-22.2795 18.9685,-25.7598 23.4449,-21.9213 45.2441,-46.7205 66.5079,-70.7795 57.9528,-65.6024 117.823,-130.433 162.965,-205.803 18.2126,-30.4331 38.9803,-73.7165 25.0039,-109.756 -12.2795,-31.7047 -48.622,-24.1575 -70.9685,-9.8346 -62.0472,39.7717 -118.677,87.3898 -181.791,125.76 -19.7598,12.0157 -38.811,25.3583 -58.311,37.8504 -2.7795,1.7795 -17.2008,12.5079 -19.4646,5.6456 -2.9015,-8.7283 14.2677,-22.0669 19.2402,-27.3701 21.6772,-23.1181 42.0866,-48.6929 61.4685,-73.748 36.2362,-46.8386 68.4646,-96.622 103.913,-144.063 40.2323,-53.8622 85.1142,-108.52 110.48,-171.504 10.6693,-26.4567 25.1102,-51.2244 32.7244,-78.8898 2.7953,-10.1732 6.5355,-23.9961 -1.4921,-32.8228 -17.4409,-19.1575 -53.1654,12.6575 -66.7677,23.3386 -57.5906,45.2283 -109.091,99.6811 -164.642,147.528 -16.0354,13.815 -33.7008,25.4094 -49.7362,39.1339 -2.3504,2.0119 -13.5157,14.0079 -17.2008,10.1102 -4.1693,-4.4015 9.689,-20.815 12.0906,-24.3583 16.5157,-24.3819 31.6772,-49.6535 48.5866,-73.748 60.5079,-86.1969 108.819,-175.512 144.921,-274.406 7.9724,-21.878 23.0669,-92.7874 -3.3465,-106.303 -28.126,-14.3858 -68.8228,40.7047 -84.8071,58.2835 -71.7913,78.9921 -145.433,158.087 -213.677,240.102 -19.8425,23.8465 -37.7638,48.3228 -59.7835,70.3189 -3.4842,3.4685 -16.7913,20.4843 -22.7244,17.7756 -4.6299,-2.1181 13.1535,-32.6457 15.126,-36.6417 18.7441,-37.8583 42.2402,-74.0039 58.0197,-113.193 14.1496,-35.1654 32.8425,-69.1378 45.8268,-104.618 37.0276,-101.228 60.626,-209.016 84.8228,-313.85 7.5315,-32.5906 28.5039,-66.0433 30.5276,-99.4685 0.8229,-13.6969 -1.1141,-31.7717 -14.6811,-38.815 -11.8307,-6.1378 -23.0984,1.941 -31.8976,9.5906 -21.3189,18.5236 -37.8346,42.6457 -56.6811,63.5236 -82.0827,90.9173 -133.311,199.972 -203.61,298.413 -19.9803,27.9843 -36.5472,59.4134 -53.8189,89.185 -1.9527,3.3583 -13.2047,29.4882 -18.4882,25.7362 -6.4803,-4.6102 3.9449,-31.6181 5.5591,-37.7441 9.8425,-37.4567 21.5079,-74.7795 33.9764,-111.476 45.4646,-133.756 82.9724,-275.398 104.803,-415.035 5.1811,-33.1496 6.3976,-67.6614 6.0709,-101.189 -0.1181,-13.0157 -2.6418,-29.5472 -17.252,-34.0394 -24.9016,-7.6614 -59.7362,54.5118 -71.1575,71.7717 -57.5039,86.9528 -95.063,187.961 -140.957,281.264 -13.189,26.8268 -24.4567,54.6102 -35.6063,82.3228 -1.8504,4.6299 -8.7992,26.1614 -16.4134,23.4055 -7.7835,-2.815 1.8897,-25.3622 3.1574,-30.2677 8.5906,-33.1811 14.7992,-65.7677 20.5472,-99.4724 20.063,-117.587 42.7362,-237.307 46.6654,-356.724 0.8386,-25.685 21.3858,-105.091 -15.3858,-113.11 -25.8622,-5.6457 -53.6457,54.937 -62.2205,73.6654 -40.6299,88.7126 -72.5118,180.776 -105.819,272.689 -9.5157,26.2756 -21.4528,51.2441 -31.6929,77.1772 -1.9015,4.8189 -6.3779,23.8465 -13.874,22.6339 -9.0905,-1.4685 -4.6653,-23.9843 -3.9252,-29.4961 4.1497,-31.6378 2.9292,-64.1654 3.1693,-96.0394 0.9449,-123.087 -5.4015,-235.831 -29.685,-356.728 -5.7441,-28.5551 -14.0827,-55.8071 -29.689,-80.6024 -6.4134,-10.1654 -15.2283,-24.4646 -29.4803,-18.2165 -13.4803,5.9213 -17.4252,25.811 -19.2441,38.7953 -4.937,35.2598 -6.1378,71.1693 -11.4016,106.331 -21.8504,145.709 -48.5039,290.63 -82.7008,433.902 -9.8267,41.1772 -20.4764,82.185 -29.7402,123.484 -1.7126,7.6653 -5.3819,36.5866 -15.1063,38.0669 -9.7756,1.4882 -6.7598,-30.9724 -6.7598,-36.3543 0,-40.1575 2.6614,-79.9094 -0.4606,-120.051 -10.7362,-137.748 -9.6063,-274.866 -54.2638,-408.177 -10.5315,-31.437 -31.9685,-121.295 -79.0315,-113.654 -17.4567,2.8307 -18.2283,18.9016 -19.2244,33.0472 -2.1103,30.5669 2.2834,61.9724 4.0157,92.6102 5.6575,100.075 3.3071,198.232 -2.1968,298.417 -2.2284,40.752 -10,80.8661 -10.0512,121.768 -0.051,39.0315 -6.8583,82.0394 -15.6929,120.051 -1.6811,7.2244 -4.3544,33.2441 -13.7717,34.6378 -9.3268,1.3819 -10.1535,-25.5984 -11.0945,-31.2087 -5.8819,-34.7992 -9.6575,-71.1614 -13.0512,-106.331 -4.8701,-50.6063 -17.7874,-99.5079 -27.2362,-149.209 -13.3071,-69.8346 -26.7205,-143.417 -48.9291,-210.949 -10.9409,-33.2677 -24.748,-110.799 -77.7087,-92.315 -22.4331,7.8386 -22.3307,41.9134 -21.8307,61.4449 1.559,62.7441 11.5079,126.13 17.4252,188.654 5.5197,58.1693 14.5079,116.512 16.2756,174.933 3.5472,116.287 -9.504,233.37 -27.0472,348.15 -6.5866,43.0512 -17.1339,82.8268 -26.9606,125.197 -5.2126,22.5276 -11.4213,56.2008 -25.8268,74.7323 -12.2638,15.7953 -17.3071,-40.0551 -18.5906,-47.2913 -8.8347,-49.2441 -18.9173,-99.4961 -38.5197,-145.776 -6.1063,-14.4331 -23.0866,-42.5433 -42.7756,-32.7835 -19.5157,9.6693 -14.8504,49.3189 -14.1299,67.0827 2.6732,66.2992 -1.0315,132.823 1.7126,198.945 0.8425,20.3386 -1.5748,39.9016 -4.0473,60.0236 -0.4449,3.5433 -1.0945,18.5866 -7.3386,17.4882 -5.5748,-0.9764 -6.1732,-13.3583 -6.8937,-17.4882 -3.3976,-19.4173 -6.6023,-38.874 -9.8779,-58.311 -12.0748,-71.748 -27.374,-139.476 -58.5866,-205.803 -7.563,-16.0866 -31.8504,-60.5551 -55.189,-51.063 -19.5197,7.937 -12.811,51.563 -12.1102,68.2126 2.9842,70.6732 13.5669,142.028 18.6614,212.665 1.4724,20.5079 2.8622,41.189 3.3779,61.7402 0.1182,4.5748 1.4056,17.7047 -4.3385,19.8189 -5.7284,2.1102 -8.252,-13.252 -9.0748,-16.3898 -5.1772,-20.0669 -11.0787,-39.9488 -16.2244,-60.0236 -19.3937,-75.6142 -44.7598,-145.366 -84.8425,-212.665 -8.1103,-13.6299 -45.189,-78.1929 -65.0512,-35.7047 -19.6181,42.0315 8.7126,101.465 17.0315,143.752 16.8583,85.6811 23.4606,183.677 23.685,270.976 0.2559,102.906 -6.2756,206.701 -20.3583,308.705 -14.5433,105.421 -37.1142,210.417 -36.0827,317.28 1.4409,151.217 50.7992,298.417 61.2441,449.339 6.5511,94.689 -16.9291,179.685 -27.8189,272.689 -10.8228,92.3031 4.1496,186.803 4.1496,279.551 0,32.4843 9.8622,80.1614 -7.8386,109.626 -15.3819,25.622 -61.7559,33.9567 -86.4882,48.2756 -52.7717,30.5276 -105.457,63.8858 -166.358,76.1654 -56.6457,11.4213 -114.921,2.9685 -171.5,11.5945 -31.2441,4.7677 -63.126,6.7559 -92.6142,18.8307 -48.185,19.7402 -94.1457,52.7559 -145.776,62.5315 -23.1063,4.374 -47.3307,-2.4724 -70.3189,-5.2835 -35.2756,-4.2874 -71.5669,-5.8661 -106.331,-14.2677 -50.9567,-12.3307 -95.4252,-43.0315 -140.634,-68.122 -57.6299,-31.9843 -117.118,-60.5236 -174.933,-91.8898 -44.752,-24.2677 -86.70871,-53.374 -133.77201,-73.7323 -92.2087,-39.9094 -198.925,-44.8465 -289.839,0.9292 -32.185,16.189 -62.0709,32.9961 -89.1811,57.0394 -31.9173,28.2992 -67.5748,62.9606 -89.437,99.8346 -13.3071,22.4291 -17.8386,50.5906 -32.6457,71.7717 -15.252,21.815 -57.1969,24.8346 -80.2913,35.2953 -45.0118,20.3937 -88.5,50.7126 -123.823,85.1693 -15.7559,15.3661 -41.7638,31.5748 -39.937,56.4409 2.3189,31.5748 28.1693,38.5709 55.7126,39.5315 45.0551,1.5787 88.7835,-0.6496 133.772,-3.7205 19.6575,-1.3386 50.0512,-10.2756 68.6024,-6.0905 19.6535,4.4606 40.4724,27.063 58.311,37.1299 44.0433,24.8189 89.2441,47.252 137.201,63.4055 72.2323,24.3543 149.098,18.2165 216.094,56.6811 63.3701,36.3937 124.382,79.5787 190.37001,111.051 63.3661,30.2362 132.618,48.0354 190.366,90.0394 47.1299,34.2638 88.1772,75.9921 133.772,112.161 39.3937,31.248 83.063,55.8425 121.768,88 68.0787,56.5433 140.535,121.594 221.24,159.65 85.6614,40.3898 184.795,54.9685 277.835,70.4724 24.626,4.1141 57.8465,-3.2756 80.6063,4.4409 15.3504,5.2126 29.6693,16.9606 44.5906,23.8386 34.7283,16 70.9528,30.5945 106.331,45.0039 56.0669,22.8425 117.909,38.0394 171.504,66.2165 63.2165,33.2205 112.661,74.9961 181.795,98.0472 87.7402,29.2402 186.13,56.6142 277.835,69.063 51.3622,6.9803 102.937,13.0551 154.35,19.9488 23.4646,3.1378 49.2047,2.7244 71.9449,9.6732 6.4173,1.9725 12.5039,6.7559 5.9882,12.8622 -10.0157,9.3465 -25.6575,12.689 -36.7717,21.0079 -33.7677,25.3307 -61.4488,70.6772 -44.4882,113.295 20.685,52 48.2953,123.74 97.6535,155.055 50.4921,32.0551 134.169,30.4921 192.083,41.248 37.2677,6.9095 80.1811,31.5394 118.323,23.6142 52.4606,-10.9055 1.6457,-66.5748 -18.8504,-80.3819 -5.4685,-3.6693 -20.1496,-9.7244 -20.1496,-17.6299 0,-9.5551 18.8661,-10.5472 25.2953,-11.3189 18.8504,-2.248 69.8898,-4.5275 70.7283,-31.6614 0.4803,-15.7953 -19.4488,-19.9291 -31.2835,-22.5866 -35.6378,-8.0275 -73.2638,-12.6063 -109.76,-13.5157 -7.3425,-0.189 -42.5669,-4.9882 -29.5669,-19.1024 11.8661,-12.8976 49.0827,-12.1969 65.5827,-13.8425 63.7992,-6.3779 123.378,-0.9409 186.937,0.3622 48.3661,0.9922 97.2441,-3.3819 145.78,-3.3819 80.4488,0 151.642,4.7166 226.382,-31.8465 23.8386,-11.6614 48.4173,-25.2441 66.1654,-45.3465 23.8583,-27.0276 40.8189,-63.937 69.3583,-86.2638 42.8386,-33.5433 115.709,-42.3071 169.886,-42.2953 -12.3386,23.1614 -20.3819,56.185 -29.0591,71.0079 -38.2835,65.3937 -63.1142,140.579 -70.0079,216.091 -5.6103,61.3819 -0.02,124.307 -6.3819,185.224 -4.2205,40.374 -2.315,81.2913 -0.874,121.768 0.4094,11.6457 5.0945,35.811 21.9685,32.1378 14.4409,-3.1378 15.315,-25.811 17.2362,-37.2835 6.689,-40.1142 14.2165,-79.9528 21.0433,-120.051 17.252,-101.394 48.7087,-205.839 85.1693,-301.846 15.2598,-40.2283 43.1969,-81.4016 53.752,-122.512 16.8071,9.6733 33.4646,19.5709 49.3661,31.0315 63.4409,45.6535 132.264,89.5906 200.661,127.307 8.7677,4.8307 17.1142,9.8544 25.3701,14.748 -40.9252,40.1811 -84.6575,101.535 -113.764,124.004 -78.0669,60.2638 -107.071,136.063 -168.039,215.709 -30.1654,39.4134 -41.6575,89.4213 -69.0472,130.343 -17.1142,25.5709 -42.7205,44.2638 -61.6732,68.6024 -30.6299,39.3583 -51.622,88.6654 -61.9646,137.201 -11.1102,52.1378 -12.2441,108.441 -6.2599,161.213 5.7835,50.8701 19.7087,103.075 11.1654,154.354 -20.374,122.331 -92.8346,232.248 -115.508,355.012 -5.5197,29.8583 -9.6889,60.6417 -12.2953,90.8937 -0.9094,10.5827 2.1457,26.2087 16.3622,24.3031 26.5827,-3.5826 53.6811,-62.3583 63.1811,-84.3268 35.811,-82.8189 87.7598,-162.602 131.441,-241.819 29.122,-52.7913 76.1654,-102.236 84.3622,-164.646 12.6063,-95.9213 -31.815,-197.894 -6.7401,-291.555 14.9724,-55.9921 52.4803,-99.315 80.2441,-149.205 31.8504,-57.248 51.9173,-124.874 89.0787,-178.366 41.6614,-59.9724 49.8268,-131.587 98.7717,-185.335 23.0197,-25.3031 65.2165,-96.8583 89.9016,-142.205 6.7874,2.2481 13.8976,4.063 21.4528,5.2874 46.5472,7.563 27.2008,-42.5 18.7638,-65.3425 -3.567,-9.6889 -7.3071,-25.0748 8.7126,-22.4173 31.5551,5.2481 58.3465,20.5827 87.4331,32.4843 60.5079,24.7598 119.854,52.3898 177.276,83.7008 -9.4843,45.9252 -26.8819,128.311 -30.1772,149.768 -17.1535,111.717 -3.3977,226.776 -24.8346,337.858 -5.1811,26.8071 -32.9961,28.5394 -43.6811,51.4528 -49.1378,105.406 -113.724,202.374 -185.449,294.984 -57.3819,74.1063 -117.067,149.209 -156.598,234.961 -31.5748,68.5157 -48.0709,141.85 -66.9528,214.378 -16.9803,65.189 -37.1654,129.709 -52.1732,195.512 -3.6536,16.0039 -14.4409,56.8898 2.5039,67.9173 11.0433,7.1851 20.3583,-4.0472 24.937,-13.0512 12.5866,-24.7323 21.5906,-51.4882 32.0354,-77.1614 49.9409,-122.795 147.374,-210.157 221.429,-317.28 20.0669,-29.0197 38.6575,-58.7244 59.1693,-87.4685 2.8465,-3.9763 16.0866,-29.2559 22.3622,-25.5709 8.6103,5.0433 -3.4134,35.6063 -5.2126,42.7244 -11.0276,43.2874 -17.8346,89.4724 -23.4094,133.772 -21.1654,168.209 -40.4252,336.315 -64.1929,504.217 -5.7283,40.3898 -13.878,71.6378 -8.3701,113.193 2.0394,15.4016 11.8858,39.7913 32.0512,29.6024 14.7323,-7.4252 26.378,-28.0079 37.6811,-39.8937 16.2756,-17.0984 40.063,-43.8346 49.4252,-65.4094 7.1378,-16.4134 2.8307,-43.185 6.2284,-61.5 11.3701,-61.0394 20.0472,-122.713 32.4803,-183.508 35.3819,-172.929 89.2677,-340.606 126.878,-512.795 21.2835,-97.5 32.2598,-194.657 45.3819,-293.272 9.6732,-72.7835 39.3071,-149.394 37.1654,-222.953 -0.8228,-27.9567 -33.0512,-25.2638 -38.5197,-48.0906 -4.3583,-18.1969 4.2165,-45.2913 7.7834,-63.3858 5.5237,-27.8858 5.9016,-56.2205 10.9449,-84.0354 6.8741,-37.9724 20.6654,-74.5197 36.3071,-109.764 5.2599,-11.8543 22.4803,-65.3858 33.8701,-109.587 22.5669,6.4607 46.0157,9.8426 70.6772,8.1929 57.7953,-3.874 6.2599,-76.437 -6.8779,-97.5512 -3.6024,-5.7952 -25.126,-32.2756 -5.0236,-28.3819 49.9567,9.6733 101.067,42.2402 147.39,62.6496 67.4528,29.7165 134.957,59.0394 202.315,88.626 24.8071,10.8976 18.1102,5.7756 1.1929,29.0866 -41.2126,56.7717 -114.232,162.697 -144.992,203.031 -42.189,55.3268 -87.5709,110.433 -133.205,162.913 -22.9646,26.4252 -49.7559,47.9488 -67.5039,78.9055 -7.2559,12.6575 -12.0079,26.689 -7.6851,41.1614 4.0119,13.4449 15.8307,24.6811 10.7717,39.4449 -6.811,19.8465 -20.685,37.2008 -28.8465,56.5984 -30.0157,71.1378 -56.7008,146.705 -56.7165,224.669 -0.02,42.9764 -0.2755,86.2638 15.7087,126.909 23.1535,58.8976 70.1969,99.815 104.858,150.925 16.1024,23.752 25.1063,49.4606 39.1378,73.4882 4.3386,7.4449 13.0827,13.1732 21.6772,8.9528 23.752,-11.6811 10.0984,-81.7913 7.3583,-103.024 -5.4882,-42.4803 -13.878,-81.1181 -39.2756,-116.622 -39.3268,-54.9134 -96.3701,-93.5709 -86.4567,-168.071 8.8858,-66.8858 54.6063,-106.331 85.5472,-162.929 18.3504,-33.563 20.1181,-74.2756 41.0079,-106.331 21.2992,-32.6732 48.2756,-59.185 72.8543,-89.1811 63.1969,-77.0906 131.61,-155.76 187.28,-238.39 14.0787,-20.8937 53.3819,-81.815 82.8976,-128.988 10.6417,87.8189 28.5591,216.768 37.9961,266.189 23.6142,123.74 70.6772,271.972 29.0512,396.173 -12.7598,38.1063 -38.7598,65.1535 -60.8307,97.7559 -30.8386,45.5512 -57.9173,94.2598 -72.9252,147.492 -13.7362,48.7244 -19.1732,99.1811 -9.3268,149.209 3.6182,18.3701 10.752,47.9016 35.6181,45.2953 21.6614,-2.2835 17.7165,-38.4016 22.0906,-53.8701 16.9291,-59.9567 36.874,-113.331 63.4055,-169.787 41.2638,-87.7913 115.488,-152.965 151.453,-245.252 56.0157,-143.717 -11.0079,-284.264 -53.2677,-421.894 -8.1811,-26.6378 -23.6693,-129.992 -33.6969,-197.909 12.6339,5.3032 26.4213,9.5236 38.689,6.4606 37.5591,-9.4015 10.9055,-73.1496 -0.8582,-93.248 -2.437,-4.1496 -18.3346,-26.6693 -5.4016,-26.4961 20.7008,0.2559 44.6417,21.248 62.8701,29.7362 50.4921,23.5157 101.618,44.7638 152.638,67.0433 7.7165,3.3701 15.4291,6.6024 23.1339,9.7363 0.01,3.2047 0.024,6.4566 0.024,9.7322 0,45.8583 -0.7047,214.547 -4.9094,260.114 -6.7047,72.4961 -9.1063,145.28 -15.2795,217.807 -5.7126,67.0591 -16.3622,134.976 -16.689,202.374 -0.2362,53.7165 1.9212,107.669 5.4882,161.213 1.7008,25.4173 9.2441,58.8622 4.9567,83.815 -2.4016,13.9961 -25.9291,6.7048 -36.1693,10.4803 -17.4567,6.4292 -30.1339,24.3346 -39.752,39.4803 -53.3898,83.9646 -97.1929,176.492 -137.031,267.543 -12.9843,29.7047 -22.0394,67.0394 -42.2756,92.6102 -42.1063,53.2362 -103.52,88.7874 -142.811,145.78 -11.9724,17.374 -63.6811,72.0472 -33.8543,91.9921 9.9645,6.6733 24.815,3.8071 35.5669,0.8937 30.1339,-8.1968 62.3622,-22.811 90.8976,-35.6378 34.248,-15.4173 72.4449,-24.252 101.083,-49.7717 18.2677,-16.2756 26.1575,-36.9921 38.6575,-57.2126 30.8898,-49.9921 55.4488,-104.961 81.3268,-157.783 16.9134,-34.5079 29.5354,-73.8819 43.8543,-109.76 4.7834,-11.9567 13.3071,-35.5039 26.7717,-39.6181 45.6181,-13.9606 34.2165,57.6417 37.2165,84.2087 2.9685,26.2205 12.2953,53.5591 13.9094,78.8898 4.2677,67.9685 -1.8347,137.598 -1.5276,205.803 0.122,25.2283 1.5079,54.8307 9.6378,78.874 3.5354,10.4449 13.6024,23.6181 26.122,17.5118 20.5787,-10.0512 29.9094,-65.7717 38.7087,-86.0945 12.5354,-29 28.2638,-56.0118 33.9567,-87.4685 14.1496,-78.1181 1.2323,-159.961 6.8268,-238.39 5.1771,-72.3898 18.248,-153.236 38.4843,-222.953 6.2756,-21.5748 4.9055,-48.122 18.1772,-66.8858 17.5276,-24.748 58.4685,-42.5512 85.3425,-55.9449 10.1535,-5.059 26.2402,-12.811 37.7283,-8.7637 12.4173,4.3897 23.8583,24.748 39,16.878 16.9134,-8.7835 1.7322,-32.7913 17.8031,-43.9409 45.7244,-31.6772 102.472,-34.6417 154.146,-49.1181 52.8937,-14.7992 97.2953,-46.7874 152.638,-56.3543 11.748,-2.0434 29.2441,-11.1142 40.8701,-8.252 16.5669,4.0669 4.4921,30.7874 1.6811,40.8543 -9.5197,34.0433 -18.2992,69.7165 -23.8228,104.614 -1.937,12.2283 -2.126,34.5433 -14.2323,41.6102 -17.1339,9.996 -49.7362,-10.0866 -67.9528,-12.0079 -30.3386,-3.189 -64.9134,12.5197 -90.8937,26.874 -67.1969,37.1142 -109.539,97.8425 -153.598,157.906 -49.8386,67.9646 -102.748,138.984 -125.937,221.236 -10.1496,36.0157 -41.9646,106.984 -16.5669,141.902 12.5039,17.185 27.3898,2.2834 35.6575,-9.8583 20.5787,-30.1693 33.5984,-64.8976 52.685,-96.0276 36.6339,-59.7835 88.4252,-105.028 135.402,-156.067 42.7205,-46.4252 80.1417,-97.3465 122.591,-144.063 20.6654,-22.7402 43.8346,-48.6378 71.5354,-62.8031 7.7165,-3.9449 21.3504,-11.8504 30.1299,-7.5275 9.9488,4.8858 5.559,20.6457 4.7874,29.1693 -2.5394,27.9213 -2.3347,56.0157 -4.9922,84.0394 -6.9094,73.0433 -16.189,147.61 -30.9724,219.524 -5.7283,27.8858 -9.6574,56.252 -15.6417,84.0354 -3.7047,17.185 -11.2323,31.7441 -10.6496,49.7362 1.2008,36.3937 6.2087,74.6024 8.7284,111.476 0.7205,10.5315 4.563,27.4409 18.5748,26 12.5039,-1.2678 19.9449,-20.1693 25.7756,-29.4291 19.3976,-30.8031 42.189,-58.878 62.3071,-89.1811 17.2362,-25.9488 40.2717,-49.1693 54.1102,-77.1772 35.7402,-72.3386 52.2913,-157.457 73.5906,-234.961 12.5039,-45.4646 12.8465,-106.091 35.1063,-147.492 12.0236,-22.3307 42.4134,-38.4685 66.4252,-43.9055 18.4528,-4.1851 46.1181,-5.8819 49.2913,-29.8386 8.248,-62.6693 -70.9685,-44.0079 -99.6811,-70.2165 -12.9646,-11.8504 -4.4921,-47.4882 -4.4921,-63.5591 0,-13.9764 -4.937,-43.8858 9.3464,-52.7008 13.4803,-8.3189 30.3228,19.0039 37.4764,26.9764 29.4803,32.878 51.9961,71.689 81.0157,104.429 11.2323,12.6732 28.8661,18.8465 37.7323,0.1378 7.6654,-16.1732 1.2008,-34.6457 -0.4803,-51.4016 -5.748,-57.4882 -38.0906,-108.079 -48.689,-164.642 -7.5472,-40.2008 -2.248,-83.5236 -19.2638,-121.768 -4.5787,-10.2717 -11.8307,-21.3858 -23.4094,-24.3543 -13.9409,-3.567 -34.815,7.8543 -35.6181,-15.1063 -1.1496,-32.2795 22.0866,-69.0157 31.5551,-99.4567 21.9331,-70.5906 56.2087,-221.059 78.5039,-291.736 8.9055,-28.2402 23.9488,-60.685 30.1063,-92.2441 73.6654,16.7087 147.689,32.685 221.327,46.9764 44.3701,8.6102 87.2795,10.2205 132.059,13.2047 17.5433,1.1692 42.8898,6.3307 57.8622,-5.5197 32.1772,-25.4685 -23.9055,-43.9567 -40.7126,-49.3071 -84.0197,-26.8228 -165.417,-60.4567 -241.819,-104.961 -21.6811,-12.622 -44.1102,-22.878 -66.8858,-33.2874 -2.8661,-1.3032 -20.5118,-8.0788 -17.1693,-13.1732 4.0118,-6.0866 25.2126,0.4448 30.8898,1.5275 30.6102,5.7796 60.4882,14.252 90.8937,20.8189 102.012,22.0394 214.945,35.7598 318.996,22.8622 26.4291,-3.2598 90.126,1.7835 99.3189,-29.689 7.0984,-24.2835 -37.1811,-29.4606 -53.0118,-32.9961 -65.378,-14.6102 -133.276,-18.3346 -198.945,-31.8465 -19.4291,-3.996 -39.2205,-8.3858 -58.311,-13.7559 -32.9921,-9.2834 2.9567,-19.4331 17.8268,-18.2205 148.748,12.4606 294.394,42.7441 448.972,12.378 32.6181,-11.8346 92.8346,-39.9134 85.7323,-83.4764 -6.3268,-38.811 -86.1102,-19.122 -110.051,-17.4921 -124.343,8.437 -242.677,-24.5787 -365.303,-39.2559 -34.9685,-4.185 -70.1969,-13.8937 -104.618,-21.3386 -6.189,-1.3346 -30.2677,-3.5472 -30.2677,-12.5866 0,-9.3307 35.3268,-13.0669 42.2756,-14.185 49.1535,-7.8189 95.0472,-9.5669 144.063,-22.6535 67.4843,-17.9921 137.303,-23.8386 205.803,-36.4803 59.4764,-10.9764 117.358,-28.7087 176.646,-40.9016 51.3504,-10.5669 107.035,-17.3386 156.071,-35.9488 26,-9.8622 52.563,-21.2835 78.8898,-30.063 14.8858,-4.9567 33.1339,-6.2953 45.5315,-16.5 11.1339,-9.1929 31.9528,-26.4803 24.2874,-43.2874 -7.7677,-17.0472 -48.2441,-8.2638 -62.9606,-7.4252 -63.6417,3.6693 -126.413,17.2717 -190.366,17.2717 -112.559,0 -223.744,23.9921 -336.146,35.3622 -84.4488,8.5591 -170.732,1.7677 -255.539,11.0472 -17.9724,1.9685 -36.2165,4.5276 -54.6024,7.2756 37.8858,-69.5748 92.8543,-167.307 107.543,-190.89 11.3386,-18.2283 22.8622,-50.7992 43.1339,-60.0236 35.2283,-16.0354 71.2756,-0.3622 104.583,11.437 57.2126,20.2559 114.394,39.874 171.504,59.9409 76.2323,26.7874 189.579,7.0669 262.398,-22.2598 45.7047,-18.3858 83.3504,-24.6969 120.276,-60.5079 10.874,-10.5472 31.3189,-32.311 16.4646,-48.7559 -9.622,-10.6535 -30.4921,8.8465 -40.6969,11.9016 -25.5906,7.6496 -70.4724,5.3347 -96.0433,-1.563 -52.8898,-14.2677 -101.098,-44.1772 -152.638,-63.2126 -20.4094,-7.5315 -41.3819,-8.3701 -61.7402,-14.4252 -67.4173,-20.0669 -135.417,-40.0118 -205.803,-46.9764 -37.7323,-3.7204 -81.189,1.063 -114.906,19.4843 -5.5591,3.0197 -31.0591,26.6496 -36.2047,21.7283 -7.563,-7.2362 13.374,-47.2638 16.8386,-55.4449 24.2677,-57.3701 60.5945,-106.299 97.5,-156.067 61.4173,-82.8189 111.685,-180.028 120.327,-284.697 5.5748,-67.315 -9.2756,-129.244 -17.7677,-195.512 -6.311,-49.2402 -5.8307,-99.6457 -5.7598,-149.209 0.051,-34.4567 2.0236,-69.3386 10.2717,-102.902 6.996,-28.5236 21.0079,-59.5315 21.6102,-89.1811 0.3779,-18.7638 -20.4803,-29.1929 -37.0276,-26.2756 -28.1614,4.9725 -51.2992,31.0748 -70.3346,50.2835 -56.4409,56.9724 -90.5197,141.492 -117.067,216.094 -16.5,46.4094 -19.811,92.3386 -26.5,140.634 -17.7126,127.681 -15.5866,256.74 -34.1614,384.165 -11.3858,78.0866 -29.9803,163.579 -60.0433,236.673 -21.9685,53.3898 -54.8307,102.15 -76.2835,156.071 -17.1417,43.0512 -101.409,208.756 -131.177,277.492 -107.98,-4.4252 -219.657,-11.7795 -326.516,-27.7165 -106.228,-15.8465 -210.898,-40.5591 -317.28,-56.185 -95.3228,-13.9961 -191.559,-26.6063 -287.374,-41.1496 -0.6418,-85.9252 -3.1615,-279.724 7.5511,-342.811 6.756,-39.8228 25.7087,-77.0551 30.4252,-116.622 6.3426,-53.063 -21.5236,-98.7165 -23.1535,-149.209 -2.4724,-76.0945 20.4921,-153.39 21.3504,-229.815 1.3544,-120.323 -24.8346,-248.78 20.2559,-365.299 13.2205,-34.1811 35.6535,-63.4567 51.9646,-96.0433 56.2874,-112.386 117.358,-222.043 191.382,-324.138 33.2717,-45.9134 69.8504,-91.5 98.252,-140.634 9.8977,-17.1339 26.1535,-37.7638 26.2913,-58.311 0.2914,-38.126 -41.2953,-44.6929 -66.6299,-26.8937 -48.6693,34.2165 -82.3543,96.0787 -116.894,143.516 -4.8385,6.6378 -32.7244,56.937 -43.1496,43.2165 -6.5511,-8.6575 -1.1692,-35.8425 -1.1692,-46.6457 0,-37.6811 -2.004,-76.2874 -10.0984,-113.193 -13.1063,-59.8189 -34.5787,-116.315 -61.0236,-171.504 -29.8898,-62.3583 -65.6496,-123.02 -70.8976,-193.799 -2.5748,-34.8976 -3.5,-71.7047 2.5708,-106.331 2.7638,-15.7953 13.9094,-30.5433 14.7835,-46.2874 0.689,-12.8465 -10.8031,-20.9094 -22.8268,-16.9961 z m -1460.7,1907.08 c 18.7087,-35.1929 88.9646,-123.02 110.969,-156.205 47.5236,-71.6024 92.5945,-154.815 114.823,-238.39 38.311,-144.047 43.1496,-293.425 114.717,-427.043 30.4606,-56.8858 66.4252,-101.461 113.469,-145.52 35.3268,-33.0984 74.378,-56.7165 101.717,-98.0157 52.8583,-79.8504 83.4213,-181.535 146.209,-253.772 24.6772,-28.4016 71.4646,-57.9488 110.358,-37.2165 27.5787,14.6969 -4.6457,75.6181 -11.1457,97.1929 -15.9331,52.874 -20.8386,107.429 -32.3622,161.213 -9.2795,43.374 -25.5197,85.0472 -34.815,128.626 -12.5551,58.878 -21.9173,120.516 -37.4724,178.362 -13.1732,48.9646 -33,96.0945 -49.2559,144.063 -6.622,19.5 -7.5472,41.0591 -15.437,60.0276 -17.1142,41.1102 -67.1417,52.2205 -79.0276,97.7559 -4.2008,16.1378 -1.7835,33.6496 14.4921,41.8307 11.2835,5.6417 30.4567,6.0354 32.8937,21.6772 2.0905,13.4646 -7.2559,29.9961 -10.6496,42.8228 -10.4094,39.4134 -23.7362,76.7323 -38.0748,114.909 -37.0118,98.563 -77.2283,194.449 -109.043,294.984 -8.4764,26.7835 -41.7205,90.8976 -57.6929,142.346 -6.9094,22.2559 0.5551,32.7638 -23.3071,24.5276 -55.6535,-19.1929 -108.114,-45.1417 -162.925,-66.5118 -65.4213,-25.4882 -127.303,-56.189 -191.087,-85.122 -30.6969,-13.9213 -25.3583,-8.6614 -7.3504,-42.5433 z m 569.827,207.201 c 32.1654,-96.8465 87.8937,-231.811 99.3858,-318.815 5.5197,-41.8307 12.0709,-83.3858 17.6654,-125.197 8.4882,-63.4055 15.622,-135.437 74.0866,-174.094 25.7598,-17.0276 57.9331,-17.5276 87.4685,-22.5354 43.6811,-7.4252 105.783,-32.689 135.484,16.5669 22.4843,37.2677 22.2992,95.0984 22.2992,137.185 0,124.823 -40.5787,238.598 -68.7402,358.445 -7.5709,32.248 -23.6654,150.417 -28.8031,235.437 -2.0079,33.2913 2.2598,30.563 -30.4646,21.9724 -49.4134,-12.9882 -98.7717,-26.0669 -148.114,-38.7638 -47.0945,-12.1102 -94.2874,-23.937 -141.374,-36.2362 -44.0591,-11.5118 -33.4961,-9.9961 -18.8937,-53.9646 z"
              style="fill: rgb(16, 14, 12); stroke: rgb(0, 0, 0);"/>
 </g>
</svg>