<?xml version="1.0" encoding="UTF-8"?>
<svg xmlns:dc="http://purl.org/dc/elements/1.1/" xmlns:cc="http://creativecommons.org/ns#"
     xmlns:rdf="http://www.w3.org/1999/02/22-rdf-syntax-ns#" xmlns:svg="http://www.w3.org/2000/svg"
     xmlns="http://www.w3.org/2000/svg" xmlns:sodipodi="http://sodipodi.sourceforge.net/DTD/sodipodi-0.dtd"
     xmlns:inkscape="http://www.inkscape.org/namespaces/inkscape" xml:space="preserve" width="7.7037821in"
     height="6.3543587in"
     style="fill-rule:evenodd;image-rendering:optimizeQuality;shape-rendering:geometricPrecision;text-rendering:geometricPrecision"
     viewBox="0 0 7703.7821 6535.92" version="1.1" id="svg9" sodipodi:docname="pheasant4_.svg"
    <g transform="translate(-165.83843,-2382.4927)">
  <path
        d="m 4863.56,2385.41 c -176.762,18.6819 -354.8,25.5467 -527.131,73.8057 -124.552,34.88 -250.381,87.1924 -365.215,146.27 -50.141,25.7905 -97.6533,57.6648 -147.524,83.0286 -26.7886,13.619 -67.4324,6.1562 -97.1505,17.1543 -76.0838,28.1486 -144.396,77.741 -205.097,130.91 -99.5429,87.2038 -188.617,185.638 -287.855,272.545 -33.8933,29.6838 -74.6781,50.7771 -109.741,79.1848 -50.2133,40.6743 -96.4876,92.2324 -134.392,144.423 -26.32,36.2552 -38.3733,78.8533 -64.5143,115.139 -16.9676,23.5581 -39.9962,37.3829 -60,57.6686 -27.741,28.1676 -51.7981,59.7676 -79.3752,88.0571 -21.4629,22.0229 -49.9619,72.2057 -80.9067,79.8933 -19.4819,4.8343 -49.8895,-8.2857 -68.3657,-14.541 -47.261,-16.0076 -93.6038,-36.8419 -143.924,-41.539 -50.179,-4.6857 -100.77,-11.0781 -151.124,-12.9181 -34.7429,-1.2724 -71.84,4.4381 -106.145,-1.5886 -75.619,-13.2876 -144.648,-49.8019 -221.288,-63.1124 -68.3314,-11.8667 -132.488,-30.1829 -197.901,-52.8152 -26.7162,-9.2419 -59.84,-13.1048 -82.3276,-31.8248 -17.6724,-14.7124 35.1543,-27.5467 22.6095,-55.8552 -12.9829,-29.2952 -47.8781,-34.0495 -73.4133,-46.3619 -7.1886,-3.4628 -28.5943,-9.3523 -29.6762,-18.5981 -2.7581,-23.5543 64.7695,-23.7524 43.6305,-57.1505 -20.099,-31.7562 -94.2705,-33.9695 -127.291,-45.68 -20.179,-7.1543 -11.8095,-21.9848 -18.0495,-37.28 -4.2248,-10.3581 -15.7371,-16.739 -25.1352,-21.741 -33.4476,-17.8095 -78.6019,-4.3009 -111.356,-22.3162 -19.7295,-10.8495 3.3829,-52.1867 -20.4343,-66.259 -22.0724,-13.0362 -62.1867,2 -87.6952,-3.4743 -94.541,-20.2895 -184.64,-67.6 -280.659,-17.8705 -41.501,21.4933 -74.3733,50.5905 -109.688,80.5371 -16.2819,13.8057 -25.9771,31.7029 -46.8305,40.0457 -24.2438,9.6991 -51.9429,6.6667 -77.3638,10.9181 -39.2648,6.5677 -76.48,21.5162 -109.741,43.1657 -13.9695,9.0934 -37.0286,21.939 -43.7181,37.9314 -12.3848,29.619 38.301,45.6762 56.3086,53.2267 19.1429,8.0229 40.621,10.6667 59.3714,19.28 32.0152,14.7048 71.84,44.1143 98.8952,66.8495 27.3981,23.021 46.6133,56.8114 73.8171,81.1314 23.1467,20.6971 42.1524,53.1771 68.3657,68.8762 16.1257,9.6534 38.1448,6.7048 55.7714,13.8095 34.2552,13.8019 65.7562,36.3733 95.3524,58.0648 57.3524,42.0495 104.617,94.1257 156.518,142.221 41.3905,38.3581 90.7048,68.5905 129.257,110.027 55.1429,59.2724 95.1619,135.836 133.07,206.895 31.0362,58.1829 60.1714,114.907 80.1524,178.11 4.9524,15.6686 21.4743,44.7238 16.7619,61.059 -3.7371,12.9524 -23.2838,17.741 -33.6076,23.9086 -31.1657,18.64 -57.5314,41.4171 -86.3543,63.0933 -31.7981,23.9314 -57.8095,56.0076 -91.7562,77.181 -31.1962,19.4857 -67.0933,31.5924 -98.9486,50.0876 -55.2838,32.1143 -104.465,74.4267 -146.903,122.267 -53.3562,60.1448 -99.3486,126.636 -152.392,187.105 -64.5105,73.5467 -138.728,139.23 -201.47,214.091 -172.312,205.581 -326.579,434.137 -455.269,669.257 -11.059,20.2057 -28.6286,37.1352 -40,57.5695 -76.7505,137.939 -147.905,286.309 -198.088,435.379 -22.5752,67.0514 -32.4495,137.021 -51.0019,205.097 -19.539,71.7105 -43.4781,135.63 -48.6933,210.491 -1.2,17.181 -7.52762,34.9752 -5.49714,52.1752 1.91238,16.1905 13.4933,29.379 18.019,44.9752 7.05143,24.3048 18.1371,47.4248 24.301,71.9657 3.44,13.7067 3.01714,31.9124 12.7543,42.8343 25.3943,28.48 79.9695,14.4457 106.781,35.7676 13.0552,10.3962 11.2381,32.5638 14.7505,47.3333 5.09333,21.3905 16.9943,43.6076 32.8952,58.8457 19.341,18.5143 50.5486,11.3524 67.4057,28.0495 24.4114,24.16 16.3771,61.8705 52.701,79.5352 22.8838,11.12 60.7048,-2.7314 80.499,10.0952 12.7276,8.2553 5.06667,31.8438 9.76762,44.7619 10.0952,27.741 40.7352,55.5733 69.8514,61.421 39.2533,7.8972 70.9143,-15.4933 107.947,-14.8267 21.4248,0.3962 40.6324,18.5676 62.9676,19.7905 45.7295,2.5181 83.4286,-24.3238 125.935,-30.8724 18.4952,-2.8419 40.9676,9.0667 59.3714,11.6571 18.5029,2.6096 39.539,-3.6343 57.5695,-7.68 22.5105,-5.0743 43.5124,-17.1086 61.16952,-31.699 8.1752,-6.7466 19.1238,-22.1295 30.5219,-22.7962 13.4095,-0.7923 30.0229,36.6286 45.04,43.2876 41.3333,18.3124 92.4305,7.3562 133.131,-6.3695 40.7162,-13.7448 83.8514,-46.9943 109.204,-81.2838 9.3371,-12.6286 20.8076,-54.9067 35.1276,-59.8019 13.2571,-4.5143 49.12,28.6057 64.3619,33.2495 59.2533,18.0419 112.335,9.9657 161.916,-28.8952 36.6324,-28.7124 50.259,-68.96 53.7067,-113.665 1.4095,-18.2781 -4.6514,-56.7429 7.219,-71.3333 10.8648,-13.3524 52.8076,-0.9714 68.6095,-0.7733 42.2971,0.5371 96.179,-7.8095 127.718,-37.8171 34.9752,-33.3029 51.2914,-85.1505 61.779,-131.154 4.2819,-18.819 2.16,-52.9295 15.0057,-67.8629 11.5657,-13.421 47.1886,-6.1143 63.5619,-8.4 36.5752,-5.0743 79.2686,-23.6419 101.684,-53.2724 21.661,-28.6057 23.5314,-61.581 30.0267,-95.3486 1.9238,-10.0762 1.44,-33.4819 11.1886,-39.3829 6.8915,-4.1562 40.301,11.8895 51.4019,12.72 25.44,1.8857 41.3257,-27.6876 62.9676,-26.7543 22.579,0.9905 30.061,29.4324 57.5695,24.2514 20.0419,-3.76 39.2762,-9.9124 57.5695,-19.0324 7.5924,-3.7791 17.76,-11.9657 26.6476,-7.9695 12.4495,5.5581 18.3314,26.9486 24.2514,38.1752 13.5086,25.6 35.261,48.0152 66.0419,48.0152 28.301,0 56.7619,-10.9181 77.3067,-30.3314 8.781,-8.2934 14.7162,-24.4114 25.459,-29.8819 9.12,-4.6248 24.4305,4.0647 33.9657,5.6114 15.7067,2.5562 33.9124,-1.6724 48.5752,-7.4286 15.76,-6.1905 29.0362,-32.1143 44.979,-33.4819 9.3181,-0.7924 18.5295,12.0724 25.1848,17.219 14.8952,11.5505 32.781,21.1924 52.1752,20.381 25.3105,-1.059 43.4476,-16.9105 66.5638,-22.3619 15.8324,-3.7409 33.1924,5.4705 50.3771,1.5467 11.0248,-2.5181 21.4971,-13.6 32.381,-13.9962 10.7048,-0.4114 20.6171,12.9905 28.7848,18.5676 12.9905,8.8495 27.7257,11.1352 43.181,9.6267 18.3848,-1.8172 28.3352,-18.3886 44.9752,-22.0229 12.9714,-2.8419 29.2724,10.6324 43.1771,11.3714 21.3029,1.1314 42.8381,-14.1067 62.9676,-11.0476 60.8838,9.2647 110.629,60.4152 174.514,55.9352 36.2857,-2.5562 59.8705,-22.9943 74.2476,-55.5048 4.64,-10.5067 5.5238,-36.8419 16.3162,-42.4914 7.8819,-4.1219 18.1905,4.3543 24.5752,8.1485 18.5295,10.9562 52.9829,29.181 67.3029,1.8896 10.8152,-20.5638 -12.4838,-53.9733 -21.6419,-71.8933 -3.5085,-6.8877 -11.7676,-22.3238 -3.2038,-28.5867 7.3067,-5.341 19.7371,3.4209 25.9086,7.2152 15.9581,9.859 42.4952,37.581 62.9486,32.5638 26.6095,-6.5143 17.939,-65.901 37.8171,-59.8743 52.32,15.8857 51.8857,97.6914 69.5543,142.236 19.7905,49.9429 49.3829,93.4095 74.6781,140.328 38.6438,71.6419 71.9467,143.531 116.655,212.293 222.274,341.771 470.514,665.695 703.314,1000.29 38.9143,55.9352 77.0895,115.284 121.112,167.314 33.3371,39.4171 72.7733,73.9238 105.787,113.341 42.8914,51.2038 84.5029,118.884 147.402,147.166 6.2591,2.8076 12.9524,4.6781 19.7867,5.2914 66.1714,5.901 25.2076,-74.9143 13.3867,-105.68 -45.9657,-119.691 -107.947,-232.514 -152.777,-352.621 -12.1257,-32.4914 -3.8857,-73.779 -2.6438,-107.943 0.2667,-7.36 0.141,-33.2305 12.6629,-30.4762 9.3905,2.0686 18.5143,14.7886 24.7581,21.4781 17.2152,18.5143 36.3924,35.1543 53.2343,53.9733 61.0971,68.2743 117.604,138.259 176.255,208.693 53.8629,64.6781 116.023,115.897 177.371,172.983 73.619,68.5105 142.99,139.051 221.288,202.541 45.4248,36.8267 83.5314,88.64 133.131,119.638 22.7238,14.2133 50.2476,-5.8628 68.1333,4.9486 23.3867,14.16 39.9924,56.4381 59.0819,77.0362 16.5143,17.8286 45.139,26.6971 67.0857,35.6762 30.3162,12.3771 64.8571,35.261 98.9486,34.0571 26.141,-0.9181 36.019,-24.2324 25.8362,-45.9848 -18.2438,-38.8952 -52.2095,-72.899 -78.7086,-106.145 -117.859,-147.92 -233.451,-300.789 -343.196,-455.17 -30.4762,-42.8724 -63.0933,-83.8552 -92.4876,-127.733 -3.8514,-5.741 -29.6495,-34.4343 -24.8114,-40.8038 3.7981,-4.9829 17.8476,8.419 20.419,10.6857 20.0076,17.6838 41.6152,33.859 61.1695,51.9924 78.979,73.1695 154.648,156.918 222.008,240.792 64.4419,80.2362 130.686,161.684 206.175,231.79 82.1257,76.301 176.434,140.347 264.465,209.413 78.4229,61.5124 150.583,131.352 232.08,188.922 41.3981,29.2381 87.6724,49.44 131.333,74.6438 53.4514,30.8571 100.91,72.8267 152.922,106.164 20.8724,13.3676 42.0457,32.6895 66.5676,38.3048 16.0495,3.6686 29.1086,-5.6876 44.9752,-5.3448 15.2229,0.3086 33.9162,10.1829 48.56,5.4705 32.4724,-10.4152 5.9733,-47.12 -4.7847,-63.1657 -37.2267,-55.5543 -89.939,-98.5714 -128.583,-152.922 -60.6286,-85.2952 -131.836,-160.891 -198.655,-241.078 -75.939,-91.1238 -149.109,-184.461 -228.107,-273.459 -34.5219,-38.899 -73.1124,-72.739 -106.198,-113.345 -48.4114,-59.459 -93.3524,-120.914 -144.701,-178.107 -11.8743,-13.2267 -20.8152,-29.741 -29.8476,-44.979 -1.5467,-2.6247 -8.7239,-12.0724 -5.5048,-15.219 3.9962,-3.9047 17.6152,7.9505 20.6171,10.2019 20.099,15.0019 39.7067,34.1981 57.5733,51.8133 76.3886,75.3257 159.848,143.585 235.733,219.413 14.8762,14.88 33.4095,25.1695 48.4305,39.8171 110.895,108.194 225.749,215.798 352.712,305.177 150.004,105.589 312.373,191.406 464.16,294.023 71.139,48.0914 133.474,111.992 208.697,153.12 25.1505,13.7638 66.1676,34.6705 95.2229,16.9295 23.0133,-14.0495 4.4648,-51.2571 -5.9162,-67.7905 -36.8838,-58.6324 -70.3276,-117.84 -110.194,-174.51 -28.9486,-41.1619 -49.6914,-87.9924 -78.1905,-129.531 -16.2438,-23.6762 -37.7257,-43.36 -54.5829,-66.5676 -54.7276,-75.3638 -107.676,-152.168 -166.038,-224.884 -73.2762,-91.2686 -156.053,-171.939 -233.63,-259.07 -52.819,-59.3143 -110.91,-112.857 -169.905,-165.912 -13.779,-12.3924 -30.1867,-22.3086 -42.96,-35.6724 -2.5371,-2.6628 -11.2457,-11.0667 -7.0171,-15.2571 4.3009,-4.2628 15.1657,1.9772 19.3943,3.7943 17.3067,7.4133 33.5352,17.0743 50.3733,25.4933 38.4457,19.2152 71.3524,44.2933 107.947,66.2971 34.2705,20.5981 70.6667,37.1505 104.347,58.9371 93.6952,60.6286 201.425,82.1295 298.648,133.943 53.8476,28.6933 98.9295,66.1333 149.322,99.76 79.3752,52.9448 162.495,101.432 246.476,146.678 54.4381,29.3448 118.469,52.3352 179.909,59.8552 24.9524,3.0591 49.3486,10.381 70.1638,-7.6114 40.6781,-35.1352 20.6895,-62.659 -9.8934,-98.6438 -47.4095,-55.7333 -109.208,-113.413 -166.415,-159.398 -154.309,-124.027 -279.669,-280.35 -431.783,-407.006 -48.2324,-40.1752 -103.013,-68.4 -156.518,-100.37 -57.4476,-34.3276 -114.8,-73.5848 -169.116,-112.731 -73.1124,-52.6971 -151.25,-100.011 -226.682,-149.413 -18.2629,-11.9467 -36.7924,-23.3524 -53.9733,-36.8648 -3.3104,-2.6095 -14.9867,-9.7334 -12.88,-15.1848 2.0686,-5.3791 14.5524,-1.3486 18.2781,-0.5219 19.6267,4.4457 38.4457,11.2267 57.5695,17.3638 79.2152,25.3829 156.61,55.4819 233.882,86.1752 203.459,80.8495 396.895,185.269 600.891,264.267 48.3962,18.7276 98.4457,30.9981 147.528,47.2076 67.2114,22.2019 129.406,32.3124 199.695,33.1771 19.181,0.2324 63.04,0.015 75.9771,-15.8324 18.5295,-22.6895 -12.1257,-49.8895 -27.4019,-64.0686 -52.819,-49.059 -108.842,-95.4933 -160.118,-146.03 -48.8267,-48.1448 -104.632,-86.6438 -158.32,-128.815 -74.3924,-58.4343 -145.436,-114.834 -228.48,-160.998 -123.166,-68.4724 -255.131,-119.497 -381.406,-181.097 -72.9371,-35.5848 -147.707,-70.1448 -217.691,-111.272 -16.5143,-9.7143 -33.2457,-19.0171 -50.3733,-27.6343 -2.2323,-1.1162 -15.0781,-5.7029 -13.8895,-9.4095 1.8172,-5.7029 38.0343,6.1371 42.6743,7.3219 45.6267,11.6952 91.7714,30.0457 134.93,48.7924 68.2781,29.6838 138.423,53.8286 206.895,82.8305 77.4514,32.8152 154.004,68.9943 237.482,84.3581 40.2438,7.4133 79.661,22.4876 120.537,11.5848 11.44,-3.04 24.4305,-2.6629 31.7524,-13.6 13.3333,-19.9505 -9.0857,-37.7638 -22.7581,-49.2571 -37.7448,-31.7371 -79.3752,-56.8152 -118.739,-86.2324 -53.3981,-39.901 -112.442,-70.1981 -167.314,-107.783 -84.6095,-57.9467 -165.086,-122.32 -253.672,-174.293 -37.3486,-21.9124 -78.5448,-35.9467 -116.937,-55.6457 -6.819,-3.5086 -35.7143,-12.0533 -37.28,-19.8438 -1.4552,-7.2686 32.941,0.358 37.28,0.8457 39.2,4.4609 77.341,16.5486 115.139,27.4362 57.3371,16.4952 111.886,43.7867 167.314,65.5733 72.88,28.6438 148.693,52.8571 224.888,71.101 31.661,7.5733 64.819,10.6324 97.1505,12.0533 14.32,0.6323 31.4819,-3.1467 34.4152,-20.0229 3.6534,-21.0133 -28.5143,-39.741 -41.6114,-51.9048 -50.0533,-46.4686 -113.345,-77.1619 -169.116,-116.202 -71.3676,-49.9771 -147.326,-93.6076 -219.486,-142.56 -72.2514,-49.0248 -141.444,-103.573 -221.288,-140.274 -67.539,-31.0705 -145.189,-53.8819 -215.89,-77.1276 -30.0267,-9.8743 -71.9657,-15.3257 -98.4114,-32.5981 -13.9429,-9.0857 36.8457,-6.0457 42.64,-6.0457 49.9771,0.072 100.712,-1.9772 149.322,-15.8476 22.7048,-6.4762 40.3886,-31.36 25.1505,-54.08 -7.1238,-10.6324 -21.5886,-13.6762 -32.3467,-19.2876 -25.9962,-13.6 -50.9143,-27.939 -77.36,-40.4419 -106.686,-50.4495 -221.756,-81.859 -329.234,-131.067 -61.1314,-27.9733 -122.606,-56.5448 -187.105,-76.1371 -30.5638,-9.28 -63.181,-9.5696 -93.5505,-20.8838 -82.2895,-30.6743 -157.707,-74.7162 -242.876,-98.4305 -83.3524,-23.1886 -170.93,-30.1333 -253.672,-54.3124 -71.0438,-20.781 -137.429,-53.92 -206.891,-78.9448 -85.7638,-30.8914 -177.627,-52.5333 -266.267,-73.7257 -111.886,-26.7695 -226.488,-59.3181 -340.027,-77.2533 -63.9581,-10.1105 -126.114,-17.7943 -188.903,-38.5905 -22.579,-7.4858 -47.4781,-11.2267 -66.5676,-26.32 -26.339,-20.8343 -47.0286,-48.4152 -65.36,-76.2286 -3.76,-5.7219 -17.5238,-21.7143 -13.9429,-29.0895 3.1124,-6.4039 15.4552,4.7314 18.1333,6.8533 11.9467,9.4438 37.8743,29.5581 49.4781,7.5924 5.9543,-11.3143 -2.9181,-28.7657 -7.3066,-39.3295 -13.4743,-32.4724 -31.539,-63.7562 -50.1752,-93.5505 -5.8667,-9.3715 -21.12,-25.5276 -19.4857,-37.4019 2.16,-15.5276 45.5886,3.92 49.9086,-23.7676 6.2247,-39.9581 -62.5029,-64.1181 -59.4971,-100.747 1.2076,-14.5905 12.9524,-28.9486 16.9105,-43.181 5.2533,-18.8533 1.8895,-38.8762 7.1085,-57.5695 7.6648,-27.5619 24.3962,-51.9048 30.979,-80.96 5.6496,-24.9867 15.04,-51.6686 16.0648,-77.36 0.4496,-11.3867 -9.4095,-25.5276 -5.5923,-35.9619 4.1561,-11.3905 19.0705,-20.221 27.2,-28.8038 16.7314,-17.6495 34.7429,-39.4705 42.2971,-62.9676 6.3314,-19.7905 1.5847,-41.0933 -7.1429,-59.3714 -3.8476,-8.0572 -16.8914,-20.9219 -13.8171,-30.3505 6.7124,-20.4724 45.4476,-26.861 55.0705,-50.6057 7.2343,-17.8667 -13.5467,-53.8667 -0.019,-65.021 25.7638,-21.2114 71.7486,-7.9353 87.1657,-48.339 8.9067,-23.3371 -9.4628,-53.8667 -22.2171,-71.9467 -6.0647,-8.6019 -18.3886,-22.7962 -15.92,-34.1829 4.6934,-21.7867 41.6305,-36.1448 53.4324,-55.7714 15.2381,-25.3867 -13.1162,-41.0895 -6.5676,-62.9486 7.8972,-26.4305 45.0476,-37.4933 52.8914,-64.7886 5.5962,-19.4324 -9.1733,-39.7905 -20.6362,-53.9695 -3.3981,-4.2019 -13.1695,-14 -6.8876,-19.5124 9.661,-8.4991 44.1829,3.619 56.2019,4.6933 33.3029,2.979 75.2914,-3.5962 104.347,-20.9486 16.2286,-9.6914 32.4914,-27.619 39.8133,-45.1924 5.0019,-12.019 3.0971,-31.1429 16.2095,-38.0076 12.1105,-6.3352 29.6305,-4.301 42.9257,-6.6591 40.6971,-7.219 83.0286,-14.2171 115.09,-42.3924 18.061,-15.8629 31.1429,-38.6933 40.7657,-60.4648 4.9486,-11.181 6.1371,-26.8648 17.1086,-34.1295 13.2076,-8.7542 36.7581,-2.6628 51.9238,-4.0838 25.779,-2.4152 53.5581,-13.3371 75.5619,-26.7619 32.6895,-19.939 60.2667,-50.2667 70.9371,-87.9467 4.9105,-17.3638 1.3486,-46.541 12.88,-60.7619 10.56,-13.04 33.3905,-20.739 47.5162,-29.8667 27.1657,-17.5657 53.8286,-41.1124 70.0381,-69.4895 15.76,-27.5733 24.8457,-63.661 25.2952,-95.3524 0.1791,-13.779 -9.4286,-38.5676 -4.32,-50.3695 11.6038,-26.899 47.6952,-47.2686 63.6,-73.7676 13.4743,-22.4914 11.9276,-47.0552 21.859,-70.1638 13.0781,-30.419 40.8381,-53.0933 53.8971,-84.5562 12.2362,-29.44 5.92,-59.1238 13.9619,-88.1562 9.1581,-33.0629 28.5333,-53.4971 28.9829,-89.9543 0.2705,-21.8971 -8.8686,-51.1695 -22.6476,-68.259 -7.1809,-8.9257 -21.5924,-14.2933 -25.5505,-25.3981 -8.6171,-24.1295 11.12,-56.8 1.261,-84.4533 -9.9315,-27.8743 -29.7752,-32.2019 -47.0629,-52.5105 -12.4495,-14.621 -13.44,-36.0267 -24.6324,-51.8362 -11.2952,-15.9733 -30.7086,-22.9524 -41.8971,-38.0038 -8.2058,-11.04 -1.3524,-28.4381 -1.261,-41.1543 0.2895,-33.1162 1.7981,-67.4324 -23.7676,-93.0705 -28.621,-28.701 -84.7886,-32.5638 -121.939,-44.861 -82.381,-27.2762 -158.663,-36.24 -244.678,-42.2552 -56.1829,-3.9314 -116.472,-10.2667 -172.709,-4.3238 z"
        style="fill: rgb(16, 14, 12); stroke: rgb(19, 21, 22); stroke-width: 0.967619;"></path>
 </g>
</svg>