<?xml version="1.0" encoding="UTF-8"?>
<svg
        xmlns:cc="http://creativecommons.org/ns#"
        xmlns="http://www.w3.org/2000/svg"
        xml:space="preserve"
        width="7.4496751in"
        height="4.3595557in"
        style="fill-rule:evenodd;image-rendering:optimizeQuality;shape-rendering:geometricPrecision;text-rendering:geometricPrecision"
        viewBox="0 0 7449.6751 4484.1201"
        version="1.1"
>
  <g transform="translate(-157.46027,-3444.0138)">

  <path d="m 7487.71,3444.7 c -84.0457,4.2971 -166.45,10.2095 -249.493,25.8781 -168.217,31.7371 -327.425,93.4705 -485.124,157.505 -113.989,46.2819 -231.893,92.6324 -341.322,148.796 -95.7257,49.1276 -187.832,105.79 -282.415,156.632 -34.9257,18.7771 -73.2533,31.8514 -109.15,48.7162 -63.6914,29.9276 -126.446,64.5905 -188.853,97.2381 -169.326,88.5829 -334.617,184.632 -504.187,272.514 -93.8019,48.6171 -197.478,78.781 -294.541,119.234 -79.2495,33.0324 -154.251,75.9581 -233.897,108.297 -182.91,74.2743 -368.853,145.737 -542.305,240.869 -130.446,71.5505 -253.874,156.103 -382.903,229.676 -50.8876,29.0248 -100.716,60.8686 -152.469,88.3314 -44.7886,23.7333 -93.1962,41.9429 -136.872,67.4476 -121.025,70.64 -239.844,131.021 -372.51,177.295 -52.0114,18.141 -105.756,40.6324 -161.131,45.7943 -27.8933,2.5981 -57.1238,-9.7905 -83.1619,-18.0724 -54.1638,-17.2038 -105.394,-38.6362 -161.131,-51.44 -61.6114,-14.1562 -123.032,-35.7943 -185.387,-45.6343 -141.764,-22.3505 -287.855,-35.0857 -421.021,-93.1467 -26.6667,-11.6267 -45.6381,-46.0686 -65.9429,-66.7543 -29.04,-29.5962 -69.5314,-51.3219 -109.051,-62.8952 -57.0362,-16.701 -117.989,-11.5733 -174.99,-27.3638 -25.0705,-6.9448 -38.7048,-19.4971 -60.64,-31.3143 -23.3752,-12.5943 -51.3714,-21.6914 -76.2362,-30.8305 -57.1124,-20.9943 -123.92,-30.2705 -183.653,-42.621 -163.021,-33.7143 -334.709,-42.4343 -460.77,-165.608 -64.339,-62.8686 -97.8552,-150.51 -122.145,-235.432 -7.54667,-26.381 -19.8248,-54.0076 -22.8914,-81.4324 -1.76381,-15.76 13.6533,-14.9219 19.6952,-26.1181 6.41524,-11.8857 2.33524,-34.1752 -0.66286,-46.6514 -7.53524,-31.3905 -27.1276,-62.5867 -46.0571,-88.3619 -9.52381,-12.9638 -28.08,-31.0019 -31.8362,-46.7771 -5.36381,-22.5371 69.1924,-24.3314 48.1295,-58.9105 -14.0343,-23.0476 -35.1657,-27.059 -57.4438,-37.7714 -49.2076,-23.6571 -98.2857,-33.9086 -149.002,-52.4305 -38.4381,-14.0419 -77.8324,-25.3143 -116.084,-39.8895 -89.4819,-34.099 -189.398,-74.461 -282.411,-27.8705 -23.3524,11.699 -43.981,29.0705 -58.8457,50.541 -9.6419,13.9238 -16.5676,36.0076 -31.299,45.3143 -13.2914,8.4 -35.1162,8.8876 -50.1981,15.9352 -38.6248,18.0457 -72.232397,45.5619 -98.209497,79.0895 -12.1333,15.661 -39.5162,58.4571 -17.0781,76.2705 11.3638,9.021 36.2895,1.5162 49.451397,0.3048 29.12,-2.6819 66.4648,-4.1524 93.5581,8.2247 30.2743,13.8248 40.0838,72.9181 61.501,98.8533 29.9467,36.2743 75.1467,65.1352 115.223,89.04 42.6781,25.4552 77.2305,38.7733 89.8667,91.1505 4.1981,17.4057 12.0876,37.52 12.1486,55.4438 0.22095,64.0648 -35.1771,123.029 -49.8057,183.653 -16.1105,66.7657 -15.12,140.297 -4.63238,207.912 26.2476,169.223 96.1867,335.394 172.75,486.861 45.3105,89.6267 89.5733,180.187 146.347,263.352 140.91,206.438 321.43204,386.663 513.48604,545.49 53.299,44.061 124.815,74.64 185.387,107.577 80.5638,43.8171 157.173,92.019 242.564,126.827 76.8762,31.3257 176.792,41.2343 235.093,102.187 45.6914,47.7676 78.3505,103.783 110.438,160.941 11.0705,19.699 30.2667,42.3124 36.0724,64.1067 3.8971,14.5905 -12.5257,56.7771 -19.1276,71.0362 -2.5296,5.4591 -6.2019,16.461 -12.6819,18.3124 -9.4972,2.6857 -13.0819,-15.9543 -15.299,-21.7752 -8.1448,-21.5048 -21.8133,-47.5619 -35.9695,-65.7181 -5.6991,-7.2952 -16.0457,-11.7638 -23.7029,-4.419 -31.741,30.4762 -18.0876,108.895 -18.4,148.103 -0.1715,19.8552 -0.7086,48.2362 -19.059,60.5029 -11.4857,7.6914 -20.8762,-6.3619 -26.1448,-15.4552 -14.3962,-24.8457 -22.4533,-52.4114 -30.56,-79.699 -10.3962,-34.9638 -17.139,-70.8457 -28.259,-105.691 -9.7029,-30.3543 -23.219,-60.1867 -28.6057,-91.8248 -6.8267,-40.0762 -4.3162,-76.061 -2.7543,-116.084 0.6209,-16.2514 -9.6191,-76.3543 -32.6248,-70.1181 -17.76,4.8343 -14.6933,37.0057 -16.3924,51.059 -5.44,44.9448 -0.2591,93.0933 -1.0057,138.606 -0.1029,5.9276 0.1752,41.5505 -8.7467,40.0762 -12.8762,-2.1295 -20.221,-46.7276 -24.899,-57.4019 -6.9143,-15.7486 -14.5867,-31.8971 -23.2,-46.7771 -7.9048,-13.6533 -37.0629,-48.8267 -41.5276,-12.1295 -4.3391,35.6724 15.4895,74.9181 24.0495,109.154 8.7467,34.9981 11.4895,70.9486 21.3943,105.688 14.5905,51.1619 37.4057,99.6419 53.0019,150.735 11.4514,37.4933 59.1314,100.941 10.3429,127.173 -8.5257,4.5714 -15.3676,0.8152 -19.1962,-7.6419 -11.9581,-26.301 -23.5657,-60.2057 -55.3067,-69.5276 -29.9543,-8.8038 -23.6533,42.221 -29.0514,59.1505 -1.8629,5.8552 -6.7314,22.419 -15.6343,19.821 -8.2095,-2.4076 6.7543,-28.7619 0.011,-38.8648 -9.1885,-13.7562 -25.5429,-21.1352 -33.1962,-36.4 -19.1238,-38.1524 -13.9314,-99.4324 -7.7295,-140.339 4.6057,-30.3581 11.5086,-59.4971 15.3143,-90.0952 1.5352,-12.3543 6.7314,-30.32 -2.1105,-41.0629 -17.2,-20.8952 -54.9829,42.7086 -63.7181,54.9219 -2.3276,3.2571 -15.5695,25.2114 -20.2057,15.04 -3.2305,-7.0857 2.6591,-19.7333 3.5238,-27.1657 3.1581,-27.1162 18.5143,-67.0362 13.0667,-93.5429 -4.8266,-23.4781 -45.779,-13.101 -60.7848,-26.8038 -8.9523,-8.1791 -13.0057,-23.5657 -19.4286,-33.8552 -18.6133,-29.8362 -36.0457,-59.7562 -53.8362,-90.0952 -7.4666,-12.7352 -17.8552,-38.8952 -34.621,-40.941 -22.1029,-2.6857 -16.4381,28.1029 -17.8552,40.941 -3.4247,31.0133 -3.4285,62.4762 -1.0133,93.5581 1.1619,14.9181 5.4667,33.84 -4.5105,46.7314 -13.0819,16.8914 -66.7086,17.9314 -62.4267,46.8305 1.661,11.2114 14.1295,20.2705 21.699,27.7029 24.2743,23.859 102.366,72.8038 63.3257,117.577 -21.7981,24.9981 -57.8971,18.5714 -84.1181,6.9638 -11.0629,-4.9029 -31.2762,-20.2019 -42.8457,-10.8457 -13.8019,11.1733 -20.499,62.4952 -24.6971,80.3733 -2.4419,10.4152 -4.9371,27.4286 -19.0895,26.5105 -14.4305,-0.9524 -36.7124,-7.661 -41.6495,-23.0438 -5.0628,-15.7867 3.2495,-39.0019 3.52,-55.4438 0.8343,-51.0248 5.6724,-105.897 -4.3771,-155.935 -3.661,-18.2248 -5.0667,-58.0419 -26.8419,-64.781 -22.9714,-7.1391 -21.4705,19.699 -23.0057,33.5962 -3.7753,34.2171 -0.6819,93.2648 -24.5333,120.952 -11.7333,13.6343 -55.6152,-26.9752 -71.9619,-30.2514 -10.1181,-2.0267 -24.47242,-2.1295 -28.14102,9.8933 -3.39048,11.1238 6.2019,22.0571 11.20762,31.0819 14.8762,26.8724 40.861,46.8686 51.3371,76.2362 8.88,24.8952 -0.4838,56.6895 -6.4533,81.4324 -10.1905,42.24 -17.8286,84.3771 -29.6838,126.476 -5.0591,17.9695 -1.9658,47.8552 -14.659,62.0457 -15.09715,16.8762 -68.15245,19.6114 -87.55815,9.7905 -33.3905,-16.8952 -42.5867,-91.501 -53.7295,-123.813 -4.73905,-13.7371 -15.0971,-28.1905 -10.6324,-43.3143 39.7333,-134.552 120.472,-257.341 186.00005,-381.17 21.7829,-41.1657 29.9771,-86.9943 50.6019,-128.213 12.7352,-25.4514 34.141,-43.7486 58.1905,-58.0952 10.8838,-6.48 36.1105,-14.7771 39.0629,-28.5524 2.5714,-12.0076 -10.2781,-17.5162 -20.0038,-17.1848 -12.8648,0.4495 -53.8362,29.8171 -59.2,13.6495 -4.2286,-12.7695 7.0819,-31.7752 11.6114,-43.2267 10.9943,-27.8438 12.0152,-58.1981 20.9905,-86.6286 3.7485,-11.8705 15.4057,-40.179 -1.3486,-47.0248 -12.2019,-4.9905 -23.36,10.9181 -30.6933,18.3162 -18.7467,18.9181 -25.379,72.0571 -30.6514,98.0114 -9.1276,44.96 -26.96,88.5867 -37.2229,133.41 -5.9848,26.1448 -3.9772,53.4514 -13.9733,79.699 -15.8667,41.6686 -44.00382,80.861 -63.49332,121.284 -15.9962,33.1771 -26.8952,67.2914 -46.4914,98.7543 -20.7886,33.3714 -33.52,71.2457 -52.5143,105.691 -3.40952,6.1829 -13.0857,32.6248 -22.3543,30.0229 -7.12381,-1.9924 -7.90857,-15.5238 -8.90286,-21.36 -3.78667,-22.2133 -6.06857,-45.0819 -7.10857,-67.5733 -4.14476,-89.9733 -37.3752,-180.069 -51.52,-268.552 -10.5562,-66.0267 -36.0457,-128.038 -52.8419,-192.316 -66.7429,-255.387 -160.716,-502.922 -238.198,-755.413 -10.9714,-35.76 -28.3086,-69.581 -38.2781,-105.688 -28.2057,-102.206 -69.0476,-201.101 -98.8114,-303.204 -6.92571,-23.7524 -15.6686,-47.021 -21.6876,-71.0362 -1.81333,-7.2419 -3.96571,-21.9352 -14.8419,-18.8152 -12.2438,3.5009 -12.979,20.8762 -11.4362,30.9448 4.45333,28.9867 24.4952,54.0229 26.8686,83.1657 2.87238,35.2724 20.7048,66.72 29.699,100.488 24.2438,91.0133 50.6743,184.469 86.0914,272.019 50.7848,125.524 79.101,257.375 118.225,386.37 28.1752,92.899 67.6533,181.714 94.4724,275.482 33.7981,118.16 51.9276,241.973 77.0095,362.11 7.37143,35.3295 21.4019,68.4381 28.8762,103.954 12.7962,60.8343 26.6667,122.373 37.0971,183.657 4.53333,26.6476 15.6686,48.6667 11.6038,76.2324 -4.98286,33.84 -30.7048,66.8267 -45.0324,97.0248 -10.8686,22.9257 -24.5371,63.901 -43.9543,80.4648 -14.8114,12.6286 -23.5238,-35.6419 -25.6343,-44.08 -14.4305,-57.6419 -32.7848,-114.4 -49.101,-171.524 -32.541,-113.935 -43.36,-234.941 -61.6381,-351.718 -17.5771,-112.29 -44.2971,-224.076 -53.2648,-337.855 -1.70667,-21.6419 -10.4152,-42.8305 -14.7352,-64.1067 -7.50857,-36.9905 -11.4933,-76.8229 -23.5733,-112.617 -4.00381,-11.8514 -14.5219,-50.9067 -30.9181,-47.6648 -20.2476,4.0038 -8.07238,60.5029 -6.42667,75.3867 8.91048,80.461 37.7981,158.324 45.9048,239.097 16.2895,162.29 39.7067,328.724 73.4933,488.59 17.9695,85.0171 54.1524,164.804 60.499,251.227 1.05143,14.259 10.301,28.1181 14.7771,41.581 9.11619,27.3943 19.699,64.9029 22.0229,93.5619 1.02476,12.6133 -10.88,24.0114 -16.2476,34.6514 -14.6514,29.021 -25.4933,76.3886 -51.2076,97.7867 -13.4971,11.2267 -20.819,-23.9962 -23.0095,-31.9505 -12.8305,-46.5867 -35.2076,-88.8457 -48.1829,-135.139 -47.7257,-170.282 -79.9848,-344.32 -159.509,-504.187 -18.1905,-36.5752 -31.9619,-77.1352 -55.5962,-110.884 -6.20952,-8.8724 -19.7752,-31.2914 -33.139,-26.4229 -19.8324,7.2076 -6.19048,41.1467 -1.85905,54.141 17.6343,52.899 45.5924,101.6 64.1067,154.202 20.2705,57.5924 32.1714,116.69 49.7752,174.994 29.7448,98.5143 62.0571,196.042 91.8286,294.541 15.901,52.6171 32.4,104.891 47.539,157.665 4.85333,16.9105 17.3257,34.1676 18.1752,51.9771 1.83619,38.499 -17.9581,61.7676 -35.2305,93.5619 -17.0476,31.3752 -31.6152,63.9467 -48.8533,95.2914 -5.61524,10.221 -32.6438,55.1124 -17.0324,62.6324 11.4819,5.5467 23.779,-5.6305 32.4038,-11.6267 22.5257,-15.68 41.3143,-29.8514 62.3733,-48.2857 84.24,-73.7752 172.088,-145.33 266.819,-205.33 26.0533,-16.4952 51.539,-34.1486 77.9695,-50.0038 6.4419,-3.8629 20.6667,-15.9733 28.5448,-10.621 7.82476,5.3181 0.97524,19.4057 -1.64952,25.8705 -10.1181,24.9295 -17.4171,52.061 -35.0781,72.7657 -57.7943,67.7638 -112.312,137.379 -170.785,204.446 -10.7962,12.3886 -51.8819,59.6381 -43.4971,75.9581 10.499,20.4457 53.539,-8.6438 64.7962,-16.4571 25.8057,-17.901 46.6019,-42.9867 69.3029,-64.5943 28.1638,-26.819 58.1333,-51.2495 84.701,-79.8019 47.4667,-51.0248 94.7771,-104.51 147.46699,-150.339 17.2381,-15.0019 38.48,-24.6895 55.44,-40.4533 12.0724,-11.2267 21.5467,-25.0019 34.6552,-35.1886 15.8286,-12.2667 35.0933,-19.3029 50.1943,-32.7467 13.0667,-11.6457 18.0686,-27.4095 34.7048,-35.7257 14.0267,-7.0171 31.6648,-7.3638 46.781,-11.1429 40.4495,-10.1181 77.9162,-17.8781 119.547,-22.019 27.44,-2.72 70.88,-20.4457 97.0248,-14.3124 15.92,3.7257 33.0781,17.9848 46.781,26.701 50.5638,32.1562 88.9981,78.5714 140.339,109.394 70.7276,42.4648 132.251,103.954 194.053,158.065 9.1467,8.0229 61.4362,46.2933 68.2819,16.5105 4.0686,-17.7219 -27.0819,-42.1371 -37.4248,-53.6419 -32.4686,-36.0724 -64.0914,-73.0781 -98.4305,-107.417 -9.5962,-9.6 -36.2095,-29.0933 -37.8895,-43.1962 -1.3524,-11.3143 28.7086,-12.56 36.1562,-13.8438 33.2,-5.6305 90.9981,-22.5562 122.998,-7.5352 19.1619,8.9904 28.381,53.3638 38.621,71.5048 38.08,67.4819 84.1181,130.309 121.973,197.516 12.579,22.3314 20.4952,47.1771 32.6248,69.2838 3.8476,6.9828 11.5581,12.6819 19.44,7.9542 20.3924,-12.2171 -7.3981,-62.9295 -12.8229,-78.9714 -19.68,-58.1829 -37.1962,-112.777 -48.4229,-173.261 -2.8076,-15.1429 -15.04,-46.1714 -9.7752,-60.5714 7.4362,-20.2171 59.2038,-18.0876 76.6857,-19.2152 43.3867,-2.7885 88.1371,-6.2171 131.676,-3.1847 30.4762,2.1295 70.7276,12.96 100.491,7.9162 34.2019,-5.821 -9.2876,-38.8952 5.4057,-47.4743 22.4381,-13.0781 73.1352,-6.48 98.5524,-5.6305 34.4762,1.1429 64.2248,28.6933 93.5581,43.68 25.6267,13.0971 54.4571,19.181 79.699,32.3657 51.459,26.8724 89.5924,66.1486 127.467,109.291 20.6362,23.5124 42.2248,46.6248 59.5505,72.7695 5.4209,8.16 14.7276,20.2705 25.6229,12.3848 14.1219,-10.2019 4.9562,-35.9162 -0.1029,-48.7695 -16.5448,-42.1371 -49.12,-77.5505 -69.9962,-117.817 -4.2285,-8.1448 -27.4781,-40.0571 -20.2895,-47.2648 10.1371,-10.1524 44.8229,-1.2648 57.939,-1.2495 41.9124,0.053 83.181,1.699 124.747,-2.9257 12.9257,-1.4553 31.8629,0.5523 43.0552,-7.1924 13.6876,-9.4591 7.8667,-25.12 -4.9371,-31.5314 -29.2114,-14.6057 -61.9581,-24.64 -93.5619,-32.6248 -3.3791,-0.8686 -37.581,-10.6895 -25.4324,-16.2857 17.619,-8.1105 56.1676,13.1505 73.9467,17.36 25.2076,5.9581 53.779,2.9257 79.699,5.9771 31.6,3.7257 65.5086,15.0057 97.0248,21.3638 18.141,3.6724 72.8038,18.9867 85.5886,2.3734 12.0076,-15.6114 -6.9791,-31.4286 -18.019,-40.3352 -30.4419,-24.5867 -73.4095,-46.659 -110.884,-58.1448 -4.5219,-1.3867 -46.781,-13.1505 -41.3562,-19.6838 3.9657,-4.8 19.4895,3.0133 24.0305,4.5904 23.2686,8.1257 45.3752,17.4133 69.3029,23.84 86.6286,23.2686 170.312,56.7086 254.69,87.0476 16.7924,6.0305 64.819,40.6971 81.1733,29.3333 15.3524,-10.6895 6.7733,-36.9905 -2.2514,-48.9981 -28.2781,-37.6343 -64.4686,-76.6667 -87.1848,-117.817 -3.3448,-6.0457 -27.6,-36.5067 -24.88,-41.3562 1.8209,-3.2571 20.7733,16.8571 22.7505,18.8305 21.6229,21.6076 45.0095,46.6248 69.3029,64.9905 44.3352,33.5276 84.7238,70.0686 131.676,100.389 14.1905,9.1657 28.3619,25.0362 45.0476,29.5238 15.5581,4.1905 32.1905,-4.5752 46.781,-8.7504 22.5943,-6.4648 47.3524,-5.7372 69.2876,-14.0533 33.0743,-12.541 -0.6248,-53.6571 16.8571,-70.621 5.8209,-5.6648 14.1371,4.179 19.5429,6.2209 9.0285,3.4133 19.5276,0.6057 27.7219,-3.6038 38.5676,-19.7867 66.6362,-49.5162 98.7581,-77.5505 8.5409,-7.4667 28.3771,-28.24 40.941,-26.3505 8.4038,1.2648 -7.9696,21.8819 -9.6,25.7981 -8.7848,21.0324 -31.3943,42.5143 -35.8476,64.1029 -2.1296,10.3619 1.3523,27.7752 14.9029,27.0819 10.3924,-0.5181 41.6152,-5.6495 49.2038,-12.8571 8.6628,-8.2286 9.0971,-20.3048 20.099,-28.3771 23.4781,-17.2229 50.3505,-29.5771 76.2324,-42.5905 10.7276,-5.3867 37.181,-29.261 48.4952,-25.4514 14.64,4.9219 27.7752,32.019 36.4038,44.08 17.36,24.2895 24.5333,50.5562 38.6895,76.2324 15.2114,27.5848 34.8229,51.4057 45.6,81.4324 5.7866,16.1295 20.6171,73.8438 42.1905,70.4648 22.5219,-3.5352 25.4324,-42.2933 25.9352,-60.0686 0.5904,-20.0457 -8.9905,-38.7086 -8.4534,-58.9105 0.381,-14.5676 7.2419,-28.6552 8.2972,-43.3143 2.3923,-32.659 -1.7829,-65.1086 -8.4724,-97.0248 -4.141,-19.8019 -16.1981,-36.1943 -21.6038,-55.4438 -0.9181,-3.2381 -5.5619,-16.1448 -1.2991,-18.3124 5.9772,-3.0133 19.6305,26.1105 22.2286,30.4419 15.1238,25.2457 30.8724,51.9962 41.0438,79.699 3.6229,9.859 3.2038,28.4648 15.2114,32 23.7905,7.0171 32.9562,-35.6229 37.9962,-51.059 1.2305,-3.7752 3.101,-18.3124 8.5067,-18.3124 6.5333,0 7.9543,22.3657 8.8191,26.9752 3.8285,20.4114 -8.3505,70.6057 12.5295,82.6629 25.0324,14.4686 38.8419,-40.56 59.8438,-40.56 6.9295,0 3.8285,11.3676 3.219,15.0743 -2.1486,12.7505 -8.4533,36.8686 5.9619,44.5448 19.9429,10.621 50.2971,-28.5524 68.0914,-13.1162 4.5905,3.9848 -3.1886,9.2686 -5.8743,11.4705 -13.0819,10.7771 -21.8667,22.6971 -20.5486,40.2629 2.7886,37.4933 30.7543,75.1086 50.6438,105.691 7.3295,11.261 14.7619,26.4571 27.1657,32.8152 14.4152,7.3981 23.3905,-3.7791 34.6019,-11.3676 18.2438,-12.3352 39.5733,-21.6229 58.9067,-32.2438 34.8762,-19.1429 62.2705,-29.6952 100.491,-39.2267 11.5924,-2.8914 26.1638,-11.3638 38.1181,-9.8552 17.6038,2.2171 35.1352,17.0286 50.2438,25.4514 19.3181,10.7771 47.8705,30.7352 66.7924,8.3161 10.7429,-12.7543 14.259,-30.5105 22.141,-44.9257 16.7733,-30.6514 38.24,-58.8762 40.6324,-95.2952 0.8305,-12.7695 -22.5067,-57.7295 -11.3486,-63.6381 10.5676,-5.6304 39.0171,5.8553 49.8438,9.3562 25.2267,8.1791 51.3714,14.0876 76.2362,23.2 16.5105,6.0648 32.5562,16.6667 50.2438,18.5905 43.2457,4.7315 68.4914,-60.899 103.958,-79.2495 60.7962,-31.4819 155.307,18.7314 191.901,-52.0648 4.7467,-9.2 9.8057,-17.7219 12.7848,-27.7181 4.4191,-14.8152 12.5638,-38.5333 4.0191,-53.3143 -4.7277,-8.2133 -16.9105,-11.7829 -24.1676,-4.6933 -14.5905,14.2248 -4.7315,36.0724 -26.8724,49.1886 -21.8667,12.9562 -73.4629,-10.1371 -98.7581,-12.0952 -7.7448,-0.6057 -16.2705,-4.8152 -15.9924,-13.741 0.6247,-19.2495 16.2857,-40.0724 26.3695,-55.44 23.6152,-35.9543 48.5829,-70.899 73.8629,-105.691 11.4324,-15.7143 37.1467,-48.1638 27.4248,-69.2495 -13.3067,-28.8495 -53.4857,14.899 -64.8838,25.9886 -43.04,41.8057 -85.4019,87.1505 -123.657,133.356 -9.9962,12.061 -30.5448,41.4095 -49.5162,29.5238 -14.5905,-9.1124 -1.0934,-51.4057 2.2362,-65.9086 15.3676,-66.9448 43.8857,-129.63 62.1981,-195.783 4.4876,-16.2324 23.5124,-73.9276 -2.2019,-80.4762 -16.8914,-4.2971 -29.5048,26.0571 -36.9029,37.1619 -28.4648,42.7086 -57.6267,94.8076 -73.3219,143.806 -2.6858,8.4038 -10.3962,59.8971 -19.7867,59.8971 -8.8534,0 -5.0248,-34.9981 -4.3315,-40.8381 3.9315,-32.5029 1.5581,-64.5219 1.0057,-97.0248 -0.2095,-12.0076 0.05,-31.379 -15.6305,-33.9771 -21.0324,-3.4667 -19.7676,29.7676 -21.5162,42.64 -4.8343,35.2914 -10.6057,71.7448 -21.779,105.688 -3.2419,9.84 -8.2476,29.8362 -19.2686,33.7867 -13.6343,4.8838 -34.8076,-39.4171 -39.5886,-49.379 -14.019,-29.2648 -36.2971,-41.2381 -58.9448,-62.5829 -18.4,-17.341 -34.339,-37.9771 -51.0057,-56.9676 -8.6628,-9.859 -28.0343,-38.1676 -43.7829,-24.9295 -11.939,10.0457 -3.36,27.1314 3.4286,37.059 20.5486,30.0267 40.5257,60.5371 59.101,91.8286 4.4686,7.5352 22.6781,36.0724 12.4229,43.5543 -7.4514,5.44 -53.0857,-21.0857 -63.3448,-25.1924 -52.9486,-21.2229 -96.0876,-57.5543 -150.735,-74.9333 -15.9924,-5.0781 -60.0152,-6.3048 -69.6838,-20.1676 -6.6895,-9.6 7.7257,-30.5448 12.0762,-39.3448 15.3143,-30.979 45.7029,-68.4038 47.0895,-103.958 0.7657,-20.0267 -8.5409,-52.099 -31.0629,-55.0438 -10.9333,-1.4362 -53.3295,4.3124 -55.0286,-12.6476 -1.5238,-15.1276 45.4286,-43.2305 56.7581,-51.2495 61.421,-43.5581 121.958,-92.6095 187.124,-130.309 55.5467,-32.1219 110.293,-66.48 161.128,-105.57 12.7352,-9.8057 53.4857,-30.579 36.4571,-51.6305 -13.4133,-16.6133 -36.0724,9.8248 -46.8495,17.5886 -44.6324,32.0686 -91.8286,58.7162 -136.876,89.6076 -9.6495,6.6171 -30.9257,26.0419 -43.2648,23.2 -13.8933,-3.2038 -24.4267,-33.7181 -42.8457,-20.2895 -17.2914,12.579 1.4895,48.0457 -17.8971,65.3371 -50.6248,45.1352 -114.872,75.8171 -166.278,120.674 -37.3714,32.6095 -61.8514,73.1314 -93.8019,110.331 -24.3962,28.4152 -48.1676,80.6705 -88.1181,85.6419 -8.579,1.0743 -25.0362,4.9905 -32.4,-0.5029 -20.5333,-15.28 10.499,-71.8133 14,-90.3352 17.4971,-92.6781 24.2705,-181.455 53.6229,-272.019 8.4724,-26.1448 15.2114,-52.9295 21.3638,-79.699 1.7143,-7.52 7.8133,-22.2095 -1.6648,-27.0629 -20.739,-10.6552 -38.4305,32.2095 -44.1638,44.3886 -27.219,57.8019 -52.8267,115.996 -73.1314,176.724 -19.4933,58.3048 -47.6305,119.844 -77.3981,173.261 -9.6647,17.36 -15.6076,37.8552 -27.7029,53.6914 -14.0495,18.3848 -48.061,13.6724 -59.0133,33.1962 -10.7581,19.2 15.5962,36.6971 24.88,49.9886 3.4134,4.8839 12.8762,15.28 7.8858,21.5162 -5.0248,6.2896 -29.7143,4.7658 -36.7162,2.48 -23.0781,-7.52 -47.4362,-21.12 -72.7657,-15.8705 -19.3181,4 -63.3295,27.7714 -81.2419,21.6038 -12.8724,-4.419 1.1085,-24.5486 4.5714,-31.4629 15.2305,-30.2857 31.7448,-61.6457 50.1943,-90.0952 11.2267,-17.3257 35.2952,-33.3867 40.2667,-53.7105 2.9257,-11.9543 -3.5162,-23.2686 -5.8895,-34.6514 -5.6686,-27.1505 -13.4286,-53.8476 -18.6286,-81.4324 -10.4648,-55.6152 -4.8686,-113.501 -4.8686,-169.794 0,-27.619 4.3505,-54.0724 7.0895,-81.4324 1.1238,-11.3829 3.6724,-24.3962 -8.8724,-30.6667 -18.2971,-9.1466 -24.7581,22.6781 -28.4686,34.1333 -13.9124,42.9486 -19.699,88.7429 -24.6514,133.41 -6.4457,57.9543 -10.6743,114.179 -22.2476,171.528 -2.8762,14.2248 0.5905,46.4305 -11.7143,55.7181 -9.5466,7.1924 -30.2133,1.1619 -41.0781,-0.5371 -38.221,-5.9771 -86.7505,-3.8629 -122.998,-15.3143 -19.5429,-6.1867 -10.6895,-33.459 -10.4305,-48.5295 0.4153,-23.219 5.2686,-46.0038 4.6781,-69.3067 -0.7619,-29.9048 -5.0743,-56.9676 2.0457,-86.6286 3.9162,-16.3543 15.1429,-57.6952 -10.1714,-63.0667 -10.2895,-2.2019 -15.7295,7.8819 -17.6038,16.2857 -5.4552,24.499 -7.36,51.2686 -10.88,76.2362 -6.9981,49.76 -20.0267,109.55 -46.7771,152.469 -7.3638,11.8324 -16.7733,33.0552 -30.4267,38.3771 -18.5219,7.2229 -55.7181,-8.4381 -74.5029,-13.0476 -17.2914,-4.2438 -42.2895,-8.8876 -55.1124,-22.1257 -16.6667,-17.2038 0.2781,-49.379 4.4877,-69.0438 8.4533,-39.4324 15.4895,-79.2152 27.1657,-117.817 7.0514,-23.3181 19.5086,-43.0895 24.1181,-67.5695 3.9352,-20.8267 2.8419,-52.3238 -19.7333,-63.6038 -23.3905,-11.6952 -34.08,43.3486 -41.4781,56.6743 -31.9314,57.5886 -39.1238,110.297 -54.8876,173.257 -2.7048,10.8305 -9.981,53.6076 -23.3219,55.219 -11.6076,1.4019 -25.6267,-24.5181 -31.0133,-32.6933 -12.941,-19.6495 -29.1086,-44.9448 -35.6381,-67.5733 -5.4591,-18.9371 -5.181,-47.3524 -20.2895,-61.8514 -28.6743,-27.5505 -38.3238,44.9257 -43.421,60.1181 -1.9734,5.84 -5.68,21.7105 -14.6743,19.3905 -9.7181,-2.48 -13.9657,-21.8667 -17.4629,-29.7829 -12.9257,-29.2495 -13.1352,-64.3505 -26.9257,-91.8286 -6.5143,-12.96 -20.4457,-23.0971 -35.6381,-20.2552 -16.1143,2.9981 -10.8305,19.459 -9.2534,30.6514 2.9791,21.2571 -2.8571,42.8457 -2.8914,64.1029 -0.019,6.8114 1.5048,18.0571 -5.3714,22.3162 -7.4705,4.6629 -17.7257,-9.059 -21.8133,-13.6495 -11.2648,-12.5981 -39.0705,-49.6571 -58.9105,-33.7524 -48.5295,38.861 39.5733,101.947 27.5505,148.103 -5.8743,22.5905 -33.9962,43.4514 -48.6362,60.64 -33.5238,39.3638 -62.0419,82.3314 -93.8019,123.013 -36.141,46.2971 -70.7429,93.8019 -106.674,140.339 -5.4781,7.1048 -27.2038,43.4895 -36.5257,41.8095 -9.9619,-1.7867 1.6114,-31.2724 3.0514,-36.6095 7.3791,-27.4971 24.6552,-54.8876 30.3886,-81.4324 4.4,-20.3771 -4.6933,-33.7524 -23.6495,-17.0819 -5.2495,4.6248 -10.1524,9.5276 -15.5924,13.9467 -10.3962,8.4191 -21.4171,16.0419 -32.9219,22.8686 -6.9638,4.141 -49.5695,29.1962 -52.6514,16.3733 -3.9695,-16.5448 21.7105,-50.9905 27.2343,-67.2952 18.4,-54.2629 19.2152,-111.215 32.9905,-166.328 4.9905,-19.9238 23.1467,-74.1371 -11.0362,-78.9371 -30.4952,-4.2781 -26.2667,24.0305 -34.6857,44.2857 -18.541,44.5638 -44.8076,86.6819 -66.24,129.943 -5.0248,10.1371 -25.1048,54.4724 -39.1543,50.7657 -9.3409,-2.4609 -12.1448,-23.8743 -14.6933,-31.7067 -9.0971,-28.1029 -3.5848,-85.5886 -27.2724,-104.667 -21.8286,-17.6 -40.5943,24.4838 -47.5581,14.2248 -18.7124,-27.5276 -33.5771,-107.992 -18.4343,-138.259 11.4705,-22.9562 34.9295,-35.8819 52.1486,-53.7295 12.1829,-12.6133 23.0095,-35.2229 39.9543,-41.84 47.7524,-18.6095 104.114,21.3257 152.469,22.7467 19.4933,0.5752 53.3829,-2.579 64.819,-20.9638 6.5638,-10.5524 1.7486,-31.101 13.3219,-37.6305 13.2533,-7.4667 36.9029,-4.2781 51.8057,-5.9962 32.5371,-3.7257 61.5733,-16.72 82.419,-42.7771 18.9029,-23.6305 25.4171,-57.3295 17.7752,-86.6286 -2.9448,-11.28 -12.5257,-23.1848 -13.0476,-34.6514 -0.5867,-12.7543 11.92,-22.1257 10.4838,-36.3848 -2.32,-22.941 -16.3543,-64.1257 4.6438,-80.5829 28.3276,-22.1943 71.9695,-17.8286 100.282,-38.5867 14.1905,-10.4114 -1.4743,-32.8838 15.7676,-38.5676 29.021,-9.5809 61.0019,11.8514 91.8095,-3.1352 24.5143,-11.9543 16.3886,-38.099 34.7733,-50.8152 22.1943,-15.3714 52.5333,2.4914 72.9257,-24.1524 12.6133,-16.4457 -4.2628,-40.0419 8.7657,-53.0019 8.6286,-8.6095 22.7657,-9.8248 32.5371,-17.3257 20.7924,-15.9733 33.5962,-38.5143 50.8876,-57.4514 10.3619,-11.3486 25.261,-16.6705 34.2514,-29.68 14.1562,-20.5143 -7.9352,-38.099 0.1219,-55.3752 8.0038,-17.1505 35.0171,-12.7505 42.9524,-32.9867 4.141,-10.5867 1.68,-22.0914 4.8838,-32.9219 4.0229,-13.5657 14.8152,-25.3638 15.6457,-39.8476 0.6591,-11.7981 -11.1924,-23.5657 -8.2819,-34.6362 3.9848,-15.1086 23.0781,-18.5714 26.2667,-36.4 2.72,-15.0743 -10.6895,-41.1162 -5.4743,-51.9771 10.9143,-22.6819 43.1771,-18.6286 55.6,-38.1714 8.6781,-13.6686 -7.4514,-28.8114 3.7067,-41.1467 19.0057,-20.9829 53.3638,-28.8495 77.4476,-42.381 66.3733,-37.3029 134.19,-72.7162 202.712,-105.741 131.055,-63.1505 256.789,-137.55 386.37,-203.25 17.0667,-8.6629 36.5752,-11.6267 53.7105,-19.8019 50.6248,-24.2057 100.853,-51.9086 149.002,-80.739 69.9467,-41.8781 137.691,-87.9429 207.912,-129.566 59.4286,-35.2267 121.592,-66.2933 180.19,-103.387 172.446,-109.162 339.916,-225.204 511.112,-335.813 86.8724,-56.1333 174.663,-112.743 263.356,-165.707 43.8514,-26.1829 90.9257,-48.9333 133.356,-77.1467 11.6457,-7.741 18.9219,-19.8552 31.2381,-27.4933 122.876,-76.2133 256.667,-131.65 382.907,-201.695 125.284,-69.52 244.552,-151.653 369.04,-222.884 77.6229,-44.4114 163.992,-85.4629 249.493,-112.59 94.2895,-29.92 191.973,-43.181 287.611,-66.7657 68.9562,-17.0057 136.579,-41.0133 202.712,-66.5752 52.7771,-20.4038 97.9429,-50.3886 155.935,-50.3886 15.8705,0 64.5029,7.9695 74.7619,-5.7143 14.6552,-19.5352 -35.1886,-37.0705 -47.04,-42.4038 -2.8609,-1.2838 -20.9638,-7.0933 -14.5029,-12.3314 5.44,-4.4038 20.1143,-2.2324 26.6286,-1.5772 24.6743,2.4762 58.7886,10.0076 79.699,23.5048 8.7162,5.6267 30.5638,23.2343 39.3333,8.5524 9.5962,-16.0648 -30.8762,-36.7352 -41.0629,-43.92 -44.4952,-31.3562 -120.503,-57.8933 -174.994,-55.1086 z M 2289.93,6645.02 c -54.0571,8.1257 -52.9676,70.2019 -47.1124,111.455 1.6305,11.539 3.1391,33.9429 11.68,42.64 6.0305,6.1333 7.52,-8.56 7.6229,-11.4857 0.7466,-19.1619 8.9752,-68.541 37.2495,-36.0724 11.1771,12.819 13.4629,32.5905 18.9371,48.2324 18.0724,51.6686 22.3352,106.781 36.5067,159.402 4.4876,16.6324 7.52,50.2438 20.0305,62.3733 7.4666,7.2229 19.9924,4.8152 29.4362,5.6991 17.9848,1.68 34.6324,8.4381 51.9771,12.941 18.419,4.8 46.5371,15.3524 65.5771,11.2267 12.5638,-2.72 13.3752,-21.379 15.421,-31.6 6.7238,-33.6838 7.92,-68.419 14.6743,-102.225 8.2133,-41.0971 -18.5714,-59.2534 -41.981,-90.0952 -45.4781,-59.9276 -89.939,-124.19 -159.379,-158.964 -17.779,-8.9067 -39.7638,-26.6667 -60.64,-23.5277 z"
        style="fill: rgb(16, 14, 12); stroke: rgb(19, 21, 22); stroke-width: 0.967619;"/>
 </g>
</svg>