<?xml version="1.0" encoding="UTF-8"?>
<svg
   xmlns:cc="http://creativecommons.org/ns#"
   xmlns="http://www.w3.org/2000/svg"
   xml:space="preserve"
   width="7.6875615in"
   height="5.9276438in"
   style="fill-rule:evenodd;image-rendering:optimizeQuality;shape-rendering:geometricPrecision;text-rendering:geometricPrecision"
   viewBox="0 0 7687.5615 6097.0127"
   version="1.1">
 <g
   transform="translate(-174.71007,-2608.1507)">
  <path
   d="m 7261.89,2609.96 c -65.6952,5.9848 -126.693,25.5086 -190.088,42.5143 -23.5886,6.3276 -49.2305,6.2629 -72.2324,14.0648 -32.5981,11.059 -54.2324,36.621 -87.44,44.301 -39.3105,9.0857 -118.785,-11.0057 -146.328,22.2362 -35.3752,42.6895 -17.5276,87.9695 9.7105,128.838 11.3867,17.101 36.9181,33.7143 29.3524,57.0286 -18.7429,57.6343 -52.8648,107.661 -68.621,167.276 -23.0971,87.4248 -28.019,180.891 -43.4933,269.924 -20.701,119.15 -53.5657,236.598 -83.9048,353.562 -18.2286,70.2743 -14.2552,136.023 -41.84,203.39 -56.2248,137.417 -120.495,272.377 -183.642,406.789 -41.6267,88.64 -81.0514,182.236 -134.903,264.221 -32.7162,49.7829 -82.3848,86.5448 -123.12,129.257 -37.7714,39.6152 -69.821,88.0686 -100.88,133.063 -42.4838,61.5314 -69.4781,132.792 -97.7029,201.49 -13.8019,33.6076 -26.8038,75.4095 -48.6057,104.549 -65.181,87.1543 -153.23,154.808 -231.623,229.208 -126.922,120.438 -260.324,223.543 -399.562,329.116 -56.6286,42.941 -109.832,93.2571 -169.177,132.282 -67.6533,44.461 -141.31,85.901 -216.701,115.65 -41.5505,16.4038 -85.3676,25.9467 -127.356,40.9448 -39.2343,14.0267 -79.7219,45.981 -119.756,54.1181 -84.2476,17.1467 -172.77,14.3124 -258.518,16.9181 -205.429,6.2133 -408.819,-10.9105 -613.981,-17.1086 -68.9257,-2.0914 -138.709,7.4514 -207.196,3.4209 -345.787,-20.3581 -689.501,-63.0895 -1035.97,-77.4971 -130.99,-5.4552 -262.872,0.4724 -393.482,2.2248 -14.8648,0.2057 -28.5676,6.9371 -43.7181,7.0895 -207.116,1.9962 -416.716,-8.0038 -623.486,-19.2571 -54.8648,-2.9828 -108.762,-17.1467 -163.474,-20.3771 -194.476,-11.4438 -389.17702,-13.0019 -583.57002,-6.7657 -92.56,2.9638 -185.116,2.621 -277.524,13.04 -94.1981,10.6248 -183.15,28.4343 -269.924,67.7638 -21.6914,9.8286 -63.4133,16.7848 -77.6762,36.48 -8.73524,12.0686 -4.87619,35.261 11.4057,38.6057 21.2914,4.3734 46.019,-3.84 66.2705,-9.619 50.1638,-14.3314 98.2362,-30.9257 150.168,-37.6381 60.339,-7.7943 121.966,-3.3257 182.484,-3.3257 63.2838,0 126.663,-3.7639 190.088,-3.7639 44.7429,0 92.4571,-1.8628 136.861,3.4591 6.6819,0.8 40.579,0.6667 42.0114,8.7848 1.68381,9.52 -25.1581,10.9295 -30.6057,11.6876 -36.3543,5.04 -72.1524,13.6114 -108.35,19.4857 -134.015,21.7638 -267.493,35.28 -397.28,76.9257 -30.5676,9.8095 -62.1257,23.7829 -84.8381,47.2381 -8.81143,9.0857 -21.5619,22.0876 -13.2838,35.3943 18.2514,29.3867 83.539,18.781 111.429,14.4648 106.107,-16.3848 211.486,-36.4381 317.444,-54.419 139.364,-23.6686 282.968,-36.061 423.89302,-45.5467 57.68,-3.8781 115.154,-11.9962 172.979,-12.64 114.956,-1.3143 229.459,8.8 344.057,16.4419 117.817,7.8514 235.92,12.4495 353.562,23.8933 68.6248,6.6552 136.731,6.3314 205.295,11.0819 125.836,8.7047 251.238,25.6229 376.373,40.9257 31.6495,3.859 63.6229,1.3866 95.0438,5.2838 139.352,17.261 276.842,45.2229 416.29,62.7695 99.68,12.5638 200.37,15.3371 300.339,25.8895 33.3981,3.5352 65.3333,15.6229 98.8457,18.3048 62.861,5.0552 125.322,15.6038 188.183,20.7962 133.707,11.0629 266.598,18.6857 399.185,41.8171 49.2686,8.6133 99.5086,12.7162 148.267,23.0971 14.0305,2.9828 32.1257,1.2343 45.0895,7.2609 20.6629,9.6 -20.5676,16.9181 -26.08,17.8857 -27.9238,4.8495 -60.7505,1.92 -87.421,10.7962 -12.8686,4.2781 -25.3371,16.2362 -16.3848,30.339 8.4952,13.3829 26.781,18.7619 41.0781,23.0019 30.5257,9.0476 60.2552,20.3962 91.2419,27.8095 89.2838,21.3257 172.636,36.6476 264.221,45.9238 29.2724,2.9486 58.1257,9.0857 87.44,11.7867 17.0857,1.5772 39.6686,0.3429 54.819,9.4857 25.7562,15.5467 -13.9124,47.139 23.1352,63.0133 28.6819,12.2971 64.4571,10.32 95.0248,14.7505 62.2133,9.0286 156.461,33.3029 200.655,80.8457 50.8686,54.7238 -38.6629,104.392 -9.0857,157.257 30.3162,54.2324 121.71,73.6952 177.2,84.5905 18.2286,3.5924 46.3619,0.7962 61.9467,11.5733 30.6248,21.1771 -27.7143,72.6133 16.0076,95.4248 52.8229,27.5619 125.665,7.8324 178.663,-8.6095 19.2724,-5.9886 51.8743,-22.2781 72.0229,-18.819 17.28,2.9448 14.6171,35.7562 16.7086,48.7581 5.6266,35.0133 18.1333,94.72 55.7333,109.051 16.0229,6.1219 34.5943,5.2076 51.3219,8.4952 58.8343,11.539 126.693,15.9124 186.286,6.6172 27.0895,-4.221 53.5086,-10.0762 79.8362,-17.7752 8.3085,-2.4114 23.9162,-12.221 32.3924,-8.781 15.4743,6.2553 2.6057,56.5905 10.1676,71.4362 13.04,25.6229 49.0629,20.2248 66.3048,40.5067 20.4914,24.1219 13.3829,64.2857 30.5448,90.7276 15.9124,24.4648 56.1143,23.2495 68.4724,46 17.581,32.3352 -36.2514,71.0552 -24.7505,104.149 11.6152,33.4019 56.6248,13.0248 69.44,36.6895 11.2533,20.7962 2.5257,54.4571 4.9409,77.44 6.6705,63.4324 20.6438,126.198 23.5124,190.088 2.0533,45.6038 -40.8876,83.1619 -32.7314,129.261 4.7886,27.0857 29.139,18.8152 45.6381,32.2171 12.6629,10.2667 16.6705,32.3924 19.4667,47.619 8.1943,44.8038 21.3105,114.792 4.0495,157.771 -10.5524,26.2705 -22.24,52.9181 -38.72,76.0343 -6.9028,9.6953 -17.8133,22.9067 -12.0533,35.6229 8.8381,19.4819 40.9638,8.1524 55.7143,18.3048 24.4648,16.8038 29.7295,57.7295 46.7619,81.0324 39.901,54.5562 88.5029,108.103 134.392,157.775 17.8286,19.3105 49.3257,66.701 80.0076,61.8705 24.141,-3.8171 25.4705,-33.5314 22.3352,-52.3657 -7.5466,-45.1657 -43.6267,-92.9524 -69.6686,-129.261 -5.779,-8.0419 -32.9219,-40.659 -19.52,-50.1257 7.7905,-5.5123 22.8267,1.8248 30.7543,4.24 27.2038,8.2096 51.4971,14.6933 79.8362,18.1333 66.9105,8.1181 134.83,15.9848 197.691,43.0362 52.56,22.621 96.1638,59.3448 152.069,76.6819 35.4705,11.0057 110.023,24.8038 141.958,-0.9333 39.5771,-31.9162 -49.2686,-67.9543 -69.7257,-76.72 -85.84,-36.8 -180.465,-64.0571 -269.92,-91.0133 -21.1581,-6.3657 -41.5733,-14.979 -62.7314,-21.0971 -6.0228,-1.7524 -20.4343,-4.0114 -20.4343,-12.5867 0,-11.139 25.9657,-19.0057 33.741,-23.8743 28.6095,-17.9048 61.36,-37.1048 84.5905,-61.8171 9.3143,-9.92 21.6686,-24.88 14.179,-39.2152 -17.8857,-34.3276 -68.1067,-10.6057 -93.0667,-2.0114 -59.2114,20.3962 -116.217,43.0324 -176.781,59.4781 -19.7676,5.36 -56.019,17.181 -75.7486,8.3047 -21.9543,-9.8666 -11.92,-47.8629 -11.7867,-66.1867 0.4191,-57.52 -10.739,-121.048 -24.2171,-176.781 -2.5447,-10.5905 -20.0533,-62.4076 -9.4666,-69.1352 8.099,-5.1314 26.7657,17.0133 31.84,21.8781 24.4267,23.421 43.5695,53.1314 76.0724,66.7581 14.941,6.2743 37.7143,3.3448 43.76,-13.8933 5.76,-16.499 -4.9257,-32.7733 -14.1638,-45.5276 -21.6495,-29.939 -47.6724,-56.8724 -70.9981,-85.539 -8.2667,-10.1676 -26.6286,-24.9029 -24.5371,-39.7638 1.7295,-12.2438 19.3105,-18.2895 29.8248,-19.4667 30.9448,-3.44 67.9352,7.661 98.8419,11.2724 76.7962,8.9905 153.63,18.781 230.008,30.5867 37.92,5.8515 75.2724,18.8152 114.053,18.381 36.6667,-0.4 106.05,-6.2552 102.267,-58.0343 -3.2153,-43.7029 -73.9086,-32.8876 -104.168,-37.619 -73.4133,-11.501 -155.57,-12.659 -230.008,-13.6686 -24.9181,-0.339 -49.3829,-2.9066 -74.1333,-3.7257 -10.6629,-0.3581 -25.4895,2.4343 -35.2229,-2.8876 -16.3467,-8.9333 26.7848,-32.7314 33.3219,-36.6667 34.5181,-20.7771 72.861,-37.4857 102.133,-65.981 14.1638,-13.7638 22.8114,-37.6 5.3981,-52.7886 -26.0419,-22.7314 -73.181,10.6476 -98.0267,20.9295 -45.1467,18.6476 -93.6571,36.4229 -140.663,49.4819 -13.84,3.84 -37.0895,14.6933 -50.8114,6.8038 -24.541,-14.1067 -33.0552,-58.1105 -42.6171,-82.48 -8.5372,-21.821 -19.5429,-50.1257 -13.4019,-74.1333 6.1219,-23.9314 37.7333,-43.7371 52.7695,-62.7276 37.3524,-47.2 71.6419,-98.1067 101.829,-150.168 56.8152,-98.0305 95.4057,-211.455 174.804,-294.636 99.8514,-104.587 223.695,-164.198 340.084,-245.669 52.0076,-36.4038 96.9829,-82.5371 150.168,-117.284 99.1695,-64.7619 205.467,-117.455 298.438,-192.427 117.341,-94.6057 213.905,-218.389 304.312,-338.03 37.7867,-50.0114 81.0133,-93.3333 112.358,-148.267 139.981,-245.459 185.867,-506.05 197.482,-785.059 4.4114,-106.145 12.5257,-215.295 3.1009,-321.25 -2.9676,-33.379 -15.2267,-64.4762 -22.3962,-96.9448 -8.5905,-38.9295 -12.621,-80.2171 -17.7524,-119.752 -4.1828,-32.0876 -13.1924,-66.8152 -14.1219,-98.8457 -0.8571,-29.1429 6.9753,-57.9771 4.9981,-87.44 -5.6838,-85.181 -23.6838,-171.665 -56.1714,-250.914 -25.261,-61.6305 -52.16,-123.31 -89.5124,-178.682 -28.9486,-42.8876 -66.9105,-79.8895 -91.8095,-125.459 -23.1924,-42.419 -36.2133,-89.9352 -53.2076,-134.96 -22.0495,-58.3581 -47.0286,-114.682 -73.5619,-171.082 -36.5371,-77.6495 -100.804,-152.602 -110.099,-239.509 -2.5676,-23.9848 -6.3695,-52.5486 0.6438,-76.0343 23.84,-79.9467 113.067,-129.718 164.484,-190.088 13.5924,-15.9733 26.5943,-33.6571 34.4838,-53.2229 5.1505,-12.7505 7.7715,-33.0248 20.8305,-40.259 34.979,-19.3448 95.539,19.3219 132.644,19.3105 24.0076,-0.01 49.139,-12.5143 48.3962,-39.8781 -1.92,-72.1219 -51.76,-159.547 -109.223,-200.731 -33.8362,-24.2552 -78.7733,-38.0762 -109.832,-64.979 -13.7829,-11.9467 -14.941,-31.6267 -20.5676,-47.9352 -7.4324,-21.5429 -19.0667,-41.7562 -34.1219,-58.8571 -32.4267,-36.8267 -78.8457,-49.12 -122.51,-66.3429 -17.2038,-6.7886 -30.6971,-19.4743 -47.52,-26.8838 -42.4686,-18.7162 -88.9638,-24.2286 -134.964,-20.0343 z"
   style="fill:#131516;stroke:#131516;stroke-width:0.967619" />
 </g>
</svg>