<?xml version="1.0" encoding="utf-8"?>
<!-- Generator: Adobe Illustrator 17.1.0, SVG Export Plug-In . SVG Version: 6.00 Build 0)  -->
<!DOCTYPE svg PUBLIC "-//W3C//DTD SVG 1.1//EN" "http://www.w3.org/Graphics/SVG/1.1/DTD/svg11.dtd">
<svg version="1.1" xmlns="http://www.w3.org/2000/svg" xmlns:xlink="http://www.w3.org/1999/xlink" x="0px" y="0px" width="600px"
	 height="600px" viewBox="0 0 600 600" style="enable-background:new 0 0 600 600;" xml:space="preserve">
<g id="Layer_1">
	<path style="fill:#363839;" d="M259.63,34.82c-6.34-11.31-41.59-4.26-85.9,15.45c-0.66-0.37-1.32-0.73-1.99-1.08
		c-15.95-8.25-35.61-8.57-52.45,0.86c-16.84,9.44-26.83,26.36-28.13,44.28c-0.06,0.75-0.1,1.5-0.12,2.26
		c-39.96,27.5-64.38,53.88-58.04,65.18c6.34,11.31,41.59,4.26,85.9-15.45c15.95,8.25,37.6,9.65,54.44,0.22
		c16.84-9.43,26.95-28.63,28.25-46.54C241.55,72.51,265.97,46.13,259.63,34.82z M92.32,110.29c0.08,0.38,0.17,0.76,0.27,1.14
		c0.05,0.22,0.11,0.44,0.17,0.66c0.09,0.35,0.18,0.7,0.28,1.05c1.09,3.92,2.64,7.78,4.67,11.51c0.02,0.05,0.05,0.09,0.07,0.14
		c0.05,0.11,0.11,0.21,0.17,0.31c0.07,0.12,0.13,0.24,0.2,0.36l0.15,0.26c0.12,0.21,0.23,0.42,0.35,0.62
		c0.07,0.13,0.15,0.26,0.22,0.39c0.05,0.07,0.09,0.15,0.14,0.22c-0.01-0.01-0.01-0.03-0.02-0.04c0.01,0.01,0.01,0.02,0.02,0.04
		c-0.04-0.07-0.09-0.14-0.13-0.22c0,0,0,0,0.01,0c1.79-0.39,3.81-0.89,6.05-1.53c12.95-3.71,29.04-10.77,45.31-19.88
		c16.26-9.11,30.69-19.14,40.62-28.25c1.72-1.58,3.2-3.03,4.46-4.36c0-0.01,0-0.01,0.01-0.01c0.04,0.08,0.09,0.15,0.12,0.23
		c-0.01-0.01-0.01-0.02-0.02-0.04c0.01,0.01,0.01,0.02,0.02,0.04c-0.04-0.07-0.08-0.15-0.12-0.23c-0.07-0.13-0.14-0.26-0.22-0.4l0,0
		c-0.11-0.21-0.23-0.42-0.35-0.63l-0.12-0.22c-0.01-0.02-0.02-0.03-0.03-0.05c-0.07-0.12-0.14-0.24-0.21-0.36
		c-0.06-0.1-0.12-0.21-0.18-0.31c-2.14-3.73-4.64-7.11-7.45-10.13c-0.25-0.26-0.49-0.52-0.75-0.78c-0.15-0.16-0.31-0.33-0.47-0.48
		c-0.27-0.28-0.55-0.56-0.83-0.82c-0.24-0.23-0.47-0.45-0.71-0.67c11.24-2.91,19.1-2.85,21.19,0.88
		c4.5,8.03-19.48,30.02-53.56,49.11c-34.08,19.09-65.35,28.06-69.85,20.03c-2.09-3.72,1.97-10.47,10.32-18.53
		C92.18,109.66,92.25,109.97,92.32,110.29z M200.74,88.47c-12.37,9.35-27.36,19.14-43.99,28.45c-16.63,9.32-32.81,16.99-47.24,22.66
		c-29.01,11.39-50.96,14.65-55.38,6.77c-4.54-8.11,10.7-25.92,36.94-45.38c0.01,0.17,0.02,0.33,0.03,0.5
		c0.02,0.42,0.05,0.84,0.09,1.25c0.01,0.13,0.02,0.25,0.03,0.38c0.07,0.78,0.15,1.57,0.26,2.35C73.74,119.72,64,132.27,67.42,138.37
		c5.62,10.03,44.72-1.17,87.31-25.03c42.6-23.86,72.57-51.35,66.95-61.38c-3.42-6.1-19.21-4.35-40.63,3.32
		c-0.61-0.5-1.24-0.98-1.87-1.45c-0.1-0.07-0.2-0.15-0.31-0.22c-0.33-0.25-0.68-0.49-1.02-0.73c-0.14-0.1-0.27-0.19-0.41-0.29
		c30.3-12.22,53.45-15.91,57.99-7.8C239.85,52.66,225.6,69.68,200.74,88.47z"/>
	<path style="fill:#363839;" d="M373.6,30.09c-9.88,11.42-8.62,28.69,2.81,38.57c11.42,9.88,28.69,8.62,38.57-2.81
		c9.88-11.42,8.62-28.69-2.81-38.57C400.75,17.41,383.48,18.67,373.6,30.09z M395.12,65.9c-1.43-0.12-2.86-0.38-4.26-0.79
		c-4.39-1.29-8.12-3.91-11.03-7.45c1.88,1.31,3.96,2.32,6.21,2.98c4.25,1.25,8.65,1.1,12.88-0.19c-0.47-0.09-0.93-0.21-1.4-0.34
		c-3.38-0.99-6.25-3.01-8.48-5.73c1.45,1,3.05,1.78,4.78,2.29c5.35,1.57,11,0.29,15.89-3.05c-3.02,0.78-6.12,0.8-9.14-0.08
		c-3.38-0.99-6.25-3.01-8.48-5.73c1.45,1,3.05,1.78,4.78,2.29c4.88,1.43,10.01,0.49,14.6-2.22c-1.82,0.08-3.65-0.12-5.44-0.64
		c-3.38-0.99-6.25-3.01-8.48-5.73c1.45,1,3.05,1.78,4.78,2.29c3.32,0.98,6.76,0.85,10.06-0.19c0.25-5.86-1.6-11.76-5.47-16.49
		c1.2,0.72,2.36,1.54,3.45,2.49c10.21,8.83,11.33,24.26,2.51,34.47c-8.83,10.21-24.26,11.33-34.47,2.51
		c-1.09-0.95-2.08-1.97-2.96-3.05C381.48,67.11,388.65,67.86,395.12,65.9z"/>
	<path style="fill:#363839;" d="M205.17,265.37c-20.35,0-36.85,16.49-36.85,36.85c0,20.35,16.5,36.84,36.85,36.84
		c20.35,0,36.85-16.49,36.85-36.84C242.02,281.86,225.52,265.37,205.17,265.37z M194.99,293.98c0,0,0.24-0.31,0.64-0.81
		c0.86-1.09,2.42-3.09,3.7-4.77c1.86-2.43,2.63,2.48,2.63,2.48l-2.28,2.79c0,0,3.38,0.23,2.66,2.96L194.99,293.98c0,0,0,0-4,0.48
		c-3.99,0.48-4.96-7.5-4.96-7.5c-2.67,0.17-3.44-4.7-0.44-6.68c3-1.99-0.38-5.79-0.38-5.79c8.09-6.34,24.74-4.73,24.74-4.73
		s5.16,3.69,3.48,5.28c-1.69,1.59-4.63-2.52-4.9,0.31c-0.26,2.85-4.2,4.16-5.73,8.17c-1.53,4.02-1.63,2.46-1.63,2.46
		s-1.54-3.03-6.84-1.91C189.05,285.19,194.99,293.98,194.99,293.98z M227.8,313.24c0,0-4.47,2.63-6.7,0.97c-2.24-1.66,0,6.82,0,6.82
		l-5.42,4.37c0,0-1.28,8.32-5.65,5.19c-4.37-3.12,0-5.19,0-5.19l-0.99-4.37c2.23-0.18,0-7.79,0-7.79l-6.1-4.07v-5.18l3.42-5.09
		l-3.42-1.79l3.42-2.23l4.46-2.91l4.85,2.91l6.76,2.23l1.78,4.71c0,0,1.79,1.99,5.81,3.19C234.05,306.21,227.8,313.24,227.8,313.24z
		 M235.65,295.94c0,0-4.49-8.41-3.6-13.17c0,0,2.38,2.46,4.4,6.76c2.18,4.65,3.94,11.43,1.85,19.57L235.65,295.94z"/>
	<path style="fill:#363839;" d="M481.8,341.33c-2.71-3.26-4.09-7.63-3.55-11.85c0.07-0.58,0.22-1.13,0.42-1.66
		c-2.8-6.63-7.36-12.5-13.33-16.86c-4.3-0.81-8.31-2.66-11.4-5.81c-5.92-1.92-11.99-2.38-17.8-1.59c-1.7,2.43-4.16,4.27-7.22,4.69
		c-1.97,0.27-3.85-0.02-5.58-0.71c-6.2,3.14-11.6,7.87-15.53,13.88c0.03,0.37,0.04,0.76,0.01,1.17c-0.26,3.3-0.72,6.92-2.17,9.93
		c-1.14,2.35-2.44,4.24-4.09,5.88c-1.03,8.04,0.43,16.04,3.92,23.05c0.14,0.09,0.28,0.17,0.42,0.27c6.14,4.34,11.37,9.2,14.12,15.85
		c2.41,1.52,5.02,2.82,7.82,3.83c9.42,3.41,19.27,3.09,27.95-0.19c2.43-4.15,6.2-7.43,11.06-9.02c1.16-0.38,2.35-0.54,3.49-0.45
		c3.93-4,7.1-8.89,9.13-14.51C481.35,351.97,482.08,346.57,481.8,341.33z M418.67,363.48c-4.49-0.93-7.36-5.4-6.41-9.98
		c0.95-4.59,5.36-7.55,9.84-6.62c2.94,0.61,5.18,2.73,6.11,5.41c-0.89-1.23-2.21-2.13-3.79-2.46c-3.43-0.71-6.79,1.56-7.52,5.06
		c-0.72,3.5,1.47,6.92,4.89,7.62c0.95,0.2,1.9,0.16,2.79-0.06C422.87,363.5,420.78,363.92,418.67,363.48z M441.05,317.02
		c-2.72-3.53-9.03-3.23-14.1,0.67c-5.07,3.9-6.97,9.93-4.25,13.46c2.14,2.78,6.5,3.19,10.73,1.33c-5.29,2.83-11.25,2.35-14.18-1.46
		c-3.39-4.39-1.45-11.56,4.33-16.01c5.78-4.45,13.21-4.49,16.59-0.1c0.68,0.88,1.14,1.87,1.4,2.93
		C441.43,317.56,441.25,317.29,441.05,317.02z M451.52,327.84c-2.35-0.85-1.03-4.49,1.32-3.64c0.1,0.04,0.19,0.08,0.27,0.13
		c-0.9,0.8-1.02,2.48,0.32,3.12C452.97,327.89,452.31,328.12,451.52,327.84z M440.89,379.11c-0.46-0.01-0.93-0.09-1.39-0.26
		c-2.12-0.77-3.27-2.97-2.57-4.91c0.7-1.94,3-2.9,5.12-2.13c0.46,0.17,0.88,0.4,1.24,0.69c-1.65-0.04-3.17,0.88-3.72,2.39
		C439.02,376.41,439.6,378.09,440.89,379.11z M454.05,354.58c-2.59-0.54-5.14,1.18-5.68,3.82c-0.41,2.02,0.45,4.01,2.04,5.07
		c-0.03-0.01-0.06-0.01-0.09-0.02c-2.87-0.59-4.7-3.45-4.1-6.38c0.61-2.93,3.42-4.83,6.29-4.23c1.6,0.33,2.88,1.37,3.59,2.73
		C455.53,355.09,454.83,354.75,454.05,354.58z M470.61,339.32c-1.09-0.23-2.16,0.5-2.39,1.6c-0.21,1.03,0.36,2.02,1.3,2.35
		c-0.27,0.04-0.54,0.03-0.82-0.02c-1.29-0.26-2.12-1.55-1.85-2.88c0.27-1.32,1.55-2.18,2.84-1.91c0.67,0.14,1.22,0.55,1.55,1.11
		C471.05,339.45,470.84,339.36,470.61,339.32z M469.92,363.93c0.09,0.4,0.32,0.77,0.71,1.02c-0.22,0-0.45-0.03-0.69-0.12
		c-2.35-0.85-1.03-4.49,1.32-3.64c0.24,0.09,0.44,0.21,0.61,0.35c-0.9-0.1-1.59,0.49-1.87,1.24
		C469.8,363.13,469.75,363.57,469.92,363.93z"/>
	<path style="fill:#363839;" d="M337.11,141.78c-9.54,0-17.28,7.74-17.28,17.28s7.74,17.28,17.28,17.28
		c9.54,0,17.28-7.74,17.28-17.28S346.65,141.78,337.11,141.78z M333.01,145.53c2.49,0,2.49,3.86,0,3.86
		C330.53,149.39,330.53,145.53,333.01,145.53z M326.8,150.2c2.49,0,2.49,3.86,0,3.86C324.31,154.05,324.31,150.2,326.8,150.2z
		 M324.85,161.83c-2.49,0-2.49-3.86,0-3.86C327.34,157.97,327.34,161.83,324.85,161.83z M327.18,169.6c-2.49,0-2.49-3.86,0-3.86
		S329.67,169.6,327.18,169.6z M329.9,157.19c2.49,0,2.49,3.86,0,3.86C327.42,161.05,327.42,157.19,329.9,157.19z M331.85,171.54
		c-2.49,0-2.49-3.86,0-3.86S334.33,171.54,331.85,171.54z M336.12,152.53c1.43,0,2.03,1.27,1.82,2.35c2.21,0.27,2.12,3.84-0.27,3.84
		c-1.43,0-2.03-1.27-1.82-2.35C333.64,156.1,333.73,152.53,336.12,152.53z M337.68,162.24c2.49,0,2.49,3.86,0,3.86
		C335.19,166.1,335.19,162.24,337.68,162.24z M338.07,174.26c-2.49,0-2.49-3.86,0-3.86S340.55,174.26,338.07,174.26z M338.84,150.17
		c-2.49,0-2.49-3.86,0-3.86C341.33,146.31,341.33,150.17,338.84,150.17z M344.28,156.03c2.49,0,2.49,3.86,0,3.86
		C341.79,159.88,341.79,156.03,344.28,156.03z M344.67,171.15c-2.49,0-2.49-3.86,0-3.86C347.16,167.29,347.16,171.15,344.67,171.15z
		 M347.39,147.09c2.49,0,2.49,3.86,0,3.86S344.9,147.09,347.39,147.09z M349.33,165.32c-2.49,0-2.49-3.86,0-3.86
		C351.82,161.47,351.82,165.32,349.33,165.32z M350.11,156.77c-2.49,0-2.49-3.86,0-3.86S352.6,156.77,350.11,156.77z"/>
	<path style="fill:#363839;" d="M505.63,150.44c-17.68,0-32.07,14.39-32.07,32.07s14.39,32.07,32.07,32.07s32.07-14.39,32.07-32.07
		S523.31,150.44,505.63,150.44z M489.87,157.38c11.78,2.05,28.08,6.11,43.29,14.08c1.23,3.05,1.96,6.35,2.11,9.8
		c-14.7-7.11-35.56-15.57-53.31-16.61C484.13,161.76,486.82,159.3,489.87,157.38z M535.06,186.25c-0.18,1.46-0.48,2.88-0.86,4.27
		c-12.18-7.43-30.52-15.12-56.53-17.93c0.44-1.23,0.95-2.42,1.54-3.57C489.32,170.21,514.72,174.26,535.06,186.25z M520.07,208.42
		c-12.26-5.53-27.33-11.16-41.19-13.08c-1.87-3.88-2.92-8.24-2.92-12.83c0-1.77,0.16-3.51,0.46-5.2c13.61,2,36.23,6.99,55.39,19.16
		C529.12,201.48,525.03,205.64,520.07,208.42z"/>
	<path style="fill:#363839;" d="M206.16,454.35c-7.48-23.63-32.7-36.73-56.33-29.25c-23.63,7.48-36.73,32.7-29.25,56.33
		c7.48,23.63,32.7,36.73,56.33,29.25C200.54,503.2,213.64,477.98,206.16,454.35z M191.64,445.01l-48.22,10.23
		C143.42,455.24,167.46,443.53,191.64,445.01z M164.13,433.31L133,443.16C133,443.16,147.74,433.48,164.13,433.31z M163.37,443.97
		L130,455.13C130,455.13,140.94,446.2,163.37,443.97z M126.61,479.82c0,0,7.7-18.05,44.31-18.97L126.61,479.82z M148.58,505.38
		c0,0,17.69-15.33,33.45-15.49L148.58,505.38z M168.23,501.85c0,0,15.89-10.14,27.52-8.34L168.23,501.85z M153.2,484.36
		c0,0,21.73-12.02,50.95-10.14L153.2,484.36z"/>
	<polygon style="fill:#363839;" points="31.36,372.22 43.15,369.73 45.09,355.28 47.72,369.73 58.82,372.22 47.86,374.47 
		45.09,391.09 43.28,374.47 	"/>
	<polygon style="fill:#363839;" points="532.2,313.09 541.85,311.05 543.43,299.22 545.59,311.05 554.67,313.09 545.71,314.93 
		543.43,328.53 541.96,314.93 	"/>
	<polygon style="fill:#363839;" points="522.18,55.07 531.83,53.03 533.42,41.21 535.58,53.03 544.66,55.07 535.69,56.91 
		533.42,70.51 531.95,56.91 	"/>
	<polygon style="fill:#363839;" points="129.53,220.86 139.17,218.82 140.76,206.99 142.92,218.82 152,220.86 143.03,222.7 
		140.76,236.3 139.29,222.7 	"/>
	<polygon style="fill:#363839;" points="315.35,252.5 325,250.46 326.59,238.64 328.75,250.46 337.83,252.5 328.86,254.34 
		326.59,267.94 325.11,254.34 	"/>
	<polygon style="fill:#363839;" points="244.43,150.87 254.08,148.83 255.67,137.01 257.83,148.83 266.91,150.87 257.94,152.71 
		255.67,166.31 254.19,152.71 	"/>
	<polygon style="fill:#363839;" points="422.11,97.06 431.76,95.02 433.34,83.19 435.5,95.02 444.58,97.06 435.61,98.9 
		433.34,112.5 431.87,98.9 	"/>
</g>
<g id="Layer_2">
</g>
</svg>
