<?xml version="1.0" standalone="no"?>
<!DOCTYPE svg PUBLIC "-//W3C//DTD SVG 20010904//EN"
 "http://www.w3.org/TR/2001/REC-SVG-20010904/DTD/svg10.dtd">
<svg version="1.0" xmlns="http://www.w3.org/2000/svg"
 width="512.000000pt" height="512.000000pt" viewBox="0 0 512.000000 512.000000"
 preserveAspectRatio="xMidYMid meet">

<g transform="translate(0.000000,512.000000) scale(0.100000,-0.100000)"
fill="#000000" stroke="none">
<path d="M1774 3826 c-304 -70 -543 -336 -570 -637 l-7 -66 -111 -6 c-235 -12
-434 -103 -597 -273 -152 -160 -234 -345 -246 -559 -27 -480 342 -891 826
-922 196 -13 418 52 568 167 l53 40 46 -29 c199 -127 640 -208 930 -171 188
23 330 70 619 203 301 138 431 175 660 184 276 10 541 -37 821 -148 40 -16 80
-5 100 27 15 22 16 33 4 96 -21 117 -82 226 -196 346 -228 243 -522 402 -840
457 l-100 18 14 51 c9 34 12 82 9 146 -8 161 -63 278 -185 391 -184 172 -447
204 -699 83 -39 -19 -73 -34 -76 -34 -2 0 -10 19 -17 43 -19 66 -78 175 -132
249 -115 156 -286 273 -483 329 -92 27 -304 35 -391 15z m354 -176 c185 -52
346 -177 440 -341 33 -59 82 -195 82 -229 0 -12 -22 -55 -49 -96 -54 -81 -86
-156 -107 -254 -21 -100 -18 -154 9 -186 51 -59 137 -18 137 66 0 165 111 354
261 443 101 60 182 80 297 75 83 -3 106 -8 163 -36 238 -114 312 -429 142
-599 -161 -161 -419 -99 -457 109 -19 105 63 208 164 208 72 0 130 -49 130
-110 0 -78 84 -117 137 -64 23 23 25 31 20 83 -6 72 -33 126 -89 177 -62 58
-119 77 -210 72 -125 -6 -224 -71 -277 -181 -36 -74 -46 -143 -31 -217 61
-321 444 -435 704 -211 44 38 49 40 99 35 237 -24 447 -99 637 -227 120 -81
358 -323 337 -343 -2 -3 -56 9 -118 25 -200 53 -293 65 -529 65 -315 1 -427
-26 -811 -200 -358 -162 -465 -189 -729 -188 -149 0 -194 5 -302 27 -196 41
-341 99 -427 171 -60 50 -91 48 -145 -8 -81 -87 -215 -155 -354 -182 -183 -35
-366 2 -524 105 -243 159 -369 453 -314 731 20 101 85 240 151 322 126 159
354 268 560 268 69 0 105 -12 105 -33 0 -7 15 -44 34 -82 101 -207 305 -335
536 -335 137 0 255 49 355 148 207 208 185 543 -48 693 -72 47 -183 74 -260
65 -161 -20 -292 -154 -305 -312 -4 -57 -2 -65 21 -88 54 -54 137 -13 137 69
0 81 96 174 181 175 50 0 130 -31 170 -67 62 -56 83 -104 83 -193 1 -66 -4
-85 -32 -143 -57 -114 -154 -179 -281 -185 -293 -16 -507 241 -448 539 44 227
215 404 437 454 83 19 220 12 318 -15z"/>
</g>
</svg>
