<?xml version="1.0" standalone="no"?>
<!DOCTYPE svg PUBLIC "-//W3C//DTD SVG 20010904//EN"
 "http://www.w3.org/TR/2001/REC-SVG-20010904/DTD/svg10.dtd">
<svg version="1.0" xmlns="http://www.w3.org/2000/svg"
 width="840.000000pt" height="481.000000pt" viewBox="0 0 840.000000 481.000000"
 preserveAspectRatio="xMidYMid meet">

<g transform="translate(0.000000,481.000000) scale(0.100000,-0.100000)"
fill="#000000" stroke="none">
<path d="M4124 4381 c-58 -26 -101 -83 -129 -172 -43 -138 -46 -199 -43 -1014
3 -763 3 -770 23 -768 11 0 40 9 65 19 70 28 256 26 332 -5 32 -12 62 -20 68
-16 7 4 10 272 10 793 -1 842 -2 868 -52 1011 -49 141 -161 203 -274 152z"/>
<path d="M3460 4051 c-90 -28 -140 -82 -173 -188 -45 -144 -52 -228 -52 -654
0 -411 2 -429 42 -429 7 0 50 -14 94 -31 107 -41 240 -132 322 -219 37 -38 74
-70 82 -70 13 0 15 87 13 783 l-3 782 -65 17 c-67 17 -215 22 -260 9z"/>
<path d="M4705 4049 c-22 -5 -52 -14 -67 -20 l-28 -11 0 -779 c0 -690 2 -779
15 -779 9 0 45 32 82 70 82 87 215 178 322 219 44 17 87 31 94 31 40 0 42 18
42 419 0 418 -8 524 -52 664 -27 87 -64 137 -127 170 -32 16 -62 21 -141 23
-55 2 -118 -1 -140 -7z"/>
<path d="M2862 2636 c-89 -17 -173 -47 -179 -63 -3 -7 16 -36 41 -64 28 -31
69 -98 105 -172 101 -209 168 -396 425 -1187 121 -374 154 -440 285 -571 127
-126 249 -172 461 -173 l125 -1 3 447 2 446 -97 53 c-197 105 -323 212 -373
314 -12 26 -27 80 -33 120 -13 89 6 201 58 341 19 50 35 100 35 109 0 46 -151
204 -266 278 -172 112 -401 159 -592 123z"/>
<path d="M5255 2635 c-129 -24 -240 -72 -351 -150 -64 -46 -187 -172 -216
-221 -15 -28 -15 -32 8 -89 40 -96 73 -218 80 -297 8 -90 -13 -181 -57 -250
-60 -93 -207 -206 -387 -297 l-62 -31 2 -448 3 -447 125 1 c214 1 335 47 461
173 129 130 164 199 280 556 175 539 275 836 329 970 77 196 155 347 206 404
25 28 44 57 41 64 -6 17 -119 53 -207 67 -84 13 -168 11 -255 -5z"/>
<path d="M4140 2320 c-123 -22 -237 -92 -286 -175 -37 -63 -74 -187 -81 -267
-10 -120 41 -203 182 -298 93 -61 222 -130 246 -130 20 0 171 81 249 133 118
79 180 169 180 263 0 107 -59 278 -120 347 -78 90 -250 149 -370 127z"/>
</g>
</svg>
