<?xml version="1.0" standalone="no"?>
<!DOCTYPE svg PUBLIC "-//W3C//DTD SVG 20010904//EN"
 "http://www.w3.org/TR/2001/REC-SVG-20010904/DTD/svg10.dtd">
<svg version="1.0" xmlns="http://www.w3.org/2000/svg"
 width="300.000000pt" height="300.000000pt" viewBox="0 0 300.000000 300.000000"
 preserveAspectRatio="xMidYMid meet">

<g transform="translate(0.000000,300.000000) scale(0.100000,-0.100000)"
fill="#000000" stroke="none">
<path d="M1431 2263 c-64 -64 -132 -165 -165 -243 l-15 -36 48 -49 c59 -63
128 -153 172 -227 31 -53 49 -71 49 -49 0 19 121 190 180 254 l63 69 -13 36
c-24 66 -94 173 -153 233 -90 92 -87 91 -166 12z"/>
<path d="M651 2056 c-70 -189 -40 -455 82 -701 129 -262 345 -467 576 -546 90
-31 91 -31 68 54 -37 139 -23 374 32 542 19 57 19 58 0 103 -11 26 -36 73 -56
107 -162 269 -409 459 -635 490 l-46 6 -21 -55z"/>
<path d="M2269 2100 c-167 -28 -387 -183 -529 -372 -100 -132 -185 -322 -221
-493 -37 -173 4 -455 65 -455 36 0 165 39 219 67 194 97 367 279 476 497 87
175 121 307 121 476 0 152 -36 293 -74 289 -6 -1 -32 -5 -57 -9z"/>
<path d="M275 1535 c-44 -7 -102 -21 -130 -32 l-50 -19 1 -45 c2 -54 50 -178
98 -252 128 -201 363 -377 611 -459 50 -16 131 -36 180 -44 97 -15 225 -19
224 -6 0 4 -32 23 -72 42 -261 128 -509 429 -612 745 l-23 70 -44 7 c-60 9
-91 8 -183 -7z"/>
<path d="M2556 1542 c-39 -7 -39 -7 -72 -99 -62 -177 -165 -348 -294 -485 -99
-107 -188 -175 -302 -232 -47 -24 -84 -47 -81 -50 10 -10 128 -7 206 5 427 63
811 368 901 716 9 33 16 65 16 71 0 12 -88 48 -150 61 -65 14 -179 20 -224 13z"/>
</g>
</svg>
