<?xml version="1.0" standalone="no"?>
<!DOCTYPE svg PUBLIC "-//W3C//DTD SVG 20010904//EN"
 "http://www.w3.org/TR/2001/REC-SVG-20010904/DTD/svg10.dtd">
<svg version="1.0" xmlns="http://www.w3.org/2000/svg"
 width="512.000000pt" height="512.000000pt" viewBox="0 0 512.000000 512.000000"
 preserveAspectRatio="xMidYMid meet">

<g transform="translate(0.000000,512.000000) scale(0.100000,-0.100000)"
fill="#000000" stroke="none">
<path d="M2489 4790 c-44 -23 -165 -168 -265 -317 -63 -93 -209 -361 -226
-413 -4 -12 -20 -8 -84 22 -211 99 -308 119 -625 125 -229 5 -260 4 -293 -12
-56 -27 -81 -69 -81 -136 0 -47 5 -62 30 -93 97 -122 151 -221 196 -358 40
-122 39 -124 -21 -93 -28 14 -91 39 -140 55 -451 152 -940 -176 -976 -654 -6
-71 -4 -87 15 -124 28 -56 74 -78 177 -85 96 -7 196 -41 268 -91 49 -33 327
-290 334 -308 2 -4 -2 -8 -10 -8 -22 0 -213 -96 -290 -146 -262 -169 -436
-403 -484 -651 -29 -156 -10 -234 68 -274 41 -21 46 -21 537 -16 605 7 799 26
1110 108 63 16 117 26 121 22 3 -4 19 -46 34 -93 79 -244 279 -571 507 -827
137 -155 207 -152 352 15 227 261 415 572 493 812 15 47 31 89 35 94 4 4 60
-6 126 -23 322 -83 509 -101 1109 -108 486 -5 491 -5 532 16 79 40 98 122 66
279 -50 246 -212 466 -471 640 -68 46 -278 152 -300 152 -8 0 -13 4 -11 8 7
18 285 275 334 308 72 50 172 84 268 91 178 13 224 89 180 301 -30 144 -93
262 -197 371 -235 243 -578 297 -891 139 -32 -16 -61 -27 -64 -24 -9 10 38
157 78 242 36 78 87 159 147 233 37 45 40 130 6 177 -45 63 -66 67 -352 61
-317 -6 -414 -26 -625 -125 -65 -30 -80 -34 -84 -22 -14 41 -138 276 -188 355
-60 96 -148 215 -223 303 -76 89 -147 112 -222 72z m139 -457 c240 -352 382
-780 382 -1152 0 -331 -255 -769 -448 -771 -102 0 -218 107 -318 294 -57 108
-99 221 -118 326 -56 293 55 775 259 1132 59 102 164 258 175 258 4 0 35 -39
68 -87z m-1107 -438 c106 -18 214 -55 298 -101 36 -20 67 -37 68 -38 2 -1 -8
-52 -22 -112 -31 -136 -55 -340 -55 -460 0 -212 68 -448 192 -663 26 -46 48
-86 48 -89 0 -8 -80 8 -143 29 -138 47 -258 151 -316 273 -51 107 -70 209 -81
436 -12 265 -33 384 -101 577 -17 49 -40 105 -50 126 l-19 37 48 0 c27 0 87
-7 133 -15z m2240 -22 c-10 -21 -33 -77 -50 -126 -68 -193 -89 -312 -101 -577
-7 -144 -16 -230 -30 -289 -51 -211 -177 -355 -367 -420 -63 -21 -143 -37
-143 -29 0 3 22 43 48 89 121 212 192 452 192 654 0 149 -37 421 -75 560 -5
17 6 27 72 62 129 67 287 110 416 112 l57 1 -19 -37z m-2874 -588 c77 -24 185
-84 275 -152 46 -35 46 -37 53 -107 21 -234 99 -455 203 -576 l36 -43 -109 5
c-126 7 -215 34 -299 92 -28 19 -118 99 -201 176 -199 189 -314 262 -467 300
-33 9 -48 18 -48 29 0 32 59 118 119 173 129 120 276 155 438 103z m3590 11
c87 -23 145 -57 208 -120 50 -51 125 -171 113 -180 -2 -2 -25 -9 -53 -15 -154
-38 -271 -113 -472 -303 -82 -76 -171 -155 -199 -174 -84 -58 -173 -85 -299
-92 l-109 -5 37 43 c45 53 117 192 145 280 27 82 48 194 57 290 l6 75 72 51
c199 142 351 188 494 150z m-2103 -1208 c-12 -40 -92 -153 -136 -195 -221
-203 -633 -332 -1198 -373 -184 -14 -710 -13 -710 0 0 19 41 93 86 156 143
202 445 370 754 419 63 10 230 13 648 14 l563 1 -7 -22z m1566 7 c371 -56 698
-262 829 -522 11 -23 21 -47 21 -53 0 -14 -513 -13 -708 1 -679 48 -1163 239
-1309 515 -18 34 -33 65 -33 68 0 3 249 6 553 6 430 0 573 -3 647 -15z m-1200
-468 c45 -36 119 -86 165 -112 l83 -46 -15 -56 c-31 -120 -107 -285 -195 -427
-58 -93 -208 -296 -218 -296 -10 0 -160 203 -218 296 -88 142 -164 307 -195
426 l-14 54 69 38 c102 56 219 148 294 231 l67 73 48 -58 c26 -32 84 -87 129
-123z"/>
</g>
</svg>
