<svg width="245" height="245" viewBox="0 0 40 253" xmlns="http://www.w3.org/2000/svg">
  <g transform="scale(0.1,-0.1)"
fill="#000000" stroke="none">
<path d="M0 0 c-302 -42 -569 -186 -768 -413 -135 -153 -252 -391 -291
-590 -10 -47 -20 -93 -22 -102 -5 -17 18 -18 390 -18 l396 0 0 290 c0 206 -3
290 -11 290 -6 0 -38 -14 -70 -32 -56 -29 -164 -131 -189 -178 -10 -18 -8 -20
30 -20 l40 0 0 -75 0 -75 -166 0 -166 0 6 26 c12 46 73 167 124 244 121 184
296 325 490 394 40 14 77 26 83 26 5 0 9 -377 9 -986 l0 -986 -37 7 c-55 10
-215 88 -288 140 -83 59 -175 152 -237 239 -49 69 -148 258 -148 284 0 9 40
12 165 12 l165 0 0 -70 0 -70 -40 0 c-39 0 -40 -1 -29 -22 39 -74 146 -167
232 -203 l37 -15 0 295 0 295 -388 0 c-214 0 -391 -2 -394 -5 -3 -3 3 -47 13
-98 55 -289 229 -585 449 -762 176 -143 361 -218 663 -270 l37 -6 0 171 0 170
100 0 100 0 0 -170 0 -171 33 5 c286 47 457 110 623 234 265 196 465 531 509
850 l7 52 -394 -2 -393 -3 -3 -292 c-1 -161 0 -293 3 -293 20 0 135 68 172
103 47 43 103 113 103 129 0 4 -18 8 -40 8 l-40 0 0 70 0 70 170 0 170 0 -20
-50 c-59 -149 -138 -268 -255 -385 -103 -102 -208 -170 -343 -221 l-87 -33 -3
986 c-1 543 -1 988 1 990 2 1 32 -6 68 -18 265 -87 493 -308 609 -590 22 -51
26 -71 17 -75 -7 -2 -82 -3 -167 -2 l-155 3 0 70 0 70 38 3 c20 2 37 6 37 9 0
15 -75 105 -114 137 -44 36 -134 86 -155 86 -8 0 -11 -85 -11 -290 l0 -290
396 0 397 0 -7 43 c-56 363 -278 712 -570 896 -98 61 -235 122 -327 146 -75
20 -214 45 -246 45 l-23 0 0 -185 0 -185 -100 0 -100 0 0 185 0 185 -27 -1
c-16 -1 -41 -4 -58 -6z m285 -1238 l0 -675 -100 0 -100 0 0 668 c0 368 3 672
7 675 3 4 48 7 100 7 l93 0 0 -675z"/>
    </g>
  </svg>
