solid OpenSCAD_Model
  facet normal -0.940446 -0.148931 0.305582
    outer loop
      vertex 3.90243 2.7571 2.63353
      vertex 4.02944 2.60631 2.95092
      vertex 3.8798 2.9 2.63353
    endloop
  endfacet
  facet normal -0.940446 -0.148936 0.30558
    outer loop
      vertex 4.02944 2.60631 2.95092
      vertex 3.90243 2.7571 2.63353
      vertex 3.94316 2.57827 2.67172
    endloop
  endfacet
  facet normal -0.368814 0.723886 0.583065
    outer loop
      vertex 4.52898 3.53006 3.22091
      vertex 4.46398 3.54602 3.15998
      vertex 4.49 3.5102 3.22091
    endloop
  endfacet
  facet normal -0.141896 -0.278431 0.949917
    outer loop
      vertex 4.64869 2.50823 3.41707
      vertex 4.82382 2.6928 3.49733
      vertex 4.83525 2.765 3.5202
    endloop
  endfacet
  facet normal -0.141871 -0.278454 0.949914
    outer loop
      vertex 4.82382 2.6928 3.49733
      vertex 4.64869 2.50823 3.41707
      vertex 4.73821 2.46262 3.41707
    endloop
  endfacet
  facet normal -0.7239 0.368849 0.583026
    outer loop
      vertex 4.16444 3.45864 2.95092
      vertex 4.02944 3.19369 2.95092
      vertex 4.32314 3.34334 3.22091
    endloop
  endfacet
  facet normal -0.585252 -0.0926792 0.805537
    outer loop
      vertex 4.47278 2.75036 3.41707
      vertex 4.17909 2.9 3.22091
      vertex 4.216 2.66692 3.22091
    endloop
  endfacet
  facet normal -0.368814 -0.723886 0.583065
    outer loop
      vertex 4.49 2.2898 3.22091
      vertex 4.46398 2.25398 3.15998
      vertex 4.52898 2.26994 3.22091
    endloop
  endfacet
  facet normal -0.723899 -0.36887 0.583014
    outer loop
      vertex 4.216 2.66692 3.22091
      vertex 4.02944 2.60631 2.95092
      vertex 4.32314 2.45666 3.22091
    endloop
  endfacet
  facet normal -0.308658 -0.0488852 0.949916
    outer loop
      vertex 4.76647 2.9 3.5202
      vertex 4.44908 2.9 3.41707
      vertex 4.47278 2.75036 3.41707
    endloop
  endfacet
  facet normal -0.940446 0.148936 0.30558
    outer loop
      vertex 3.90243 3.0429 2.63353
      vertex 4.02944 3.19369 2.95092
      vertex 3.94316 3.22173 2.67172
    endloop
  endfacet
  facet normal -0.940446 0.148931 0.305582
    outer loop
      vertex 4.02944 3.19369 2.95092
      vertex 3.90243 3.0429 2.63353
      vertex 3.8798 2.9 2.63353
    endloop
  endfacet
  facet normal -0.308647 -0.0489071 0.949918
    outer loop
      vertex 4.76647 2.9 3.5202
      vertex 4.47278 2.75036 3.41707
      vertex 4.77464 2.84844 3.5202
    endloop
  endfacet
  facet normal -0.278448 0.141858 0.949917
    outer loop
      vertex 4.79834 2.99808 3.5202
      vertex 4.54156 3.18464 3.41707
      vertex 4.77464 2.95156 3.5202
    endloop
  endfacet
  facet normal -0.574476 0.574476 0.583056
    outer loop
      vertex 4.46398 3.54602 3.15998
      vertex 4.32314 3.34334 3.22091
      vertex 4.49 3.5102 3.22091
    endloop
  endfacet
  facet normal -0.574514 0.574488 0.583007
    outer loop
      vertex 4.24099 3.53518 2.95092
      vertex 4.32314 3.34334 3.22091
      vertex 4.46398 3.54602 3.15998
    endloop
  endfacet
  facet normal -0.574457 0.574532 0.583021
    outer loop
      vertex 4.32314 3.34334 3.22091
      vertex 4.24099 3.53518 2.95092
      vertex 4.16444 3.45864 2.95092
    endloop
  endfacet
  facet normal -0.220996 0.220936 0.94992
    outer loop
      vertex 4.83525 3.035 3.5202
      vertex 4.54156 3.18464 3.41707
      vertex 4.79834 2.99808 3.5202
    endloop
  endfacet
  facet normal -0.723899 0.36887 0.583014
    outer loop
      vertex 4.32314 3.34334 3.22091
      vertex 4.02944 3.19369 2.95092
      vertex 4.216 3.13308 3.22091
    endloop
  endfacet
  facet normal -0.278444 0.141862 0.949918
    outer loop
      vertex 4.54156 3.18464 3.41707
      vertex 4.47278 3.04964 3.41707
      vertex 4.77464 2.95156 3.5202
    endloop
  endfacet
  facet normal -0.308647 0.0489071 0.949918
    outer loop
      vertex 4.77464 2.95156 3.5202
      vertex 4.47278 3.04964 3.41707
      vertex 4.76647 2.9 3.5202
    endloop
  endfacet
  facet normal -0.26899 0.527953 0.80555
    outer loop
      vertex 4.66639 3.40352 3.34974
      vertex 4.64869 3.29177 3.41707
      vertex 4.73821 3.33738 3.41707
    endloop
  endfacet
  facet normal -0.26899 -0.527953 0.80555
    outer loop
      vertex 4.73821 2.46262 3.41707
      vertex 4.64869 2.50823 3.41707
      vertex 4.66639 2.39648 3.34974
    endloop
  endfacet
  facet normal -0.7239 -0.368863 0.583018
    outer loop
      vertex 4.32314 2.45666 3.22091
      vertex 4.02944 2.60631 2.95092
      vertex 4.16444 2.34137 2.95092
    endloop
  endfacet
  facet normal -0.848377 -0.43229 0.305585
    outer loop
      vertex 3.99529 2.51051 2.72059
      vertex 4.02944 2.60631 2.95092
      vertex 3.94316 2.57827 2.67172
    endloop
  endfacet
  facet normal -0.848377 -0.43229 0.305585
    outer loop
      vertex 4.02944 2.60631 2.95092
      vertex 3.99529 2.51051 2.72059
      vertex 4.16444 2.34137 2.95092
    endloop
  endfacet
  facet normal -0.673257 0.673345 0.305503
    outer loop
      vertex 4.24099 3.53518 2.95092
      vertex 4.13941 3.47682 2.85569
      vertex 4.16444 3.45864 2.95092
    endloop
  endfacet
  facet normal -0.308658 0.0488852 0.949916
    outer loop
      vertex 4.47278 3.04964 3.41707
      vertex 4.44908 2.9 3.41707
      vertex 4.76647 2.9 3.5202
    endloop
  endfacet
  facet normal -0.80246 0.127076 0.583018
    outer loop
      vertex 4.216 3.13308 3.22091
      vertex 4.02944 3.19369 2.95092
      vertex 4.17909 2.9 3.22091
    endloop
  endfacet
  facet normal -0.940446 0.148933 0.305581
    outer loop
      vertex 4.02944 3.19369 2.95092
      vertex 3.8798 2.9 2.63353
      vertex 3.98293 2.9 2.95092
    endloop
  endfacet
  facet normal -0.940446 -0.148933 0.305581
    outer loop
      vertex 3.98293 2.9 2.95092
      vertex 3.8798 2.9 2.63353
      vertex 4.02944 2.60631 2.95092
    endloop
  endfacet
  facet normal -0.802457 0.12708 0.583021
    outer loop
      vertex 4.02944 3.19369 2.95092
      vertex 3.98293 2.9 2.95092
      vertex 4.17909 2.9 3.22091
    endloop
  endfacet
  facet normal -0.987692 -0.156413 -0
    outer loop
      vertex 3.8798 2.9 2.63353
      vertex 3.8798 2.9 2.61231
      vertex 3.90243 2.7571 2.63353
    endloop
  endfacet
  facet normal -0.848371 0.432346 0.305521
    outer loop
      vertex 4.13941 3.47682 2.85569
      vertex 3.99529 3.28949 2.72059
      vertex 4.16444 3.45864 2.95092
    endloop
  endfacet
  facet normal -0.848377 0.43229 0.305585
    outer loop
      vertex 4.02944 3.19369 2.95092
      vertex 3.99529 3.28949 2.72059
      vertex 3.94316 3.22173 2.67172
    endloop
  endfacet
  facet normal -0.848385 0.432277 0.305581
    outer loop
      vertex 3.99529 3.28949 2.72059
      vertex 4.02944 3.19369 2.95092
      vertex 4.16444 3.45864 2.95092
    endloop
  endfacet
  facet normal -0.269005 0.527987 0.805522
    outer loop
      vertex 4.49 3.5102 3.22091
      vertex 4.66639 3.40352 3.34974
      vertex 4.52898 3.53006 3.22091
    endloop
  endfacet
  facet normal -0.269036 0.527952 0.805535
    outer loop
      vertex 4.66639 3.40352 3.34974
      vertex 4.49 3.5102 3.22091
      vertex 4.64869 3.29177 3.41707
    endloop
  endfacet
  facet normal -0.269036 -0.527952 0.805535
    outer loop
      vertex 4.49 2.2898 3.22091
      vertex 4.66639 2.39648 3.34974
      vertex 4.64869 2.50823 3.41707
    endloop
  endfacet
  facet normal -0.269005 -0.527987 0.805522
    outer loop
      vertex 4.66639 2.39648 3.34974
      vertex 4.49 2.2898 3.22091
      vertex 4.52898 2.26994 3.22091
    endloop
  endfacet
  facet normal -0.220975 -0.220975 0.949916
    outer loop
      vertex 4.83525 2.765 3.5202
      vertex 4.54156 2.61536 3.41707
      vertex 4.64869 2.50823 3.41707
    endloop
  endfacet
  facet normal -0.418999 -0.418999 0.805531
    outer loop
      vertex 4.54156 2.61536 3.41707
      vertex 4.49 2.2898 3.22091
      vertex 4.64869 2.50823 3.41707
    endloop
  endfacet
  facet normal -0.418999 -0.418999 0.805531
    outer loop
      vertex 4.49 2.2898 3.22091
      vertex 4.54156 2.61536 3.41707
      vertex 4.32314 2.45666 3.22091
    endloop
  endfacet
  facet normal -0.574476 -0.574476 0.583056
    outer loop
      vertex 4.32314 2.45666 3.22091
      vertex 4.46398 2.25398 3.15998
      vertex 4.49 2.2898 3.22091
    endloop
  endfacet
  facet normal -0.574514 -0.574488 0.583007
    outer loop
      vertex 4.32314 2.45666 3.22091
      vertex 4.24099 2.26482 2.95092
      vertex 4.46398 2.25398 3.15998
    endloop
  endfacet
  facet normal -0.574499 -0.574499 0.583011
    outer loop
      vertex 4.24099 2.26482 2.95092
      vertex 4.32314 2.45666 3.22091
      vertex 4.16444 2.34137 2.95092
    endloop
  endfacet
  facet normal -0.141814 0.278471 0.949917
    outer loop
      vertex 4.81822 3.12225 3.49208
      vertex 4.83525 3.035 3.5202
      vertex 4.84821 3.0416 3.5202
    endloop
  endfacet
  facet normal -0.141852 0.278462 0.949914
    outer loop
      vertex 4.83525 3.035 3.5202
      vertex 4.81822 3.12225 3.49208
      vertex 4.64869 3.29177 3.41707
    endloop
  endfacet
  facet normal -0.418999 0.418999 0.805531
    outer loop
      vertex 4.49 3.5102 3.22091
      vertex 4.54156 3.18464 3.41707
      vertex 4.64869 3.29177 3.41707
    endloop
  endfacet
  facet normal -0.418999 0.418999 0.805531
    outer loop
      vertex 4.54156 3.18464 3.41707
      vertex 4.49 3.5102 3.22091
      vertex 4.32314 3.34334 3.22091
    endloop
  endfacet
  facet normal -0.802457 -0.12708 0.583021
    outer loop
      vertex 4.17909 2.9 3.22091
      vertex 3.98293 2.9 2.95092
      vertex 4.02944 2.60631 2.95092
    endloop
  endfacet
  facet normal -0.80246 -0.127076 0.583018
    outer loop
      vertex 4.17909 2.9 3.22091
      vertex 4.02944 2.60631 2.95092
      vertex 4.216 2.66692 3.22091
    endloop
  endfacet
  facet normal -0.585252 0.0926792 0.805537
    outer loop
      vertex 4.216 3.13308 3.22091
      vertex 4.17909 2.9 3.22091
      vertex 4.47278 3.04964 3.41707
    endloop
  endfacet
  facet normal -0.987692 0.156413 0
    outer loop
      vertex 3.90243 3.0429 2.63353
      vertex 3.8798 2.9 2.61231
      vertex 3.8798 2.9 2.63353
    endloop
  endfacet
  facet normal -0.141868 0.278447 0.949916
    outer loop
      vertex 4.73821 3.33738 3.41707
      vertex 4.64869 3.29177 3.41707
      vertex 4.81822 3.12225 3.49208
    endloop
  endfacet
  facet normal -0.141803 -0.278449 0.949925
    outer loop
      vertex 4.83525 2.765 3.5202
      vertex 4.82382 2.6928 3.49733
      vertex 4.84821 2.7584 3.5202
    endloop
  endfacet
  facet normal -0.220996 -0.220936 0.94992
    outer loop
      vertex 4.79834 2.80192 3.5202
      vertex 4.54156 2.61536 3.41707
      vertex 4.83525 2.765 3.5202
    endloop
  endfacet
  facet normal -0.673286 -0.673286 0.30557
    outer loop
      vertex 4.16444 2.34137 2.95092
      vertex 4.13941 2.32318 2.85569
      vertex 4.24099 2.26482 2.95092
    endloop
  endfacet
  facet normal -0.848371 -0.432317 0.305561
    outer loop
      vertex 4.16444 2.34137 2.95092
      vertex 3.99529 2.51051 2.72059
      vertex 4.13941 2.32318 2.85569
    endloop
  endfacet
  facet normal -0.527984 -0.268998 0.805527
    outer loop
      vertex 4.47278 2.75036 3.41707
      vertex 4.32314 2.45666 3.22091
      vertex 4.54156 2.61536 3.41707
    endloop
  endfacet
  facet normal -0.527951 -0.269023 0.80554
    outer loop
      vertex 4.47278 2.75036 3.41707
      vertex 4.216 2.66692 3.22091
      vertex 4.32314 2.45666 3.22091
    endloop
  endfacet
  facet normal -0.585256 0.0926929 0.805533
    outer loop
      vertex 4.47278 3.04964 3.41707
      vertex 4.17909 2.9 3.22091
      vertex 4.44908 2.9 3.41707
    endloop
  endfacet
  facet normal -0.585256 -0.0926929 0.805533
    outer loop
      vertex 4.44908 2.9 3.41707
      vertex 4.17909 2.9 3.22091
      vertex 4.47278 2.75036 3.41707
    endloop
  endfacet
  facet normal -0.220975 0.220975 0.949916
    outer loop
      vertex 4.64869 3.29177 3.41707
      vertex 4.54156 3.18464 3.41707
      vertex 4.83525 3.035 3.5202
    endloop
  endfacet
  facet normal -0.278448 -0.141858 0.949917
    outer loop
      vertex 4.77464 2.84844 3.5202
      vertex 4.54156 2.61536 3.41707
      vertex 4.79834 2.80192 3.5202
    endloop
  endfacet
  facet normal -0.278444 -0.141862 0.949918
    outer loop
      vertex 4.77464 2.84844 3.5202
      vertex 4.47278 2.75036 3.41707
      vertex 4.54156 2.61536 3.41707
    endloop
  endfacet
  facet normal 0 0 1
    outer loop
      vertex 4.79834 2.99808 3.5202
      vertex 4.84821 3.0416 3.5202
      vertex 4.83525 3.035 3.5202
    endloop
  endfacet
  facet normal 0 0 1
    outer loop
      vertex 4.77464 2.95156 3.5202
      vertex 4.84821 3.0416 3.5202
      vertex 4.79834 2.99808 3.5202
    endloop
  endfacet
  facet normal 0 0 1
    outer loop
      vertex 4.84821 3.0416 3.5202
      vertex 4.77464 2.95156 3.5202
      vertex 4.84821 2.7584 3.5202
    endloop
  endfacet
  facet normal 0 0 1
    outer loop
      vertex 4.84821 2.7584 3.5202
      vertex 4.79834 2.80192 3.5202
      vertex 4.83525 2.765 3.5202
    endloop
  endfacet
  facet normal -0 0 1
    outer loop
      vertex 4.77464 2.84844 3.5202
      vertex 4.84821 2.7584 3.5202
      vertex 4.77464 2.95156 3.5202
    endloop
  endfacet
  facet normal 0 0 1
    outer loop
      vertex 4.84821 2.7584 3.5202
      vertex 4.77464 2.84844 3.5202
      vertex 4.79834 2.80192 3.5202
    endloop
  endfacet
  facet normal 0 -0 1
    outer loop
      vertex 4.77464 2.84844 3.5202
      vertex 4.77464 2.95156 3.5202
      vertex 4.76647 2.9 3.5202
    endloop
  endfacet
  facet normal -0.527951 0.269023 0.80554
    outer loop
      vertex 4.32314 3.34334 3.22091
      vertex 4.216 3.13308 3.22091
      vertex 4.47278 3.04964 3.41707
    endloop
  endfacet
  facet normal -0.527984 0.268998 0.805527
    outer loop
      vertex 4.54156 3.18464 3.41707
      vertex 4.32314 3.34334 3.22091
      vertex 4.47278 3.04964 3.41707
    endloop
  endfacet
  facet normal 0.58523 0.0926506 0.805556
    outer loop
      vertex 84.784 3.13308 3.22091
      vertex 84.5272 3.04964 3.41707
      vertex 84.8209 2.9 3.22091
    endloop
  endfacet
  facet normal 0.278506 0.141887 0.949896
    outer loop
      vertex 84.4584 3.18464 3.41707
      vertex 84.2017 2.99808 3.5202
      vertex 84.2254 2.95156 3.5202
    endloop
  endfacet
  facet normal 0.278475 0.141919 0.9499
    outer loop
      vertex 84.4584 3.18464 3.41707
      vertex 84.2254 2.95156 3.5202
      vertex 84.5272 3.04964 3.41707
    endloop
  endfacet
  facet normal 0.940476 0.148906 0.305501
    outer loop
      vertex 85.1202 2.9 2.63353
      vertex 84.9706 3.19369 2.95092
      vertex 85.0171 2.9 2.95092
    endloop
  endfacet
  facet normal 0.802411 -0.127034 0.583094
    outer loop
      vertex 84.8209 2.9 3.22091
      vertex 84.784 2.66692 3.22091
      vertex 84.9706 2.60631 2.95092
    endloop
  endfacet
  facet normal 0.7239 0.368849 0.583026
    outer loop
      vertex 84.8356 3.45864 2.95092
      vertex 84.6769 3.34334 3.22091
      vertex 84.9706 3.19369 2.95092
    endloop
  endfacet
  facet normal 0.308649 -0.0488838 0.949919
    outer loop
      vertex 84.5509 2.9 3.41707
      vertex 84.2335 2.9 3.5202
      vertex 84.5272 2.75036 3.41707
    endloop
  endfacet
  facet normal 0.278506 -0.141887 0.949896
    outer loop
      vertex 84.2254 2.84844 3.5202
      vertex 84.2017 2.80192 3.5202
      vertex 84.4584 2.61536 3.41707
    endloop
  endfacet
  facet normal 0.848403 -0.432423 0.305323
    outer loop
      vertex 85.0047 2.51051 2.72059
      vertex 84.8356 2.34137 2.95092
      vertex 84.8606 2.32318 2.85569
    endloop
  endfacet
  facet normal 0.802404 0.127045 0.583102
    outer loop
      vertex 84.9706 3.19369 2.95092
      vertex 84.8209 2.9 3.22091
      vertex 85.0171 2.9 2.95092
    endloop
  endfacet
  facet normal 0.585242 0.0926907 0.805543
    outer loop
      vertex 84.8209 2.9 3.22091
      vertex 84.5272 3.04964 3.41707
      vertex 84.5509 2.9 3.41707
    endloop
  endfacet
  facet normal 0.848403 0.432452 0.305283
    outer loop
      vertex 84.8606 3.47682 2.85569
      vertex 84.8356 3.45864 2.95092
      vertex 85.0047 3.28949 2.72059
    endloop
  endfacet
  facet normal 0.987724 -0.156211 0
    outer loop
      vertex 85.1202 2.9 2.63353
      vertex 85.0976 2.7571 2.63353
      vertex 85.1202 2.9 2.61231
    endloop
  endfacet
  facet normal 0.673084 0.673611 0.305296
    outer loop
      vertex 84.8606 3.47682 2.85569
      vertex 84.759 3.53518 2.95092
      vertex 84.8356 3.45864 2.95092
    endloop
  endfacet
  facet normal 0.527961 -0.268927 0.805565
    outer loop
      vertex 84.784 2.66692 3.22091
      vertex 84.5272 2.75036 3.41707
      vertex 84.6769 2.45666 3.22091
    endloop
  endfacet
  facet normal 0.848513 -0.432172 0.305372
    outer loop
      vertex 84.9706 2.60631 2.95092
      vertex 85.0047 2.51051 2.72059
      vertex 85.0568 2.57827 2.67172
    endloop
  endfacet
  facet normal 0.848425 -0.432314 0.305418
    outer loop
      vertex 85.0047 2.51051 2.72059
      vertex 84.9706 2.60631 2.95092
      vertex 84.8356 2.34137 2.95092
    endloop
  endfacet
  facet normal 0.673113 -0.673552 0.305363
    outer loop
      vertex 84.8356 2.34137 2.95092
      vertex 84.759 2.26482 2.95092
      vertex 84.8606 2.32318 2.85569
    endloop
  endfacet
  facet normal 0.802411 0.127034 0.583094
    outer loop
      vertex 84.9706 3.19369 2.95092
      vertex 84.784 3.13308 3.22091
      vertex 84.8209 2.9 3.22091
    endloop
  endfacet
  facet normal 0.802404 -0.127045 0.583102
    outer loop
      vertex 85.0171 2.9 2.95092
      vertex 84.8209 2.9 3.22091
      vertex 84.9706 2.60631 2.95092
    endloop
  endfacet
  facet normal 0.278475 -0.141919 0.9499
    outer loop
      vertex 84.5272 2.75036 3.41707
      vertex 84.2254 2.84844 3.5202
      vertex 84.4584 2.61536 3.41707
    endloop
  endfacet
  facet normal 0.723904 0.368734 0.583094
    outer loop
      vertex 84.9706 3.19369 2.95092
      vertex 84.6769 3.34334 3.22091
      vertex 84.784 3.13308 3.22091
    endloop
  endfacet
  facet normal 0.987724 0.156211 -0
    outer loop
      vertex 85.1202 2.9 2.61231
      vertex 85.0976 3.0429 2.63353
      vertex 85.1202 2.9 2.63353
    endloop
  endfacet
  facet normal 0.940476 -0.148906 0.305501
    outer loop
      vertex 85.0171 2.9 2.95092
      vertex 84.9706 2.60631 2.95092
      vertex 85.1202 2.9 2.63353
    endloop
  endfacet
  facet normal 0.940455 -0.148735 0.305649
    outer loop
      vertex 84.9706 2.60631 2.95092
      vertex 85.0976 2.7571 2.63353
      vertex 85.1202 2.9 2.63353
    endloop
  endfacet
  facet normal 0.940453 -0.149354 0.305354
    outer loop
      vertex 85.0976 2.7571 2.63353
      vertex 84.9706 2.60631 2.95092
      vertex 85.0568 2.57827 2.67172
    endloop
  endfacet
  facet normal 0 0 1
    outer loop
      vertex 84.2254 2.95156 3.5202
      vertex 84.2254 2.84844 3.5202
      vertex 84.2335 2.9 3.5202
    endloop
  endfacet
  facet normal 0 0 1
    outer loop
      vertex 84.1518 3.0416 3.5202
      vertex 84.2254 2.95156 3.5202
      vertex 84.2017 2.99808 3.5202
    endloop
  endfacet
  facet normal 0 0 1
    outer loop
      vertex 84.2254 2.95156 3.5202
      vertex 84.1518 3.0416 3.5202
      vertex 84.2254 2.84844 3.5202
    endloop
  endfacet
  facet normal 0 0 1
    outer loop
      vertex 84.1518 3.0416 3.5202
      vertex 84.2017 2.99808 3.5202
      vertex 84.1647 3.035 3.5202
    endloop
  endfacet
  facet normal 0 0 1
    outer loop
      vertex 84.1518 2.7584 3.5202
      vertex 84.2254 2.84844 3.5202
      vertex 84.1518 3.0416 3.5202
    endloop
  endfacet
  facet normal 0 0 1
    outer loop
      vertex 84.2254 2.84844 3.5202
      vertex 84.1518 2.7584 3.5202
      vertex 84.2017 2.80192 3.5202
    endloop
  endfacet
  facet normal 0 0 1
    outer loop
      vertex 84.2017 2.80192 3.5202
      vertex 84.1518 2.7584 3.5202
      vertex 84.1647 2.765 3.5202
    endloop
  endfacet
  facet normal 0.527854 -0.26901 0.805608
    outer loop
      vertex 84.5272 2.75036 3.41707
      vertex 84.4584 2.61536 3.41707
      vertex 84.6769 2.45666 3.22091
    endloop
  endfacet
  facet normal 0.220801 0.22128 0.949885
    outer loop
      vertex 84.4584 3.18464 3.41707
      vertex 84.1647 3.035 3.5202
      vertex 84.2017 2.99808 3.5202
    endloop
  endfacet
  facet normal 0.7239 -0.368863 0.583018
    outer loop
      vertex 84.9706 2.60631 2.95092
      vertex 84.6769 2.45666 3.22091
      vertex 84.8356 2.34137 2.95092
    endloop
  endfacet
  facet normal 0.723904 -0.368734 0.583094
    outer loop
      vertex 84.784 2.66692 3.22091
      vertex 84.6769 2.45666 3.22091
      vertex 84.9706 2.60631 2.95092
    endloop
  endfacet
  facet normal 0.574322 -0.574697 0.582991
    outer loop
      vertex 84.6769 2.45666 3.22091
      vertex 84.759 2.26482 2.95092
      vertex 84.8356 2.34137 2.95092
    endloop
  endfacet
  facet normal 0.57445 -0.574599 0.58296
    outer loop
      vertex 84.6769 2.45666 3.22091
      vertex 84.536 2.25398 3.15998
      vertex 84.759 2.26482 2.95092
    endloop
  endfacet
  facet normal 0.574467 -0.574604 0.582939
    outer loop
      vertex 84.536 2.25398 3.15998
      vertex 84.6769 2.45666 3.22091
      vertex 84.51 2.2898 3.22091
    endloop
  endfacet
  facet normal 0.368694 -0.724022 0.582972
    outer loop
      vertex 84.51 2.2898 3.22091
      vertex 84.471 2.26994 3.22091
      vertex 84.536 2.25398 3.15998
    endloop
  endfacet
  facet normal 0.585242 -0.0926907 0.805543
    outer loop
      vertex 84.5509 2.9 3.41707
      vertex 84.5272 2.75036 3.41707
      vertex 84.8209 2.9 3.22091
    endloop
  endfacet
  facet normal 0.58523 -0.0926506 0.805556
    outer loop
      vertex 84.8209 2.9 3.22091
      vertex 84.5272 2.75036 3.41707
      vertex 84.784 2.66692 3.22091
    endloop
  endfacet
  facet normal 0.940453 0.149354 0.305354
    outer loop
      vertex 84.9706 3.19369 2.95092
      vertex 85.0976 3.0429 2.63353
      vertex 85.0568 3.22173 2.67172
    endloop
  endfacet
  facet normal 0.940455 0.148735 0.305649
    outer loop
      vertex 85.0976 3.0429 2.63353
      vertex 84.9706 3.19369 2.95092
      vertex 85.1202 2.9 2.63353
    endloop
  endfacet
  facet normal 0.848432 0.432302 0.305414
    outer loop
      vertex 84.9706 3.19369 2.95092
      vertex 85.0047 3.28949 2.72059
      vertex 84.8356 3.45864 2.95092
    endloop
  endfacet
  facet normal 0.848513 0.432172 0.305372
    outer loop
      vertex 85.0047 3.28949 2.72059
      vertex 84.9706 3.19369 2.95092
      vertex 85.0568 3.22173 2.67172
    endloop
  endfacet
  facet normal 0.308823 -0.0485157 0.949881
    outer loop
      vertex 84.2335 2.9 3.5202
      vertex 84.2254 2.84844 3.5202
      vertex 84.5272 2.75036 3.41707
    endloop
  endfacet
  facet normal 0.418896 0.418997 0.805585
    outer loop
      vertex 84.51 3.5102 3.22091
      vertex 84.4584 3.18464 3.41707
      vertex 84.6769 3.34334 3.22091
    endloop
  endfacet
  facet normal 0.419056 0.418939 0.805532
    outer loop
      vertex 84.4584 3.18464 3.41707
      vertex 84.51 3.5102 3.22091
      vertex 84.3513 3.29177 3.41707
    endloop
  endfacet
  facet normal 0.142027 0.278319 0.94993
    outer loop
      vertex 84.1818 3.12225 3.49208
      vertex 84.1647 3.035 3.5202
      vertex 84.3513 3.29177 3.41707
    endloop
  endfacet
  facet normal 0.142358 0.278245 0.949902
    outer loop
      vertex 84.1647 3.035 3.5202
      vertex 84.1818 3.12225 3.49208
      vertex 84.1518 3.0416 3.5202
    endloop
  endfacet
  facet normal 0.308823 0.0485157 0.949881
    outer loop
      vertex 84.5272 3.04964 3.41707
      vertex 84.2254 2.95156 3.5202
      vertex 84.2335 2.9 3.5202
    endloop
  endfacet
  facet normal 0.308649 0.0488838 0.949919
    outer loop
      vertex 84.5272 3.04964 3.41707
      vertex 84.2335 2.9 3.5202
      vertex 84.5509 2.9 3.41707
    endloop
  endfacet
  facet normal 0.418896 -0.418997 0.805585
    outer loop
      vertex 84.4584 2.61536 3.41707
      vertex 84.51 2.2898 3.22091
      vertex 84.6769 2.45666 3.22091
    endloop
  endfacet
  facet normal 0.419056 -0.418939 0.805532
    outer loop
      vertex 84.51 2.2898 3.22091
      vertex 84.4584 2.61536 3.41707
      vertex 84.3513 2.50823 3.41707
    endloop
  endfacet
  facet normal 0.269023 -0.527952 0.805539
    outer loop
      vertex 84.3336 2.39648 3.34974
      vertex 84.51 2.2898 3.22091
      vertex 84.3513 2.50823 3.41707
    endloop
  endfacet
  facet normal 0.268914 -0.528078 0.805493
    outer loop
      vertex 84.51 2.2898 3.22091
      vertex 84.3336 2.39648 3.34974
      vertex 84.471 2.26994 3.22091
    endloop
  endfacet
  facet normal 0.269049 -0.527951 0.805531
    outer loop
      vertex 84.3513 2.50823 3.41707
      vertex 84.2618 2.46262 3.41707
      vertex 84.3336 2.39648 3.34974
    endloop
  endfacet
  facet normal 0.269049 0.527951 0.805531
    outer loop
      vertex 84.3336 3.40352 3.34974
      vertex 84.2618 3.33738 3.41707
      vertex 84.3513 3.29177 3.41707
    endloop
  endfacet
  facet normal 0.1419 -0.278448 0.949911
    outer loop
      vertex 84.3513 2.50823 3.41707
      vertex 84.1762 2.6928 3.49733
      vertex 84.2618 2.46262 3.41707
    endloop
  endfacet
  facet normal 0.142102 -0.278266 0.949934
    outer loop
      vertex 84.1762 2.6928 3.49733
      vertex 84.3513 2.50823 3.41707
      vertex 84.1647 2.765 3.5202
    endloop
  endfacet
  facet normal 0.527961 0.268927 0.805565
    outer loop
      vertex 84.6769 3.34334 3.22091
      vertex 84.5272 3.04964 3.41707
      vertex 84.784 3.13308 3.22091
    endloop
  endfacet
  facet normal 0.368694 0.724022 0.582972
    outer loop
      vertex 84.536 3.54602 3.15998
      vertex 84.471 3.53006 3.22091
      vertex 84.51 3.5102 3.22091
    endloop
  endfacet
  facet normal 0.574279 0.574729 0.583001
    outer loop
      vertex 84.759 3.53518 2.95092
      vertex 84.6769 3.34334 3.22091
      vertex 84.8356 3.45864 2.95092
    endloop
  endfacet
  facet normal 0.57445 0.574599 0.58296
    outer loop
      vertex 84.536 3.54602 3.15998
      vertex 84.6769 3.34334 3.22091
      vertex 84.759 3.53518 2.95092
    endloop
  endfacet
  facet normal 0.574467 0.574604 0.582939
    outer loop
      vertex 84.6769 3.34334 3.22091
      vertex 84.536 3.54602 3.15998
      vertex 84.51 3.5102 3.22091
    endloop
  endfacet
  facet normal 0.220801 -0.22128 0.949885
    outer loop
      vertex 84.2017 2.80192 3.5202
      vertex 84.1647 2.765 3.5202
      vertex 84.4584 2.61536 3.41707
    endloop
  endfacet
  facet normal 0.141897 0.278442 0.949913
    outer loop
      vertex 84.2618 3.33738 3.41707
      vertex 84.1818 3.12225 3.49208
      vertex 84.3513 3.29177 3.41707
    endloop
  endfacet
  facet normal 0.220992 -0.22093 0.949922
    outer loop
      vertex 84.4584 2.61536 3.41707
      vertex 84.1647 2.765 3.5202
      vertex 84.3513 2.50823 3.41707
    endloop
  endfacet
  facet normal 0.220992 0.22093 0.949922
    outer loop
      vertex 84.3513 3.29177 3.41707
      vertex 84.1647 3.035 3.5202
      vertex 84.4584 3.18464 3.41707
    endloop
  endfacet
  facet normal 0.527854 0.26901 0.805608
    outer loop
      vertex 84.6769 3.34334 3.22091
      vertex 84.4584 3.18464 3.41707
      vertex 84.5272 3.04964 3.41707
    endloop
  endfacet
  facet normal 0.142345 -0.27822 0.949911
    outer loop
      vertex 84.1647 2.765 3.5202
      vertex 84.1518 2.7584 3.5202
      vertex 84.1762 2.6928 3.49733
    endloop
  endfacet
  facet normal 0.268914 0.528078 0.805493
    outer loop
      vertex 84.3336 3.40352 3.34974
      vertex 84.51 3.5102 3.22091
      vertex 84.471 3.53006 3.22091
    endloop
  endfacet
  facet normal 0.269023 0.527952 0.805539
    outer loop
      vertex 84.51 3.5102 3.22091
      vertex 84.3336 3.40352 3.34974
      vertex 84.3513 3.29177 3.41707
    endloop
  endfacet
  facet normal 0 1 -0
    outer loop
      vertex 86.2 47.9 1.4
      vertex 2.8 47.9 1.6
      vertex 86.2 47.9 1.6
    endloop
  endfacet
  facet normal 0 1 0
    outer loop
      vertex 2.8 47.9 1.6
      vertex 86.2 47.9 1.4
      vertex 2.8 47.9 1.4
    endloop
  endfacet
  facet normal 0 0 -1
    outer loop
      vertex 2.8 1.3 1.4
      vertex 86.2 47.9 1.4
      vertex 86.2 1.3 1.4
    endloop
  endfacet
  facet normal -0 0 -1
    outer loop
      vertex 86.2 47.9 1.4
      vertex 2.8 1.3 1.4
      vertex 2.8 47.9 1.4
    endloop
  endfacet
  facet normal 1 -0 0
    outer loop
      vertex 86.2 1.3 1.6
      vertex 86.2 47.9 1.4
      vertex 86.2 47.9 1.6
    endloop
  endfacet
  facet normal 1 0 0
    outer loop
      vertex 86.2 47.9 1.4
      vertex 86.2 1.3 1.6
      vertex 86.2 1.3 1.4
    endloop
  endfacet
  facet normal 0 0.683941 0.729537
    outer loop
      vertex 86.2 47.9 1.6
      vertex 6 44.7 4.6
      vertex 83 44.7 4.6
    endloop
  endfacet
  facet normal 0 0.683941 0.729537
    outer loop
      vertex 6 44.7 4.6
      vertex 86.2 47.9 1.6
      vertex 2.8 47.9 1.6
    endloop
  endfacet
  facet normal 0.683931 0 0.729547
    outer loop
      vertex 85.0568 3.22173 2.67172
      vertex 86.2 1.3 1.6
      vertex 86.2 47.9 1.6
    endloop
  endfacet
  facet normal 0.683769 -0.0002171 0.729699
    outer loop
      vertex 86.2 1.3 1.6
      vertex 85.0976 3.0429 2.63353
      vertex 85.1202 2.9 2.61231
    endloop
  endfacet
  facet normal 0.68428 0.000389791 0.72922
    outer loop
      vertex 86.2 1.3 1.6
      vertex 85.0568 3.22173 2.67172
      vertex 85.0976 3.0429 2.63353
    endloop
  endfacet
  facet normal 0.68413 -9.57398e-06 0.72936
    outer loop
      vertex 86.2 47.9 1.6
      vertex 85.0047 3.28949 2.72059
      vertex 85.0568 3.22173 2.67172
    endloop
  endfacet
  facet normal 0.683957 -8.78525e-07 0.729522
    outer loop
      vertex 86.2 47.9 1.6
      vertex 84.8606 3.47682 2.85569
      vertex 85.0047 3.28949 2.72059
    endloop
  endfacet
  facet normal 0.683941 4.23325e-08 0.729537
    outer loop
      vertex 83 44.7 4.6
      vertex 84.8606 3.47682 2.85569
      vertex 86.2 47.9 1.6
    endloop
  endfacet
  facet normal 0.683863 -6.60956e-06 0.729611
    outer loop
      vertex 84.8606 3.47682 2.85569
      vertex 83 44.7 4.6
      vertex 84.759 3.53518 2.95092
    endloop
  endfacet
  facet normal 0.683937 -6.60998e-07 0.729541
    outer loop
      vertex 84.759 3.53518 2.95092
      vertex 83 44.7 4.6
      vertex 84.536 3.54602 3.15998
    endloop
  endfacet
  facet normal 0.683897 -3.46476e-06 0.729579
    outer loop
      vertex 84.536 3.54602 3.15998
      vertex 83 44.7 4.6
      vertex 84.471 3.53006 3.22091
    endloop
  endfacet
  facet normal 0.683989 2.74223e-06 0.729492
    outer loop
      vertex 84.471 3.53006 3.22091
      vertex 83 44.7 4.6
      vertex 84.3336 3.40352 3.34974
    endloop
  endfacet
  facet normal 0.684033 5.40406e-06 0.729451
    outer loop
      vertex 84.3336 3.40352 3.34974
      vertex 83 44.7 4.6
      vertex 84.2618 3.33738 3.41707
    endloop
  endfacet
  facet normal 0.683939 -0 0.729539
    outer loop
      vertex 83 1.3 4.6
      vertex 84.2618 3.33738 3.41707
      vertex 83 44.7 4.6
    endloop
  endfacet
  facet normal 0.684015 -9.66291e-05 0.729468
    outer loop
      vertex 84.1818 3.12225 3.49208
      vertex 83 1.3 4.6
      vertex 84.1518 3.0416 3.5202
    endloop
  endfacet
  facet normal 0.683862 8.8917e-05 0.729611
    outer loop
      vertex 84.2618 3.33738 3.41707
      vertex 83 1.3 4.6
      vertex 84.1818 3.12225 3.49208
    endloop
  endfacet
  facet normal 0.684046 0.000134618 0.729439
    outer loop
      vertex 85.0976 2.7571 2.63353
      vertex 86.2 1.3 1.6
      vertex 85.1202 2.9 2.61231
    endloop
  endfacet
  facet normal 0.683817 -0.00019157 0.729654
    outer loop
      vertex 85.0568 2.57827 2.67172
      vertex 86.2 1.3 1.6
      vertex 85.0976 2.7571 2.63353
    endloop
  endfacet
  facet normal 0.684026 0.000159866 0.729458
    outer loop
      vertex 85.0047 2.51051 2.72059
      vertex 86.2 1.3 1.6
      vertex 85.0568 2.57827 2.67172
    endloop
  endfacet
  facet normal 0.683948 1.46712e-05 0.729531
    outer loop
      vertex 84.8606 2.32318 2.85569
      vertex 86.2 1.3 1.6
      vertex 85.0047 2.51051 2.72059
    endloop
  endfacet
  facet normal 0.683898 -0.00010833 0.729578
    outer loop
      vertex 84.759 2.26482 2.95092
      vertex 86.2 1.3 1.6
      vertex 84.8606 2.32318 2.85569
    endloop
  endfacet
  facet normal 0.683937 9.48379e-07 0.729541
    outer loop
      vertex 84.536 2.25398 3.15998
      vertex 86.2 1.3 1.6
      vertex 84.759 2.26482 2.95092
    endloop
  endfacet
  facet normal 0.68391 0.000108099 0.729566
    outer loop
      vertex 83 1.3 4.6
      vertex 84.536 2.25398 3.15998
      vertex 84.471 2.26994 3.22091
    endloop
  endfacet
  facet normal 0.683913 3.58011e-05 0.729564
    outer loop
      vertex 83 1.3 4.6
      vertex 84.1762 2.6928 3.49733
      vertex 84.1518 2.7584 3.5202
    endloop
  endfacet
  facet normal 0.683941 1.52946e-05 0.729537
    outer loop
      vertex 84.536 2.25398 3.15998
      vertex 83 1.3 4.6
      vertex 86.2 1.3 1.6
    endloop
  endfacet
  facet normal 0.683966 -5.01645e-05 0.729514
    outer loop
      vertex 84.3336 2.39648 3.34974
      vertex 83 1.3 4.6
      vertex 84.471 2.26994 3.22091
    endloop
  endfacet
  facet normal 0.683987 -9.88498e-05 0.729494
    outer loop
      vertex 84.2618 2.46262 3.41707
      vertex 83 1.3 4.6
      vertex 84.3336 2.39648 3.34974
    endloop
  endfacet
  facet normal 0.683951 -2.48064e-05 0.729528
    outer loop
      vertex 84.1762 2.6928 3.49733
      vertex 83 1.3 4.6
      vertex 84.2618 2.46262 3.41707
    endloop
  endfacet
  facet normal 0.683937 0 0.729541
    outer loop
      vertex 84.1518 3.0416 3.5202
      vertex 83 1.3 4.6
      vertex 84.1518 2.7584 3.5202
    endloop
  endfacet
  facet normal -0.683942 0 0.729537
    outer loop
      vertex 4.73821 3.33738 3.41707
      vertex 6 1.3 4.6
      vertex 6 44.7 4.6
    endloop
  endfacet
  facet normal -0.683866 9.21006e-05 0.729608
    outer loop
      vertex 6 1.3 4.6
      vertex 4.81822 3.12225 3.49208
      vertex 4.84821 3.0416 3.5202
    endloop
  endfacet
  facet normal -0.683938 4.29632e-06 0.72954
    outer loop
      vertex 6 1.3 4.6
      vertex 4.73821 3.33738 3.41707
      vertex 4.81822 3.12225 3.49208
    endloop
  endfacet
  facet normal -0.683935 -4.08925e-07 0.729543
    outer loop
      vertex 6 44.7 4.6
      vertex 4.66639 3.40352 3.34974
      vertex 4.73821 3.33738 3.41707
    endloop
  endfacet
  facet normal -0.683963 1.34206e-06 0.729516
    outer loop
      vertex 6 44.7 4.6
      vertex 4.52898 3.53006 3.22091
      vertex 4.66639 3.40352 3.34974
    endloop
  endfacet
  facet normal -0.683897 -3.13542e-06 0.729579
    outer loop
      vertex 6 44.7 4.6
      vertex 4.46398 3.54602 3.15998
      vertex 4.52898 3.53006 3.22091
    endloop
  endfacet
  facet normal -0.683953 8.18813e-07 0.729526
    outer loop
      vertex 6 44.7 4.6
      vertex 4.24099 3.53518 2.95092
      vertex 4.46398 3.54602 3.15998
    endloop
  endfacet
  facet normal -0.683936 -5.40887e-07 0.729542
    outer loop
      vertex 6 44.7 4.6
      vertex 4.13941 3.47682 2.85569
      vertex 4.24099 3.53518 2.95092
    endloop
  endfacet
  facet normal -0.683941 -1.16414e-07 0.729537
    outer loop
      vertex 2.8 47.9 1.6
      vertex 4.13941 3.47682 2.85569
      vertex 6 44.7 4.6
    endloop
  endfacet
  facet normal -0.683909 1.72729e-06 0.729568
    outer loop
      vertex 4.13941 3.47682 2.85569
      vertex 2.8 47.9 1.6
      vertex 3.99529 3.28949 2.72059
    endloop
  endfacet
  facet normal -0.683928 7.68311e-07 0.72955
    outer loop
      vertex 3.99529 3.28949 2.72059
      vertex 2.8 47.9 1.6
      vertex 3.94316 3.22173 2.67172
    endloop
  endfacet
  facet normal -0.683944 0 0.729535
    outer loop
      vertex 2.8 1.3 1.6
      vertex 3.94316 3.22173 2.67172
      vertex 2.8 47.9 1.6
    endloop
  endfacet
  facet normal -0.683912 -3.5419e-05 0.729565
    outer loop
      vertex 3.94316 3.22173 2.67172
      vertex 2.8 1.3 1.6
      vertex 3.90243 3.0429 2.63353
    endloop
  endfacet
  facet normal -0.68394 0 0.729538
    outer loop
      vertex 4.84821 2.7584 3.5202
      vertex 6 1.3 4.6
      vertex 4.84821 3.0416 3.5202
    endloop
  endfacet
  facet normal -0.683963 -3.35802e-05 0.729517
    outer loop
      vertex 4.82382 2.6928 3.49733
      vertex 6 1.3 4.6
      vertex 4.84821 2.7584 3.5202
    endloop
  endfacet
  facet normal -0.683942 -1.17502e-06 0.729536
    outer loop
      vertex 4.73821 2.46262 3.41707
      vertex 6 1.3 4.6
      vertex 4.82382 2.6928 3.49733
    endloop
  endfacet
  facet normal -0.683938 7.48049e-06 0.72954
    outer loop
      vertex 4.66639 2.39648 3.34974
      vertex 6 1.3 4.6
      vertex 4.73821 2.46262 3.41707
    endloop
  endfacet
  facet normal -0.683952 -2.45512e-05 0.729527
    outer loop
      vertex 4.52898 2.26994 3.22091
      vertex 6 1.3 4.6
      vertex 4.66639 2.39648 3.34974
    endloop
  endfacet
  facet normal -0.683909 9.78231e-05 0.729567
    outer loop
      vertex 4.46398 2.25398 3.15998
      vertex 6 1.3 4.6
      vertex 4.52898 2.26994 3.22091
    endloop
  endfacet
  facet normal -0.683952 3.70464e-05 0.729527
    outer loop
      vertex 2.8 1.3 1.6
      vertex 4.46398 2.25398 3.15998
      vertex 4.24099 2.26482 2.95092
    endloop
  endfacet
  facet normal -0.683941 9.55913e-07 0.729537
    outer loop
      vertex 4.46398 2.25398 3.15998
      vertex 2.8 1.3 1.6
      vertex 6 1.3 4.6
    endloop
  endfacet
  facet normal -0.683938 -3.90966e-06 0.729541
    outer loop
      vertex 4.13941 2.32318 2.85569
      vertex 2.8 1.3 1.6
      vertex 4.24099 2.26482 2.95092
    endloop
  endfacet
  facet normal -0.683927 -2.88467e-05 0.72955
    outer loop
      vertex 3.99529 2.51051 2.72059
      vertex 2.8 1.3 1.6
      vertex 4.13941 2.32318 2.85569
    endloop
  endfacet
  facet normal -0.683936 -1.28313e-05 0.729542
    outer loop
      vertex 3.94316 2.57827 2.67172
      vertex 2.8 1.3 1.6
      vertex 3.99529 2.51051 2.72059
    endloop
  endfacet
  facet normal -0.683954 1.74202e-05 0.729525
    outer loop
      vertex 3.90243 2.7571 2.63353
      vertex 2.8 1.3 1.6
      vertex 3.94316 2.57827 2.67172
    endloop
  endfacet
  facet normal -0.683955 1.83067e-05 0.729525
    outer loop
      vertex 3.8798 2.9 2.61231
      vertex 2.8 1.3 1.6
      vertex 3.90243 2.7571 2.63353
    endloop
  endfacet
  facet normal -0.683917 -2.95338e-05 0.72956
    outer loop
      vertex 3.90243 3.0429 2.63353
      vertex 2.8 1.3 1.6
      vertex 3.8798 2.9 2.61231
    endloop
  endfacet
  facet normal -0 0 1
    outer loop
      vertex 53.6355 11.9674 4.6
      vertex 83 1.3 4.6
      vertex 83 44.7 4.6
    endloop
  endfacet
  facet normal 0 0 1
    outer loop
      vertex 83 1.3 4.6
      vertex 55.4393 7.20521 4.6
      vertex 55.4877 6.9 4.6
    endloop
  endfacet
  facet normal 0 0 1
    outer loop
      vertex 83 1.3 4.6
      vertex 54.2815 9.97912 4.6
      vertex 55.4393 7.20521 4.6
    endloop
  endfacet
  facet normal 0 0 1
    outer loop
      vertex 55.4393 7.20521 4.6
      vertex 54.2815 9.97912 4.6
      vertex 55.2991 7.48055 4.6
    endloop
  endfacet
  facet normal 0 0 1
    outer loop
      vertex 55.2991 7.48055 4.6
      vertex 54.2815 9.97912 4.6
      vertex 55.0805 7.69906 4.6
    endloop
  endfacet
  facet normal 0 0 1
    outer loop
      vertex 55.0805 7.69906 4.6
      vertex 54.2815 9.97912 4.6
      vertex 54.8052 7.83935 4.6
    endloop
  endfacet
  facet normal 0 0 1
    outer loop
      vertex 54.8052 7.83935 4.6
      vertex 54.5 7.9 4.6
      vertex 54.5 7.88769 4.6
    endloop
  endfacet
  facet normal 0 0 1
    outer loop
      vertex 54.8052 7.83935 4.6
      vertex 54.2815 9.97912 4.6
      vertex 54.5 7.9 4.6
    endloop
  endfacet
  facet normal 0 0 1
    outer loop
      vertex 83 1.3 4.6
      vertex 53.6355 11.9674 4.6
      vertex 54.2815 9.97912 4.6
    endloop
  endfacet
  facet normal 0 0 1
    outer loop
      vertex 83 44.7 4.6
      vertex 52.5902 13.7779 4.6
      vertex 53.6355 11.9674 4.6
    endloop
  endfacet
  facet normal 0 0 1
    outer loop
      vertex 83 44.7 4.6
      vertex 51.1913 15.3314 4.6
      vertex 52.5902 13.7779 4.6
    endloop
  endfacet
  facet normal 0 0 1
    outer loop
      vertex 83 44.7 4.6
      vertex 49.5 16.5603 4.6
      vertex 51.1913 15.3314 4.6
    endloop
  endfacet
  facet normal 0 0 1
    outer loop
      vertex 83 44.7 4.6
      vertex 47.5902 17.4106 4.6
      vertex 49.5 16.5603 4.6
    endloop
  endfacet
  facet normal 0 0 1
    outer loop
      vertex 83 44.7 4.6
      vertex 45.5453 17.8452 4.6
      vertex 47.5902 17.4106 4.6
    endloop
  endfacet
  facet normal 0 0 1
    outer loop
      vertex 83 44.7 4.6
      vertex 43.4547 17.8452 4.6
      vertex 45.5453 17.8452 4.6
    endloop
  endfacet
  facet normal -0 0 1
    outer loop
      vertex 6 44.7 4.6
      vertex 43.4547 17.8452 4.6
      vertex 83 44.7 4.6
    endloop
  endfacet
  facet normal 0 0 1
    outer loop
      vertex 43.4547 17.8452 4.6
      vertex 6 44.7 4.6
      vertex 41.4098 17.4106 4.6
    endloop
  endfacet
  facet normal 0 0 1
    outer loop
      vertex 34.5 7.9 4.6
      vertex 34.1948 7.83935 4.6
      vertex 34.5 7.88769 4.6
    endloop
  endfacet
  facet normal 0 0 1
    outer loop
      vertex 34.7185 9.97912 4.6
      vertex 34.1948 7.83935 4.6
      vertex 34.5 7.9 4.6
    endloop
  endfacet
  facet normal 0 0 1
    outer loop
      vertex 34.7185 9.97912 4.6
      vertex 33.9195 7.69906 4.6
      vertex 34.1948 7.83935 4.6
    endloop
  endfacet
  facet normal 0 0 1
    outer loop
      vertex 6 1.3 4.6
      vertex 34.7185 9.97912 4.6
      vertex 35.3645 11.9674 4.6
    endloop
  endfacet
  facet normal 0 0 1
    outer loop
      vertex 34.7185 9.97912 4.6
      vertex 33.7009 7.48055 4.6
      vertex 33.9195 7.69906 4.6
    endloop
  endfacet
  facet normal 0 0 1
    outer loop
      vertex 34.7185 9.97912 4.6
      vertex 6 1.3 4.6
      vertex 33.7009 7.48055 4.6
    endloop
  endfacet
  facet normal 0 0 1
    outer loop
      vertex 33.7009 7.48055 4.6
      vertex 6 1.3 4.6
      vertex 33.5607 7.20521 4.6
    endloop
  endfacet
  facet normal 0 0 1
    outer loop
      vertex 6 1.3 4.6
      vertex 35.3645 11.9674 4.6
      vertex 6 44.7 4.6
    endloop
  endfacet
  facet normal 0 0 1
    outer loop
      vertex 36.4098 13.7779 4.6
      vertex 6 44.7 4.6
      vertex 35.3645 11.9674 4.6
    endloop
  endfacet
  facet normal 0 0 1
    outer loop
      vertex 37.8087 15.3314 4.6
      vertex 6 44.7 4.6
      vertex 36.4098 13.7779 4.6
    endloop
  endfacet
  facet normal 0 0 1
    outer loop
      vertex 39.5 16.5603 4.6
      vertex 6 44.7 4.6
      vertex 37.8087 15.3314 4.6
    endloop
  endfacet
  facet normal 0 0 1
    outer loop
      vertex 41.4098 17.4106 4.6
      vertex 6 44.7 4.6
      vertex 39.5 16.5603 4.6
    endloop
  endfacet
  facet normal -0 0 1
    outer loop
      vertex 55.4393 6.59479 4.6
      vertex 83 1.3 4.6
      vertex 55.4877 6.9 4.6
    endloop
  endfacet
  facet normal -0 0 1
    outer loop
      vertex 55.2991 6.31945 4.6
      vertex 83 1.3 4.6
      vertex 55.4393 6.59479 4.6
    endloop
  endfacet
  facet normal -0 0 1
    outer loop
      vertex 55.0805 6.10094 4.6
      vertex 83 1.3 4.6
      vertex 55.2991 6.31945 4.6
    endloop
  endfacet
  facet normal -0 0 1
    outer loop
      vertex 54.8052 5.96065 4.6
      vertex 83 1.3 4.6
      vertex 55.0805 6.10094 4.6
    endloop
  endfacet
  facet normal -0 0 1
    outer loop
      vertex 54.5 5.91231 4.6
      vertex 83 1.3 4.6
      vertex 54.8052 5.96065 4.6
    endloop
  endfacet
  facet normal -0 0 1
    outer loop
      vertex 34.5 5.91231 4.6
      vertex 83 1.3 4.6
      vertex 54.5 5.91231 4.6
    endloop
  endfacet
  facet normal 0 0 1
    outer loop
      vertex 33.5607 7.20521 4.6
      vertex 6 1.3 4.6
      vertex 33.5123 6.9 4.6
    endloop
  endfacet
  facet normal 0 0 1
    outer loop
      vertex 33.5123 6.9 4.6
      vertex 6 1.3 4.6
      vertex 33.5607 6.59479 4.6
    endloop
  endfacet
  facet normal 0 0 1
    outer loop
      vertex 34.5 5.91231 4.6
      vertex 6 1.3 4.6
      vertex 83 1.3 4.6
    endloop
  endfacet
  facet normal 0 0 1
    outer loop
      vertex 34.1948 5.96065 4.6
      vertex 6 1.3 4.6
      vertex 34.5 5.91231 4.6
    endloop
  endfacet
  facet normal 0 0 1
    outer loop
      vertex 33.9195 6.10094 4.6
      vertex 6 1.3 4.6
      vertex 34.1948 5.96065 4.6
    endloop
  endfacet
  facet normal 0 0 1
    outer loop
      vertex 33.7009 6.31945 4.6
      vertex 6 1.3 4.6
      vertex 33.9195 6.10094 4.6
    endloop
  endfacet
  facet normal 0 0 1
    outer loop
      vertex 33.5607 6.59479 4.6
      vertex 6 1.3 4.6
      vertex 33.7009 6.31945 4.6
    endloop
  endfacet
  facet normal -0 0 1
    outer loop
      vertex 34.5 7.9 4.6
      vertex 54.5 7.88769 4.6
      vertex 54.5 7.9 4.6
    endloop
  endfacet
  facet normal 0 0 1
    outer loop
      vertex 54.5 7.88769 4.6
      vertex 34.5 7.9 4.6
      vertex 34.5 7.88769 4.6
    endloop
  endfacet
  facet normal -1 0 0
    outer loop
      vertex 2.8 1.3 1.4
      vertex 2.8 47.9 1.6
      vertex 2.8 47.9 1.4
    endloop
  endfacet
  facet normal -1 -0 0
    outer loop
      vertex 2.8 47.9 1.6
      vertex 2.8 1.3 1.4
      vertex 2.8 1.3 1.6
    endloop
  endfacet
  facet normal 0 -1 0
    outer loop
      vertex 2.8 1.3 1.4
      vertex 6 1.3 4.6
      vertex 2.8 1.3 1.6
    endloop
  endfacet
  facet normal 0 -1 -0
    outer loop
      vertex 6 1.3 4.6
      vertex 2.8 1.3 1.4
      vertex 83 1.3 4.6
    endloop
  endfacet
  facet normal 0 -1 0
    outer loop
      vertex 86.2 1.3 1.4
      vertex 83 1.3 4.6
      vertex 2.8 1.3 1.4
    endloop
  endfacet
  facet normal 0 -1 0
    outer loop
      vertex 83 1.3 4.6
      vertex 86.2 1.3 1.4
      vertex 86.2 1.3 1.6
    endloop
  endfacet
  facet normal 0.287212 -0.0301976 0.957391
    outer loop
      vertex 34.7185 9.97912 4.6
      vertex 39.5 7.9 3.1
      vertex 39.6093 8.93956 3.1
    endloop
  endfacet
  facet normal 0.287217 -0.0301844 0.95739
    outer loop
      vertex 39.5 7.9 3.1
      vertex 34.7185 9.97912 4.6
      vertex 34.5 7.9 4.6
    endloop
  endfacet
  facet normal 0.214612 -0.193255 0.957389
    outer loop
      vertex 41.1543 11.6157 3.1
      vertex 37.8087 15.3314 4.6
      vertex 36.4098 13.7779 4.6
    endloop
  endfacet
  facet normal -0.0600371 -0.282489 0.95739
    outer loop
      vertex 46.0451 12.6553 3.1
      vertex 47.5902 17.4106 4.6
      vertex 45.5453 17.8452 4.6
    endloop
  endfacet
  facet normal -0.214612 -0.193255 0.957389
    outer loop
      vertex 52.5902 13.7779 4.6
      vertex 51.1913 15.3314 4.6
      vertex 47.8457 11.6157 3.1
    endloop
  endfacet
  facet normal -0.287217 -0.0301844 0.95739
    outer loop
      vertex 54.2815 9.97912 4.6
      vertex 49.5 7.9 3.1
      vertex 54.5 7.9 4.6
    endloop
  endfacet
  facet normal -0.287212 -0.0301976 0.957391
    outer loop
      vertex 49.5 7.9 3.1
      vertex 54.2815 9.97912 4.6
      vertex 49.3907 8.93956 3.1
    endloop
  endfacet
  facet normal -0.214621 -0.193236 0.957391
    outer loop
      vertex 52.5902 13.7779 4.6
      vertex 47.8457 11.6157 3.1
      vertex 48.5451 10.8389 3.1
    endloop
  endfacet
  facet normal 0.274661 -0.0892403 0.957391
    outer loop
      vertex 35.3645 11.9674 4.6
      vertex 39.6093 8.93956 3.1
      vertex 39.9323 9.93368 3.1
    endloop
  endfacet
  facet normal 0.274662 -0.0892388 0.957391
    outer loop
      vertex 39.6093 8.93956 3.1
      vertex 35.3645 11.9674 4.6
      vertex 34.7185 9.97912 4.6
    endloop
  endfacet
  facet normal 0.250103 -0.144398 0.957391
    outer loop
      vertex 39.9323 9.93368 3.1
      vertex 36.4098 13.7779 4.6
      vertex 35.3645 11.9674 4.6
    endloop
  endfacet
  facet normal 0.0600371 -0.282489 0.95739
    outer loop
      vertex 42.9549 12.6553 3.1
      vertex 43.4547 17.8452 4.6
      vertex 41.4098 17.4106 4.6
    endloop
  endfacet
  facet normal -0.169762 -0.233638 0.957389
    outer loop
      vertex 49.5 16.5603 4.6
      vertex 47.8457 11.6157 3.1
      vertex 51.1913 15.3314 4.6
    endloop
  endfacet
  facet normal -0.169743 -0.233645 0.957391
    outer loop
      vertex 47.8457 11.6157 3.1
      vertex 49.5 16.5603 4.6
      vertex 47 12.2301 3.1
    endloop
  endfacet
  facet normal 0.117477 -0.263826 0.95739
    outer loop
      vertex 41.4098 17.4106 4.6
      vertex 42 12.2301 3.1
      vertex 42.9549 12.6553 3.1
    endloop
  endfacet
  facet normal 0.117464 -0.263828 0.957391
    outer loop
      vertex 42 12.2301 3.1
      vertex 41.4098 17.4106 4.6
      vertex 39.5 16.5603 4.6
    endloop
  endfacet
  facet normal 0 -0.2888 0.95739
    outer loop
      vertex 45.5453 17.8452 4.6
      vertex 43.9774 12.8726 3.1
      vertex 45.0226 12.8726 3.1
    endloop
  endfacet
  facet normal 0 -0.2888 0.95739
    outer loop
      vertex 43.9774 12.8726 3.1
      vertex 45.5453 17.8452 4.6
      vertex 43.4547 17.8452 4.6
    endloop
  endfacet
  facet normal -0.250103 -0.144398 0.957391
    outer loop
      vertex 53.6355 11.9674 4.6
      vertex 52.5902 13.7779 4.6
      vertex 49.0677 9.93368 3.1
    endloop
  endfacet
  facet normal 0.214621 -0.193236 0.957391
    outer loop
      vertex 41.1543 11.6157 3.1
      vertex 36.4098 13.7779 4.6
      vertex 40.4549 10.8389 3.1
    endloop
  endfacet
  facet normal 0.250109 -0.144392 0.95739
    outer loop
      vertex 39.9323 9.93368 3.1
      vertex 40.4549 10.8389 3.1
      vertex 36.4098 13.7779 4.6
    endloop
  endfacet
  facet normal 0.169743 -0.233645 0.957391
    outer loop
      vertex 39.5 16.5603 4.6
      vertex 41.1543 11.6157 3.1
      vertex 42 12.2301 3.1
    endloop
  endfacet
  facet normal 0.169762 -0.233638 0.957389
    outer loop
      vertex 41.1543 11.6157 3.1
      vertex 39.5 16.5603 4.6
      vertex 37.8087 15.3314 4.6
    endloop
  endfacet
  facet normal 0 0 1
    outer loop
      vertex 49.0677 9.93368 3.1
      vertex 49.5 7.9 3.1
      vertex 49.3907 8.93956 3.1
    endloop
  endfacet
  facet normal 0 0 1
    outer loop
      vertex 48.5451 10.8389 3.1
      vertex 49.5 7.9 3.1
      vertex 49.0677 9.93368 3.1
    endloop
  endfacet
  facet normal 0 0 1
    outer loop
      vertex 47.8457 11.6157 3.1
      vertex 49.5 7.9 3.1
      vertex 48.5451 10.8389 3.1
    endloop
  endfacet
  facet normal 0 0 1
    outer loop
      vertex 47 12.2301 3.1
      vertex 49.5 7.9 3.1
      vertex 47.8457 11.6157 3.1
    endloop
  endfacet
  facet normal 0 0 1
    outer loop
      vertex 46.0451 12.6553 3.1
      vertex 49.5 7.9 3.1
      vertex 47 12.2301 3.1
    endloop
  endfacet
  facet normal 0 0 1
    outer loop
      vertex 45.0226 12.8726 3.1
      vertex 49.5 7.9 3.1
      vertex 46.0451 12.6553 3.1
    endloop
  endfacet
  facet normal -0 0 1
    outer loop
      vertex 43.9774 12.8726 3.1
      vertex 49.5 7.9 3.1
      vertex 45.0226 12.8726 3.1
    endloop
  endfacet
  facet normal -0 0 1
    outer loop
      vertex 42.9549 12.6553 3.1
      vertex 49.5 7.9 3.1
      vertex 43.9774 12.8726 3.1
    endloop
  endfacet
  facet normal -0 0 1
    outer loop
      vertex 42 12.2301 3.1
      vertex 49.5 7.9 3.1
      vertex 42.9549 12.6553 3.1
    endloop
  endfacet
  facet normal -0 0 1
    outer loop
      vertex 41.1543 11.6157 3.1
      vertex 49.5 7.9 3.1
      vertex 42 12.2301 3.1
    endloop
  endfacet
  facet normal -0 0 1
    outer loop
      vertex 40.4549 10.8389 3.1
      vertex 49.5 7.9 3.1
      vertex 41.1543 11.6157 3.1
    endloop
  endfacet
  facet normal -0 0 1
    outer loop
      vertex 39.9323 9.93368 3.1
      vertex 49.5 7.9 3.1
      vertex 40.4549 10.8389 3.1
    endloop
  endfacet
  facet normal -0 0 1
    outer loop
      vertex 39.6093 8.93956 3.1
      vertex 49.5 7.9 3.1
      vertex 39.9323 9.93368 3.1
    endloop
  endfacet
  facet normal 0 0 1
    outer loop
      vertex 49.5 7.9 3.1
      vertex 39.6093 8.93956 3.1
      vertex 39.5 7.9 3.1
    endloop
  endfacet
  facet normal -0.250109 -0.144392 0.95739
    outer loop
      vertex 49.0677 9.93368 3.1
      vertex 52.5902 13.7779 4.6
      vertex 48.5451 10.8389 3.1
    endloop
  endfacet
  facet normal 0.0600341 -0.282489 0.95739
    outer loop
      vertex 43.9774 12.8726 3.1
      vertex 43.4547 17.8452 4.6
      vertex 42.9549 12.6553 3.1
    endloop
  endfacet
  facet normal -0.0600341 -0.282489 0.95739
    outer loop
      vertex 46.0451 12.6553 3.1
      vertex 45.5453 17.8452 4.6
      vertex 45.0226 12.8726 3.1
    endloop
  endfacet
  facet normal -0.117464 -0.263828 0.957391
    outer loop
      vertex 47.5902 17.4106 4.6
      vertex 47 12.2301 3.1
      vertex 49.5 16.5603 4.6
    endloop
  endfacet
  facet normal -0.117477 -0.263826 0.95739
    outer loop
      vertex 47 12.2301 3.1
      vertex 47.5902 17.4106 4.6
      vertex 46.0451 12.6553 3.1
    endloop
  endfacet
  facet normal -0.274662 -0.0892388 0.957391
    outer loop
      vertex 53.6355 11.9674 4.6
      vertex 49.3907 8.93956 3.1
      vertex 54.2815 9.97912 4.6
    endloop
  endfacet
  facet normal -0.274661 -0.0892403 0.957391
    outer loop
      vertex 49.3907 8.93956 3.1
      vertex 53.6355 11.9674 4.6
      vertex 49.0677 9.93368 3.1
    endloop
  endfacet
  facet normal 0 1 -0
    outer loop
      vertex 49.5 7.9 3.1
      vertex 34.5 7.9 4.6
      vertex 54.5 7.9 4.6
    endloop
  endfacet
  facet normal 0 1 0
    outer loop
      vertex 34.5 7.9 4.6
      vertex 49.5 7.9 3.1
      vertex 39.5 7.9 3.1
    endloop
  endfacet
  facet normal -0.585302 0.0926798 0.805501
    outer loop
      vertex 33.8275 7.11851 5.30711
      vertex 33.7929 6.9 5.30711
      vertex 34.0682 7.04029 5.49101
    endloop
  endfacet
  facet normal 0.156438 -0.987688 0
    outer loop
      vertex 54.5 5.91231 4.6
      vertex 54.8052 5.96065 4.75643
      vertex 54.5 5.91231 4.75643
    endloop
  endfacet
  facet normal 0.156438 -0.987688 0
    outer loop
      vertex 54.8052 5.96065 4.75643
      vertex 54.5 5.91231 4.6
      vertex 54.8052 5.96065 4.6
    endloop
  endfacet
  facet normal -0.940406 0.149129 0.30561
    outer loop
      vertex 33.5607 7.20521 4.75643
      vertex 33.5123 6.9 4.75643
      vertex 33.609 6.9 5.05399
    endloop
  endfacet
  facet normal -0.706961 0.707252 0
    outer loop
      vertex 33.9195 7.69906 4.6
      vertex 33.7009 7.48055 4.75643
      vertex 33.9195 7.69906 4.75643
    endloop
  endfacet
  facet normal -0.706961 0.707252 0
    outer loop
      vertex 33.7009 7.48055 4.75643
      vertex 33.9195 7.69906 4.6
      vertex 33.7009 7.48055 4.6
    endloop
  endfacet
  facet normal -0.220634 -0.221208 0.949941
    outer loop
      vertex 34.3734 6.80805 5.58769
      vertex 34.2332 6.53271 5.49101
      vertex 34.4081 6.77344 5.58769
    endloop
  endfacet
  facet normal -0.22092 -0.221052 0.949911
    outer loop
      vertex 34.2332 6.53271 5.49101
      vertex 34.3734 6.80805 5.58769
      vertex 34.1327 6.63315 5.49101
    endloop
  endfacet
  facet normal -0.527979 0.269079 0.805503
    outer loop
      vertex 34.1327 7.16685 5.49101
      vertex 33.8275 7.11851 5.30711
      vertex 34.0682 7.04029 5.49101
    endloop
  endfacet
  facet normal -0.148974 0.940441 0.305578
    outer loop
      vertex 34.5 7.79101 5.05399
      vertex 34.1948 7.83935 4.75643
      vertex 34.2247 7.7474 5.05399
    endloop
  endfacet
  facet normal 0.22092 -0.221052 0.949911
    outer loop
      vertex 54.6266 6.80805 5.58769
      vertex 54.7668 6.53271 5.49101
      vertex 54.8673 6.63315 5.49101
    endloop
  endfacet
  facet normal 0.220634 -0.221208 0.949941
    outer loop
      vertex 54.7668 6.53271 5.49101
      vertex 54.6266 6.80805 5.58769
      vertex 54.5919 6.77344 5.58769
    endloop
  endfacet
  facet normal 0.9405 -0.148928 0.305419
    outer loop
      vertex 55.391 6.9 5.05399
      vertex 55.3474 6.62466 5.05399
      vertex 55.4393 6.59479 4.75643
    endloop
  endfacet
  facet normal 0.127117 -0.802461 0.583007
    outer loop
      vertex 54.7185 6.2275 5.30711
      vertex 54.5 6.00899 5.05399
      vertex 54.7753 6.0526 5.05399
    endloop
  endfacet
  facet normal 0.585302 0.0926798 0.805501
    outer loop
      vertex 55.1725 7.11851 5.30711
      vertex 54.9318 7.04029 5.49101
      vertex 55.2071 6.9 5.30711
    endloop
  endfacet
  facet normal 0.454036 -0.890983 0
    outer loop
      vertex 54.8052 5.96065 4.6
      vertex 55.0805 6.10094 4.75643
      vertex 54.8052 5.96065 4.75643
    endloop
  endfacet
  facet normal 0.454036 -0.890983 0
    outer loop
      vertex 55.0805 6.10094 4.75643
      vertex 54.8052 5.96065 4.6
      vertex 55.0805 6.10094 4.6
    endloop
  endfacet
  facet normal 0.585302 -0.0926798 0.805501
    outer loop
      vertex 55.2071 6.9 5.30711
      vertex 54.9318 6.75971 5.49101
      vertex 55.1725 6.68149 5.30711
    endloop
  endfacet
  facet normal 0.278519 0.141782 0.949908
    outer loop
      vertex 54.8673 7.16685 5.49101
      vertex 54.6266 6.99195 5.58769
      vertex 54.6488 6.94834 5.58769
    endloop
  endfacet
  facet normal 0 -0.309008 0.951059
    outer loop
      vertex 34.5 6.74357 5.58769
      vertex 54.5 6.44601 5.49101
      vertex 54.5 6.74357 5.58769
    endloop
  endfacet
  facet normal 0 -0.309008 0.951059
    outer loop
      vertex 54.5 6.44601 5.49101
      vertex 34.5 6.74357 5.58769
      vertex 34.5 6.44601 5.49101
    endloop
  endfacet
  facet normal 0.432324 0.848376 0.305538
    outer loop
      vertex 55.0805 7.69906 4.75643
      vertex 54.8052 7.83935 4.75643
      vertex 55.0237 7.62084 5.05399
    endloop
  endfacet
  facet normal 0.148956 0.940449 0.305561
    outer loop
      vertex 54.5 7.88769 4.75643
      vertex 54.5 7.79101 5.05399
      vertex 54.8052 7.83935 4.75643
    endloop
  endfacet
  facet normal 0.269034 0.527943 0.805542
    outer loop
      vertex 54.9156 7.47206 5.30711
      vertex 54.7185 7.5725 5.30711
      vertex 54.7668 7.26729 5.49101
    endloop
  endfacet
  facet normal 0.723861 0.368954 0.583008
    outer loop
      vertex 55.2208 7.42372 5.05399
      vertex 55.1725 7.11851 5.30711
      vertex 55.3474 7.17534 5.05399
    endloop
  endfacet
  facet normal 0.127108 -0.802459 0.583013
    outer loop
      vertex 54.5 6.19289 5.30711
      vertex 54.5 6.00899 5.05399
      vertex 54.7185 6.2275 5.30711
    endloop
  endfacet
  facet normal 0.574588 0.574529 0.582894
    outer loop
      vertex 55.0237 7.62084 5.05399
      vertex 55.0721 7.31563 5.30711
      vertex 55.2208 7.42372 5.05399
    endloop
  endfacet
  facet normal 0.574356 0.574613 0.583039
    outer loop
      vertex 55.0721 7.31563 5.30711
      vertex 55.0237 7.62084 5.05399
      vertex 54.9156 7.47206 5.30711
    endloop
  endfacet
  facet normal 0.673333 -0.673265 0.305512
    outer loop
      vertex 55.0805 6.10094 4.75643
      vertex 55.2208 6.37628 5.05399
      vertex 55.0237 6.17916 5.05399
    endloop
  endfacet
  facet normal 0.673111 -0.673388 0.305731
    outer loop
      vertex 55.2208 6.37628 5.05399
      vertex 55.0805 6.10094 4.75643
      vertex 55.2991 6.31945 4.75643
    endloop
  endfacet
  facet normal 0.148956 -0.940449 0.305561
    outer loop
      vertex 54.5 6.00899 5.05399
      vertex 54.5 5.91231 4.75643
      vertex 54.8052 5.96065 4.75643
    endloop
  endfacet
  facet normal -0.527984 -0.26892 0.805552
    outer loop
      vertex 34.1327 6.63315 5.49101
      vertex 33.8275 6.68149 5.30711
      vertex 33.9279 6.48437 5.30711
    endloop
  endfacet
  facet normal 0.574588 -0.574529 0.582894
    outer loop
      vertex 55.0721 6.48437 5.30711
      vertex 55.0237 6.17916 5.05399
      vertex 55.2208 6.37628 5.05399
    endloop
  endfacet
  facet normal 0.574356 -0.574613 0.583039
    outer loop
      vertex 55.0237 6.17916 5.05399
      vertex 55.0721 6.48437 5.30711
      vertex 54.9156 6.32794 5.30711
    endloop
  endfacet
  facet normal -0.0488838 0.308639 0.949922
    outer loop
      vertex 34.5 7.35399 5.49101
      vertex 34.4517 7.04878 5.58769
      vertex 34.5 7.05643 5.58769
    endloop
  endfacet
  facet normal -0.0488805 -0.308638 0.949923
    outer loop
      vertex 34.4517 6.75122 5.58769
      vertex 34.3597 6.46823 5.49101
      vertex 34.5 6.44601 5.49101
    endloop
  endfacet
  facet normal -0.802464 -0.12707 0.583013
    outer loop
      vertex 33.8275 6.68149 5.30711
      vertex 33.609 6.9 5.05399
      vertex 33.6526 6.62466 5.05399
    endloop
  endfacet
  facet normal -0.848371 -0.432417 0.305423
    outer loop
      vertex 33.6526 6.62466 5.05399
      vertex 33.5607 6.59479 4.75643
      vertex 33.7792 6.37628 5.05399
    endloop
  endfacet
  facet normal -0.368844 0.723932 0.582989
    outer loop
      vertex 34.2247 7.7474 5.05399
      vertex 33.9763 7.62084 5.05399
      vertex 34.2815 7.5725 5.30711
    endloop
  endfacet
  facet normal 0.141888 -0.278413 0.949923
    outer loop
      vertex 54.5919 6.77344 5.58769
      vertex 54.5483 6.75122 5.58769
      vertex 54.7668 6.53271 5.49101
    endloop
  endfacet
  facet normal -0.220634 0.221208 0.949941
    outer loop
      vertex 34.2332 7.26729 5.49101
      vertex 34.3734 6.99195 5.58769
      vertex 34.4081 7.02656 5.58769
    endloop
  endfacet
  facet normal -0.22092 0.221052 0.949911
    outer loop
      vertex 34.3734 6.99195 5.58769
      vertex 34.2332 7.26729 5.49101
      vertex 34.1327 7.16685 5.49101
    endloop
  endfacet
  facet normal 0.802464 -0.12707 0.583013
    outer loop
      vertex 55.391 6.9 5.05399
      vertex 55.1725 6.68149 5.30711
      vertex 55.3474 6.62466 5.05399
    endloop
  endfacet
  facet normal 0.585284 -0.0926175 0.805521
    outer loop
      vertex 54.954 6.9 5.49101
      vertex 54.9318 6.75971 5.49101
      vertex 55.2071 6.9 5.30711
    endloop
  endfacet
  facet normal 0.9405 0.148928 0.305419
    outer loop
      vertex 55.4393 7.20521 4.75643
      vertex 55.3474 7.17534 5.05399
      vertex 55.391 6.9 5.05399
    endloop
  endfacet
  facet normal 0.848447 -0.43202 0.305771
    outer loop
      vertex 55.4393 6.59479 4.75643
      vertex 55.2208 6.37628 5.05399
      vertex 55.2991 6.31945 4.75643
    endloop
  endfacet
  facet normal 0.987659 -0.156622 0
    outer loop
      vertex 55.4393 6.59479 4.75643
      vertex 55.4877 6.9 4.6
      vertex 55.4877 6.9 4.75643
    endloop
  endfacet
  facet normal 0.987659 -0.156622 0
    outer loop
      vertex 55.4877 6.9 4.6
      vertex 55.4393 6.59479 4.75643
      vertex 55.4393 6.59479 4.6
    endloop
  endfacet
  facet normal 0.891128 0.453752 0
    outer loop
      vertex 55.4393 7.20521 4.75643
      vertex 55.2991 7.48055 4.6
      vertex 55.2991 7.48055 4.75643
    endloop
  endfacet
  facet normal 0.891128 0.453752 0
    outer loop
      vertex 55.2991 7.48055 4.6
      vertex 55.4393 7.20521 4.75643
      vertex 55.4393 7.20521 4.6
    endloop
  endfacet
  facet normal -0.574356 -0.574613 0.583039
    outer loop
      vertex 33.9279 6.48437 5.30711
      vertex 33.9763 6.17916 5.05399
      vertex 34.0844 6.32794 5.30711
    endloop
  endfacet
  facet normal -0.574588 -0.574529 0.582894
    outer loop
      vertex 33.9763 6.17916 5.05399
      vertex 33.9279 6.48437 5.30711
      vertex 33.7792 6.37628 5.05399
    endloop
  endfacet
  facet normal -0.0926889 -0.58525 0.805538
    outer loop
      vertex 34.5 6.44601 5.49101
      vertex 34.3597 6.46823 5.49101
      vertex 34.5 6.19289 5.30711
    endloop
  endfacet
  facet normal -0.454036 -0.890983 0
    outer loop
      vertex 33.9195 6.10094 4.6
      vertex 34.1948 5.96065 4.75643
      vertex 33.9195 6.10094 4.75643
    endloop
  endfacet
  facet normal -0.454036 -0.890983 -0
    outer loop
      vertex 34.1948 5.96065 4.75643
      vertex 33.9195 6.10094 4.6
      vertex 34.1948 5.96065 4.6
    endloop
  endfacet
  facet normal 0 -0.809021 0.58778
    outer loop
      vertex 34.5 6.00899 5.05399
      vertex 54.5 6.19289 5.30711
      vertex 34.5 6.19289 5.30711
    endloop
  endfacet
  facet normal 0 -0.809021 0.58778
    outer loop
      vertex 54.5 6.19289 5.30711
      vertex 34.5 6.00899 5.05399
      vertex 54.5 6.00899 5.05399
    endloop
  endfacet
  facet normal 0.368844 0.723932 0.582989
    outer loop
      vertex 54.7753 7.7474 5.05399
      vertex 54.7185 7.5725 5.30711
      vertex 55.0237 7.62084 5.05399
    endloop
  endfacet
  facet normal 0.148974 -0.940441 0.305578
    outer loop
      vertex 54.7753 6.0526 5.05399
      vertex 54.5 6.00899 5.05399
      vertex 54.8052 5.96065 4.75643
    endloop
  endfacet
  facet normal 0.368883 -0.723883 0.583026
    outer loop
      vertex 54.9156 6.32794 5.30711
      vertex 54.7185 6.2275 5.30711
      vertex 55.0237 6.17916 5.05399
    endloop
  endfacet
  facet normal 0.0488838 -0.308639 0.949922
    outer loop
      vertex 54.5 6.74357 5.58769
      vertex 54.5 6.44601 5.49101
      vertex 54.5483 6.75122 5.58769
    endloop
  endfacet
  facet normal -0.940406 -0.149129 0.30561
    outer loop
      vertex 33.609 6.9 5.05399
      vertex 33.5123 6.9 4.75643
      vertex 33.5607 6.59479 4.75643
    endloop
  endfacet
  facet normal -0.9405 -0.148928 0.305419
    outer loop
      vertex 33.609 6.9 5.05399
      vertex 33.5607 6.59479 4.75643
      vertex 33.6526 6.62466 5.05399
    endloop
  endfacet
  facet normal -0.127108 0.802459 0.583013
    outer loop
      vertex 34.5 7.79101 5.05399
      vertex 34.2815 7.5725 5.30711
      vertex 34.5 7.60711 5.30711
    endloop
  endfacet
  facet normal -0.673333 0.673265 0.305512
    outer loop
      vertex 33.9195 7.69906 4.75643
      vertex 33.7792 7.42372 5.05399
      vertex 33.9763 7.62084 5.05399
    endloop
  endfacet
  facet normal -0.673111 0.673388 0.305731
    outer loop
      vertex 33.7792 7.42372 5.05399
      vertex 33.9195 7.69906 4.75643
      vertex 33.7009 7.48055 4.75643
    endloop
  endfacet
  facet normal -0.454036 0.890983 0
    outer loop
      vertex 34.1948 7.83935 4.6
      vertex 33.9195 7.69906 4.75643
      vertex 34.1948 7.83935 4.75643
    endloop
  endfacet
  facet normal -0.454036 0.890983 0
    outer loop
      vertex 33.9195 7.69906 4.75643
      vertex 34.1948 7.83935 4.6
      vertex 33.9195 7.69906 4.6
    endloop
  endfacet
  facet normal 0 1 -0
    outer loop
      vertex 54.5 7.88769 4.6
      vertex 34.5 7.88769 4.75643
      vertex 54.5 7.88769 4.75643
    endloop
  endfacet
  facet normal 0 1 0
    outer loop
      vertex 34.5 7.88769 4.75643
      vertex 54.5 7.88769 4.6
      vertex 34.5 7.88769 4.6
    endloop
  endfacet
  facet normal 0.802464 0.12707 0.583013
    outer loop
      vertex 55.3474 7.17534 5.05399
      vertex 55.1725 7.11851 5.30711
      vertex 55.391 6.9 5.05399
    endloop
  endfacet
  facet normal 0.308648 -0.0488416 0.949921
    outer loop
      vertex 54.954 6.9 5.49101
      vertex 54.6488 6.85166 5.58769
      vertex 54.9318 6.75971 5.49101
    endloop
  endfacet
  facet normal 0.724068 -0.368793 0.582853
    outer loop
      vertex 55.1725 6.68149 5.30711
      vertex 55.0721 6.48437 5.30711
      vertex 55.2208 6.37628 5.05399
    endloop
  endfacet
  facet normal 0.278415 -0.141891 0.949922
    outer loop
      vertex 54.9318 6.75971 5.49101
      vertex 54.6488 6.85166 5.58769
      vertex 54.8673 6.63315 5.49101
    endloop
  endfacet
  facet normal 0.940406 0.149129 0.30561
    outer loop
      vertex 55.4393 7.20521 4.75643
      vertex 55.391 6.9 5.05399
      vertex 55.4877 6.9 4.75643
    endloop
  endfacet
  facet normal 0.723861 -0.368954 0.583008
    outer loop
      vertex 55.3474 6.62466 5.05399
      vertex 55.1725 6.68149 5.30711
      vertex 55.2208 6.37628 5.05399
    endloop
  endfacet
  facet normal 0.802463 0.127066 0.583016
    outer loop
      vertex 55.391 6.9 5.05399
      vertex 55.1725 7.11851 5.30711
      vertex 55.2071 6.9 5.30711
    endloop
  endfacet
  facet normal 0.802463 -0.127066 0.583016
    outer loop
      vertex 55.2071 6.9 5.30711
      vertex 55.1725 6.68149 5.30711
      vertex 55.391 6.9 5.05399
    endloop
  endfacet
  facet normal 0.848371 -0.432417 0.305423
    outer loop
      vertex 55.3474 6.62466 5.05399
      vertex 55.2208 6.37628 5.05399
      vertex 55.4393 6.59479 4.75643
    endloop
  endfacet
  facet normal 0.891128 -0.453752 0
    outer loop
      vertex 55.2991 6.31945 4.75643
      vertex 55.4393 6.59479 4.6
      vertex 55.4393 6.59479 4.75643
    endloop
  endfacet
  facet normal 0.891128 -0.453752 0
    outer loop
      vertex 55.4393 6.59479 4.6
      vertex 55.2991 6.31945 4.75643
      vertex 55.2991 6.31945 4.6
    endloop
  endfacet
  facet normal 0.724068 0.368793 0.582853
    outer loop
      vertex 55.2208 7.42372 5.05399
      vertex 55.0721 7.31563 5.30711
      vertex 55.1725 7.11851 5.30711
    endloop
  endfacet
  facet normal 0.940406 -0.149129 0.30561
    outer loop
      vertex 55.4877 6.9 4.75643
      vertex 55.391 6.9 5.05399
      vertex 55.4393 6.59479 4.75643
    endloop
  endfacet
  facet normal 0.454036 0.890983 -0
    outer loop
      vertex 55.0805 7.69906 4.6
      vertex 54.8052 7.83935 4.75643
      vertex 55.0805 7.69906 4.75643
    endloop
  endfacet
  facet normal 0.454036 0.890983 0
    outer loop
      vertex 54.8052 7.83935 4.75643
      vertex 55.0805 7.69906 4.6
      vertex 54.8052 7.83935 4.6
    endloop
  endfacet
  facet normal 0.706961 -0.707252 0
    outer loop
      vertex 55.0805 6.10094 4.6
      vertex 55.2991 6.31945 4.75643
      vertex 55.0805 6.10094 4.75643
    endloop
  endfacet
  facet normal 0.706961 -0.707252 0
    outer loop
      vertex 55.2991 6.31945 4.75643
      vertex 55.0805 6.10094 4.6
      vertex 55.2991 6.31945 4.6
    endloop
  endfacet
  facet normal -0.269034 -0.527943 0.805542
    outer loop
      vertex 34.2332 6.53271 5.49101
      vertex 34.0844 6.32794 5.30711
      vertex 34.2815 6.2275 5.30711
    endloop
  endfacet
  facet normal -0.0488838 -0.308639 0.949922
    outer loop
      vertex 34.5 6.74357 5.58769
      vertex 34.4517 6.75122 5.58769
      vertex 34.5 6.44601 5.49101
    endloop
  endfacet
  facet normal 0 -0.58778 0.809021
    outer loop
      vertex 34.5 6.44601 5.49101
      vertex 54.5 6.19289 5.30711
      vertex 54.5 6.44601 5.49101
    endloop
  endfacet
  facet normal 0 -0.58778 0.809021
    outer loop
      vertex 54.5 6.19289 5.30711
      vertex 34.5 6.44601 5.49101
      vertex 34.5 6.19289 5.30711
    endloop
  endfacet
  facet normal 0 -1 0
    outer loop
      vertex 34.5 5.91231 4.6
      vertex 54.5 5.91231 4.75643
      vertex 34.5 5.91231 4.75643
    endloop
  endfacet
  facet normal 0 -1 -0
    outer loop
      vertex 54.5 5.91231 4.75643
      vertex 34.5 5.91231 4.6
      vertex 54.5 5.91231 4.6
    endloop
  endfacet
  facet normal -0.0926889 0.58525 0.805538
    outer loop
      vertex 34.5 7.60711 5.30711
      vertex 34.3597 7.33177 5.49101
      vertex 34.5 7.35399 5.49101
    endloop
  endfacet
  facet normal -0.0927032 0.585254 0.805533
    outer loop
      vertex 34.5 7.60711 5.30711
      vertex 34.2815 7.5725 5.30711
      vertex 34.3597 7.33177 5.49101
    endloop
  endfacet
  facet normal -0.848447 0.43202 0.305771
    outer loop
      vertex 33.7009 7.48055 4.75643
      vertex 33.5607 7.20521 4.75643
      vertex 33.7792 7.42372 5.05399
    endloop
  endfacet
  facet normal 0.278519 -0.141782 0.949908
    outer loop
      vertex 54.6488 6.85166 5.58769
      vertex 54.6266 6.80805 5.58769
      vertex 54.8673 6.63315 5.49101
    endloop
  endfacet
  facet normal -0.987659 0.156622 0
    outer loop
      vertex 33.5123 6.9 4.6
      vertex 33.5607 7.20521 4.75643
      vertex 33.5607 7.20521 4.6
    endloop
  endfacet
  facet normal -0.987659 0.156622 0
    outer loop
      vertex 33.5607 7.20521 4.75643
      vertex 33.5123 6.9 4.6
      vertex 33.5123 6.9 4.75643
    endloop
  endfacet
  facet normal 0.432255 -0.84839 0.305598
    outer loop
      vertex 55.0237 6.17916 5.05399
      vertex 54.7753 6.0526 5.05399
      vertex 54.8052 5.96065 4.75643
    endloop
  endfacet
  facet normal 0.432324 -0.848376 0.305538
    outer loop
      vertex 55.0237 6.17916 5.05399
      vertex 54.8052 5.96065 4.75643
      vertex 55.0805 6.10094 4.75643
    endloop
  endfacet
  facet normal -0.127117 -0.802461 0.583007
    outer loop
      vertex 34.2815 6.2275 5.30711
      vertex 34.2247 6.0526 5.05399
      vertex 34.5 6.00899 5.05399
    endloop
  endfacet
  facet normal 0.0926889 -0.58525 0.805538
    outer loop
      vertex 54.5 6.44601 5.49101
      vertex 54.5 6.19289 5.30711
      vertex 54.6403 6.46823 5.49101
    endloop
  endfacet
  facet normal 0.0488805 -0.308638 0.949923
    outer loop
      vertex 54.5483 6.75122 5.58769
      vertex 54.5 6.44601 5.49101
      vertex 54.6403 6.46823 5.49101
    endloop
  endfacet
  facet normal 0.141905 -0.278397 0.949925
    outer loop
      vertex 54.7668 6.53271 5.49101
      vertex 54.5483 6.75122 5.58769
      vertex 54.6403 6.46823 5.49101
    endloop
  endfacet
  facet normal 0.418892 -0.419079 0.805545
    outer loop
      vertex 54.8673 6.63315 5.49101
      vertex 54.9156 6.32794 5.30711
      vertex 55.0721 6.48437 5.30711
    endloop
  endfacet
  facet normal 0.418846 -0.419096 0.80556
    outer loop
      vertex 54.9156 6.32794 5.30711
      vertex 54.8673 6.63315 5.49101
      vertex 54.7668 6.53271 5.49101
    endloop
  endfacet
  facet normal 0.22092 0.221052 0.949911
    outer loop
      vertex 54.7668 7.26729 5.49101
      vertex 54.6266 6.99195 5.58769
      vertex 54.8673 7.16685 5.49101
    endloop
  endfacet
  facet normal 0.220634 0.221208 0.949941
    outer loop
      vertex 54.6266 6.99195 5.58769
      vertex 54.7668 7.26729 5.49101
      vertex 54.5919 7.02656 5.58769
    endloop
  endfacet
  facet normal -0.891128 0.453752 0
    outer loop
      vertex 33.5607 7.20521 4.6
      vertex 33.7009 7.48055 4.75643
      vertex 33.7009 7.48055 4.6
    endloop
  endfacet
  facet normal -0.891128 0.453752 0
    outer loop
      vertex 33.7009 7.48055 4.75643
      vertex 33.5607 7.20521 4.6
      vertex 33.5607 7.20521 4.75643
    endloop
  endfacet
  facet normal -0.278519 0.141782 0.949908
    outer loop
      vertex 34.3734 6.99195 5.58769
      vertex 34.1327 7.16685 5.49101
      vertex 34.3512 6.94834 5.58769
    endloop
  endfacet
  facet normal -0.574356 0.574613 0.583039
    outer loop
      vertex 33.9763 7.62084 5.05399
      vertex 33.9279 7.31563 5.30711
      vertex 34.0844 7.47206 5.30711
    endloop
  endfacet
  facet normal -0.574588 0.574529 0.582894
    outer loop
      vertex 33.9279 7.31563 5.30711
      vertex 33.9763 7.62084 5.05399
      vertex 33.7792 7.42372 5.05399
    endloop
  endfacet
  facet normal -0.156438 0.987688 0
    outer loop
      vertex 34.5 7.88769 4.6
      vertex 34.1948 7.83935 4.75643
      vertex 34.5 7.88769 4.75643
    endloop
  endfacet
  facet normal -0.156438 0.987688 0
    outer loop
      vertex 34.1948 7.83935 4.75643
      vertex 34.5 7.88769 4.6
      vertex 34.1948 7.83935 4.6
    endloop
  endfacet
  facet normal 0 0.951059 0.309008
    outer loop
      vertex 54.5 7.88769 4.75643
      vertex 34.5 7.79101 5.05399
      vertex 54.5 7.79101 5.05399
    endloop
  endfacet
  facet normal 0 0.951059 0.309008
    outer loop
      vertex 34.5 7.79101 5.05399
      vertex 54.5 7.88769 4.75643
      vertex 34.5 7.88769 4.75643
    endloop
  endfacet
  facet normal 0.156438 0.987688 -0
    outer loop
      vertex 54.8052 7.83935 4.6
      vertex 54.5 7.88769 4.75643
      vertex 54.8052 7.83935 4.75643
    endloop
  endfacet
  facet normal 0.156438 0.987688 0
    outer loop
      vertex 54.5 7.88769 4.75643
      vertex 54.8052 7.83935 4.6
      vertex 54.5 7.88769 4.6
    endloop
  endfacet
  facet normal 0.418892 0.419079 0.805545
    outer loop
      vertex 54.9156 7.47206 5.30711
      vertex 54.8673 7.16685 5.49101
      vertex 55.0721 7.31563 5.30711
    endloop
  endfacet
  facet normal 0.418846 0.419096 0.80556
    outer loop
      vertex 54.8673 7.16685 5.49101
      vertex 54.9156 7.47206 5.30711
      vertex 54.7668 7.26729 5.49101
    endloop
  endfacet
  facet normal 0.987659 0.156622 0
    outer loop
      vertex 55.4877 6.9 4.75643
      vertex 55.4393 7.20521 4.6
      vertex 55.4393 7.20521 4.75643
    endloop
  endfacet
  facet normal 0.987659 0.156622 0
    outer loop
      vertex 55.4393 7.20521 4.6
      vertex 55.4877 6.9 4.75643
      vertex 55.4877 6.9 4.6
    endloop
  endfacet
  facet normal 0.368883 0.723883 0.583026
    outer loop
      vertex 55.0237 7.62084 5.05399
      vertex 54.7185 7.5725 5.30711
      vertex 54.9156 7.47206 5.30711
    endloop
  endfacet
  facet normal -0 0.58778 0.809021
    outer loop
      vertex 34.5 7.60711 5.30711
      vertex 54.5 7.35399 5.49101
      vertex 54.5 7.60711 5.30711
    endloop
  endfacet
  facet normal 0 0.58778 0.809021
    outer loop
      vertex 54.5 7.35399 5.49101
      vertex 34.5 7.60711 5.30711
      vertex 34.5 7.35399 5.49101
    endloop
  endfacet
  facet normal 0.527984 0.26892 0.805552
    outer loop
      vertex 55.0721 7.31563 5.30711
      vertex 54.8673 7.16685 5.49101
      vertex 55.1725 7.11851 5.30711
    endloop
  endfacet
  facet normal 0.585284 0.0926175 0.805521
    outer loop
      vertex 55.2071 6.9 5.30711
      vertex 54.9318 7.04029 5.49101
      vertex 54.954 6.9 5.49101
    endloop
  endfacet
  facet normal -0.308607 0.048519 0.949952
    outer loop
      vertex 34.3512 6.94834 5.58769
      vertex 34.046 6.9 5.49101
      vertex 34.3436 6.9 5.58769
    endloop
  endfacet
  facet normal 0.308648 0.0488416 0.949921
    outer loop
      vertex 54.9318 7.04029 5.49101
      vertex 54.6488 6.94834 5.58769
      vertex 54.954 6.9 5.49101
    endloop
  endfacet
  facet normal -0.0488805 0.308638 0.949923
    outer loop
      vertex 34.5 7.35399 5.49101
      vertex 34.3597 7.33177 5.49101
      vertex 34.4517 7.04878 5.58769
    endloop
  endfacet
  facet normal 0.527979 -0.269079 0.805503
    outer loop
      vertex 54.9318 6.75971 5.49101
      vertex 54.8673 6.63315 5.49101
      vertex 55.1725 6.68149 5.30711
    endloop
  endfacet
  facet normal 0.527984 -0.26892 0.805552
    outer loop
      vertex 55.1725 6.68149 5.30711
      vertex 54.8673 6.63315 5.49101
      vertex 55.0721 6.48437 5.30711
    endloop
  endfacet
  facet normal 0.848447 0.43202 0.305771
    outer loop
      vertex 55.2991 7.48055 4.75643
      vertex 55.2208 7.42372 5.05399
      vertex 55.4393 7.20521 4.75643
    endloop
  endfacet
  facet normal -0.368883 -0.723883 0.583026
    outer loop
      vertex 34.0844 6.32794 5.30711
      vertex 33.9763 6.17916 5.05399
      vertex 34.2815 6.2275 5.30711
    endloop
  endfacet
  facet normal 0.308607 -0.048519 0.949952
    outer loop
      vertex 54.6564 6.9 5.58769
      vertex 54.6488 6.85166 5.58769
      vertex 54.954 6.9 5.49101
    endloop
  endfacet
  facet normal -0.368844 -0.723932 0.582989
    outer loop
      vertex 34.2815 6.2275 5.30711
      vertex 33.9763 6.17916 5.05399
      vertex 34.2247 6.0526 5.05399
    endloop
  endfacet
  facet normal -0.127108 -0.802459 0.583013
    outer loop
      vertex 34.5 6.19289 5.30711
      vertex 34.2815 6.2275 5.30711
      vertex 34.5 6.00899 5.05399
    endloop
  endfacet
  facet normal -0.141888 -0.278413 0.949923
    outer loop
      vertex 34.4081 6.77344 5.58769
      vertex 34.2332 6.53271 5.49101
      vertex 34.4517 6.75122 5.58769
    endloop
  endfacet
  facet normal -0.585284 0.0926175 0.805521
    outer loop
      vertex 34.0682 7.04029 5.49101
      vertex 33.7929 6.9 5.30711
      vertex 34.046 6.9 5.49101
    endloop
  endfacet
  facet normal -0.148974 -0.940441 0.305578
    outer loop
      vertex 34.2247 6.0526 5.05399
      vertex 34.1948 5.96065 4.75643
      vertex 34.5 6.00899 5.05399
    endloop
  endfacet
  facet normal -0.432255 -0.84839 0.305598
    outer loop
      vertex 34.2247 6.0526 5.05399
      vertex 33.9763 6.17916 5.05399
      vertex 34.1948 5.96065 4.75643
    endloop
  endfacet
  facet normal -0.127117 0.802461 0.583007
    outer loop
      vertex 34.5 7.79101 5.05399
      vertex 34.2247 7.7474 5.05399
      vertex 34.2815 7.5725 5.30711
    endloop
  endfacet
  facet normal -0.278519 -0.141782 0.949908
    outer loop
      vertex 34.3512 6.85166 5.58769
      vertex 34.1327 6.63315 5.49101
      vertex 34.3734 6.80805 5.58769
    endloop
  endfacet
  facet normal -0.141888 0.278413 0.949923
    outer loop
      vertex 34.4517 7.04878 5.58769
      vertex 34.2332 7.26729 5.49101
      vertex 34.4081 7.02656 5.58769
    endloop
  endfacet
  facet normal -0.673111 -0.673388 0.305731
    outer loop
      vertex 33.9195 6.10094 4.75643
      vertex 33.7792 6.37628 5.05399
      vertex 33.7009 6.31945 4.75643
    endloop
  endfacet
  facet normal -0.673333 -0.673265 0.305512
    outer loop
      vertex 33.7792 6.37628 5.05399
      vertex 33.9195 6.10094 4.75643
      vertex 33.9763 6.17916 5.05399
    endloop
  endfacet
  facet normal -0.156438 -0.987688 0
    outer loop
      vertex 34.1948 5.96065 4.6
      vertex 34.5 5.91231 4.75643
      vertex 34.1948 5.96065 4.75643
    endloop
  endfacet
  facet normal -0.156438 -0.987688 -0
    outer loop
      vertex 34.5 5.91231 4.75643
      vertex 34.1948 5.96065 4.6
      vertex 34.5 5.91231 4.6
    endloop
  endfacet
  facet normal 0.269034 -0.527943 0.805542
    outer loop
      vertex 54.7668 6.53271 5.49101
      vertex 54.7185 6.2275 5.30711
      vertex 54.9156 6.32794 5.30711
    endloop
  endfacet
  facet normal 0.368844 -0.723932 0.582989
    outer loop
      vertex 55.0237 6.17916 5.05399
      vertex 54.7185 6.2275 5.30711
      vertex 54.7753 6.0526 5.05399
    endloop
  endfacet
  facet normal -0.148956 -0.940449 0.305561
    outer loop
      vertex 34.5 6.00899 5.05399
      vertex 34.1948 5.96065 4.75643
      vertex 34.5 5.91231 4.75643
    endloop
  endfacet
  facet normal 0 -0.951059 0.309008
    outer loop
      vertex 34.5 5.91231 4.75643
      vertex 54.5 6.00899 5.05399
      vertex 34.5 6.00899 5.05399
    endloop
  endfacet
  facet normal 0 -0.951059 0.309008
    outer loop
      vertex 54.5 6.00899 5.05399
      vertex 34.5 5.91231 4.75643
      vertex 54.5 5.91231 4.75643
    endloop
  endfacet
  facet normal -0.724068 0.368793 0.582853
    outer loop
      vertex 33.9279 7.31563 5.30711
      vertex 33.7792 7.42372 5.05399
      vertex 33.8275 7.11851 5.30711
    endloop
  endfacet
  facet normal -0.848371 0.432417 0.305423
    outer loop
      vertex 33.7792 7.42372 5.05399
      vertex 33.5607 7.20521 4.75643
      vertex 33.6526 7.17534 5.05399
    endloop
  endfacet
  facet normal -0.9405 0.148928 0.305419
    outer loop
      vertex 33.6526 7.17534 5.05399
      vertex 33.5607 7.20521 4.75643
      vertex 33.609 6.9 5.05399
    endloop
  endfacet
  facet normal -0.723861 0.368954 0.583008
    outer loop
      vertex 33.7792 7.42372 5.05399
      vertex 33.6526 7.17534 5.05399
      vertex 33.8275 7.11851 5.30711
    endloop
  endfacet
  facet normal -0.148956 0.940449 0.305561
    outer loop
      vertex 34.5 7.88769 4.75643
      vertex 34.1948 7.83935 4.75643
      vertex 34.5 7.79101 5.05399
    endloop
  endfacet
  facet normal 0.432255 0.84839 0.305598
    outer loop
      vertex 54.8052 7.83935 4.75643
      vertex 54.7753 7.7474 5.05399
      vertex 55.0237 7.62084 5.05399
    endloop
  endfacet
  facet normal 0.148974 0.940441 0.305578
    outer loop
      vertex 54.8052 7.83935 4.75643
      vertex 54.5 7.79101 5.05399
      vertex 54.7753 7.7474 5.05399
    endloop
  endfacet
  facet normal 0 0.809021 0.58778
    outer loop
      vertex 54.5 7.79101 5.05399
      vertex 34.5 7.60711 5.30711
      vertex 54.5 7.60711 5.30711
    endloop
  endfacet
  facet normal 0 0.809021 0.58778
    outer loop
      vertex 34.5 7.60711 5.30711
      vertex 54.5 7.79101 5.05399
      vertex 34.5 7.79101 5.05399
    endloop
  endfacet
  facet normal 0.848371 0.432417 0.305423
    outer loop
      vertex 55.4393 7.20521 4.75643
      vertex 55.2208 7.42372 5.05399
      vertex 55.3474 7.17534 5.05399
    endloop
  endfacet
  facet normal 0.673111 0.673388 0.305731
    outer loop
      vertex 55.0805 7.69906 4.75643
      vertex 55.2208 7.42372 5.05399
      vertex 55.2991 7.48055 4.75643
    endloop
  endfacet
  facet normal 0.673333 0.673265 0.305512
    outer loop
      vertex 55.2208 7.42372 5.05399
      vertex 55.0805 7.69906 4.75643
      vertex 55.0237 7.62084 5.05399
    endloop
  endfacet
  facet normal -0.308648 0.0488416 0.949921
    outer loop
      vertex 34.0682 7.04029 5.49101
      vertex 34.046 6.9 5.49101
      vertex 34.3512 6.94834 5.58769
    endloop
  endfacet
  facet normal 0.527979 0.269079 0.805503
    outer loop
      vertex 55.1725 7.11851 5.30711
      vertex 54.8673 7.16685 5.49101
      vertex 54.9318 7.04029 5.49101
    endloop
  endfacet
  facet normal -0.141905 -0.278397 0.949925
    outer loop
      vertex 34.4517 6.75122 5.58769
      vertex 34.2332 6.53271 5.49101
      vertex 34.3597 6.46823 5.49101
    endloop
  endfacet
  facet normal -0.0927032 -0.585254 0.805533
    outer loop
      vertex 34.3597 6.46823 5.49101
      vertex 34.2815 6.2275 5.30711
      vertex 34.5 6.19289 5.30711
    endloop
  endfacet
  facet normal -0.585302 -0.0926798 0.805501
    outer loop
      vertex 34.0682 6.75971 5.49101
      vertex 33.7929 6.9 5.30711
      vertex 33.8275 6.68149 5.30711
    endloop
  endfacet
  facet normal -0.802463 -0.127066 0.583016
    outer loop
      vertex 33.7929 6.9 5.30711
      vertex 33.609 6.9 5.05399
      vertex 33.8275 6.68149 5.30711
    endloop
  endfacet
  facet normal -0.432324 -0.848376 0.305538
    outer loop
      vertex 33.9763 6.17916 5.05399
      vertex 33.9195 6.10094 4.75643
      vertex 34.1948 5.96065 4.75643
    endloop
  endfacet
  facet normal -0.848447 -0.43202 0.305771
    outer loop
      vertex 33.7792 6.37628 5.05399
      vertex 33.5607 6.59479 4.75643
      vertex 33.7009 6.31945 4.75643
    endloop
  endfacet
  facet normal -0.432255 0.84839 0.305598
    outer loop
      vertex 34.1948 7.83935 4.75643
      vertex 33.9763 7.62084 5.05399
      vertex 34.2247 7.7474 5.05399
    endloop
  endfacet
  facet normal -0.432324 0.848376 0.305538
    outer loop
      vertex 34.1948 7.83935 4.75643
      vertex 33.9195 7.69906 4.75643
      vertex 33.9763 7.62084 5.05399
    endloop
  endfacet
  facet normal 0 0 1
    outer loop
      vertex 54.6488 6.94834 5.58769
      vertex 54.6488 6.85166 5.58769
      vertex 54.6564 6.9 5.58769
    endloop
  endfacet
  facet normal 0 0 1
    outer loop
      vertex 54.6266 6.99195 5.58769
      vertex 54.6488 6.85166 5.58769
      vertex 54.6488 6.94834 5.58769
    endloop
  endfacet
  facet normal 0 0 1
    outer loop
      vertex 54.6266 6.99195 5.58769
      vertex 54.6266 6.80805 5.58769
      vertex 54.6488 6.85166 5.58769
    endloop
  endfacet
  facet normal 0 0 1
    outer loop
      vertex 54.5919 7.02656 5.58769
      vertex 54.6266 6.80805 5.58769
      vertex 54.6266 6.99195 5.58769
    endloop
  endfacet
  facet normal 0 0 1
    outer loop
      vertex 54.5919 7.02656 5.58769
      vertex 54.5919 6.77344 5.58769
      vertex 54.6266 6.80805 5.58769
    endloop
  endfacet
  facet normal 0 0 1
    outer loop
      vertex 54.5483 7.04878 5.58769
      vertex 54.5919 6.77344 5.58769
      vertex 54.5919 7.02656 5.58769
    endloop
  endfacet
  facet normal 0 0 1
    outer loop
      vertex 54.5483 7.04878 5.58769
      vertex 54.5483 6.75122 5.58769
      vertex 54.5919 6.77344 5.58769
    endloop
  endfacet
  facet normal 0 0 1
    outer loop
      vertex 54.5 7.05643 5.58769
      vertex 54.5483 6.75122 5.58769
      vertex 54.5483 7.04878 5.58769
    endloop
  endfacet
  facet normal 0 0 1
    outer loop
      vertex 54.5 7.05643 5.58769
      vertex 54.5 6.74357 5.58769
      vertex 54.5483 6.75122 5.58769
    endloop
  endfacet
  facet normal -0 0 1
    outer loop
      vertex 34.5 7.05643 5.58769
      vertex 54.5 6.74357 5.58769
      vertex 54.5 7.05643 5.58769
    endloop
  endfacet
  facet normal 0 0 1
    outer loop
      vertex 34.5 7.05643 5.58769
      vertex 34.5 6.74357 5.58769
      vertex 54.5 6.74357 5.58769
    endloop
  endfacet
  facet normal -0 0 1
    outer loop
      vertex 34.4517 7.04878 5.58769
      vertex 34.5 6.74357 5.58769
      vertex 34.5 7.05643 5.58769
    endloop
  endfacet
  facet normal 0 0 1
    outer loop
      vertex 34.4517 7.04878 5.58769
      vertex 34.4517 6.75122 5.58769
      vertex 34.5 6.74357 5.58769
    endloop
  endfacet
  facet normal -0 0 1
    outer loop
      vertex 34.4081 7.02656 5.58769
      vertex 34.4517 6.75122 5.58769
      vertex 34.4517 7.04878 5.58769
    endloop
  endfacet
  facet normal 0 0 1
    outer loop
      vertex 34.4081 7.02656 5.58769
      vertex 34.4081 6.77344 5.58769
      vertex 34.4517 6.75122 5.58769
    endloop
  endfacet
  facet normal -0 0 1
    outer loop
      vertex 34.3734 6.99195 5.58769
      vertex 34.4081 6.77344 5.58769
      vertex 34.4081 7.02656 5.58769
    endloop
  endfacet
  facet normal 0 0 1
    outer loop
      vertex 34.3734 6.99195 5.58769
      vertex 34.3734 6.80805 5.58769
      vertex 34.4081 6.77344 5.58769
    endloop
  endfacet
  facet normal -0 0 1
    outer loop
      vertex 34.3512 6.94834 5.58769
      vertex 34.3734 6.80805 5.58769
      vertex 34.3734 6.99195 5.58769
    endloop
  endfacet
  facet normal 0 0 1
    outer loop
      vertex 34.3512 6.94834 5.58769
      vertex 34.3512 6.85166 5.58769
      vertex 34.3734 6.80805 5.58769
    endloop
  endfacet
  facet normal 0 -0 1
    outer loop
      vertex 34.3512 6.85166 5.58769
      vertex 34.3512 6.94834 5.58769
      vertex 34.3436 6.9 5.58769
    endloop
  endfacet
  facet normal 0.127117 0.802461 0.583007
    outer loop
      vertex 54.7753 7.7474 5.05399
      vertex 54.5 7.79101 5.05399
      vertex 54.7185 7.5725 5.30711
    endloop
  endfacet
  facet normal -0.269104 -0.527941 0.80552
    outer loop
      vertex 34.3597 6.46823 5.49101
      vertex 34.2332 6.53271 5.49101
      vertex 34.2815 6.2275 5.30711
    endloop
  endfacet
  facet normal 0.0488838 0.308639 0.949922
    outer loop
      vertex 54.5 7.35399 5.49101
      vertex 54.5 7.05643 5.58769
      vertex 54.5483 7.04878 5.58769
    endloop
  endfacet
  facet normal 0.278415 0.141891 0.949922
    outer loop
      vertex 54.8673 7.16685 5.49101
      vertex 54.6488 6.94834 5.58769
      vertex 54.9318 7.04029 5.49101
    endloop
  endfacet
  facet normal -0.891128 -0.453752 0
    outer loop
      vertex 33.7009 6.31945 4.6
      vertex 33.5607 6.59479 4.75643
      vertex 33.5607 6.59479 4.6
    endloop
  endfacet
  facet normal -0.891128 -0.453752 0
    outer loop
      vertex 33.5607 6.59479 4.75643
      vertex 33.7009 6.31945 4.6
      vertex 33.7009 6.31945 4.75643
    endloop
  endfacet
  facet normal 0.269104 -0.527941 0.80552
    outer loop
      vertex 54.7668 6.53271 5.49101
      vertex 54.6403 6.46823 5.49101
      vertex 54.7185 6.2275 5.30711
    endloop
  endfacet
  facet normal 0.0927032 -0.585254 0.805533
    outer loop
      vertex 54.6403 6.46823 5.49101
      vertex 54.5 6.19289 5.30711
      vertex 54.7185 6.2275 5.30711
    endloop
  endfacet
  facet normal -0.802464 0.12707 0.583013
    outer loop
      vertex 33.6526 7.17534 5.05399
      vertex 33.609 6.9 5.05399
      vertex 33.8275 7.11851 5.30711
    endloop
  endfacet
  facet normal -0.802463 0.127066 0.583016
    outer loop
      vertex 33.8275 7.11851 5.30711
      vertex 33.609 6.9 5.05399
      vertex 33.7929 6.9 5.30711
    endloop
  endfacet
  facet normal -0.418846 0.419096 0.80556
    outer loop
      vertex 34.0844 7.47206 5.30711
      vertex 34.1327 7.16685 5.49101
      vertex 34.2332 7.26729 5.49101
    endloop
  endfacet
  facet normal -0.418892 0.419079 0.805545
    outer loop
      vertex 34.1327 7.16685 5.49101
      vertex 34.0844 7.47206 5.30711
      vertex 33.9279 7.31563 5.30711
    endloop
  endfacet
  facet normal -0.527984 0.26892 0.805552
    outer loop
      vertex 33.9279 7.31563 5.30711
      vertex 33.8275 7.11851 5.30711
      vertex 34.1327 7.16685 5.49101
    endloop
  endfacet
  facet normal -0.269034 0.527943 0.805542
    outer loop
      vertex 34.2815 7.5725 5.30711
      vertex 34.0844 7.47206 5.30711
      vertex 34.2332 7.26729 5.49101
    endloop
  endfacet
  facet normal -0.368883 0.723883 0.583026
    outer loop
      vertex 34.2815 7.5725 5.30711
      vertex 33.9763 7.62084 5.05399
      vertex 34.0844 7.47206 5.30711
    endloop
  endfacet
  facet normal 0.127108 0.802459 0.583013
    outer loop
      vertex 54.5 7.79101 5.05399
      vertex 54.5 7.60711 5.30711
      vertex 54.7185 7.5725 5.30711
    endloop
  endfacet
  facet normal 0.269104 0.527941 0.80552
    outer loop
      vertex 54.7185 7.5725 5.30711
      vertex 54.6403 7.33177 5.49101
      vertex 54.7668 7.26729 5.49101
    endloop
  endfacet
  facet normal 0.706961 0.707252 -0
    outer loop
      vertex 55.2991 7.48055 4.6
      vertex 55.0805 7.69906 4.75643
      vertex 55.2991 7.48055 4.75643
    endloop
  endfacet
  facet normal 0.706961 0.707252 0
    outer loop
      vertex 55.0805 7.69906 4.75643
      vertex 55.2991 7.48055 4.6
      vertex 55.0805 7.69906 4.6
    endloop
  endfacet
  facet normal -0.278415 0.141891 0.949922
    outer loop
      vertex 34.1327 7.16685 5.49101
      vertex 34.0682 7.04029 5.49101
      vertex 34.3512 6.94834 5.58769
    endloop
  endfacet
  facet normal -0.418846 -0.419096 0.80556
    outer loop
      vertex 34.1327 6.63315 5.49101
      vertex 34.0844 6.32794 5.30711
      vertex 34.2332 6.53271 5.49101
    endloop
  endfacet
  facet normal -0.418892 -0.419079 0.805545
    outer loop
      vertex 34.0844 6.32794 5.30711
      vertex 34.1327 6.63315 5.49101
      vertex 33.9279 6.48437 5.30711
    endloop
  endfacet
  facet normal -0.723861 -0.368954 0.583008
    outer loop
      vertex 33.8275 6.68149 5.30711
      vertex 33.6526 6.62466 5.05399
      vertex 33.7792 6.37628 5.05399
    endloop
  endfacet
  facet normal -0.724068 -0.368793 0.582853
    outer loop
      vertex 33.8275 6.68149 5.30711
      vertex 33.7792 6.37628 5.05399
      vertex 33.9279 6.48437 5.30711
    endloop
  endfacet
  facet normal -0 0.309008 0.951059
    outer loop
      vertex 34.5 7.35399 5.49101
      vertex 54.5 7.05643 5.58769
      vertex 54.5 7.35399 5.49101
    endloop
  endfacet
  facet normal 0 0.309008 0.951059
    outer loop
      vertex 54.5 7.05643 5.58769
      vertex 34.5 7.35399 5.49101
      vertex 34.5 7.05643 5.58769
    endloop
  endfacet
  facet normal 0.0927032 0.585254 0.805533
    outer loop
      vertex 54.7185 7.5725 5.30711
      vertex 54.5 7.60711 5.30711
      vertex 54.6403 7.33177 5.49101
    endloop
  endfacet
  facet normal 0.0926889 0.58525 0.805538
    outer loop
      vertex 54.5 7.60711 5.30711
      vertex 54.5 7.35399 5.49101
      vertex 54.6403 7.33177 5.49101
    endloop
  endfacet
  facet normal 0.308607 0.048519 0.949952
    outer loop
      vertex 54.954 6.9 5.49101
      vertex 54.6488 6.94834 5.58769
      vertex 54.6564 6.9 5.58769
    endloop
  endfacet
  facet normal -0.527979 -0.269079 0.805503
    outer loop
      vertex 34.0682 6.75971 5.49101
      vertex 33.8275 6.68149 5.30711
      vertex 34.1327 6.63315 5.49101
    endloop
  endfacet
  facet normal -0.278415 -0.141891 0.949922
    outer loop
      vertex 34.3512 6.85166 5.58769
      vertex 34.0682 6.75971 5.49101
      vertex 34.1327 6.63315 5.49101
    endloop
  endfacet
  facet normal -0.706961 -0.707252 0
    outer loop
      vertex 33.7009 6.31945 4.6
      vertex 33.9195 6.10094 4.75643
      vertex 33.7009 6.31945 4.75643
    endloop
  endfacet
  facet normal -0.706961 -0.707252 -0
    outer loop
      vertex 33.9195 6.10094 4.75643
      vertex 33.7009 6.31945 4.6
      vertex 33.9195 6.10094 4.6
    endloop
  endfacet
  facet normal 0.141905 0.278397 0.949925
    outer loop
      vertex 54.6403 7.33177 5.49101
      vertex 54.5483 7.04878 5.58769
      vertex 54.7668 7.26729 5.49101
    endloop
  endfacet
  facet normal 0.0488805 0.308638 0.949923
    outer loop
      vertex 54.6403 7.33177 5.49101
      vertex 54.5 7.35399 5.49101
      vertex 54.5483 7.04878 5.58769
    endloop
  endfacet
  facet normal 0.141888 0.278413 0.949923
    outer loop
      vertex 54.7668 7.26729 5.49101
      vertex 54.5483 7.04878 5.58769
      vertex 54.5919 7.02656 5.58769
    endloop
  endfacet
  facet normal -0.269104 0.527941 0.80552
    outer loop
      vertex 34.2815 7.5725 5.30711
      vertex 34.2332 7.26729 5.49101
      vertex 34.3597 7.33177 5.49101
    endloop
  endfacet
  facet normal -0.141905 0.278397 0.949925
    outer loop
      vertex 34.3597 7.33177 5.49101
      vertex 34.2332 7.26729 5.49101
      vertex 34.4517 7.04878 5.58769
    endloop
  endfacet
  facet normal -0.585284 -0.0926175 0.805521
    outer loop
      vertex 34.046 6.9 5.49101
      vertex 33.7929 6.9 5.30711
      vertex 34.0682 6.75971 5.49101
    endloop
  endfacet
  facet normal -0.308648 -0.0488416 0.949921
    outer loop
      vertex 34.3512 6.85166 5.58769
      vertex 34.046 6.9 5.49101
      vertex 34.0682 6.75971 5.49101
    endloop
  endfacet
  facet normal -0.987659 -0.156622 0
    outer loop
      vertex 33.5607 6.59479 4.6
      vertex 33.5123 6.9 4.75643
      vertex 33.5123 6.9 4.6
    endloop
  endfacet
  facet normal -0.987659 -0.156622 0
    outer loop
      vertex 33.5123 6.9 4.75643
      vertex 33.5607 6.59479 4.6
      vertex 33.5607 6.59479 4.75643
    endloop
  endfacet
  facet normal -0.308607 -0.048519 0.949952
    outer loop
      vertex 34.3436 6.9 5.58769
      vertex 34.046 6.9 5.49101
      vertex 34.3512 6.85166 5.58769
    endloop
  endfacet
endsolid OpenSCAD_Model
