<?xml version="1.0" encoding="UTF-8"?>
<svg xmlns:cc="http://creativecommons.org/ns#"
     xmlns="http://www.w3.org/2000/svg"
     xml:space="preserve" width="7.4857488in"
     height="7.0817685in"
     style="fill-rule:evenodd;image-rendering:optimizeQuality;shape-rendering:geometricPrecision;text-rendering:geometricPrecision"
     viewBox="0 0 7485.7488 7284.114" version="1.1"
>
    <g transform="translate(-312.39573,-2009.7618)">
  <path
        d="m 4011.65,2012.33 c -103.082,11.5048 -204.804,25.699 -304.552,56.579 -98.0495,30.3467 -196.617,73.0895 -284.85,125.345 -22.8419,13.5314 -42.1714,32.5257 -64.4914,46.8305 -101.688,65.1771 -198.267,133.116 -286.64,216.701 -83.0362,78.5448 -165.928,156.347 -236.244,246.983 -21.6571,27.9162 -46.1105,56.6781 -65.6038,85.9924 -10.6057,15.9238 -21.9467,41.1886 -40.3619,49.2076 -14.4038,6.2781 -35.2914,-0.6514 -50.1257,-3.0819 -35.0438,-5.7448 -70.4762,-8.9105 -105.699,-13.3219 -124.975,-15.6571 -252.293,-25.7562 -378.004,-32.56 -88.6438,-4.8 -182.103,-14.9943 -270.514,-2.8495 -92.2971,12.6743 -178.937,45.6267 -265.139,79.6229 -38.0952,15.021 -80.7086,26.5905 -116.45,46.621 -43.5276,24.4 -83.5162,59.6381 -123.611,89.3181 -55.2267,40.8724 -113.516,86.08 -158.667,138.175 -49.3676,56.96 -88.6248,129.326 -124.648,195.272 -30.6971,56.1905 -49.1238,120.198 -68.3581,180.941 -72.6933,229.577 -78.541,480.297 -65.501,720.175 4.9333,90.739 15.36,181.478 33.4324,270.518 5.0971,25.1162 10.2667,50.2514 15.92,75.2419 2.3619,10.4267 7.741,23.6114 2.7505,33.9657 -6.2133,12.8648 -22.64,18.8838 -34.4305,25.3333 -24.32382,13.3105 -46.89522,28.5562 -69.87052,44.0152 -81.7981,55.0362 -162.362,114.583 -234.682,181.783 -89.1771,82.8571 -169.41,169.528 -246.621,262.99 -32.5371,39.3943 -67.3676,76.7467 -94.8381,120.137 -109.36,172.754 -166.632,385.726 -167.352,589.398 -0.15238,43.2648 -12.3848,87.4819 -6.12571,130.781 9.15048,63.3105 47.3029,114.781 73.539,171.981 9.10476,19.8514 13.7029,41.4552 23.7562,60.9105 16.4838,31.9086 41.939,57.9581 61.5505,87.7829 14.4,21.8933 23.92,46.6895 39.0019,68.0762 48.3467,68.5638 107.912,133.36 168.556,191.189 87.92,83.8248 189.109,152.366 281.101,231.227 64.8229,55.5543 135.105,101.939 202.43803,153.638 19.4057,14.9067 61.6,29.0781 70.6895,52.781 10.2057,26.621 -10.3048,66.7124 -9.7181,94.9295 1.7638,84.6819 0.6209,169.581 -5.8019,254.392 -1.741,22.9829 -10.7467,45.1086 -11.8781,68.0762 -9.8857,199.912 11.52,401.402 65.6305,594.773 27.8819,99.6267 63.3638,200.987 126.232,284.72 26.7505,35.6343 71.5048,71.4629 105.238,100.933 85.3829,74.579 189.901,147.745 293.794,193.874 34.8648,15.4781 71.901,22.8952 107.49,35.6876 36.7429,13.2229 68.8305,31.7105 107.49,40.6133 156.415,36.0457 331.642,33.1048 490.869,24.5448 125.242,-6.72 249.608,-17.1657 374.423,-28.72 39.5924,-3.6724 78.3771,-10.301 118.236,-10.301 12.541,0 29.3448,-3.3333 41.2038,1.1467 14.5829,5.4819 25.3143,22.0343 35.8133,32.8914 27.859,28.861 54.8724,58.781 80.5638,89.5771 68.2019,81.76 143.695,159.962 225.836,227.912 69.2381,57.2914 148.03,98.2438 227.482,138.194 59.12,29.7371 114.815,68.6667 177.356,91.1848 40.7924,14.6933 83.341,19.8705 125.406,29.4362 44.5181,10.1219 89.0705,23.9695 134.362,30.1333 115.371,15.6914 230.564,9.1885 345.756,-1.4705 85.2038,-7.8629 178.899,-51.1086 256.183,-85.5581 176.03,-78.5219 352.244,-177.36 496.244,-306.903 60.461,-54.3886 124.651,-108.994 180.69,-167.737 17.36,-18.1829 36.4571,-35.7752 52.0076,-55.5162 9.4933,-12.0571 17.7524,-29.04 32.461,-35.5429 30.0076,-13.2571 83.8057,7.2 114.636,11.7524 93.9276,13.8286 189.97,35.1467 284.846,38.0152 423.116,12.8267 925.878,-32.499 1171.17,-429.851 51.2,-82.9638 101.238,-168.975 133.07,-261.558 14.4571,-41.9924 20.4762,-87.3714 29.0057,-130.777 24.1143,-122.682 33.7333,-245.703 29.9695,-370.838 -3.2762,-109.158 -2.6134,-219.493 -15.6914,-327.844 -3.9581,-32.8381 -8.4724,-65.5695 -11.3562,-98.5333 -1.3829,-15.6381 -4.5524,-34.0724 3.76,-48.3314 8.099,-13.939 22.8038,-22.9867 33.9657,-34.2362 37.1581,-37.4248 77.4286,-61.5924 120.21,-92.0648 77.1771,-54.979 149.429,-120.621 214.819,-189.04 122.213,-127.855 224.061,-275.996 310.122,-429.954 41.6,-74.4 84.3086,-152.08 112.13,-232.895 21.9276,-63.7067 33.3219,-131.173 45.7181,-197.063 22.7733,-121.051 35.9048,-234.023 18.4914,-356.507 -10.32,-72.5905 -43.8933,-134.27 -76.2095,-198.857 -34.4,-68.7543 -72.0724,-131.28 -122.648,-189.897 -22.6781,-26.2971 -50.2514,-47.7943 -73.6114,-73.4514 -103.101,-113.15 -214.781,-218.221 -328.488,-320.118 -20.7467,-18.5981 -46.1486,-30.3657 -68.0762,-47.2952 -28.6095,-22.0914 -54.0305,-48.9981 -85.9924,-66.4305 -28.3581,-15.459 -87.0857,-43.4438 -99.4095,-74.9371 -5.3562,-13.6876 2.7047,-31.101 5.0171,-44.7886 4.1562,-24.739 3.2229,-50.2514 4.5676,-75.2419 5.7143,-105.608 10.3733,-211.307 12.5752,-317.093 2.5638,-123.611 -15.5124,-246.152 -37.6914,-367.257 -4.659,-25.4552 -4.2819,-51.8781 -9.6381,-77.0324 -28.2514,-132.808 -73.6838,-261.208 -139.825,-379.794 -38.5371,-69.0743 -60.8571,-141.775 -122.594,-195.92 -69.5276,-60.979 -144.895,-124.846 -225.691,-170.461 -150.933,-85.2152 -326.03,-125.067 -496.24,-139.143 -57.4743,-4.7581 -117.863,-11.6152 -175.566,-6.3238 -124.366,11.4019 -250.72,22.4648 -372.632,48.8343 -38.659,8.3619 -77.7486,14.2933 -116.446,22.739 -13.2914,2.9028 -33.0705,12.9257 -46.4876,7.8666 -14.2248,-5.3638 -17.6495,-24.8648 -23.9543,-36.9638 -14.1524,-27.181 -33.501,-51.2648 -52.3657,-75.2419 -36.1143,-45.859 -78.0533,-81.2648 -119.01,-121.882 -37.101,-36.7771 -71.12,-77.1124 -107.63,-114.587 -68.4533,-70.2857 -148.389,-130.728 -227.413,-188.442 -115.512,-84.3695 -239.752,-167.87 -376.213,-214.034 -66.3924,-22.461 -138.659,-32.3276 -207.81,-40.7771 -61.5581,-7.5276 -125.638,-19.6914 -188.107,-12.7162 z m 3.581,286.594 c -290.937,28.8495 -542.156,207.478 -745.257,409.41 -49.0362,48.7543 -100.0721,94.6438 -143.3221,148.709 -10.1219,12.6629 -40.2705,42.3505 -34.7543,60.5638 4.5867,15.0743 43.0857,16.941 56.2552,19.8514 59.1353,13.0629 120.3311,15.0514 179.147,28.72 163.6191,38.0229 329.832,70.5981 490.8691,117.977 61.3751,18.061 123.021,34.3543 184.5219,51.4629 27.5733,7.6724 66.4838,24.6362 94.9486,22.3429 72.5219,-5.8476 148.156,-47.3448 216.773,-69.6457 146.956,-47.7638 300.29,-98.0533 451.455,-129.867 54.96,-11.5657 110.282,-24.1714 164.815,-38.0914 13.581,-3.4667 47.581,-5.3067 52.9562,-20.6362 5.2305,-14.941 -20.5829,-40.0838 -26.8533,-53.4248 -32.0152,-68.0038 -94.4114,-117.01 -145.486,-170.046 -51.6686,-53.6457 -116.876,-95.6381 -176.213,-140.107 -52.56,-39.3943 -103.242,-82.659 -159.44,-116.91 -24.5447,-14.9524 -56.038,-22.4076 -82.4113,-34.8724 -117.253,-55.4476 -245.558,-98.5676 -378.004,-85.4362 z m 1913.31,734.495 c -110.964,10.0876 -216.876,35.5162 -326.05,57.981 -26.3543,5.4248 -52.4914,11.7333 -78.8267,17.2038 -10.3352,2.1486 -25.4552,4.5409 -31.619,14.2476 -9.6572,15.2381 24.2743,57.6267 32.7657,70.9905 41.6343,65.5314 78.5943,135.17 113.867,204.232 51.7029,101.192 107.364,199.733 162.632,299.177 23.4133,42.1714 31.6,89.5924 66.7314,125.154 16.9486,17.1619 44.5752,22.6095 65.8743,32.9829 44.7695,21.8171 87.5505,46.7733 132.571,68.1448 110.21,52.3314 215.57,117.916 324.259,173.703 88.5714,45.4705 184.56,99.3752 263.349,160.198 24.4724,18.899 49.0324,34.7886 75.2419,51.021 7.5428,4.6743 18.6133,16.2819 28.2895,14.2781 10.1752,-2.08 13.219,-20.621 15.6381,-28.9143 8.4914,-29.1848 5.8933,-68.4533 3.2952,-98.5333 -4.3162,-49.9276 7.7943,-101.703 4.3733,-152.278 -2.7962,-41.4552 -3.7447,-84.2324 -9.4781,-125.402 -4.819,-34.4343 -14.9067,-72.6629 -13.059,-107.49 3.9924,-75.619 -18.6324,-159.192 -40.899,-231.101 -19.7448,-63.7448 -46.2743,-116.659 -77.1771,-175.566 -16.7886,-31.9924 -29.0057,-64.221 -51.3105,-93.1543 -25.3143,-32.8152 -61.661,-60.979 -92.5676,-88.4914 -30.7924,-27.421 -62,-60.6362 -96.739,-82.8952 -135.954,-87.1314 -311.467,-120.008 -471.162,-105.49 z m -3821.25,57.36 c -193.84,20.2933 -392.011,58.6857 -546.373,188.385 -28.6171,24.0495 -63.7143,59.1619 -84.4533,90.2438 -7.7943,11.6838 -9.2648,25.8933 -16.9981,37.6229 -16.1257,24.4648 -36.5143,45.901 -50.8381,71.661 -48.7657,87.6914 -84.9295,193.356 -104.434,292.011 -10.0419,50.7886 -9.5658,105.84 -14.16,157.65 -3.2496,36.6362 -11.6152,72.3771 -13.5619,109.284 -0.8,15.101 4.659,29.6838 4.8647,44.7848 0.9029,64.9981 2.0686,125.246 12.4571,189.897 6.7353,41.939 11.3257,77.661 28.4343,116.45 4.461,10.1219 1.9657,35.3829 18.4114,34.541 23.7943,-1.2381 56.64,-40.5067 75.1352,-54.4648 65.7829,-49.6038 131.76,-100.484 200.648,-145.79 100.446,-66.0343 208.046,-132.552 315.303,-186.743 42.9943,-21.7333 85.2038,-44.1257 127.196,-67.7371 19.9048,-11.181 46.9371,-22.5371 61.6457,-40.4533 9.2267,-11.2152 7.7372,-26.1181 12.5219,-39.1771 7.9353,-21.68 19.6876,-43.4819 29.4514,-64.4952 40.6667,-87.6038 79.7219,-175.478 124.133,-261.558 9.8895,-19.2038 14.099,-40.6895 25.581,-59.12 58.1867,-93.2686 117.272,-185.966 175.387,-279.47 13.8133,-22.221 27.4629,-44.4 41.8133,-66.2857 4.7467,-7.2305 14.1905,-18.701 9.6914,-27.9314 -4.4609,-9.1695 -18.5219,-8.1067 -26.979,-9.8667 -26.6552,-5.539 -53.1543,-14.941 -80.6171,-15.8438 -107.451,-3.5352 -216.465,-24.88 -324.259,-13.5924 z m 3024.03,96.8762 c -59.3714,8.1257 -116.213,27.9276 -173.775,43.4819 -77.0324,20.8229 -154.229,39.619 -231.101,61.219 -31.3333,8.8076 -62.6857,18.24 -94.9486,23.0362 -7.2915,1.0857 -28.6667,0.8571 -29.8095,11.1086 -1.2381,11.04 34.3048,19.2 42.3505,21.9771 48.2248,16.6552 95.5924,36.7695 145.109,49.379 160.606,40.9067 327.985,99.1276 472.952,179.954 48.7124,27.1619 96.3124,57.2038 146.903,80.6895 11.699,5.4286 34.7924,25.3333 47.7067,22.6438 13.1162,-2.739 0.5219,-24.3276 -2.4877,-30.4724 -15.5352,-31.619 -24.2781,-63.4895 -44.019,-93.1581 -28.019,-42.0686 -50.2667,-88.1676 -77.1581,-130.777 -11.6267,-18.3962 -28.0381,-33.3448 -39.379,-51.9543 -8.3657,-13.6876 -11.7333,-29.6114 -20.6552,-42.9943 -14.7086,-22.0838 -35.5238,-39.619 -51.36,-60.9105 -23.04,-30.96 -43.4819,-89.6305 -90.3276,-83.2229 z m -2226.82,7.619 c -39.3219,9.2686 -65.5657,58.0571 -87.619,88.1448 -65.7829,89.6953 -121.07,187.81 -167.916,288.43 -16.32,35.021 -32.8038,67.4667 -45.9695,103.9051 -4.1943,11.6075 -9.9277,36.6361 11.3029,34.1981 21.1238,-2.4343 46.3276,-26.941 64.4762,-37.783 41.7219,-24.8989 86.6019,-45.4857 130.777,-65.6037 154.964,-70.5487 311.364,-132.651 472.956,-186.3961 52.7771,-17.5581 103.566,-39.5657 157.65,-53.219 11.661,-2.9409 48.4419,-6.1104 52.5257,-19.5733 3.779,-12.4609 -21.9619,-14.9486 -29.2381,-16.7238 -35.1314,-8.5866 -71.2457,-18.3771 -105.695,-29.3524 -102.046,-32.499 -207.973,-54.1295 -311.722,-80.8267 -40.7543,-10.4914 -99.0857,-35.2038 -141.528,-25.2 z m 1142.97,279.0211 c -58.2248,8.0152 -116.446,35.2914 -171.981,53.8057 -124.67,41.5428 -245.65,87.0475 -367.257,135.829 -273.345,109.638 -550.381,207.185 -809.752,348.731 -99.7333,54.4267 -203.962,102.24 -300.971,161.558 -35.2724,21.5695 -75.5657,32.5867 -104.011,65.12 -15.139,17.3219 -19.9771,52.9752 -30.8343,74.1867 -30.1867,58.9219 -63.5238,115.924 -92.2781,175.566 -99.84,207.006 -190.4,418.202 -273.813,632.396 -42.8686,110.069 -87.8705,221.032 -134.27,329.63 -32.0724,75.0476 -75.3181,164.282 -78.9448,247.227 -3.7639,86.0267 35.9276,158.6899 62.0114,238.2669 60.3581,184.1491 140.259,364.838 228.865,537.4481 46.6171,90.8113 88.3771,184.541 137.444,274.099 66.1981,120.781 140.309,237.051 208.693,356.5069 42.6895,74.579 75.4362,154.766 124.705,225.726 12.3048,17.7181 21.7829,39.5581 37.2457,54.7124 100.267,98.3011 250.987,146.4381 377.394,200.556 119.01,50.9524 232.533,111.219 351.131,162.008 23.1467,9.9048 48.1029,13.2038 71.661,21.821 53.0819,19.4362 104.282,42.4762 157.65,61.4095 174.632,61.9314 341.707,157.634 524.907,193.211 45.5924,8.8496 100.59,34.6667 146.903,28.4876 80.4381,-10.7162 154.674,-38.537 231.101,-62.2362 78.9676,-24.4914 158.419,-45.5238 236.476,-74.3314 103.048,-38.0343 204.213,-83.1771 308.137,-119.15 34.4838,-11.9314 70.9257,-18.4343 105.695,-30.1143 149.661,-50.2705 297.749,-108.099 438.918,-177.931 92.7276,-45.8819 189.109,-96.2209 259.261,-174.2399 28.9714,-32.2134 42.3162,-66.6438 62.1295,-103.909 44.0343,-82.8381 75.7638,-169.044 114.621,-254.389 34.0724,-74.8495 79.3448,-144.1451 114.278,-218.564 65.4438,-139.4481 120.442,-282.5901 174.994,-426.373 57.9886,-152.888 119.17,-303.836 170.457,-458.621 11.539,-34.8076 19.5657,-71.3371 32.0343,-105.699 10.1752,-28.0343 27.6076,-59.3333 28.6629,-89.5733 0.8228,-23.4705 -11.3752,-46.5981 -19.3105,-68.0762 -16.4114,-44.4306 -33.68,-88.3924 -50.5943,-132.571 -32.6057,-85.2571 -49.4971,-176.945 -79.901,-263.349 -11.0705,-31.5124 -28.1981,-59.3334 -41.92,-89.5733 -11.5352,-25.4058 -14.3314,-52.6896 -23.1276,-78.8267 -19.92,-59.1352 -43.821,-119.242 -66.6438,-177.356 -71.6762,-182.59 -151.379,-358.891 -243.497,-532.072 -27.0171,-50.7886 -55.1619,-100.396 -83.1619,-150.488 -11.8057,-21.139 -19.3829,-44.7314 -33.859,-64.3848 -19.5467,-26.5867 -50.0914,-45.1276 -74.3657,-66.9486 -17.859,-16.0495 -31.6914,-37.2267 -50.2705,-52.1867 -16.3886,-13.2038 -44.5714,-18.56 -64.3848,-25.4933 -42.4038,-14.8686 -84.6667,-29.1619 -125.402,-48.5829 -87.7676,-41.8514 -174.046,-86.3848 -263.352,-124.903 -111.143,-47.9238 -226.084,-87.5505 -336.8,-136.046 -89.2305,-39.0895 -181.368,-68.3276 -272.305,-102.83 -37.3524,-14.1714 -71.8743,-34.6324 -109.28,-48.461 -41.1886,-15.2267 -84.8114,-24.6133 -125.406,-41.2952 -61.8057,-25.4019 -125.387,-46.48 -189.897,-63.9276 -27.5886,-7.4629 -58.941,-19.7676 -87.7829,-15.7981 z m 2023.36,793.7259 c -16.64,5.7334 6.5752,37.4971 10.9638,45.5048 25.2076,45.9848 47.1162,95.8248 75.459,139.733 34.6476,53.6725 59.1543,114.693 87.0667,171.985 52.0076,106.735 103.672,213.223 150.053,322.469 20.6743,48.7467 28.5029,102.4 55.1086,148.693 17.4857,30.4533 22.7505,64.0076 34,96.739 8.8685,25.8171 23.6838,49.1238 31.7105,75.2419 3.1161,10.16 6.5561,59.0476 23.7562,53.0476 18.381,-6.4152 27.4438,-54.3352 32.621,-70.96 22.1448,-71.2495 41.2762,-143.158 61.379,-214.979 26.2095,-93.661 43.8895,-188.75 59.1886,-284.85 5.6609,-35.5962 22.7352,-78.6629 5.3942,-112.789 -15.3905,-30.2781 -72.4838,-51.1657 -100.773,-68.5638 -86.5257,-53.2229 -175.387,-103.474 -261.554,-157.417 -63.7448,-39.8971 -129.813,-79.4705 -197.067,-113.131 -14.7238,-7.3828 -50.6248,-36.4762 -67.3067,-30.7238 z m -4151.7,152.815 c -45.6457,2.8115 -97.2952,40.0571 -136.099,61.68 -93.4171,52.0763 -185.573,105.017 -275.89,162.255 -37.3638,23.6838 -103.707,57.2534 -108.598,105.874 -5.6839,56.4686 14.2552,117.505 26.2971,171.985 18.8267,85.2038 34.2781,173.074 61.4171,256.183 10.4648,32.0495 18.659,64.2438 32.7733,94.9486 3.7028,8.0458 8.8838,28.5029 20.1905,28.5029 11.9086,0 22.2171,-35.3105 26.0457,-44.6248 19.8514,-48.2819 32.7352,-101.992 54.7619,-148.693 81.6267,-173.059 142.202,-355.288 227.943,-526.701 20.9448,-41.8667 48.819,-79.0743 71.2114,-120.027 5.1961,-9.5123 24.7048,-42.9257 -0.053,-41.3829 z m 5093.63,406.038 c -9.0819,2.8686 -9.7448,14.4762 -10.9829,22.3048 -3.6915,23.219 -5.0858,46.4 -5.5696,69.8667 -1.9352,92.1029 -25.6038,188.286 -46.3657,277.684 -32.5524,140.091 -93.5162,269.44 -144.987,403.082 -17.7524,46.1143 -58.08,99.4133 -62.0571,148.697 -1.7904,22.2133 11.9162,45.699 18.7771,66.2819 13.1657,39.5048 23.1619,80.2248 35.7752,120.03 36.9943,116.808 62.6476,238.465 96.0229,356.507 32.1029,113.509 70.1029,228.56 94.2514,343.966 5.7486,27.3943 10.5714,54.9829 16.1943,82.4076 1.6115,7.901 4.48,23.0933 15.8895,20.461 28.1448,-6.5219 59.5886,-54.4457 80.5105,-73.5048 70.3543,-64.0457 143.928,-119.459 208.225,-190.598 94.6629,-104.747 167.253,-222.411 232.053,-347.547 64.8876,-125.333 121.051,-262.937 118.004,-406.67 -0.4304,-19.939 -10.3543,-37.8171 -12.9867,-57.3257 -18.739,-139.326 -79.0248,-279.509 -160.61,-394.13 -98.1524,-137.909 -204.857,-266.43 -347.116,-360.411 -31.12,-20.5486 -56.9905,-47.5276 -89.5771,-66.1219 -8.9219,-5.0895 -24.56,-18.419 -35.4514,-14.979 z m -5915.98,114.709 c -25.5848,4.5867 -57.5162,34.9524 -78.7238,49.4819 -51.56955,35.3295 -103.47405,68.2743 -154.06505,105.95 -112.065,83.4476 -190.53,182.819 -257.844,303.943 -19.9543,35.901 -44.3962,70.2095 -57.8743,109.28 -20.7467,60.141 -27.5505,118.526 -34.3238,180.941 -4.64381,42.7619 -18.4762,85.5086 -12.8686,128.987 6.24381,48.4076 25.5086,91.6724 40.2514,137.947 17.3714,54.5143 28.32,108.884 57.6381,159.44 36.1143,62.2743 85.2686,117.291 129.459,173.775 87.9733,112.469 194.16,203.478 303.96205,293.627 26.0838,21.4057 54.2057,40.3962 80.6171,61.4476 8.0647,6.4305 20.5181,20.5486 32.0076,18.5067 22.6248,-4.0304 31.3257,-61.5048 34.3924,-79.7752 6.6742,-39.7905 7.6838,-80.2971 14.72,-120.03 8.7657,-49.5162 22.9448,-96.9752 30.8686,-146.903 4.1638,-26.2095 14.6552,-50.7352 18.8914,-77.0324 4.499,-27.9124 2.4495,-56.8648 10.2667,-84.2019 18.1067,-63.3105 47.8743,-123.219 66.2514,-186.312 6.3276,-21.7333 6.7047,-44.5371 12.6667,-66.2857 12.1943,-44.4648 46.259,-85.0438 46.6933,-132.571 0.2057,-22.6248 -12.2781,-43.6229 -19.4324,-64.4952 -11.6838,-34.0914 -19.8476,-68.3619 -33.0324,-102.114 -36.2971,-92.9067 -69.1467,-186.476 -99.6724,-281.261 -19.4819,-60.499 -34.4914,-122.217 -53.6724,-182.735 -11.8971,-37.5467 -28.4762,-72.7314 -38.6629,-111.07 -6.1981,-23.3067 -12.4229,-47.3295 -20.941,-69.8667 -2.9829,-7.8857 -6.6134,-20.64 -17.5733,-18.6705 z m 5477.08,1241.56 c -17.0171,5.5162 -23.7714,37.9619 -29.219,52.6514 -19.2914,51.9695 -43.3333,102.114 -62.3619,154.069 -73.539,200.77 -159.996,401.417 -259.406,591.189 -26.5486,50.72 -46.3276,104.75 -72.4305,155.863 -5.1772,10.1371 -24.3086,47.7943 2.0609,44.4114 17.8781,-2.2933 36.8152,-13.421 53.7067,-19.6533 38.6248,-14.2248 76.4267,-28.7885 114.655,-44.019 96.0952,-38.2667 196.312,-69.2951 288.43,-116.876 32.2819,-16.6781 64.9067,-36.4571 94.9486,-56.88 12.8648,-8.7428 26.819,-19.581 28.1638,-36.2933 5.3371,-66.7695 -15.8743,-145.524 -26.4952,-211.398 -18.9181,-117.09 -33.9314,-235.078 -67.539,-349.341 -12.579,-42.7086 -21.5162,-87.28 -37.0857,-128.987 -3.8324,-10.2629 -11.5543,-39.8781 -27.4286,-34.7352 z m -5022.68,62.4686 c -14.0952,5.7143 -17.3676,45.2343 -20.0571,58.259 -11.7486,56.88 -26.7276,113.131 -38.3962,170.19 -15.3867,75.2267 -17.7105,152.69 -35.2457,227.52 -7.7943,33.2686 -26.141,96.0762 -12.3924,128.968 8.2438,19.7067 51.0438,54.2476 71.0019,61.6457 11.5429,4.2819 23.0705,-2.419 34.0381,4.6934 16.5181,10.6971 29.1429,27.8057 44.7886,39.9352 57.981,44.8952 119.848,94.5905 182.731,132.084 56.0762,33.4286 111.181,67.4705 168.4,99.1238 12.56,6.9333 46.5981,33.3752 61.52,25.9962 12.6286,-6.2705 -5.501,-36.4038 -9.2267,-44.5752 -20.6552,-45.341 -42.7962,-89.8933 -65.299,-134.358 -13.6343,-26.9638 -32.659,-50.6095 -47.1352,-77.0362 -50.7162,-92.5829 -100.789,-186.869 -147.989,-281.265 -34.1143,-68.2362 -56.2857,-142.404 -92.6705,-209.604 -27.4667,-50.7162 -42.4648,-105.124 -65.4743,-157.65 -3.8362,-8.7619 -15.0095,-49.4286 -28.5943,-43.9276 z m 5231.8,959.897 c -18.6133,2.9372 -38.3886,20.3886 -55.4438,28.4495 -47.5848,22.4838 -94.1257,46.0952 -143.318,65.1543 -158.171,61.3257 -313.691,129.813 -465.79,204.305 -41.7943,20.4571 -82.6743,41.4552 -123.611,63.6152 -20.1905,10.9448 -44.5181,20.1524 -60.1029,37.6571 -20.3352,22.842 -29.8286,55.9276 -44.9486,82.2095 -56.7543,98.6781 -94.019,206.7731 -148.354,306.347 -48.819,89.4477 -100.914,178.59 -154.499,265.139 -13.1848,21.2991 -26.5143,42.1714 -40.88,62.701 -4.32,6.1639 -12.5067,16.141 -7.2572,23.9162 6.3772,9.4248 30.4038,6.2705 40.4152,6.6286 37.2838,1.3105 73.5238,8.8686 111.074,8.8686 151.611,0 302.297,11.1086 453.246,-12.1448 64.6552,-9.9619 125.512,-33.0171 186.316,-55.8248 30.9752,-11.6076 64.8876,-17.6648 94.9486,-31.3333 44.8038,-20.3848 91.2381,-57.6495 127.196,-90.899 131.299,-121.41 193.284,-297.063 229.543,-467.272 26.1714,-122.846 24.0952,-256.865 17.7181,-381.589 -1.5581,-30.6895 0.4457,-60.7314 -0.072,-91.3676 -0.179,-10.1905 -1.9009,-26.8152 -16.179,-24.56 z m -5336.47,16.7314 c -15.4362,2.8153 -11.0324,30.4914 -13.2724,41.8667 -8.9524,45.3981 -2.8419,91.101 -9.7524,136.156 -16.4571,107.345 4.2133,220.37 19.9467,326.05 14.2971,96.0419 26.3581,188.895 65.4324,279.474 32.4152,75.1314 88.6019,135.025 146.968,190.023 56.1295,52.9029 117.592,108.884 186.316,145.181 162.933,86.0267 353.71,96.5448 533.863,96.5448 81.1543,0 158.133,-8.8152 238.267,-21.9467 22.9486,-3.7638 51.7219,0.5715 73.3981,-6.88 11.9848,-4.1219 16.7886,-14.9599 13.0057,-26.7124 -8.5981,-26.621 -29.36,-57.7752 -43.1924,-82.4076 -37.8705,-67.36 -85.7219,-130.705 -125.886,-197.063 -24.3314,-40.2019 -41.8514,-84.4495 -65.0857,-125.406 -40.5943,-71.4971 -87.8019,-140.381 -129.829,-211.394 -15.8019,-26.6743 -25.8171,-71.2838 -47.1695,-92.5676 -13.3829,-13.3105 -33.4667,-16.2819 -49.661,-24.8648 -46.0762,-24.4343 -93.6076,-46.061 -139.737,-70.3695 -119.368,-62.9333 -230.297,-138.876 -347.55,-205.592 -44.0152,-25.0438 -91.0133,-45.3943 -134.358,-71.3371 -25.04,-14.9752 -51.2457,-40.1448 -78.8267,-49.4629 -10.7048,-3.6 -20.0457,4.1753 -30.4571,1.8096 -20.9562,-4.781 -37.9695,-35.5429 -62.419,-31.101 z m 1270.21,605.829 c -14.7086,4.0686 -6.7353,24.7771 -3.76,34.3962 10.0114,32.32 33.5543,58.7276 52.7238,85.9924 25.4552,36.2057 43.5505,77.1048 66.8914,114.655 22.8229,36.7429 50.4152,70.4076 72.8267,107.49 29.7371,49.1924 60.1905,105.554 103.189,144.644 32.64,29.6876 110.301,-5.7142 148.514,-10.0838 32.5333,-3.7104 62.9333,-13.76 94.9486,-19.4019 84.701,-14.941 167.093,-29.6343 250.808,-49.9657 42.3162,-10.2667 97.6914,-8.5295 135.794,-31.0476 20.2971,-11.9848 2.9028,-34.019 -12.1981,-40.7733 -45.0019,-20.1371 -101.021,-37.5124 -148.678,-50.861 -74.1676,-20.7619 -140.255,-57.4324 -211.394,-85.3981 -114.834,-45.1276 -233.181,-84.899 -349.341,-126.766 -48.8724,-17.6114 -96.5067,-38.2667 -145.109,-56.5067 -13.7257,-5.139 -40.6324,-20.4038 -55.2152,-16.3733 z m 2715.34,53.1733 c -18.5029,0.5715 -45.3752,18.0914 -62.4686,25.6152 -54.2095,23.8819 -104.964,52.4038 -157.65,79.2381 -25.0819,12.7733 -53.2076,16.3771 -78.8267,27.68 -101.611,44.8229 -204.373,88.3543 -309.928,123.379 -46.6514,15.4971 -94.4648,33.4819 -143.318,40.2552 -12.0571,1.6839 -44.9143,4.4419 -49.2305,18.7581 -3.7258,12.3962 20.4762,14.1524 27.7333,15.6762 33.4286,7.0553 67.7905,12.6819 100.324,23.2876 105.211,34.3429 209.87,63.5962 320.674,72 33.0362,2.4915 66.8952,10.2476 100.324,6.2705 35.3638,-4.1905 52.1333,-58.3124 65.8552,-85.4705 43.8362,-86.7276 99.501,-166.537 150.358,-249.017 14.4229,-23.3981 27.4286,-48.7314 39.5048,-73.4514 3.2952,-6.7733 11.1771,-24.6705 -3.3524,-24.221 z m -1230.52,468.472 c -13.5619,3.1886 -23.9695,14.2057 -37.6229,17.9505 -75.8325,20.8344 -153.745,33.7714 -229.31,56.4152 -29.0933,8.7239 -54.8724,25.6533 -84.1981,34.0724 -24.7048,7.1124 -50.7733,6.1981 -75.2419,13.581 -40.2552,12.1638 -76.7314,32.0686 -118.24,41.6 -45.8971,10.5486 -92.3848,13.6495 -137.943,26.5676 -54.461,15.44 -109.623,24.739 -164.819,36.7771 -12.2514,2.6705 -47.939,3.3677 -54.0305,15.821 -6.8419,13.9733 37.7295,40.1829 46.221,49.3181 50.4114,54.2476 105.284,99.1429 169.044,136.888 83.4476,49.4095 156.933,110.91 245.436,152.724 68.2171,32.2287 148.137,47.9048 222.141,59.2649 100.019,15.3524 199.181,25.5085 299.181,2.758 214.0649,-48.6743 416.987,-155.25 571.4859,-310.484 35.0591,-35.2189 72.3048,-71.2838 104.1031,-109.28 8.1676,-9.7638 31.2075,-25.101 29.4857,-39.341 -2.0419,-16.7695 -27.6952,-19.1695 -40.4306,-21.3905 -46.6171,-8.1523 -93.158,-16.141 -139.737,-24.5981 -140.903,-25.5656 -279.509,-60.4076 -417.417,-98.2095 -42.2629,-11.5733 -84.5943,-20.3505 -127.196,-30.3276 -17.7524,-4.16 -42.7276,-14.3695 -60.9105,-10.1067 z"
        style="fill: rgb(16, 14, 12); stroke: rgb(19, 21, 22); stroke-width: 0.967619;"/>
 </g>
</svg>