<svg
        xmlns:cc="http://creativecommons.org/ns#"
        xmlns="http://www.w3.org/2000/svg"
        xml:space="preserve" width="6.9869423in"
        height="7.2717161in"
        style="fill-rule:evenodd;image-rendering:optimizeQuality;shape-rendering:geometricPrecision;text-rendering:geometricPrecision"
        viewBox="0 0 6986.9423 7479.4889"
        version="1.1"
>
<g transform="translate(-428.7951,-1985.5034)">
  <path d="M 2221.29 1986.9 c -47.0667 9.8057 -39.5276 52.819 -39.5276 90.5829 c 0 86.6324 8.7543 173.002 12.3543 259.394 c 4.0495 97.181 9.4629 199.135 0 296.453 c -15.5048 159.467 -66.4838 321.112 -105.406 476.792 c -16.3733 65.501 -14.2857 136.282 -27.1771 202.575 c -4.1181 21.1924 -7.4781 59.5886 -21.4057 76.5867 c -11.4552 13.9695 -47.2076 -4.0114 -60.941 -7.8248 c -52.339 -14.541 -139.204 -40.8495 -172.107 -86.4648 c -22.9562 -31.8324 -53.821 -54.5295 -72.0533 -90.9943 c -77.581 -155.166 -82.6552 -340.202 -163.874 -494.088 c -21.7448 -41.2 -47.4819 -94.3238 -88.5219 -119.402 c -25.6152 -15.6571 -66.3962 -2.64 -75.76 27.9962 c -9.6229 31.4933 0.6552 67.3448 4.5295 98.819 c 9.0095 73.1771 33.9086 144.354 44.0571 217.398 c 25.5086 183.672 47.6952 376.644 153.989 536.084 c 66.6095 99.9086 150.842 191.615 241.28 270.922 c 49.2686 43.2076 106.072 82.499 138.343 139.17 c 65.0362 114.206 66.7314 263.592 79.0552 390.328 c 11.6 119.295 49.8362 245.238 21.4095 365.623 c -12.2781 52.0038 -62.3505 92.8152 -79.8781 143.288 c -11.6305 33.4971 16.4381 20.9714 20.9981 39.5238 c 5.8895 23.939 -30.7238 62.0838 -46.5257 76.1638 c -21.6381 19.3181 -63.5162 59.341 -91.4057 66.701 c -67.5543 17.84 -155.996 -7.7066 -224.808 -14.4 c -96.5638 -9.3904 -184.903 -36.9105 -274.217 -72.88 c -81.1162 -32.659 -170.945 -61.4895 -231.81 -129.695 c -28.6743 -32.141 -51.7867 -85.3295 -68.7619 -123.524 c -17.0286 -38.3162 -11.6952 -85.3524 -15.6457 -125.992 c -10.1295 -104.175 2.7315 -209.417 -7.4095 -313.745 c -4.179 -42.96 0.8419 -89.1619 -5.7638 -131.756 c -12.8762 -82.9638 -37.0705 -165.768 -48.5867 -248.69 c -4.8191 -34.6857 -22.8876 -65.2038 -31.2952 -98.8152 c -20.0533 -80.2248 -50.2019 -162.541 -84.4038 -237.162 c -14.4152 -31.4476 -33.821 -84.4152 -74.5257 -88.9371 c -76.1714 -8.4647 -31.3829 120.606 -23.0552 160.579 c 2.8609 13.7333 5.2648 45.4438 14.4076 55.9962 c 22.9562 26.4876 13.4362 84.3619 26.7657 124.343 c 73.6457 220.933 33.76 445.322 33.76 671.958 c 0 63.8629 11.5886 153.909 -16.0571 212.457 c -7.5657 16.0343 -12.6324 38.0952 -28.4076 48.1752 c -37.101 23.6914 -55.1124 -10.6971 -86.4648 -25.939 c -86.6057 -42.0952 -156.137 -114.457 -181.992 -207.516 c -22.8533 -82.2895 -18.8914 -180.122 -10.7048 -264.339 c 10.7505 -110.549 6.461 -224.545 17.2952 -335.977 c 4.4952 -46.2514 22.64 -91.7181 27.1733 -138.343 c 4.5029 -46.3048 8.2057 -92.339 15.2343 -138.347 c 3.2838 -21.4971 12.9067 -51.8743 0.8229 -71.6419 c -12.7086 -20.7962 -48.2248 -25.9429 -70.4038 -27.1733 c -30.1524 -1.6762 -47.0895 45.2267 -57.2343 66.701 c -36.08 76.4038 -41.0248 166.072 -64.64 247.044 c -36.1181 123.829 -90.4 256.423 -102.937 385.387 c -17.4514 179.501 22.4343 345.17 96.3467 506.438 c 8.7352 19.0476 10.541 41.0362 20.1752 59.2914 c 56.0114 106.13 140.899 201.81 226.457 284.518 c 84.8686 82.0457 159.017 168.263 257.337 231.802 c 116.941 75.5695 256.644 147.36 392.796 179.528 c 25.2267 5.9543 55.5657 0.3924 79.0552 6.1753 c 8.7315 2.1485 3.92 19.1962 17.2914 23.4705 c 55.139 17.6114 116.583 19.539 172.933 31.2724 c 49.0629 10.2286 100.579 23.9657 150.693 28.8305 c 90.861 8.8457 182.667 13.341 274.221 22.2362 c 43.4248 4.2247 87.2267 -4.2515 130.933 0 c 90.8305 8.819 186.114 -8.7962 276.686 0 c 112.282 10.9181 223.87 31.101 335.981 41.9962 c 68.0343 6.6209 131.204 12.2019 197.634 28.8305 c 66.1333 16.5257 128.411 21.3676 190.221 52.2743 c 9.8096 4.9143 28.8305 6.9181 35.8248 15.661 c 7.9048 9.859 -13.2419 30.7314 -18.1105 39.1086 c -16.4762 28.2133 -14.6476 81.4476 -59.7105 70.8267 c -104.72 -24.7276 -202.945 -92.221 -296.45 -142.891 c -40.541 -21.9619 -96.3962 -52.2743 -138.347 -14.4 c -45.4552 41.0324 -26.1371 80.56 -15.6381 130.933 c 14.1067 67.7867 33.6495 136.59 84.8114 187.752 c 26.3352 26.3352 42.7886 44.1219 62.179 76.5829 c 7.3867 12.3771 20.48 29.421 29.6227 34.4691 c 2087 626 2361.0135 657.918 2443.6725 553.491 c 25.6686 -32.4114 55.661 -60.7733 77.4248 -96.3467 c 50.5676 -82.7848 65.1695 -183.208 95.5048 -274.217 c 20.3314 -60.9943 48.1486 -122.362 71.6457 -182.811 c 23.0705 -59.3143 59.6571 -131.924 43.2305 -197.634 c -13.4629 -53.8819 -82.2895 -96.3733 -132.983 -106.229 c -18.7276 -3.6343 -38.4914 -3.3105 -57.2419 -4.5219 c -1.8743 -0.1257 -16.8724 0.2971 -16.8724 -2.0762 c 0 -3.0362 30.9562 -9.0171 34.5867 -9.8819 c 36.1905 -8.5219 72.8533 -11.0895 108.701 -23.0476 c 45.4057 -15.1429 86.5867 -27.8171 128.461 -52.301 c 16.5029 -9.6343 31.2495 -41.28 44.0495 -46.9371 c 12.4 -5.4857 31.2 3.6305 47.3562 -5.3371 c 45.6533 -25.3714 79.7448 -65.4895 123.524 -92.2438 c 11.3371 -6.9181 27.3219 -5.5086 39.5238 -11.1162 c 166.88 -76.4876 331.09 -178.762 457.032 -318.267 c 44.6895 -49.5086 78.3619 -104.747 116.926 -158.107 c 7.0133 -9.6877 21.5429 -3.3105 31.299 -12.3543 c 22.6286 -20.9981 48.2476 -48.7162 65.8857 -74.1143 c 65.9848 -95.0362 107.737 -214.579 186.099 -301.39 c 42.541 -47.1352 109.71 -98.8419 167.989 -124.758 c 9.5619 -4.2477 23.3714 1.8285 34.5867 -2.0496 c 41.1581 -14.3048 88.4419 -45.5314 121.051 -74.1143 c 72.9029 -63.9352 103.387 -158.823 153.981 -236.347 c 25.2229 -38.6362 58.2781 -69.4438 80.2895 -111.17 c 77.3257 -146.491 133.848 -295.76 174.168 -457.029 c 16.9714 -67.8819 38.7086 -147.417 38.7086 -217.398 c 0 -33.1848 -10.2248 -68.461 -46.9371 -80.701 c -24.1371 -8.0419 -46.5676 22.6286 -55.5848 41.1733 c -26.0381 53.5429 -35.2762 124.811 -47.3562 182.811 c -6.4 30.7962 -23.0514 36.259 -37.4552 61.7638 c -13.3143 23.52 -24.3581 51.3448 -34.1905 76.5829 c -24.8 63.8133 -40.9333 134.651 -60.9181 200.103 c -34.9829 114.45 -99.5352 222.663 -179.528 311.276 c -41.5276 46 -86.7848 86.9105 -140.815 116.926 c -8.1524 4.5448 -43.6267 28.1638 -51.459 22.6514 c -8.5715 -6 13.44 -53.581 16.0571 -62.9943 c 18.9486 -68.2819 45.8514 -135.109 68.3314 -202.575 c 23.3981 -70.1448 58.3543 -134.484 84.8343 -202.575 c 29.4514 -75.7714 54.7238 -171.116 62.579 -251.985 c 3.4323 -35.3905 -24.5829 -66.7771 -59.2914 -43.6457 c -47.901 31.939 -77.9429 99.779 -107.044 147.406 c -42.2438 69.101 -94.8648 131.284 -129.699 205.044 c -41.3524 87.5467 -53.8057 187.604 -94.7162 274.217 c -115.097 243.76 -307.345 421.901 -486.255 620.08 c -80.8571 89.5771 -140.37 199.634 -239.63 271.326 c -28.3619 20.48 -83.2533 60.4038 -121.051 51.4857 c -22.8762 -5.4095 -55.4362 -12.1562 -70.8267 -31.7219 c -9.6115 -12.2019 -4.5943 -28.0381 -3.2877 -41.5771 c 4.5486 -46.64 21.2724 -85.8971 32.5371 -130.933 c 45.6267 -182.537 133.109 -355.939 188.149 -536.084 c 19.9352 -65.2419 20.8495 -132.758 37.0552 -197.634 c 29.5238 -118.065 71.3714 -236.739 83.181 -358.213 c 8.6705 -89.0857 8.4229 -181.291 25.52 -269.276 c 17.6876 -90.9029 54.4724 -182.198 63.4133 -274.217 c 8.8686 -91.2571 13.341 -182.819 22.2362 -274.217 c 6.9677 -71.539 12.7962 -143.337 19.7638 -214.93 c 2.1219 -21.8857 12.0305 -44.5029 9.8819 -66.701 c -6.2285 -63.9467 -24.2362 -134.453 -44.4686 -195.166 c -29.8667 -89.5771 -62.2057 -175.771 -100.472 -261.863 c -24.781 -55.7867 -49.3333 -118.45 -91.4057 -163.463 c -29.2267 -31.2762 -43.2343 -74.8724 -87.28 -90.1714 c -36.9105 -12.8114 -105.81 24.7771 -95.5314 68.3505 c 20.381 86.2667 89.7257 147.425 121.89 227.28 c 49.8781 123.882 50.2248 264.419 50.2248 395.269 c 0 64.7124 -8.5485 133.101 -14.8229 197.634 c -10.5257 108.343 -4.5219 215.295 -35.4019 321.158 c -31.1276 106.659 -65.6152 214.895 -89.7752 323.627 c -32.461 146.145 -53.1657 298.613 -93.0362 442.206 c -45.5314 163.912 -97.6571 326.171 -136.712 491.615 c -39.4286 167.051 -118.065 357.326 -265.154 455.375 c -26.6819 17.8133 -77.0514 57.8819 -108.697 60.9448 c -79.2267 7.7105 -177.253 -6.3962 -249.516 -39.5238 c -25.0971 -11.4895 -46.8114 -29.8705 -71.6419 -41.5771 c -27.5695 -13.021 -48.3695 -29.8705 -74.1105 -44.8876 c -10.5752 -6.179 -23.101 -5.1885 -29.2267 -17.2952 c -19.8362 -39.1048 0.6667 -93.7029 4.5219 -133.402 c 7.8058 -80.1905 21.8629 -159.691 29.6419 -239.634 c 7.0172 -72.1829 25.101 -142.815 32.1181 -214.926 c 6.4458 -66.259 -1.4819 -133.924 4.941 -200.107 c 6.6933 -68.7429 22.9486 -136.21 29.6457 -205.044 c 7.9276 -81.6076 0.4419 -173.6 -7.4133 -254.457 c -7.04 -72.3657 -3.1848 -143.227 -18.1067 -214.926 c -11.1924 -53.7029 -43.4819 -116.571 -67.939 -165.52 c -21.2457 -42.4648 -45.901 -115.623 -101.707 -121.051 c -49.7067 -4.8304 -62.9448 56.3162 -59.2914 93.8781 c 11.3638 116.796 60.9219 230.008 49.4095 348.331 c -15.9848 164.286 -69.7143 316.198 -105.413 476.792 c -29.9657 134.884 -41.8476 275.577 -55.1657 412.564 c -9.9543 102.347 -31.7448 201.832 -90.5905 286.568 c -9.4591 13.6381 -14.179 36.4876 -27.9886 46.1257 c -56.5486 39.3257 -134.171 7.3105 -192.693 0.8153 c -25.7181 -2.8686 -56.6248 0.8609 -81.5238 -5.3638 c -18.7505 -4.6667 -86.3162 -25.1238 -90.1714 -46.5181 c -2.8648 -15.9086 21.4171 -51.4095 27.5962 -66.701 c 21.44 -53.2876 36.56 -120.335 34.1638 -177.87 c -2.8648 -68.5295 -68.0838 -31.821 -90.1714 0 c -12.1029 17.4171 -28.0381 31.299 -39.1048 49.4095 c -22.3581 36.5867 -47.8781 58.4 -77.0057 88.9333 c -5.9772 6.2514 -4.3962 19.4171 -10.301 23.8895 c -6.4953 4.9409 -21.219 -6.2743 -26.7543 -9.8819 c -23.4438 -15.3143 -48.8419 -24.6057 -74.1143 -35.821 c -6.4457 -2.8648 -22.7771 -3.8781 -23.8895 -12.7733 c -2.0724 -16.6476 26.659 -48.7162 33.7714 -64.2286 c 35.3524 -77.1048 96.2743 -138.221 135.455 -212.457 c 27.0248 -51.1886 54.5714 -108.701 68.7771 -165.52 c 19.539 -78.221 22.1333 -162.274 43.6267 -239.63 c 38.3162 -137.95 101.337 -273.89 115.295 -417.505 c 6.2514 -64.2057 5.2609 -118.804 -4.5219 -182.811 c -4.3467 -28.3543 -9.261 -62.8305 -35.0057 -80.701 c -31.0781 -21.581 -58.6971 -3.181 -65.8857 31.2914 c -9.5619 45.8781 -6.2019 89.7067 -10.6971 135.874 c -3.4591 35.6152 -16.4762 69.2495 -25.1238 103.756 c -24.2857 97.1886 -82.4648 191.208 -125.15 281.63 c -36.5638 77.4248 -38.8114 170.537 -74.9562 247.044 c -33.0514 70.0114 -89.0324 120.979 -140.392 177.87 c -39.4552 43.7029 -73.9429 92.6438 -110.75 138.347 c -7.1162 8.819 -30.56 41.9962 -42.4152 41.9962 c -16.48 0 -35.4286 -59.1657 -42 -71.6419 c -40.3924 -76.5333 -68.1105 -155.07 -101.288 -234.693 c -37.28 -89.4933 -58.5486 -184.446 -94.6895 -274.217 c -25.9657 -64.4305 -70.0152 -158.602 -55.1924 -229.749 c 10.7962 -51.7714 40.8381 -99.0362 55.1924 -150.697 c 28.4571 -102.45 37.8933 -210.08 60.9181 -313.745 c 9.5352 -42.88 57.981 -118.602 28.4114 -160.579 c -26.7314 -37.9619 -82.4152 -33.8971 -100.053 9.8819 c -40.5143 100.629 -40.7124 216.095 -82.7581 313.745 c -11.8819 27.6457 -19.1733 56.0533 -30.0419 83.9962 c -1.8019 4.6171 -8.6705 28.0419 -15.661 23.8819 c -16.4533 -9.8096 -27.9924 -65.3676 -35.4019 -83.1733 c -17.0705 -40.9486 -40.4648 -75.0819 -61.341 -113.642 c -22.9752 -42.381 -43.0362 -93.0133 -77.0019 -128.461 c -25.0514 -26.141 -44.099 -62.5867 -86.4686 -46.1143 c -53.7295 20.899 -7.581 111.817 5.7562 144.933 c 56.8952 141.219 123.105 278.107 163.89 424.914 c 13.9848 50.3619 -6.72 86.8533 -23.0743 135.87 c -16.1295 48.4533 -28.16 99.3029 -44.4686 148.229 c -46.541 139.684 -71.1467 277.131 -62.5752 424.914 c 6.4495 111.093 37.8971 218.731 89.3562 316.213 c 25.7181 48.7695 95.4819 105.143 100.869 160.579 c 8.4 86.5143 -46.8876 147.509 -83.5733 219.87 c -9.2915 18.3276 -39.7257 74.7276 -59.7105 81.101 c -50.4495 16.0838 -117.867 -16.9448 -167.992 -21.8133 c -82.659 -8.0267 -177.474 -21.3943 -251.985 -61.76 c -97.8514 -53.0133 -160.225 -210.975 -170.457 -316.213 c -3.6 -37.0095 -0.141 -74.3352 -5.7639 -111.17 c -24.8419 -162.579 -13.0286 -331.31 -46.9371 -494.088 c -34.2971 -164.61 -83.3257 -336.937 -85.6457 -503.97 c -0.3085 -22.4648 -9.6342 -43.8362 -7.4095 -66.701 c 13.6571 -140.465 41.6952 -281.497 72.4648 -419.973 c 22.7619 -102.427 60.4114 -212.712 55.9962 -318.686 c -3.0781 -73.9429 -0.2095 -148.282 -7.4095 -222.339 c -12.2057 -125.524 -39.3752 -252.796 -68.3505 -375.505 c -10.9486 -46.3771 -24.339 -100.579 -54.7581 -138.347 c -14.3581 -17.8171 -31.8095 -36.5867 -57.2343 -31.2914 Z M 3177.298 3942.17 c -6.7924 1.92 -9.6838 26.7771 -11.2876 32.6019 c -9.44 34.5562 -13.2419 70.4267 -13.3676 106.229 c -0.221 63.1962 -13.4857 135.775 2.7695 197.634 c 18.0571 68.8267 71.0476 133.257 111.242 190.225 c 22.3086 31.6229 45.0362 63.0705 68.5067 93.8781 c 6.621 8.6438 17.9581 27.0971 31.299 22.061 c 42.7124 -16.1829 -16.0838 -94.2248 -26.6057 -118.408 c -53.6838 -123.352 -97.9276 -248.526 -125.573 -380.45 c -7.9047 -37.7486 -20.0114 -72.979 -26.9029 -111.17 c -0.64 -3.6152 -4.9638 -34.0495 -10.08 -32.6019 Z M 3631.043 4914.623 c -10.7695 2.4952 -31.6952 48.621 -40.7619 58.8724 c -50.8648 57.4857 -101.855 117.345 -152.328 175.623 c -6.621 7.6343 -58.621 62.7962 -28.0114 62.3276 c 89.9238 -1.3562 176.857 -97.2838 232.541 -157.143 c 16.9448 -18.2324 49.901 -39.4057 59.4133 -62.6019 c 6.4229 -15.6381 -55.139 -80.6857 -70.8533 -77.0781 Z M 3942.418 5142.817 c -14.2057 7.6343 -17.5429 31.5733 -23.9162 44.9371 c -13.5352 28.3848 -36.4876 51.9771 -52.6171 79.0552 c -45.8019 76.9029 -76.4876 158.552 -119.349 237.086 c -15.1695 27.8171 -48.941 43.2571 -60.9714 71.7905 c -9.8819 23.4933 -5.4819 60.1562 -11.8552 86.3924 c -9.6343 39.699 -59.021 104.13 -47.8057 145.707 c 18.4076 68.0838 115.89 27.5924 154.232 10.0533 c 96.541 -44.221 153.04 -135.676 239.977 -191.73 c 36.659 -23.6419 90.541 -45.8248 133.055 -55.6076 c 38.6133 -8.8952 84.7619 -10.5257 118.533 -33.2533 c 42.4648 -28.5829 42.2933 -109.81 64.3276 -154.328 c 9.1657 -18.5029 31.9429 -41.0362 35.5276 -60.9448 c 1.9733 -10.8952 -13.2419 -15.3181 -20.7543 -18.7505 c -23.6914 -10.8229 -47.3562 -21.6419 -71.6419 -31.0552 c -84.7086 -32.88 -166.358 -76.56 -251.985 -106.35 c -18.4038 -6.4 -66.4533 -32.8838 -84.7581 -23.0019 Z M 4668.106 5410.737 c -2.6933 5.3105 13.1695 12.6743 16.2552 14.1562 c 12.3543 5.9276 47.1848 14.8229 56.7962 -0.7429 c 2.2971 -3.7295 -67.12 -24.9752 -73.0514 -13.4133 Z M 5319.215 5724.653 c -17.3905 3.3867 -38.3924 -2.3962 -54.3505 2.4724 c -72.061 22.0343 -142.347 35.3029 -209.985 72.8762 c -19.4933 10.8457 -38.9105 21.84 -59.2914 30.88 c -2.099 0.9409 -17.0476 7.7066 -15.6381 10.301 c 2.1981 4.0762 17.1924 -0.9867 20.579 -1.6533 c 21.0705 -4.1029 44.3429 -12.0305 64.2324 -19.7638 c 61.3638 -23.8629 125.916 -48.9143 187.752 -70.4076 c 18.3543 -6.3734 75.3714 -9.3867 87.28 -23.8629 c 0.9371 -1.1391 -18.259 -1.2877 -20.579 -0.842 Z M 4839.211 5901.118 c -38.64 5.6571 -74.24 35.0057 -110.43 47.901 c -132.811 47.3562 -260.286 116.899 -387.859 177.821 c -36.2133 17.3181 -71.1467 37.699 -106.229 57.1657 c -8.2514 4.5714 -31.6686 13.7105 -33.6686 24.0114 c -1.8781 9.5391 29.3219 18.259 36.141 20.061 c 78.0648 20.6552 173.87 -22.8 247.044 -45.0362 c 17.7371 -5.4095 68.0114 -8.4495 79.3486 -20.0076 c 28.88 -29.4743 51.2114 -67.3448 79.0781 -98.2743 c 37.4781 -41.5543 79.5238 -73.7181 123.2 -107.836 c 16.0114 -12.499 61.9619 -54.1257 73.3752 -55.8057 Z"
        style="fill: rgb(16, 14, 12); stroke: rgb(19, 21, 22); stroke-width: 0.967619;"/>
</g>
</svg>