<svg
        xmlns:cc="http://creativecommons.org/ns#"
        xmlns="http://www.w3.org/2000/svg"
        xml:space="preserve" width="6.9869423in"
        height="7.2717161in"
        style="fill-rule:evenodd;image-rendering:optimizeQuality;shape-rendering:geometricPrecision;text-rendering:geometricPrecision"
        viewBox="0 0 6986.9423 7479.4889"
        version="1.1"
>
<g transform="translate(-428.7951,-1985.5034)">
  <path d="M 3523 5984 L 4159 6288 c 19 -31 40 -70 42 -80 c 2 -10 25 -19 34 -24 c 35 -19 70 -40 90 -96 c 18 -50 270 -115 378 -168 c 54 12 95 -8 136 -19 c 37 -9 66 -18 90 -32 c 27 -9 51 -23 51 -28 c 0 -3 13 -9 16 -10 c 20 -9 39 -20 59 -31 c 68 -38 138 -51 210 -73 c 16 -5 37 1 54 -2 c 3 -1 14 -1 21 0 c 1 0 6 1 6.381 -0.3448 c 0.619 -2.6552 30.9562 -9.0171 34.5867 -9.8819 c 36.1905 -8.5219 72.8533 -11.0895 108.701 -23.0476 c 45.4057 -15.1429 86.5867 -27.8171 128.461 -52.301 c 16.5029 -9.6343 31.2495 -41.28 44.0495 -46.9371 c 12.4 -5.4857 31.2 3.6305 47.3562 -5.3371 c 45.6533 -25.3714 79.7448 -65.4895 123.524 -92.2438 c 11.3371 -6.9181 27.3219 -5.5086 39.5238 -11.1162 c 166.88 -76.4876 331.09 -178.762 457.032 -318.267 c 44.6895 -49.5086 78.3619 -104.747 116.926 -158.107 c 7.0133 -9.6877 21.5429 -3.3105 31.299 -12.3543 c 22.6286 -20.9981 48.2476 -48.7162 65.8857 -74.1143 c 65.9848 -95.0362 107.737 -214.579 186.099 -301.39 c 42.541 -47.1352 109.71 -98.8419 167.989 -124.758 c 9.5619 -4.2477 23.3714 1.8285 34.5867 -2.0496 c 41.1581 -14.3048 88.4419 -45.5314 121.051 -74.1143 c 72.9029 -63.9352 103.387 -158.823 153.981 -236.347 c 25.2229 -38.6362 58.2781 -69.4438 80.2895 -111.17 c 77.3257 -146.491 133.848 -295.76 174.168 -457.029 c 16.9714 -67.8819 38.7086 -147.417 38.7086 -217.398 c 0 -33.1848 -10.2248 -68.461 -46.9371 -80.701 c -24.1371 -8.0419 -46.5676 22.6286 -55.5848 41.1733 c -26.0381 53.5429 -35.2762 124.811 -47.3562 182.811 c -6.4 30.7962 -23.0514 36.259 -37.4552 61.7638 c -13.3143 23.52 -24.3581 51.3448 -34.1905 76.5829 c -24.8 63.8133 -40.9333 134.651 -60.9181 200.103 c -34.9829 114.45 -99.5352 222.663 -179.528 311.276 c -41.5276 46 -86.7848 86.9105 -140.815 116.926 c -8.1524 4.5448 -43.6267 28.1638 -51.459 22.6514 c -8.5715 -6 13.44 -53.581 16.0571 -62.9943 c 18.9486 -68.2819 45.8514 -135.109 68.3314 -202.575 c 23.3981 -70.1448 58.3543 -134.484 84.8343 -202.575 c 29.4514 -75.7714 54.7238 -171.116 62.579 -251.985 c 3.4323 -35.3905 -24.5829 -66.7771 -59.2914 -43.6457 c -47.901 31.939 -77.9429 99.779 -107.044 147.406 c -42.2438 69.101 -94.8648 131.284 -129.699 205.044 c -41.3524 87.5467 -53.8057 187.604 -94.7162 274.217 c -115.097 243.76 -307.345 421.901 -486.255 620.08 c -80.8571 89.5771 -140.37 199.634 -239.63 271.326 c -28.3619 20.48 -83.2533 60.4038 -121.051 51.4857 c -22.8762 -5.4095 -55.4362 -12.1562 -70.8267 -31.7219 c -9.6115 -12.2019 -4.5943 -28.0381 -3.2877 -41.5771 c 4.5486 -46.64 21.2724 -85.8971 32.5371 -130.933 c 45.6267 -182.537 133.109 -355.939 188.149 -536.084 c 19.9352 -65.2419 20.8495 -132.758 37.0552 -197.634 c 29.5238 -118.065 71.3714 -236.739 83.181 -358.213 c 8.6705 -89.0857 8.4229 -181.291 25.52 -269.276 c 17.6876 -90.9029 54.4724 -182.198 63.4133 -274.217 c 8.8686 -91.2571 13.341 -182.819 22.2362 -274.217 c 6.9677 -71.539 12.7962 -143.337 19.7638 -214.93 c 2.1219 -21.8857 12.0305 -44.5029 9.8819 -66.701 c -6.2285 -63.9467 -24.2362 -134.453 -44.4686 -195.166 c -29.8667 -89.5771 -62.2057 -175.771 -100.472 -261.863 c -24.781 -55.7867 -49.3333 -118.45 -91.4057 -163.463 c -29.2267 -31.2762 -43.2343 -74.8724 -87.28 -90.1714 c -36.9105 -12.8114 -105.81 24.7771 -95.5314 68.3505 c 20.381 86.2667 89.7257 147.425 121.89 227.28 c 49.8781 123.882 50.2248 264.419 50.2248 395.269 c 0 64.7124 -8.5485 133.101 -14.8229 197.634 c -10.5257 108.343 -4.5219 215.295 -35.4019 321.158 c -31.1276 106.659 -65.6152 214.895 -89.7752 323.627 c -32.461 146.145 -53.1657 298.613 -93.0362 442.206 c -45.5314 163.912 -97.6571 326.171 -136.712 491.615 c -39.4286 167.051 -118.065 357.326 -265.154 455.375 c -26.6819 17.8133 -77.0514 57.8819 -108.697 60.9448 c -79.2267 7.7105 -177.253 -6.3962 -249.516 -39.5238 c -25.0971 -11.4895 -46.8114 -29.8705 -71.6419 -41.5771 c -27.5695 -13.021 -48.3695 -29.8705 -74.1105 -44.8876 c -10.5752 -6.179 -23.101 -5.1885 -29.2267 -17.2952 c -19.8362 -39.1048 0.6667 -93.7029 4.5219 -133.402 c 7.8058 -80.1905 21.8629 -159.691 29.6419 -239.634 c 7.0172 -72.1829 25.101 -142.815 32.1181 -214.926 c 6.4458 -66.259 -1.4819 -133.924 4.941 -200.107 c 6.6933 -68.7429 22.9486 -136.21 29.6457 -205.044 c 7.9276 -81.6076 0.4419 -173.6 -7.4133 -254.457 c -7.04 -72.3657 -3.1848 -143.227 -18.1067 -214.926 c -11.1924 -53.7029 -43.4819 -116.571 -67.939 -165.52 c -21.2457 -42.4648 -45.901 -115.623 -101.707 -121.051 c -49.7067 -4.8304 -62.9448 56.3162 -59.2914 93.8781 c 11.3638 116.796 60.9219 230.008 49.4095 348.331 c -15.9848 164.286 -69.7143 316.198 -105.413 476.792 c -29.9657 134.884 -41.8476 275.577 -55.1657 412.564 c -9.9543 102.347 -31.7448 201.832 -90.5905 286.568 c -9.4591 13.6381 -14.179 36.4876 -27.9886 46.1257 c -56.5486 39.3257 -134.171 7.3105 -192.693 0.8153 c -25.7181 -2.8686 -56.6248 0.8609 -81.5238 -5.3638 c -18.7505 -4.6667 -75.402 -21.7136 -89.402 -36.7136 c -74 -54 -101 -68 -124 -76 c -37 -11 -52.8113 -22.4175 -58.3466 -26.0251 c -23.4438 -15.3143 -48.8419 -24.6057 -74.1143 -35.821 c -6.4457 -2.8648 -14.5391 -10.1539 -23.8895 -12.7733 c -38.6496 -7.3806 -97.6496 4.6194 -130.6496 -32.3806 c -37 -61 -48 -54 -60 -84 c -25 -33 -33 -59 -47.3228 -88.6634 c -10.6772 -23.3366 -35.4286 -59.1657 -42 -71.6419 c -40.3924 -76.5333 -68.1105 -155.07 -101.288 -234.693 c -37.28 -89.4933 -58.5486 -184.446 -94.6895 -274.217 c -25.9657 -64.4305 -35.6997 -154.7847 -55.1924 -229.749 c -50.5073 -115.0357 -64.5073 -160.0357 -83.9921 -193.516 c -13.5152 -18.5197 -27.9924 -65.3676 -35.4019 -83.1733 c -17.0705 -40.9486 -40.4648 -75.0819 -61.341 -113.642 c -22.9752 -42.381 -43.0362 -93.0133 -77.0019 -128.461 c -25.0514 -26.141 -44.099 -62.5867 -86.4686 -46.1143 c -53.7295 20.899 -7.581 111.817 5.7562 144.933 c 56.8952 141.219 123.105 278.107 163.89 424.914 c 13.9848 50.3619 -3.948 86.0239 40.052 188.0239 c 10 67 1 99 25 151 c 26 47 40 127 49 165 c 27 133 73 258 125 380 c 11 26 64 107 82 152 c 33 83 99 123 138 219 c 14 38 42 71 72 78 c 48 11 74 34 93 69 c 32 45 198 65 239 79 c 31 8 65 16 84 22 c 86 31 167 74 253 108 c 24 9 47 20 71 30 c 8 4 19 -1 20 16 c -6 69 -46 126 -55 144 c -22 44 -22 126 -65 154 c -33 23 -79 24 -118 33 c -42 11 -96 33 -133 56 c -87 56 -144.6667 146.3333 -240 192 c -39 17 -138 51 -154 -10 l -23 1 Z M 4681 5353 c -15.5873 63.0475 -4 82 47 89 c 25 0 31 -1 88 -28 c -41 6 -128 -76 -135 -61 Z"
        style="fill: rgb(16, 14, 12); stroke: rgb(19, 21, 22); stroke-width: 0.967619;"/>
</g>
</svg>