<svg
        xmlns:cc="http://creativecommons.org/ns#"
        xmlns="http://www.w3.org/2000/svg"
        xml:space="preserve" width="6.9869423in"
        height="7.2717161in"
        style="fill-rule:evenodd;image-rendering:optimizeQuality;shape-rendering:geometricPrecision;text-rendering:geometricPrecision"
        viewBox="0 0 6986.9423 7479.4889"
        version="1.1"
>
<g transform="translate(-428.7951,-1985.5034)">
  <path d="M 2221.29 1986.9 C 2174.2233 1996.7057 2181.7624 2039.719 2181.7624 2077.4829 C 2181.7624 2164.1153 2190.5167 2250.4849 2194.1167 2336.8769 C 2198.1662 2434.0579 2203.5796 2536.0119 2194.1167 2633.3299 C 2178.6119 2792.7969 2127.6329 2954.4419 2088.7107 3110.1219 C 2072.3374 3175.6229 2074.425 3246.4039 2061.5336 3312.6969 C 2057.4155 3333.8893 2054.0555 3372.2855 2040.1279 3389.2836 C 2028.6727 3403.2531 1992.9203 3385.2722 1979.1869 3381.4588 C 1926.8479 3366.9178 1839.9829 3340.6093 1807.0799 3294.994 C 1784.1237 3263.1616 1753.2589 3240.4645 1735.0266 3203.9997 C 1657.4456 3048.8337 1652.3714 2863.7977 1571.1526 2709.9117 C 1549.4078 2668.7117 1523.6707 2615.5879 1482.6307 2590.5097 C 1457.0155 2574.8526 1416.2345 2587.8697 1406.8707 2618.5059 C 1397.2478 2649.9992 1407.5259 2685.8507 1411.4002 2717.3249 C 1420.4097 2790.502 1445.3088 2861.6789 1455.4573 2934.7229 C 1480.9659 3118.3949 1503.1525 3311.3669 1609.4463 3470.8069 C 1676.0558 3570.7155 1760.2883 3662.4219 1850.7263 3741.7289 C 1899.9949 3784.9365 1956.7983 3824.2279 1989.0693 3880.8989 C 2054.1055 3995.1049 2055.8007 4144.4909 2068.1245 4271.2269 C 2079.7245 4390.5219 2117.9607 4516.4649 2089.534 4636.8499 C 2077.2559 4688.8537 2027.1835 4729.6651 2009.6559 4780.1379 C 1998.0254 4813.635 2026.094 4801.1093 2030.654 4819.6617 C 2036.5435 4843.6007 1999.9302 4881.7455 1984.1283 4895.8255 C 1962.4902 4915.1436 1920.6121 4955.1665 1892.7226 4962.5265 C 1825.1683 4980.3665 1736.7266 4954.8199 1667.9146 4948.1265 C 1571.3508 4938.7361 1483.0116 4911.216 1393.6976 4875.2465 C 1312.5814 4842.5875 1222.7526 4813.757 1161.8876 4745.5515 C 1133.2133 4713.4105 1110.1009 4660.222 1093.1257 4622.0275 C 1076.0971 4583.7113 1081.4305 4536.6751 1077.48 4496.0355 C 1067.3505 4391.8605 1080.2115 4286.6185 1070.0705 4182.2905 C 1065.8915 4139.3305 1070.9124 4093.1286 1064.3067 4050.5345 C 1051.4305 3967.5707 1027.2362 3884.7665 1015.72 3801.8445 C 1010.9009 3767.1588 992.8324 3736.6407 984.4248 3703.0293 C 964.3715 3622.8045 934.2229 3540.4883 900.021 3465.8673 C 885.6058 3434.4197 866.2 3381.4521 825.4953 3376.9302 C 749.3239 3368.4655 794.1124 3497.5362 802.4401 3537.5092 C 805.301 3551.2425 807.7049 3582.953 816.8477 3593.5054 C 839.8039 3619.993 830.2839 3677.8673 843.6134 3717.8484 C 917.2591 3938.7814 877.3734 4163.1704 877.3734 4389.8064 C 877.3734 4453.6693 888.962 4543.7154 861.3163 4602.2634 C 853.7506 4618.2977 848.6839 4640.3586 832.9087 4650.4386 C 795.8077 4674.13 777.7963 4639.7415 746.4439 4624.4996 C 659.8382 4582.4044 590.3069 4510.0426 564.4519 4416.9836 C 541.5986 4334.6941 545.5605 4236.8616 553.7471 4152.6446 C 564.4976 4042.0956 560.2081 3928.0996 571.0423 3816.6676 C 575.5375 3770.4162 593.6823 3724.9495 598.2156 3678.3246 C 602.7185 3632.0198 606.4213 3585.9856 613.4499 3539.9776 C 616.7337 3518.4805 626.3566 3488.1033 614.2728 3468.3357 C 601.5642 3447.5395 566.048 3442.3928 543.869 3441.1624 C 513.7166 3439.4862 496.7795 3486.3891 486.6347 3507.8634 C 450.5547 3584.2672 445.6099 3673.9354 421.9947 3754.9074 C 385.8766 3878.7364 331.5947 4011.3304 319.0577 4140.2944 C 301.6063 4319.7954 341.492 4485.4644 415.4044 4646.7324 C 424.1396 4665.78 425.9454 4687.7686 435.5796 4706.0238 C 491.591 4812.1538 576.4786 4907.8338 662.0366 4990.5418 C 746.9052 5072.5875 821.0536 5158.8048 919.3736 5222.3438 C 1036.3146 5297.9133 1176.0176 5369.7038 1312.1696 5401.8718 C 1337.3963 5407.8261 1367.7353 5402.2642 1391.2248 5408.0471 C 1399.9563 5410.1956 1395.1448 5427.2433 1408.5162 5431.5176 C 1463.6552 5449.129 1525.0992 5451.0566 1581.4492 5462.79 C 1630.5121 5473.0186 1682.0282 5486.7557 1732.1422 5491.6205 C 1823.0032 5500.4662 1914.8092 5504.9615 2006.3632 5513.8567 C 2049.788 5518.0814 2093.5899 5509.6052 2137.2962 5513.8567 C 2228.1267 5522.6757 2323.4102 5505.0605 2413.9822 5513.8567 C 2526.2642 5524.7748 2637.8522 5544.9577 2749.9632 5555.8529 C 2817.9975 5562.4738 2881.1672 5568.0548 2947.5972 5584.6834 C 3013.7305 5601.2091 3076.0082 5606.051 3137.8182 5636.9577 C 3147.6278 5641.872 3166.6487 5643.8758 3173.643 5652.6187 C 3181.5478 5662.4777 3160.4011 5683.3501 3155.5325 5691.7273 C 3139.0563 5719.9406 3140.8849 5773.1749 3095.822 5762.554 L 3021 6090 L 3478 6207 L 3744 5904 L 3634 5808 C 3614 5766 3664 5702 3668 5661 C 3680 5636 3676 5599 3685 5576 C 3698 5547 3731 5532 3746 5504 C 3789 5426 3820 5344 3865 5267 C 3882 5240 3905 5216 3931 5161 C 3940 5136 3950 5071 3963 5063 C 4011 4862 4057 4784 4085.2306 4733.1955 C 4082.3658 4717.2869 4106.6477 4681.786 4112.8268 4666.4945 C 4134.2668 4613.2069 4149.3868 4546.1595 4146.9906 4488.6245 C 4144.1258 4420.095 4078.9068 4456.8035 4056.8192 4488.6245 C 4044.7163 4506.0416 4028.7811 4519.9235 4017.7144 4538.034 C 3995.3563 4574.6207 3969.8363 4596.434 3940.7087 4626.9673 C 3934.7315 4633.2187 3936.3125 4646.3844 3930.4077 4650.8568 C 3923.9124 4655.7977 3841 4775 3722 4983 C 3693 5015 3659 5036 3643 5054 C 3587 5115 3500 5210 3410 5212 C 3379 5212 3431 5157 3438 5149 C 3488 5091 3539 5031 3590 4974 C 3599 4963 3617 4922 3631 4914 C 3657 4888 3806.762 4601.2758 3805.6496 4592.3806 C 3803.5772 4575.733 3832.3086 4543.6644 3839.421 4528.152 C 3874.7734 4451.0472 3935.6953 4389.931 3974.876 4315.695 C 4001.9008 4264.5064 4029.4474 4206.994 4043.6531 4150.175 C 4063.1921 4071.954 4065.7864 3987.901 4087.2798 3910.545 C 4125.596 3772.595 4188.6168 3636.655 4202.5748 3493.04 C 4208.8262 3428.8343 4207.8357 3374.236 4198.0529 3310.229 C 4193.7062 3281.8747 4188.7919 3247.3985 4163.0472 3229.528 C 4131.9691 3207.947 4104.3501 3226.347 4097.1615 3260.8194 C 4087.5996 3306.6975 4090.9596 3350.5261 4086.4644 3396.6934 C 4083.0053 3432.3086 4069.9882 3465.9429 4061.3406 3500.4494 C 4037.0549 3597.638 3978.8758 3691.6574 3936.1906 3782.0794 C 3899.6268 3859.5042 3897.3792 3952.6164 3861.2344 4029.1234 C 3828.183 4099.1348 3772.202 4150.1024 3720.8424 4206.9934 C 3681.3872 4250.6963 3646.8995 4299.6372 3610.0924 4345.3404 C 3602.9762 4354.1594 3579.5324 4387.3366 3567.6772 4387.3366 C 3551.1972 4387.3366 3409 4569 3367 4585 C 3353 4590 3342 4571 3335 4563 C 3312 4532 3289 4501 3267 4469 C 3226 4412 3173 4347 3155 4279 C 3139 4217 3152 4144 3153 4081 C 3153 4045 3157 4009 3166 3975 C 3167 3969 3170 3944 3173 3940 C 3191 3899 3259.6845 3648.1827 3274.5073 3577.0357 C 3285.3035 3525.2643 3315.3454 3477.9995 3329.6997 3426.3387 C 3358.1568 3323.8887 3367.593 3216.2587 3390.6178 3112.5937 C 3400.153 3069.7137 3448.5988 2993.9917 3419.0292 2952.0147 C 3392.2978 2914.0528 3336.614 2918.1176 3318.9762 2961.8966 C 3278.4619 3062.5256 3278.2638 3177.9916 3236.2181 3275.6416 C 3224.3362 3303.2873 3217.0448 3331.6949 3206.1762 3359.6378 C 3204.3743 3364.2549 3196 3377 3194 3386 C 3145 3486 3135 3519 3120 3589 C 3113.9328 3632.338 3093.228 3668.8294 3076.8737 3717.8461 C 3060.7442 3766.2994 3048.7137 3817.149 3032.4051 3866.0751 C 2985.8641 4005.7591 2961.2584 4143.2061 2969.8299 4290.9891 C 2976.2794 4402.0821 3007.727 4509.7201 3059.1861 4607.2021 C 3084.9042 4655.9716 3154.668 4712.3451 3160.0551 4767.7811 C 3168.4551 4854.2954 3113.1675 4915.2901 3076.4818 4987.6511 C 3067.1903 5005.9787 3036.7561 5062.3787 3016.7713 5068.7521 C 2966.3218 5084.8359 2898.9043 5051.8073 2848.7793 5046.9388 C 2766.1203 5038.9121 2671.3053 5025.5445 2596.7943 4985.1788 C 2498.9429 4932.1655 2436.5693 4774.2038 2426.3373 4668.9658 C 2422.7373 4631.9563 2426.1963 4594.6306 2420.5734 4557.7958 C 2395.7315 4395.2168 2407.5448 4226.4858 2373.6363 4063.7078 C 2339.3392 3899.0978 2290.3106 3726.7708 2287.9906 3559.7378 C 2287.6821 3537.273 2278.3564 3515.9016 2280.5811 3493.0368 C 2294.2382 3352.5718 2322.2763 3211.5398 2353.0459 3073.0638 C 2375.8078 2970.6368 2413.4573 2860.3518 2409.0421 2754.3778 C 2405.964 2680.4349 2408.8326 2606.0958 2401.6326 2532.0388 C 2389.4269 2406.5148 2362.2574 2279.2428 2333.2821 2156.5338 C 2322.3335 2110.1567 2308.9431 2055.9548 2278.524 2018.1868 C 2264.1659 2000.3697 2246.7145 1981.6001 2221.2897 1986.8954 Z"
        style="fill: rgb(16, 14, 12); stroke: rgb(19, 21, 22); stroke-width: 0.967619;"/>
</g>
</svg>