    <svg
            xmlns:cc="http://creativecommons.org/ns#"
            xmlns="http://www.w3.org/2000/svg"
            xml:space="preserve" width="6.9869423in"
            height="7.2717161in"
            style="fill-rule:evenodd;image-rendering:optimizeQuality;shape-rendering:geometricPrecision;text-rendering:geometricPrecision"
            viewBox="0 0 6986.9423 7479.4889"
            version="1.1"
    >
<g transform="translate(-428.7951,-1985.5034)">
  <path d="M 3659 5878 c -95 -49 -200 -87 -360 -92 c -98 -44 -158.1151 -12.8251 -203.178 -23.446 c -104.72 -24.7276 -202.945 -92.221 -296.45 -142.891 c -40.541 -21.9619 -96.3962 -52.2743 -138.347 -14.4 c -45.4552 41.0324 -26.1371 80.56 -15.6381 130.933 c 14.1067 67.7867 33.6495 136.59 84.8114 187.752 c 26.3352 26.3352 42.7886 44.1219 62.179 76.5829 c 7.3867 12.3771 20.48 29.421 9.4629 41.9962 c -54.8914 62.7238 -156.971 79.1048 -219.867 135.874 c -77.4743 69.939 -117.204 166.781 -195.166 237.162 c -94.5486 85.3524 -199.257 166.583 -303.863 239.211 c -22.8533 15.8857 -51.6838 21.1733 -74.1143 38.2933 c -157.288 120.16 -318.777 238.076 -466.91 369.749 c -39.939 35.501 -80.5257 74.4838 -128.465 98.819 c -112.587 57.1619 -258.869 114.75 -266.392 260.21 c -1.6609 32.1638 27.139 63.0705 30.0571 93.059 c 4.8952 50.3505 -19.52 106.08 -9.8819 155.638 c 4.1752 21.4705 12.1371 51.0895 24.701 69.1733 c 6.2552 9.0171 21.4895 16.6514 24.7048 27.1733 c 2.6438 8.6476 -10.2171 25.5695 -12.3505 34.5867 c -4.6781 19.8133 -5.2724 43.8743 -3.2952 64.2324 c 8.4038 86.4152 78.6781 174.632 155.638 212.038 c 61.04 29.6686 127.859 21.2914 192.693 27.5924 c 100.644 9.7828 198.945 34.659 301.394 24.7048 c 43.6876 -4.2476 87.101 -10.5714 130.933 -14.8229 c 12.0343 -1.1619 26.8914 -9.2648 38.7048 -8.2248 c 28.5905 2.4457 55.5429 28.4571 77.4057 44.4648 c 31.261 22.9029 69.1771 47.3371 103.756 64.6286 c 33.3867 16.701 71.2914 26.4076 103.76 44.8876 c 21.7143 12.3771 41.619 32.88 64.2324 41.9962 c 29.9581 12.0571 67.4057 12.6743 96.3467 25.939 c 43.7486 20.061 88.4648 41.1086 135.87 52.301 c 73.2762 17.2914 142.103 30.3619 217.398 23.0476 c 33.4286 -3.2609 67.3714 -2.0495 100.869 -5.36 c 10.6971 -1.0362 32.2895 -6.9676 42 -0.8152 c 10.5486 6.6438 13.3638 41.3067 15.661 53.1162 c 9.76 50.1981 19.5886 100.472 30.0419 150.693 c 29.0514 139.36 76.9752 275.379 121.89 410.091 c 13.1924 39.6267 26.6324 82.0457 46.9371 118.583 c 6.3009 11.3638 4.3504 25.84 15.6381 34.1676 c 21.0971 15.6114 45.0629 -15.9619 56.0076 -31.699 c 28.7771 -41.4514 70.2552 -78.3619 114.453 -101.707 c 13.4629 -7.1162 26.3581 -20.0838 41.9962 -21.8133 c 82.1181 -9.1162 165.543 27.741 234.693 69.9886 c 26.0114 15.9086 46.2705 41.1543 74.1105 53.5314 c 43.2571 19.2229 110.971 24.3619 158.11 19.7638 c 78.0152 -7.5848 154.968 -69.3676 201.76 -128.461 c 18.1067 -22.8762 34.8571 -46.5943 49.8019 -71.6419 c 2.9904 -4.9676 12.8457 -24.7048 19.3676 -24.7048 c 3.3866 0 9.4133 14.5257 11.12 17.2914 c 11.3867 18.6781 23.8362 33.8476 32.1143 54.3505 c 24.7276 61.44 69.4171 134.564 130.514 165.101 c 30.7543 15.3905 68.899 36.56 103.756 39.9467 c 23.1238 2.2476 40.1448 -8.5981 61.76 -14.0076 c 17.1962 -4.301 35.0057 -0.1257 51.8819 -4.1029 c 47.5276 -11.2381 99.6305 -57.2152 150.693 -49.4095 c 17.4438 2.6705 37.6267 26.0876 49.4095 37.8743 c 46.1981 46.1943 57.7333 123.398 113.642 162.232 c 39.9467 27.741 95.68 25.5695 140.811 36.2171 c 17.8629 4.2248 35.4286 13.3638 54.3505 11.5352 c 17.3676 -1.68 54.5981 -28.0876 69.1733 -20.9981 c 40.8343 19.8629 60.9714 112.255 116.11 99.2381 c 42.1448 -9.9581 54.2019 -87.6762 65.8857 -122.709 c 9.7104 -29.1505 12.4495 -60.5486 23.8629 -88.9333 c 8.2514 -20.5067 20.8762 -36.96 25.5467 -59.2914 c 16.2552 -78.0419 13.1657 -159.836 13.1657 -239.63 c 0 -114.309 -9.7067 -226.933 -32.9295 -338.45 c -25.5429 -122.533 -69.1467 -240.423 -94.7162 -363.154 c -33.7981 -162.21 -46.9638 -335.189 -95.5086 -494.088 c -39.7714 -130.168 -84.7086 -252.305 -142.888 -375.505 c -62.6781 -132.762 -152.13 -239.905 -237.558 -358.213 c -22.381 -30.979 -42.9105 -61.8819 -64.2324 -93.8743 c -4.2248 -6.3505 -20.3048 -25.4705 -16.8952 -33.7714 c 4.6933 -11.3143 66.8229 2 77.0019 4.5448 c 25.8171 6.4495 48.8419 -2.9143 74.1143 -5.36 c 46.0724 -4.4724 97.8514 -4.5714 140.815 -23.0514 c 126.659 -54.5448 219.547 -178.857 302.206 -283.284 c 25.6686 -32.4114 55.661 -60.7733 77.4248 -96.3467 c 50.5676 -82.7848 65.1695 -183.208 95.5048 -274.217 c 20.3314 -60.9943 48.1486 -122.362 71.6457 -182.811 c 23.0705 -59.3143 59.6571 -131.924 43.2305 -197.634 c -13.4629 -53.8819 -82.2895 -96.3733 -132.983 -106.229 c -74.4953 -14.2533 -113.4953 -8.2533 -185.4953 3.7467 c -96 5 -130 26 -155 39 c -51.3333 29.3333 -102.6667 58.6667 -154 88 c -60.6667 37 -121.3333 74 -182 111 c -35 27 -95 62 -125 106 c -13.6667 27 -27.3333 54 -41 81 c -30.6667 9 -61.3333 18 -92 27 c -57 -54 -181 -49 -244 -130 c -78 -68 -179 -106 -312 -130 Z M 3223 6561 c -53.6343 8.5257 -107 39 -139 96 c -4.3733 8.7695 -30 63 -21 75 c 7.5848 10.4267 56 26 73 32 c 58.2057 16.5029 138 20 205 9 c 18.2819 -3.1124 42 -8 65 -16 c 126 -37 93 -103 13 -159 c -41.3562 -28.7276 -146 -47 -196 -37 Z M 1692 7309 c -4.671 9.513 9.6495 30.781 13.1581 37.4248 c 20.8 39.4057 41.0171 69.3219 57.059 111.17 c 21.9848 57.3638 11.8133 120.903 62.0876 163.939 c 65.8514 56.3733 182.164 4.3962 251.566 -16.3314 c 28.7048 -8.5714 68.0533 -11.04 134.4583 -75.6894 c 17.3714 -29.8933 -58 -55 -90 -27 c -34 25 -87 23 -147 36 c -30 -1 -64.8829 17.1313 -84 -27 c -9 -25 -6 -55 -18 -81 c -6 -26 -23 -53 -38 -92 c -11 -32 -27 -50 -47 -62 c -9 -9 -36.329 -15.513 -48.3287 -9.5126 c -30.0003 14.9996 -39.0003 27.9996 -46.0003 41.9996 Z"
        style="fill: rgb(16, 14, 12); stroke: rgb(19, 21, 22); stroke-width: 0.967619;"/>
 </g>
</svg>