    <svg
            xmlns:cc="http://creativecommons.org/ns#"
            xmlns="http://www.w3.org/2000/svg"
            xml:space="preserve" width="6.9869423in"
            height="7.2717161in"
            style="fill-rule:evenodd;image-rendering:optimizeQuality;shape-rendering:geometricPrecision;text-rendering:geometricPrecision"
            viewBox="0 0 6986.9423 7479.4889"
            version="1.1"
    >
<g transform="translate(-428.7951,-1985.5034)">
  <path d="M 3659 5878 C 3564 5829 3459 5791 3299 5786 C 3201 5742 3140.8849 5773.1749 3095.822 5762.554 C 2991.102 5737.8264 2892.877 5670.333 2799.372 5619.663 C 2758.831 5597.7011 2702.9758 5567.3887 2661.025 5605.263 C 2615.5698 5646.2954 2634.8879 5685.823 2645.3869 5736.196 C 2659.4936 5803.9827 2679.0364 5872.786 2730.1983 5923.948 C 2756.5335 5950.2832 2772.9869 5968.0699 2792.3773 6000.5309 C 2799.764 6012.908 2812.8573 6029.9519 2801.8402 6042.5271 C 2746.9488 6105.2509 2644.8692 6121.6319 2581.9732 6178.4011 C 2504.4989 6248.3401 2464.7692 6345.1821 2386.8072 6415.5631 C 2292.2586 6500.9155 2187.5502 6582.1461 2082.9442 6654.7741 C 2060.0909 6670.6598 2031.2604 6675.9474 2008.8299 6693.0674 C 1851.5419 6813.2274 1690.0529 6931.1434 1541.9199 7062.8164 C 1501.9809 7098.3174 1461.3942 7137.3002 1413.4549 7161.6354 C 1300.8679 7218.7973 1154.5859 7276.3854 1147.0629 7421.8454 C 1145.402 7454.0092 1174.2019 7484.9159 1177.12 7514.9044 C 1182.0152 7565.2549 1157.6 7620.9844 1167.2381 7670.5424 C 1171.4133 7692.0129 1179.3752 7721.6319 1191.9391 7739.7157 C 1198.1943 7748.7328 1213.4286 7756.3671 1216.6439 7766.889 C 1219.2877 7775.5366 1206.4268 7792.4585 1204.2934 7801.4757 C 1199.6153 7821.289 1199.021 7845.35 1200.9982 7865.7081 C 1209.402 7952.1233 1279.6763 8040.3401 1356.6362 8077.7461 C 1417.6762 8107.4147 1484.4952 8099.0375 1549.3292 8105.3385 C 1649.9732 8115.1213 1748.2742 8139.9975 1850.7232 8130.0433 C 1894.4108 8125.7957 1937.8242 8119.4719 1981.6562 8115.2204 C 1993.6905 8114.0585 2008.5476 8105.9556 2020.361 8106.9956 C 2048.9515 8109.4413 2075.9039 8135.4527 2097.7667 8151.4604 C 2129.0277 8174.3633 2166.9438 8198.7975 2201.5227 8216.089 C 2234.9094 8232.79 2272.8141 8242.4966 2305.2827 8260.9766 C 2326.997 8273.3537 2346.9017 8293.8566 2369.5151 8302.9728 C 2399.4732 8315.0299 2436.9208 8315.6471 2465.8618 8328.9118 C 2509.6104 8348.9728 2554.3266 8370.0204 2601.7318 8381.2128 C 2675.008 8398.5042 2743.8348 8411.5747 2819.1298 8404.2604 C 2852.5584 8400.9995 2886.5012 8402.2109 2919.9988 8398.9004 C 2930.6959 8397.8642 2952.2883 8391.9328 2961.9988 8398.0852 C 2972.5474 8404.729 2975.3626 8439.3919 2977.6598 8451.2014 C 2987.4198 8501.3995 2997.2484 8551.6734 3007.7017 8601.8944 C 3036.7531 8741.2544 3084.6769 8877.2734 3129.5917 9011.9854 C 3142.7841 9051.6121 3156.2241 9094.0311 3176.5288 9130.5684 C 3182.8297 9141.9322 3180.8792 9156.4084 3192.1669 9164.736 C 3213.264 9180.3474 3237.2298 9148.7741 3248.1745 9133.037 C 3276.9516 9091.5856 3318.4297 9054.6751 3362.6275 9031.33 C 3376.0904 9024.2138 3388.9856 9011.2462 3404.6237 9009.5167 C 3486.7418 9000.4005 3570.1667 9037.2577 3639.3167 9079.5053 C 3665.3281 9095.4139 3685.5872 9120.6596 3713.4272 9133.0367 C 3756.6843 9152.2596 3824.3982 9157.3986 3871.5372 9152.8005 C 3949.5524 9145.2157 4026.5052 9083.4329 4073.2972 9024.3395 C 4091.4039 9001.4633 4108.1543 8977.7452 4123.0991 8952.6976 C 4126.0895 8947.73 4135.9448 8927.9928 4142.4667 8927.9928 C 4145.8533 8927.9928 4151.88 8942.5185 4153.5867 8945.2842 C 4164.9734 8963.9623 4177.4229 8979.1318 4185.701 8999.6347 C 4210.4286 9061.0747 4255.1181 9134.1987 4316.215 9164.7357 C 4346.9693 9180.1262 4385.114 9201.2957 4419.971 9204.6824 C 4443.0948 9206.93 4460.1158 9196.0843 4481.731 9190.6748 C 4498.9272 9186.3738 4516.7367 9190.5491 4533.6129 9186.5719 C 4581.1405 9175.3338 4633.2434 9129.3567 4684.3059 9137.1624 C 4701.7497 9139.8329 4721.9326 9163.25 4733.7154 9175.0367 C 4779.9135 9221.231 4791.4487 9298.4347 4847.3574 9337.2687 C 4887.3041 9365.0097 4943.0374 9362.8382 4988.1684 9373.4858 C 5006.0313 9377.7106 5023.597 9386.8496 5042.5189 9385.021 C 5059.8865 9383.341 5097.117 9356.9334 5111.6922 9364.0229 C 5152.5265 9383.8858 5172.6636 9476.2779 5227.8022 9463.261 C 5269.947 9453.3029 5282.0041 9375.5848 5293.6879 9340.552 C 5303.3983 9311.4015 5306.1374 9280.0034 5317.5508 9251.6187 C 5325.8022 9231.112 5338.427 9214.6587 5343.0975 9192.3273 C 5359.3527 9114.2854 5356.2632 9032.4913 5356.2632 8952.6973 C 5356.2632 8838.3883 5346.5565 8725.7643 5323.3337 8614.2473 C 5297.7908 8491.7143 5254.187 8373.8243 5228.6175 8251.0933 C 5194.8194 8088.8833 5181.6537 7915.9043 5133.1089 7757.0053 C 5093.3375 7626.8373 5048.4003 7504.7003 4990.2209 7381.5003 C 4927.5428 7248.7383 4838.0909 7141.5953 4752.6629 7023.2873 C 4730.2819 6992.3083 4709.7524 6961.4054 4688.4305 6929.413 C 4684.2057 6923.0625 4668.1257 6903.9425 4671.5353 6895.6416 C 4676.2286 6884.3273 4738.3582 6897.6416 4748.5372 6900.1864 C 4774.3543 6906.6359 4797.3791 6897.2721 4822.6515 6894.8264 C 4868.7239 6890.354 4920.5029 6890.255 4963.4665 6871.775 C 5090.1255 6817.2302 5183.0135 6692.918 5265.6725 6588.491 C 5291.3411 6556.0796 5321.3335 6527.7177 5343.0973 6492.1443 C 5393.6649 6409.3595 5408.2668 6308.9363 5438.6021 6217.9273 C 5458.9335 6156.933 5486.7507 6095.5653 5510.2478 6035.1163 C 5533.3183 5975.802 5569.9049 5903.1923 5553.4783 5837.4823 C 5540.0154 5783.6004 5471.1888 5741.109 5420.4953 5731.2533 C 5346 5717 5307 5723 5235 5735 C 5139 5740 5105 5761 5080 5774 C 5028.6667 5803.3333 4977.3333 5832.6667 4926 5862 C 4865.3333 5899 4804.6667 5936 4744 5973 C 4709 6000 4649 6035 4619 6079 C 4605.3333 6106 4591.6667 6133 4578 6160 C 4547.3333 6169 4516.6667 6178 4486 6187 C 4429 6133 4305 6138 4242 6057 C 4164 5989 4063 5951 3930 5927 Z Z Z Z Z M 3226.761 6587.575 C 3173.1267 6596.1007 3130.86 6628.535 3106.426 6677.4264 C 3102.0527 6686.1959 3082.9327 6711.3921 3089.8012 6720.855 C 3097.386 6731.2817 3130.5364 6735.3312 3142.765 6738.7902 C 3200.9707 6755.2931 3268.658 6755.5178 3328.049 6745.4378 C 3346.3309 6742.3254 3364.7614 6738.2721 3382.3995 6732.5654 C 3451.5957 6710.1083 3459.0052 6664.7787 3396.8757 6621.6164 C 3355.5195 6592.8888 3276.3687 6579.6964 3226.7617 6587.5745 Z M 1691.671 7309.487 C 1683.8843 7316.7975 1701.3205 7340.268 1704.8291 7346.9118 C 1725.6291 7386.3175 1745.8462 7416.2337 1761.8881 7458.0818 C 1783.8729 7515.4456 1773.7014 7578.9848 1823.9757 7622.0208 C 1889.8271 7678.3941 2006.1397 7626.417 2075.5417 7605.6894 C 2104.2465 7597.118 2143.595 7594.6494 2160.7036 7565.2246 C 2178.075 7535.3313 2094 7541 2074 7545 C 2040 7570 1987 7568 1927 7581 C 1897 7580 1862.1171 7598.1313 1843 7554 C 1834 7529 1837 7499 1825 7473 C 1819 7447 1802 7420 1787 7381 C 1776 7349 1760 7331 1740 7319 C 1731 7310 1699.4961 7302.1464 1691.6713 7309.4874 Z"
        style="fill: rgb(16, 14, 12); stroke: rgb(19, 21, 22); stroke-width: 0.967619;"/>
 </g>
</svg>