<svg xmlns="http://www.w3.org/2000/svg" xmlns:xlink="http://www.w3.org/1999/xlink" version="1.1"
     x="0px"
     y="0px"
     viewBox="0 0 471.434 471.434"
     xml:space="preserve"
>
<g>
    <path d="M270.444,394.702c2.878,0.456,5.642,0.687,8.214,0.687c18.176,0,25.863-11.274,34.001-23.211   c4.148-6.084,8.066-11.83,13.384-15.693c5.755-4.182,12.766-6.321,20.188-8.587c15.727-4.8,30.581-9.333,34.364-33.225   c0.893-5.63-1.213-11.479-6.258-17.386c-8.141-9.532-23.127-18.049-39.956-23.652c-1.862-0.538-3.721-1.116-5.575-1.729   c-9.632-2.772-19.668-4.561-29.237-5.027c0.292,5.036,0.549,11.19-3.092,16.193c-3.771,5.18-9.963,6.789-14.938,8.081   c-2.629,0.683-5.348,1.389-6.67,2.351c-1.28,0.933-2.769,3.273-4.207,5.537c-2.776,4.368-6.232,9.804-12.397,11.806   c-1.511,0.491-3.127,0.739-4.804,0.739c-1.835,0-3.626-0.305-5.359-0.754c-3.383,17.09-3.525,36.966,0.635,54.293   C251.173,375.273,257.234,392.61,270.444,394.702z"/>
    <path d="M81.245,212.419c-9.902,13.127-19.256,25.526-8.273,47.079c4.957,9.729,18.132,11.771,28.311,11.771   c20.904,0,45.125-8.057,63.033-19.182c-2.994-3.719-6.111-8.237-6.111-13.949c0-6.576,4.131-11.571,7.451-15.585   c1.601-1.936,3.415-4.129,3.882-5.569c0.523-1.607,0.357-4.439,0.197-7.178c-0.299-5.108-0.67-11.466,3.069-16.605   c2.653-3.644,6.503-5.517,10.286-6.759c-3.608-8.125-8.398-16.488-14.204-24.48c-14.902-20.512-32.983-33.767-46.06-33.767   c-2.845,0-5.39,0.592-7.78,1.81c-21.868,11.143-21.404,26.636-20.912,43.039c0.22,7.359,0.429,14.31-1.603,20.561   C90.333,200.372,85.919,206.224,81.245,212.419z"/>
    <path d="M190.069,76.259c-9.005,0-16.944,3.746-24.987,11.789c-9.459,9.458-4.171,27.047-0.177,36.69   c7.686,18.555,21.693,36.525,36.309,48.605c2.38-3.296,5.398-6.483,9.806-7.914c1.511-0.491,3.127-0.739,4.805-0.739   c4.22,0,8.227,1.567,11.763,2.949c2.6,1.016,5.287,2.067,7.057,2.067s4.457-1.051,7.057-2.067   c3.535-1.382,7.543-2.948,11.762-2.948c1.678,0,3.294,0.249,4.805,0.739c3.715,1.206,6.442,3.662,8.633,6.377   c13.957-12.04,27.143-29.278,34.512-47.07c3.994-9.643,9.282-27.231-0.176-36.69c-8.092-8.091-16.055-11.859-25.063-11.859   c-7.626,0-15.102,2.679-22.331,5.27c-6.931,2.484-13.477,4.83-20.049,4.83c-7.115,0-14.044-2.39-21.379-4.92   C205.13,78.856,197.6,76.259,190.069,76.259z"/>
    <path d="M396.271,253.086c11.144-21.87,1.661-34.13-8.379-47.111c-4.504-5.824-8.758-11.324-10.789-17.574   c-2.199-6.768-2.067-14.096-1.928-21.855c0.296-16.44,0.575-31.969-20.978-42.951c-2.392-1.218-4.936-1.811-7.781-1.811   c-13.076,0-31.153,13.253-46.055,33.763c-7.177,9.878-12.801,20.322-16.549,30.183c4.48,1.242,9.45,3.059,12.663,7.474   c3.74,5.139,3.368,11.496,3.069,16.604c-0.16,2.739-0.326,5.571,0.196,7.178c0.467,1.44,2.281,3.633,3.882,5.568   c3.319,4.014,7.45,9.008,7.45,15.583c0,3.601-1.241,6.724-2.907,9.475c6.998,4.038,14.811,7.587,22.921,10.41   c3.011,0.836,5.989,1.759,8.917,2.766c9.424,2.568,18.994,4.068,27.956,4.068C378.14,264.857,391.315,262.815,396.271,253.086z"/>
    <path d="M95.897,319.376c3.839,24.242,18.717,28.588,34.468,33.189c7.066,2.064,13.742,4.015,19.059,7.877   c5.757,4.182,9.957,10.189,14.404,16.547c8.308,11.878,16.155,23.098,34.061,23.098c2.555,0,5.299-0.229,8.159-0.683   c13.211-2.092,19.271-19.429,21.708-29.577c4.71-19.62,3.901-42.504-0.881-60.914c-3.359,1.307-7.109,2.672-11.051,2.672   c-1.678,0-3.294-0.249-4.805-0.739c-6.165-2.001-9.621-7.438-12.398-11.805c-1.439-2.264-2.928-4.605-4.208-5.538   c-1.322-0.962-4.041-1.668-6.67-2.351c-4.976-1.292-11.168-2.9-14.938-8.08c-2.434-3.342-3.123-7.199-3.229-10.893   c-26.569,3.035-54.982,15.244-67.422,29.811C97.111,307.898,95.005,313.747,95.897,319.376z"/>
</g>
</svg>