<svg xmlns="http://www.w3.org/2000/svg" xmlns:xlink="http://www.w3.org/1999/xlink" version="1.1"
     x="0px"
     y="0px"
     viewBox="0 0 471.434 471.434"
     xml:space="preserve"
>
<g>
    <path d="M246.796,295.599c2.499,0.978,5.084,1.988,6.664,1.988c0.204,0,0.37-0.019,0.48-0.055c1.376-0.447,3.416-3.657,4.906-6.001   c2.04-3.21,4.354-6.849,7.784-9.346c3.469-2.525,7.677-3.618,11.388-4.583c2.666-0.692,6.317-1.641,7.139-2.768   c0.79-1.086,0.571-4.821,0.411-7.548c-0.225-3.845-0.48-8.204,0.856-12.32c1.292-3.98,4.011-7.267,6.41-10.168   c1.889-2.283,4.238-5.124,4.238-6.661c0-1.536-2.351-4.378-4.238-6.661c-2.399-2.9-5.118-6.188-6.41-10.168   c-1.336-4.115-1.081-8.474-0.856-12.319c0.16-2.728,0.379-6.462-0.412-7.549c-0.82-1.127-4.471-2.075-7.137-2.768   c-3.712-0.964-7.918-2.057-11.388-4.583c-3.432-2.497-5.745-6.136-7.786-9.347c-1.489-2.344-3.529-5.553-4.904-5.999   c-0.11-0.036-0.276-0.055-0.48-0.055c-1.58,0-4.165,1.01-6.665,1.988c-3.63,1.419-7.745,3.027-12.153,3.027   s-8.523-1.609-12.154-3.028c-2.5-0.978-5.085-1.988-6.665-1.988c-0.204,0-0.371,0.019-0.482,0.055   c-1.375,0.446-3.415,3.656-4.904,5.999c-2.041,3.211-4.355,6.85-7.787,9.348c-3.47,2.525-7.677,3.617-11.389,4.581   c-2.666,0.692-6.317,1.64-7.139,2.768c-0.79,1.086-0.572,4.822-0.413,7.549c0.225,3.845,0.48,8.203-0.856,12.319   c-1.293,3.98-4.012,7.267-6.41,10.167c-1.889,2.284-4.239,5.126-4.239,6.662c0,1.537,2.351,4.378,4.239,6.662   c2.398,2.9,5.117,6.187,6.41,10.167c1.336,4.115,1.081,8.473,0.856,12.318c-0.159,2.728-0.377,6.463,0.414,7.55   c0.821,1.128,4.472,2.076,7.138,2.768c3.712,0.964,7.918,2.056,11.389,4.581c3.432,2.497,5.745,6.136,7.786,9.347   c1.489,2.344,3.53,5.554,4.905,6.001c0.111,0.036,0.277,0.055,0.482,0.055c1.58,0,4.165-1.011,6.666-1.988   c3.63-1.419,7.745-3.028,12.153-3.028S243.166,294.18,246.796,295.599z"/>
</g>
</svg>