<svg xmlns="http://www.w3.org/2000/svg" xmlns:xlink="http://www.w3.org/1999/xlink" version="1.1"
     x="0px"
     y="0px"
     viewBox="0 0 471.434 471.434"
     xml:space="preserve"
>
<g>
    <path d="M464.076,203.816c-7.567-14.789-26.952-17.893-41.88-17.893c-9.41,0-19.295,1.161-29.221,3.252   c1.645,2.602,3.775,5.369,5.992,8.235c10.528,13.614,24.948,32.259,9.778,62.032c-5.735,11.255-17.472,17.797-34.132,19.144   c4.004,3.046,7.514,6.264,10.369,9.608c7.716,9.035,10.98,18.948,9.44,28.668c-5.153,32.537-27.667,39.408-44.107,44.425   c-2.622,0.8-5.172,1.586-7.547,2.43c17.125,17.508,34.971,27.756,49.438,27.756c4.384,0,8.483-0.96,12.185-2.855   c32.102-16.428,31.354-39.981,30.631-62.76c-0.318-10.034-0.619-19.512,2.054-27.791c2.912-9.018,8.93-17.024,15.301-25.501   C466.721,253.483,480.269,235.458,464.076,203.816z"/>
    <path d="M126.439,366.003c-16.52-4.826-39.144-11.435-44.37-44.438c-1.539-9.719,1.725-19.632,9.44-28.667   c2.257-2.643,4.924-5.206,7.915-7.669c-19.207-0.406-32.657-7.071-38.927-19.376c-14.955-29.353-0.779-48.145,9.572-61.866   c1.457-1.931,2.882-3.822,4.177-5.669c-8.438-1.537-16.798-2.384-24.81-2.384c-15.076,0-34.636,3.13-42.2,18.042   c-16.315,32.161-1.866,50.776,12.108,68.778c6.156,7.931,11.971,15.422,14.674,23.692c2.944,9.006,2.782,19.021,2.61,29.623   c-0.386,23.87-0.751,46.416,30.949,62.497c3.678,1.866,7.743,2.811,12.085,2.811c15.828,0,35.7-12.34,54.219-33.068   C131.569,367.509,129.042,366.763,126.439,366.003z"/>
    <path d="M276.172,62.189c12.786,0,24.223,5.22,34.962,15.96c9.115,9.115,11.603,22.92,7.36,39.616   c9.602-6.462,19.178-9.98,27.922-9.98c5.036,0,9.792,1.123,14.137,3.337c29.352,14.955,28.93,38.491,28.62,55.676   c-0.036,2.032-0.067,4.02-0.056,5.943c13.727-6.889,25.322-15.114,32.853-23.947c7.611-8.928,10.762-17.875,9.364-26.592   c-5.704-35.608-28.337-42.175-50.224-48.526c-9.642-2.797-18.749-5.44-25.796-10.541c-7.678-5.557-13.433-13.755-19.525-22.434   c-11.52-16.41-23.431-33.378-49.824-33.378c-3.748,0-7.768,0.339-11.947,1.009c-20.054,3.212-28.987,28.625-32.527,43.488   c-1.487,6.242-2.569,12.945-3.271,19.898c3.292-0.724,7.018-2.048,10.899-3.439C257.084,65.424,266.114,62.189,276.172,62.189z"/>
    <path d="M80.254,180.726c0.028-2.296-0.039-4.745-0.114-7.261c-0.516-17.203-1.222-40.762,28.551-55.932   c4.345-2.214,9.101-3.336,14.136-3.336c8.349,0,17.457,3.203,26.621,9.117c-6.331-19.186-4.373-35.058,5.734-45.165   c10.691-10.692,22.104-15.89,34.887-15.89c9.877,0,18.926,3.121,26.909,5.875c1.419,0.49,2.817,0.97,4.191,1.424   c-0.685-4.98-1.561-9.809-2.666-14.377c-3.594-14.851-12.618-40.235-32.683-43.376c-4.124-0.646-8.094-0.973-11.801-0.973   c-26.95,0-38.601,17.153-49.868,33.742c-5.641,8.306-10.969,16.151-17.999,21.277c-7.655,5.583-17.23,8.524-27.367,11.638   c-22.821,7.009-44.376,13.629-49.874,48.746c-1.361,8.696,1.798,17.605,9.392,26.48C47.432,163.382,62.575,173.151,80.254,180.726z   "/>
    <path d="M328.161,374.443c-1.295,1.753-2.6,3.664-3.935,5.621c-8.438,12.375-19.993,29.324-45.568,29.324   c-3.304,0-6.804-0.289-10.403-0.859c-12.671-2.006-22.761-11.63-29.146-27.494c-6.21,18.666-16.992,30-30.871,32.198   c-3.581,0.567-7.063,0.854-10.349,0.854c-25.198,0-36.474-16.121-45.533-29.075c-1.561-2.232-3.085-4.399-4.611-6.387   c-2.519,4.654-4.752,9.299-6.633,13.862c-5.821,14.126-13.439,39.965,0.946,54.3c11.86,11.818,23.598,17.323,36.938,17.323   c11.172,0,21.87-3.855,32.217-7.584c9.445-3.404,18.367-6.619,27.066-6.634c9.527,0,18.977,3.24,28.98,6.671   c10.371,3.556,21.096,7.234,32.052,7.234h0.005c13.408-0.002,25.147-5.516,36.943-17.354c14.313-14.363,6.645-40.121,0.8-54.197   C334.627,386.394,331.62,380.41,328.161,374.443z"/>
</g>
</svg>