<svg
        xmlns:cc="http://creativecommons.org/ns#"
        xmlns="http://www.w3.org/2000/svg"
        xml:space="preserve" width="7.4496751in"
        height="4.3595557in"
        style="fill-rule:evenodd;image-rendering:optimizeQuality;shape-rendering:geometricPrecision;text-rendering:geometricPrecision"
        viewBox="0 0 7449.6751 4484.1201" version="1.1"
>
  <g transform="translate(-157.46027,-3444.0138)">
    <path d="M 2138 7061 C 2040.0059 6987.1675 2036.3336 6998.1694 2029.8536 7000.0208 C 2020.3564 7002.7065 2016.7717 6984.0665 2014.5546 6978.2456 C 2006.4098 6956.7408 1992.7413 6930.6837 1978.5851 6912.5275 C 1972.886 6905.2323 1962.5394 6900.7637 1954.8822 6908.1085 C 1923.1412 6938.5847 1936.7946 7017.0035 1936.4822 7056.2115 C 1936.3107 7076.0667 1935.7736 7104.4477 1917.4232 7116.7144 C 1905.9375 7124.4058 1896.547 7110.3525 1891.2784 7101.2592 C 1876.8822 7076.4135 1868.8251 7048.8478 1860.7184 7021.5602 C 1850.3222 6986.5964 1843.5794 6950.7145 1832.4594 6915.8692 C 1822.7565 6885.5149 1809.2404 6855.6825 1803.8537 6824.0444 C 1797.027 6783.9682 1799.5375 6747.9834 1801.0994 6707.9604 C 1801.7203 6691.709 1791.4803 6631.6061 1768.4746 6637.8423 C 1750.7146 6642.6766 1753.7813 6674.848 1752.0822 6688.9013 C 1746.6422 6733.8461 1751.8231 6781.9946 1751.0765 6827.5073 C 1750.9736 6833.4349 1751.2517 6869.0578 1742.3298 6867.5835 C 1729.4536 6865.454 1722.1088 6820.8559 1717.4308 6810.1816 C 1710.5165 6794.433 1702.8441 6778.2845 1694.2308 6763.4045 C 1686.326 6749.7512 1657.1679 6714.5778 1652.7032 6751.275 C 1648.3641 6786.9474 1668.1927 6826.1931 1676.7527 6860.429 C 1685.4994 6895.4271 1688.2422 6931.3776 1698.147 6966.117 C 1712.7375 7017.2789 1735.5527 7065.7589 1751.1489 7116.852 C 1762.6003 7154.3453 1810.2803 7217.793 1761.4918 7244.025 C 1752.9661 7248.5964 1746.1242 7244.8402 1742.2956 7236.3831 C 1730.3375 7210.0821 1718.7299 7176.1774 1686.9889 7166.8555 C 1657.0346 7158.0517 1663.3356 7209.0765 1657.9375 7226.006 C 1656.0746 7231.8612 1651.2061 7248.425 1642.3032 7245.827 C 1634.0937 7243.4194 1649.0575 7217.0651 1642.3142 7206.9622 C 1633.1257 7193.206 1616.7713 7185.827 1609.118 7170.5622 C 1589.9942 7132.4098 1595.1866 7071.1298 1601.3885 7030.2232 C 1605.9942 6999.8651 1612.8971 6970.7261 1616.7028 6940.128 C 1618.238 6927.7737 1623.4342 6909.808 1614.5923 6899.0651 C 1597.3923 6878.1699 1559.6094 6941.7737 1550.8742 6953.987 C 1548.5466 6957.2441 1535.3047 6979.1984 1530.6685 6969.027 C 1527.438 6961.9413 1533.3276 6949.2937 1534.1923 6941.8613 C 1537.3504 6914.7451 1552.7066 6874.8251 1547.259 6848.3184 C 1542.4324 6824.8403 1501.48 6835.2174 1486.4742 6821.5146 C 1477.5219 6813.3355 1473.4685 6797.9489 1467.0456 6787.6594 C 1448.4323 6757.8232 1430.9999 6727.9032 1413.2094 6697.5642 C 1405.7428 6684.829 1395.3542 6658.669 1378.5884 6656.6232 C 1356.4855 6653.9375 1362.1503 6684.7261 1360.7332 6697.5642 C 1357.3085 6728.5775 1357.3047 6760.0404 1359.7199 6791.1223 C 1360.8818 6806.0404 1365.1866 6824.9623 1355.2094 6837.8537 C 1342.1275 6854.7451 1288.5008 6855.7851 1292.7827 6884.6842 C 1294.4437 6895.8956 1306.9122 6904.9547 1314.4817 6912.3871 C 1338.756 6936.2461 1416.8477 6985.1909 1377.8074 7029.9641 C 1356.0093 7054.9622 1319.9103 7048.5355 1293.6893 7036.9279 C 1282.6264 7032.025 1262.4131 7016.726 1250.8436 7026.0822 C 1237.0417 7037.2555 1230.3446 7088.5774 1226.1465 7106.4555 C 1223.7046 7116.8707 1221.2094 7133.8841 1207.057 7132.966 C 1192.6265 7132.0136 1170.3446 7125.305 1165.4075 7109.9222 C 1160.3447 7094.1355 1168.657 7070.9203 1168.9275 7054.4784 C 1169.7618 7003.4536 1174.5999 6948.5814 1164.5504 6898.5434 C 1160.8894 6880.3186 1159.4837 6840.5015 1137.7085 6833.7624 C 1114.7371 6826.6233 1116.238 6853.4614 1114.7028 6867.3586 C 1110.9275 6901.5757 1114.0209 6960.6234 1090.1695 6988.3106 C 1078.4362 7001.9449 1034.5543 6961.3354 1018.2076 6958.0592 C 1008.0895 6956.0325 993.7352 6955.9297 990.0666 6967.9525 C 986.6761 6979.0763 996.2685 6990.0096 1001.2742 6999.0344 C 1016.1504 7025.9068 1042.1352 7045.903 1052.6113 7075.2706 C 1061.4913 7100.1658 1052.1275 7131.9601 1046.158 7156.703 C 1035.9675 7198.943 1028.3294 7241.0801 1016.4742 7283.179 C 1011.4151 7301.1485 1014.5084 7331.0342 1001.8152 7345.2247 C 986.718 7362.1009 933.6627 7364.8361 914.257 7355.0152 C 880.8665 7338.12 871.6703 7263.5142 860.5275 7231.2022 C 855.7885 7217.4651 845.4304 7203.0117 849.8951 7187.8879 C 889.6284 7053.3359 970.3671 6930.5469 1035.8952 6806.7179 C 1057.6781 6765.5522 1065.8723 6719.7236 1086.4971 6678.5049 C 1099.2323 6653.0535 1120.6381 6634.7563 1144.6876 6620.4097 C 1155.5714 6613.9297 1180.7981 6605.6326 1183.7505 6591.8573 C 1186.3219 6579.8497 1173.4724 6574.3411 1163.7467 6574.6725 C 1150.8819 6575.122 1109.9105 6604.4896 1104.5467 6588.322 C 1100.3181 6575.5525 1111.6286 6556.5468 1116.1581 6545.0953 C 1127.1524 6517.2515 1128.1733 6486.8972 1137.1486 6458.4667 C 1140.8971 6446.5962 1152.5543 6418.2877 1135.8 6411.4419 C 1123.5981 6406.4514 1112.44 6422.36 1105.1067 6429.7581 C 1086.36 6448.6762 1079.7277 6501.8152 1074.4553 6527.7695 C 1065.3277 6572.7295 1047.4953 6616.3562 1029 6660 C 984 6775 962 6816 945 6860 C 881 6987 867 7020 856 7059 C 849 7071 847.6744 7099.2326 838.4058 7096.6307 C 831.282 7094.6383 830.4972 7081.1069 829.5029 7075.2707 C 825.7163 7053.0574 823.4343 7030.1888 822.3944 7007.6974 C 818.2496 6917.7241 785.0192 6827.6284 770.8744 6739.1454 C 760.3182 6673.1187 734.8287 6611.1074 718.0325 6546.8294 C 651.2896 6291.4424 557.3165 6043.9074 487 5784 C 478 5750 468 5719 458 5677 C 413.3507 5583.5224 372.5088 5484.6274 356 5376 C 351 5354 342 5334 335 5306 C 324 5296 313 5293 306.2155 5292.673 C 293.9717 5296.1739 293.2365 5313.5492 294.7793 5323.6178 C 299.2326 5352.6045 319.2745 5377.6407 318 5405 C 324.5202 5442.0559 342.3527 5473.5035 351.3469 5507.2715 C 375.5907 5598.2848 402.0212 5691.7405 437.4383 5779.2905 C 488.2231 5904.8145 516.5393 6036.6655 548 6167 C 583.8385 6258.5595 597 6349 636 6451 C 662 6566 702.0633 6683.1155 727.1452 6803.2525 C 734.5166 6838.582 748.5471 6871.6906 756.0214 6907.2065 C 768.8176 6968.0408 782.6881 7029.5795 793.1185 7090.8635 C 797.6518 7117.5111 808.7871 7139.5302 804.7223 7167.0959 C 799.7394 7200.9359 774.0175 7233.9226 759.6899 7264.1207 C 748.8213 7287.0464 735.1528 7328.0217 715.7356 7344.5855 C 700.9242 7357.2141 692.2118 7308.9436 690.1013 7300.5055 C 675.6707 7242.8636 657.3165 7186.1055 641.0003 7128.9815 C 608.4593 7015.0465 597.6403 6894.0405 579.3622 6777.2635 C 561.7851 6664.9735 535.0651 6553.1875 526.0974 6439.4085 C 524.3907 6417.7666 515.6821 6396.578 511.3621 6375.3018 C 503.8536 6338.3113 499.8689 6298.4789 487.7888 6262.6848 C 483.785 6250.8334 473.2669 6211.7781 456.8707 6215.02 C 436.6232 6219.0238 448.7984 6275.5229 450.4441 6290.4067 C 459.3546 6370.8677 471 6450 486 6534 C 512.6384 6691.7937 536.0556 6858.2277 569.8422 7018.0937 C 587.8117 7103.1108 623.9946 7182.8977 630.3412 7269.3207 C 631.3926 7283.5797 640.6422 7297.4388 645.1183 7310.9017 C 654.2345 7338.296 664.8173 7375.8046 667.1412 7404.4636 C 668.1659 7417.0769 656.2612 7428.475 650.8936 7439.115 C 636.2422 7468.136 625.4003 7515.5036 599.686 7536.9017 C 586.1889 7548.1284 578.867 7512.9055 576.6765 7504.9512 C 563.846 7458.3645 541.4689 7416.1055 528.4936 7369.8122 C 480.7679 7199.5302 448.5088 7025.4922 368.9846 6865.6252 C 350.7941 6829.05 337.0227 6788.49 313.3884 6754.7412 C 307.1789 6745.8688 293.6132 6723.4498 280.2494 6728.3183 C 260.417 6735.5259 274.0589 6769.465 278.3903 6782.4593 C 296.0246 6835.3583 323.9827 6884.0593 342.497 6936.6613 C 362.7675 6994.2537 374.6684 7053.3513 392.2722 7111.6553 C 422.017 7210.1696 454.3293 7307.6973 484.1008 7406.1963 C 500.0018 7458.8134 516.5008 7511.0873 531.6398 7563.8613 C 536.4932 7580.7718 548.9655 7598.0289 549.815 7615.8384 C 551.6512 7654.3374 531.8569 7677.606 514.5845 7709.4003 C 497.5369 7740.7755 482.9693 7773.347 465.7312 7804.6917 C 460.116 7814.9127 433.0874 7859.8041 448.6988 7867.3241 C 460.1807 7872.8708 472.4778 7861.6936 481.1026 7855.6974 C 503.6283 7840.0174 522.4169 7825.846 543.4759 7807.4117 C 627.7159 7733.6365 715.5639 7662.0817 810.2949 7602.0817 C 836.3482 7585.5865 861.8339 7567.9331 888.2644 7552.0779 C 894.7063 7548.215 908.9311 7536.1046 916.8092 7541.4569 C 924.634 7546.775 917.7845 7560.8626 915.1597 7567.3274 C 905.0416 7592.2569 897.7426 7619.3884 880.0816 7640.0931 C 822.2873 7707.8569 767.7696 7777.4721 709.2966 7844.5391 C 698.5004 7856.9277 657.4147 7904.1772 665.7995 7920.4972 C 676.2985 7940.9429 719.3385 7911.8534 730.5957 7904.0401 C 756.4014 7886.1391 777.1976 7861.0534 799.8986 7839.4458 C 828.0624 7812.6268 858.0319 7788.1963 884.5996 7759.6439 C 932.0663 7708.6191 979.3767 7655.1339 1032.0666 7609.3049 C 1049.3047 7594.303 1070.5466 7584.6154 1087.5066 7568.8516 C 1099.579 7557.6249 1109.0533 7543.8497 1122.1618 7533.663 C 1137.9904 7521.3963 1157.2551 7514.3601 1172.3561 7500.9163 C 1185.4228 7489.2706 1190.4247 7473.5068 1207.0609 7465.1906 C 1221.0876 7458.1735 1238.7257 7457.8268 1253.8419 7454.0477 C 1294.2914 7443.9296 1331.7581 7436.1696 1373.3889 7432.0287 C 1400.8289 7429.3087 1444.2689 7411.583 1470.4137 7417.7163 C 1486.3337 7421.442 1503.4918 7435.7011 1517.1947 7444.4173 C 1567.7585 7476.5735 1606.1928 7522.9887 1657.5337 7553.8113 C 1728.2613 7596.2761 1789.7847 7657.7653 1851.5867 7711.8763 C 1860.7334 7719.8992 1913.0229 7758.1696 1919.8686 7728.3868 C 1923.9372 7710.6649 1892.7867 7686.2497 1882.4438 7674.7449 C 1849.9752 7638.6725 1818.3524 7601.6668 1784.0133 7567.3279 C 1774.4171 7557.7279 1747.8038 7538.2346 1746.1238 7524.1317 C 1744.7714 7512.8174 1774.8324 7511.5717 1782.28 7510.2879 C 1815.48 7504.6574 1873.2781 7487.7317 1905.278 7502.7527 C 1924.4399 7511.7431 1933.659 7556.1165 1943.899 7574.2575 C 1981.979 7641.7394 2028.0171 7704.5665 2065.872 7771.7735 C 2078.451 7794.1049 2086.3672 7818.9506 2098.4968 7841.0573 C 2102.3444 7848.0401 2110.0549 7853.7392 2117.9368 7849.0115 C 2138.3292 7836.7944 2110.5387 7786.082 2105.1139 7770.0401 C 2085.4339 7711.8572 2067.9177 7657.2631 2056.691 7596.7791 C 2053.8834 7581.6362 2041.651 7550.6077 2046.9158 7536.2077 C 2054.352 7515.9906 2106.1196 7518.1201 2123.6015 7516.9925 C 2166.9882 7514.204 2211.7386 7510.7754 2255.2775 7513.8078 C 2285.7537 7515.9373 2326.0051 7526.7678 2355.7685 7521.724 C 2389.9704 7515.903 2346.4809 7482.8288 2361.1742 7474.2497 C 2383.6123 7461.1716 2434.3094 7467.7697 2459.7266 7468.6192 C 2494.2028 7469.7621 2523.9514 7497.3125 2553.2847 7512.2992 C 2578.9114 7525.3963 2607.7418 7531.4802 2632.9837 7544.6649 C 2684.4427 7571.5373 2722.5761 7610.8135 2760.4507 7653.9559 C 2781.0869 7677.4683 2802.6755 7700.5807 2820.0012 7726.7254 C 2825.4221 7734.8854 2834.7288 7746.9959 2845.6241 7739.1102 C 2859.746 7728.9083 2850.5803 7703.194 2845.5212 7690.3407 C 2828.9764 7648.2036 2796.4012 7612.7902 2775.525 7572.5237 C 2771.2965 7564.3789 2748.0469 7532.4666 2755.2355 7525.2589 C 2765.3726 7515.1065 2800.0584 7523.9941 2813.1745 7524.0094 C 2855.0869 7524.0624 2896.3555 7525.7084 2937.9215 7521.0837 C 2950.8472 7519.6284 2969.7844 7521.636 2980.9767 7513.8913 C 2994.6643 7504.4322 2988.8434 7488.7713 2976.0396 7482.3599 C 2946.8282 7467.7542 2914.0815 7457.7199 2882.4777 7449.7351 C 2879.0986 7448.8665 2844.8967 7439.0456 2857.0453 7433.4494 C 2874.6643 7425.3389 2913.2129 7446.5999 2930.992 7450.8094 C 2956.1996 7456.7675 2984.771 7453.7351 3010.691 7456.7865 C 3042.291 7460.5122 3076.1996 7471.7922 3107.7158 7478.1503 C 3125.8568 7481.8227 3180.5196 7497.137 3193.3044 7480.5237 C 3205.312 7464.9123 3186.3253 7449.0951 3175.2854 7440.1885 C 3144.8435 7415.6018 3101.8759 7393.5295 3064.4014 7382.0437 C 3059.8795 7380.657 3017.6204 7368.8932 3023.0452 7362.3599 C 3027.0109 7357.5599 3042.5347 7365.3732 3047.0757 7366.9503 C 3070.3443 7375.076 3092.4509 7384.3636 3116.3786 7390.7903 C 3203.0072 7414.0589 3286.6906 7447.4989 3371.0686 7477.8379 C 3387.861 7483.8684 3435.8876 7518.535 3452.2419 7507.1712 C 3467.5943 7496.4817 3459.0152 7470.1807 3449.9905 7458.1731 C 3421.7124 7420.5388 3385.5219 7381.5064 3362.8057 7340.3561 C 3359.4609 7334.3104 3335.2057 7303.8494 3337.9257 7298.9999 C 3339.7466 7295.7428 3358.699 7315.857 3360.6762 7317.8304 C 3382.2991 7339.438 3405.6857 7364.4552 3429.9791 7382.8209 C 3474.3143 7416.3485 3514.7029 7452.8895 3561.6551 7483.2099 C 3575.8456 7492.3756 3590.017 7508.2461 3606.7027 7512.7337 C 3622.2608 7516.9242 3638.8932 7508.1585 3653.4837 7503.9833 C 3676.078 7497.5185 3700.8361 7498.2461 3722.7713 7489.93 C 3755.8456 7477.389 3722.1465 7436.2729 3739.6284 7419.309 C 3745.4493 7413.6442 3753.7655 7423.488 3759.1713 7425.5299 C 3768.1998 7428.9432 3778.6989 7426.1356 3786.8932 7421.9261 C 3825.4608 7402.1394 3853.5294 7372.4099 3885.6513 7344.3756 C 3894.1922 7336.9089 3914.0284 7316.1356 3926.5923 7318.0251 C 3934.9961 7319.2899 3918.6227 7339.907 3916.9923 7343.8232 C 3908.2075 7364.8556 3885.598 7386.3375 3881.1447 7407.9261 C 3879.0151 7418.288 3882.497 7435.7013 3896.0476 7435.008 C 3906.44 7434.4899 3937.6628 7429.3585 3945.2514 7422.1509 C 3953.9142 7413.9223 3954.3485 7401.8461 3965.3504 7393.7738 C 3988.8285 7376.5509 4015.7009 7364.1967 4041.5828 7351.1833 C 4052.3104 7345.7966 4078.7638 7321.9223 4090.078 7325.7319 C 4104.718 7330.6538 4117.8532 7357.7509 4126.4818 7369.8119 C 4143.8418 7394.1014 4151.0151 7420.3681 4165.1713 7446.0443 C 4180.3827 7473.6291 4199.9942 7497.45 4210.7713 7527.4767 C 4216.5579 7543.6062 4231.3884 7601.3205 4252.9618 7597.9415 C 4275.4837 7594.4063 4278.3942 7555.6482 4278.897 7537.8729 C 4279.4874 7517.8272 4269.9065 7499.1643 4270.4436 7478.9624 C 4270.8246 7464.3948 4277.6855 7450.3072 4278.7408 7435.6481 C 4281.1331 7402.9891 4276.9579 7370.5395 4270.2684 7338.6233 C 4266.1274 7318.8214 4254.0703 7302.429 4248.6646 7283.1795 C 4247.7465 7279.9414 4243.1027 7267.0347 4247.3655 7264.8671 C 4253.3427 7261.8538 4266.996 7290.9776 4269.5941 7295.309 C 4284.7179 7320.5547 4300.4665 7347.3052 4310.6379 7375.008 C 4314.2608 7384.867 4313.8417 7403.4728 4325.8493 7407.008 C 4349.6398 7414.0251 4358.8055 7371.3851 4363.8455 7355.949 C 4365.076 7352.1738 4366.9465 7337.6366 4372.3522 7337.6366 C 4378.8855 7337.6366 4380.3065 7360.0023 4381.1713 7364.6118 C 4384.9998 7385.0232 4372.8208 7435.2175 4393.7008 7447.2747 C 4418.7332 7461.7433 4432.5427 7406.7147 4453.5446 7406.7147 C 4460.4741 7406.7147 4457.3731 7418.0823 4456.7636 7421.789 C 4454.615 7434.5395 4448.3103 7458.6576 4462.7255 7466.3338 C 4482.6684 7476.9548 4513.0226 7437.7814 4530.8169 7453.2176 C 4535.4074 7457.2024 4527.6283 7462.4862 4524.9426 7464.6881 C 4511.8607 7475.4652 4503.0759 7487.3852 4504.394 7504.951 C 4507.1826 7542.4443 4535.1483 7580.0596 4555.0378 7610.642 C 4562.3673 7621.903 4569.7997 7637.0991 4582.2035 7643.4572 C 4596.6187 7650.8553 4605.594 7639.6781 4616.8054 7632.0896 C 4635.0492 7619.7544 4656.3787 7610.4667 4675.7121 7599.8458 C 4710.5883 7580.7029 4737.9826 7570.1506 4776.2031 7560.6191 C 4787.7955 7557.7277 4802.3669 7549.2553 4814.3212 7550.7639 C 4831.925 7552.981 4849.4564 7567.7925 4864.565 7576.2153 C 4883.8831 7586.9924 4912.4355 7606.9505 4931.3574 7584.5314 C 4942.1003 7571.7771 4945.6164 7554.0209 4953.4984 7539.6057 C 4970.2717 7508.9543 4991.7384 7480.7295 4994.1308 7444.3105 C 4994.9613 7431.541 4971.6241 7386.581 4982.7822 7380.6724 C 4993.3498 7375.042 5021.7993 7386.5277 5032.626 7390.0286 C 5057.8527 7398.2077 5083.9974 7404.1162 5108.8622 7413.2286 C 5125.3727 7419.2934 5141.4184 7429.8953 5159.106 7431.8191 C 5202.3517 7436.5506 5227.5974 7370.9201 5263.064 7352.5696 C 5323.8602 7321.0877 5418.371 7371.301 5454.965 7300.5048 C 5459.7117 7291.3048 5464.7707 7282.7829 5467.7498 7272.7867 C 5472.1689 7257.9715 5480.3136 7234.2534 5471.7689 7219.4724 C 5467.0412 7211.2591 5454.8584 7207.6895 5447.6013 7214.7791 C 5433.0108 7229.0039 5442.8698 7250.8515 5420.7289 7263.9677 C 5398.8622 7276.9239 5347.266 7253.8306 5321.9708 7251.8725 C 5314.226 7251.2668 5305.7003 7247.0573 5305.9784 7238.1315 C 5306.6031 7218.882 5322.2641 7198.0591 5332.3479 7182.6915 C 5355.9631 7146.7372 5380.9308 7111.7925 5406.2108 7077.0005 C 5417.6432 7061.2862 5443.3575 7028.8367 5433.6356 7007.751 C 5420.3289 6978.9015 5380.1499 7022.65 5368.7518 7033.7396 C 5325.7118 7075.5453 5283.3499 7120.8901 5245.0948 7167.0956 C 5235.0986 7179.1566 5214.55 7208.5051 5195.5786 7196.6194 C 5180.9881 7187.507 5194.4852 7145.2137 5197.8148 7130.7108 C 5213.1824 7063.766 5241.7005 7001.0808 5260.0129 6934.9278 C 5264.5005 6918.6954 5283.5253 6861.0002 5257.811 6854.4516 C 5240.9196 6850.1545 5228.3062 6880.5087 5220.9081 6891.6135 C 5192.4433 6934.3221 5163.2814 6986.4211 5147.5862 7035.4195 C 5144.9004 7043.8233 5137.19 7095.3166 5127.7995 7095.3166 C 5118.9461 7095.3166 5122.7747 7060.3185 5123.468 7054.4785 C 5127.3995 7021.9756 5125.0261 6989.9566 5124.4737 6957.4537 C 5124.2642 6945.4461 5124.5237 6926.0747 5108.8432 6923.4766 C 5087.8108 6920.0099 5089.0756 6953.2442 5087.327 6966.1166 C 5082.4927 7001.408 5076.7213 7037.8614 5065.548 7071.8046 C 5062.3061 7081.6446 5057.3004 7101.6408 5046.2794 7105.5913 C 5032.6451 7110.4751 5011.4718 7066.1742 5006.6908 7056.2123 C 4992.6718 7026.9475 4970.3937 7014.9742 4947.746 6993.6294 C 4929.346 6976.2884 4913.407 6955.6523 4896.7403 6936.6618 C 4888.0775 6926.8028 4868.706 6898.4942 4852.9574 6911.7323 C 4841.0184 6921.778 4849.5974 6938.8637 4856.386 6948.7913 C 4876.9346 6978.818 4896.9117 7009.3284 4915.487 7040.6199 C 4919.9556 7048.1551 4938.1651 7076.6923 4927.9099 7084.1742 C 4920.4585 7089.6142 4874.8242 7063.0885 4864.5651 7058.9818 C 4811.6165 7037.7589 4768.4775 7001.4275 4713.8301 6984.0485 C 4697.8377 6978.9704 4653.8149 6977.7437 4644.1463 6963.8809 C 4637.4568 6954.2809 4651.872 6933.3361 4656.2225 6924.5361 C 4671.5368 6893.5571 4701.9254 6856.1323 4703.312 6820.5781 C 4704.0777 6800.5514 4694.7711 6768.4791 4672.2491 6765.5343 C 4661.3158 6764.0981 4618.9196 6769.8467 4631 6753 C 4615.6967 6737.7591 4662.6491 6709.6562 4673.9786 6701.6372 C 4741 6668 4803 6620 4863 6574 C 4916.6493 6539.2063 4971.3956 6504.8482 5026 6475 C 5034.9658 6455.9525 5075.7163 6435.1792 5058.6877 6414.1277 C 5045.2744 6397.5144 5022.6153 6423.9525 5002 6428 C 4965 6457 4920.0096 6490.4325 4880 6514 C 4865.3127 6527.941 4844.0365 6547.3658 4831.6974 6544.5239 C 4817.8041 6541.3201 4807.2707 6510.8058 4788.8517 6524.2344 C 4771.5603 6536.8134 4790.3412 6572.2801 4770.9546 6589.5715 C 4720.3298 6634.7067 4656.0826 6665.3886 4604.6766 6710.2455 C 4567.3052 6742.855 4542.8252 6783.3769 4510.8747 6820.5765 C 4486.4785 6848.9917 4462.7071 6901.247 4422.7566 6906.2184 C 4414.1776 6907.2927 4397.7204 6911.2089 4390.3566 6905.7155 C 4369.8233 6890.4355 4400.8556 6833.9022 4404.3566 6815.3803 C 4421.8537 6722.7022 4428.6271 6633.9253 4457.9795 6543.3613 C 4466.4519 6517.2165 4473.1909 6490.4318 4479.3433 6463.6623 C 4481.0576 6456.1423 4487.1566 6441.4528 4477.6785 6436.5994 C 4456.9395 6425.9442 4439.248 6468.8089 4433.5147 6480.988 C 4406.2957 6538.7899 4380.688 6596.984 4360.3833 6657.712 C 4340.89 6716.0168 4312.7528 6777.556 4282.9852 6830.973 C 4273.3205 6848.333 4267.3776 6868.8282 4255.2823 6884.6644 C 4241.2328 6903.0492 4207.2213 6898.3368 4196.269 6917.8606 C 4185.5109 6937.0606 4211.8652 6954.5577 4221.149 6967.8492 C 4224.5624 6972.7331 4234.0252 6983.1292 4229.0348 6989.3654 C 4224.01 6995.655 4199.3205 6994.1312 4192.3186 6991.8454 C 4169.2405 6984.3254 4144.8824 6970.7254 4119.5529 6975.9749 C 4100.2348 6979.9749 4056.2234 7003.7463 4038.311 6997.5787 C 4025.4386 6993.1597 4039.4195 6973.0301 4042.8824 6966.1158 C 4058.1129 6935.8301 4074.6272 6904.4701 4093.0767 6876.0206 C 4104.3034 6858.6949 4128.3719 6842.6339 4133.3434 6822.3101 C 4136.2691 6810.3558 4129.8272 6799.0415 4127.4539 6787.6587 C 4121.7853 6760.5082 4114.0253 6733.8111 4108.8253 6706.2263 C 4098.3605 6650.6111 4103.9567 6592.7253 4103.9567 6536.4323 C 4103.9567 6508.8133 4108.3072 6482.3599 4111.0462 6454.9999 C 4112.17 6443.617 4114.7186 6430.6037 4102.1738 6424.3332 C 4083.8767 6415.1866 4077.4157 6447.0113 4073.7052 6458.4665 C 4059.7928 6501.4151 4054.0062 6547.2094 4049.0538 6591.8765 C 4042.6081 6649.8308 4038.3795 6706.0555 4026.8062 6763.4045 C 4023.93 6777.6293 4027.3967 6809.835 4015.0919 6819.1226 C 4005.5453 6826.315 3984.8786 6820.2845 3974.0138 6818.5855 C 3935.7928 6812.6084 3887.2633 6814.7226 3851.0158 6803.2712 C 3831.4729 6797.0845 3840.3263 6769.8122 3840.5853 6754.7417 C 3841.0006 6731.5227 3845.8539 6708.7379 3845.2634 6685.435 C 3844.5015 6655.5302 3840.1891 6628.4674 3847.3091 6598.8064 C 3851.2253 6582.4521 3862.452 6541.1112 3837.1377 6535.7397 C 3826.8482 6533.5378 3821.4082 6543.6216 3819.5339 6552.0254 C 3814.0787 6576.5244 3812.1739 6603.294 3808.6539 6628.2616 C 3801.6558 6678.0216 3788.6272 6737.8116 3761.8768 6780.7306 C 3754.513 6792.563 3745.1035 6813.7858 3731.4501 6819.1077 C 3712.9282 6826.3306 3675.732 6810.6696 3656.9472 6806.0601 C 3639.6558 6801.8163 3614.6577 6797.1725 3601.8348 6783.9344 C 3585.1681 6766.7306 3602.1129 6734.5554 3606.3225 6714.8906 C 3614.7758 6675.4582 3621.812 6635.6754 3633.4882 6597.0736 C 3640.5396 6573.7555 3652.9968 6553.9841 3657.6063 6529.5041 C 3661.5415 6508.6774 3660.4482 6477.1803 3637.873 6465.9003 C 3614.4825 6454.2051 3603.793 6509.2489 3596.3949 6522.5746 C 3564.4635 6580.1632 3557.2711 6632.8716 3541.5073 6695.8316 C 3538.8025 6706.6621 3531.5263 6749.4392 3518.1854 6751.0506 C 3506.5778 6752.4525 3492.5587 6726.5325 3487.1721 6718.3573 C 3474.2311 6698.7078 3458.0635 6673.4125 3451.534 6650.784 C 3446.0749 6631.8469 3446.353 6603.4316 3431.2445 6588.9326 C 3402.5702 6561.3821 3392.9207 6633.8583 3387.8235 6649.0507 C 3385.8501 6654.8907 3382.1435 6670.7612 3373.1492 6668.4412 C 3363.4311 6665.9612 3359.1835 6646.5745 3355.6863 6638.6583 C 3342.7606 6609.4088 3342.5511 6574.3078 3328.7606 6546.8297 C 3322.2463 6533.8697 3308.3149 6523.7326 3293.1225 6526.5745 C 3277.0082 6529.5726 3282.292 6546.0335 3283.8691 6557.2259 C 3286.8482 6578.483 3281.012 6600.0716 3280.9777 6621.3288 C 3280.9587 6628.1402 3282.4825 6639.3859 3275.6063 6643.645 C 3268.1358 6648.3079 3257.8806 6634.586 3253.793 6629.9955 C 3242.5282 6617.3974 3214.7225 6580.3384 3194.8825 6596.2431 C 3146.353 6635.1041 3234.4558 6698.1901 3222.433 6744.3461 C 3216.5587 6766.9366 3188.4368 6787.7975 3173.7968 6804.9861 C 3140.273 6844.3499 3111.7549 6887.3175 3079.9949 6927.9991 C 3043.8539 6974.2962 3009.252 7021.801 2973.3209 7068.3381 C 2967.8428 7075.4429 2946.1171 7111.8276 2936.7952 7110.1476 C 2926.8333 7108.3609 2938.4066 7078.8752 2939.8466 7073.5381 C 2947.2257 7046.041 2964.5018 7018.6505 2970.2352 6992.1057 C 2974.6352 6971.7286 2965.5419 6958.3533 2946.5857 6975.0238 C 2941.3362 6979.6486 2936.4333 6984.5514 2930.9933 6988.9705 C 2920.5971 6997.3896 2909.5762 7005.0124 2898.0714 7011.8391 C 2891.1076 7015.9801 2848.5019 7041.0353 2845.42 7028.2124 C 2841.4505 7011.6676 2867.1305 6977.2219 2872.6543 6960.9172 C 2891.0543 6906.6543 2891.8695 6849.7022 2905.6448 6794.5892 C 2910.6353 6774.6654 2928.7915 6720.4521 2894.6086 6715.6521 C 2864.1134 6711.374 2868.3419 6739.6826 2859.9229 6759.9378 C 2841.3819 6804.5016 2815.1153 6846.6197 2793.6829 6889.8808 C 2788.6581 6900.0179 2768.5781 6944.3532 2754.5286 6940.6465 C 2745.1877 6938.1856 2742.3838 6916.7722 2739.8353 6908.9398 C 2730.7382 6880.8369 2736.2505 6823.3512 2712.5629 6804.2728 C 2690.7343 6786.6728 2673 6806 2674 6822 C 2680 6862 2717 6939 2656 6933 C 2623 6919 2629 6781 2605 6697 C 2589 6665 2563 6668 2557 6709 C 2550 6730 2633 7064 2611 7085 C 2572 7094 2536 7157 2496 7120 C 2408 7110 2406 7106 2326 7053 C 2464.4709 6767.5836 2420.01 6703.3212 2303 7027 C 2279 7078 2156 7111 2144 7063 Z"
          style="fill: rgb(16, 14, 12); stroke: rgb(19, 21, 22); stroke-width: 0.967619;"/>
  </g>
</svg>