<svg xmlns:cc="http://creativecommons.org/ns#"
     xmlns="http://www.w3.org/2000/svg"
     xml:space="preserve"
     width="7.9573951in"
     height="6.7242107in"
     style="clip-rule:evenodd;fill-rule:evenodd;image-rendering:optimizeQuality;shape-rendering:geometricPrecision;text-rendering:geometricPrecision"
     viewBox="0 0 7957.3951 6724.2107"
     version="1.1"
>
<g transform="translate(-183.10079,-2150.0561)">
    <path
            d="M 6943.39 2705.32 c -6.0709 2.0118 -10.9055 7.7402 -15.3661 12.0394 c -4.5787 4.4055 -21.5079 14.8622 -20.5984 22.0984 c 1.374 10.7283 53.5433 19.2638 62.2756 15.7913 c 11.1654 -4.4331 -10.8071 -55.0591 -26.311 -49.9291 Z M 6893.8861 7138.6 c -9.5945 27.563 -14.0866 60.7165 -18.5197 78.8268 c -29.9449 122.539 -97.1142 319.811 -132.461 440.945 c -9.5551 32.7244 -19.6063 66.063 -26.5 99.4724 c -2.2795 11.0787 -2.4685 30.6299 -15.0394 35.3819 c -11.4409 4.3189 -28.5394 1.4724 -40.8858 3.0512 c -41.0236 5.2126 -82.3071 6.0354 -123.484 10.3937 c -73.8661 7.8189 -151.437 33.9921 -221.236 58.7559 c -29.4843 10.4606 -59.3583 22.7756 -89.185 31.7126 c -8.5906 2.5866 -23.4409 9.5669 -31.5197 3.0669 c -9.9134 -7.9921 -4.1339 -25.4134 -3.2598 -36.0315 c 2.2992 -27.3543 15.8661 -71.9606 6.4133 -97.7559 c -10.2717 -28.0236 -47.5551 -15.3858 -53.8504 -37.7835 c -17.4921 -62.2362 -15.6575 -129.673 -19.2087 -193.748 c -2.4527 -44.2126 -11.1811 -87.9094 -14.7323 -132.055 c -1.8464 -22.9921 0.055 -96.3622 -1.2283 -157.874 c -28.1893 -213.9585 -40.1893 -266.9585 -22.1893 -398.9585 c 258 57 449 54 596 93 c 141 28 179 36 264 48 Z M 6164.8351 4144.45 c -17.748 5.7598 -29.9252 27.7323 -39.0157 42.7047 c -26.0512 42.8583 -43.6142 97.6181 -49.752 147.492 c -17.8031 144.524 89.1969 259.449 139.638 385.882 c 17.4409 43.748 15.8622 105.646 19.1024 152.638 c 9.2126 133.256 -98.6142 242.075 -169.067 344.72 c -16.189 23.5827 -34.4724 43.8346 -46.0984 70.315 c -20.1181 45.7598 -10.2913 104.531 -7.685 152.638 c 1.7007 31.1811 -2.9489 63.2835 -5.3662 94.3268 c -12.5394 160.819 -29.2953 322.665 -36.874 483.638 c -2.5905 55.0197 1.8189 111.102 -1.8858 166.358 c -2.9646 44.1024 -19.2992 173.543 -2.8314 261.8375 c -14 53 -2 126 3 277 c -138 -50 -159 -60 -262 -90 c -1.2392 -297.5775 30.0758 -452.251 42.4104 -491.711 c 45.3268 -145.075 81.8228 -307.11 90.7913 -459.63 c 3.5157 -59.6654 18.3189 -120.567 -12.9134 -174.933 c -43.1142 -75.0315 -131.575 -32.4488 -191.398 -12.5709 c -19.8583 6.5866 -40.2323 11.748 -60.0236 18.4724 c -23.0866 7.8543 -45.5866 17.6969 -68.6024 25.8465 c -8.4567 3 -20.8543 6.0512 -25.2638 -4.6654 c -5.5709 -13.618 6.9134 -33.3936 11.252 -45.9488 c 13.1181 -37.8307 26.3071 -74.3779 41.5394 -111.4759 c 55.2047 -134.4211 120.996 -270.768 142.622 -415.035 c 7.9055 -52.7047 2.8976 -106.709 -0.7047 -159.5 c -1.9213 -28.2953 -7.4449 -59.4252 -0.7717 -87.4646 c 5.4213 -22.7756 25.622 -39.9962 38.9646 -58.311 c 26.2244 -35.9803 53.5118 -75.3583 73.9882 -114.909 c 48.6024 -93.7756 92.252 -189.768 135.248 -286.409 c 18.5197 -41.6063 27.9016 -91.0315 53.9528 -128.626 c 32.4134 -46.7677 85.9921 -74.1575 136.295 -96.5748 c 28.4528 -12.6732 70.8976 -23.6299 85.4921 -54.3465 c 8.3858 -17.7008 -5.9488 -26.9606 -20.3228 -33.3937 c -27.1142 -12.1575 -54.0394 -21.1969 -84.0354 -22.9646 c -8.1968 -0.4804 -36.7362 3.9448 -34.2835 -10.7362 c 4.0315 -24.1142 36.9567 -54.1614 51.2795 -73.5394 c 39.5827 -53.5787 73.9685 -109.78 111.512 -164.642 c 60.6772 -88.6535 111.512 -182.846 167.539 -274.406 c 28.0945 -45.9134 62.5669 -87.374 89.7638 -133.772 c 31.9882 -54.5394 64.9488 -107.071 100.142 -159.5 c 12.4016 -18.4646 18.248 -43.5354 35.0039 -59.0709 c 13.1024 -12.1417 27.7835 10.7441 35.0197 19.626 c 19.9803 24.5866 43.2205 45.2402 66.5787 66.5669 c 7.6339 6.9685 20.5472 21.2323 31.8661 13.4921 c 14.6457 -9.9922 -1.7677 -25.6142 -9.2441 -33.752 c -26.2047 -28.4724 -50.6299 -58.0157 -75.685 -87.4488 c -5.3346 -6.252 -27.9528 -19.8701 -24.3031 -28.9409 c 12.248 -30.4213 71.7244 -19.3189 94.5157 -15.5276 c 11.185 1.8622 29.6732 7.3346 36.3425 -5.7284 c 12.5354 -24.5866 -52.4803 -27.563 -65.4961 -29.7126 c -3.9803 -0.6575 -19.8937 -0.8858 -20.752 -6.2402 c -1.185 -7.3267 17.7323 -19.3661 22.4646 -23.5276 c 8.2323 -7.2283 25.8465 -32.3425 37.748 -30.2126 c 14.8346 2.6536 38.126 50.4094 54.3858 27.6811 c 15.3504 -21.4646 -41.4882 -59.3898 -16.189 -76.2559 c 10.2047 -6.7952 31.622 -19.0709 44.1102 -18.1575 c 10.6142 0.7717 21.5551 12.0394 29.1024 18.7244 c 28.2283 25.0354 40.9724 54.2953 49.0866 90.122 c 3.0512 13.4685 -4.5118 59.7756 17.8701 58.2598 c 16.9606 -1.1496 17.3543 -21.8819 17.0787 -34.248 c -0.7874 -34.4606 -4.185 -75.6299 -20.1339 -106.335 c -3.7559 -7.2244 -28.4685 -30.7598 -16.9764 -35.4921 c 18.6063 -7.6535 79.9882 -21.4488 91.4252 1.4056 c 10.7559 21.4882 13.2756 50.2874 19.2795 73.5315 c 2.3662 9.1378 5.7441 23.1535 17.3898 23.9606 c 30.5787 2.122 7.374 -65.4291 4.0473 -78.8386 c -1.5079 -6.0394 -7.3583 -22.2638 3.7047 -22.6496 c 19.2244 -0.6693 48.2087 33.7126 60.1969 46.7323 c 7.4764 8.1259 16.9291 21.2638 29.3268 13.1417 c 25.9843 -17.0394 -30.7165 -54.7835 -42.4291 -65.2559 c -18.1457 -16.2283 -44.9331 -19.5276 -60.9016 -34.8189 c -16.6024 -15.8898 -20.9409 -52.8661 -26.378 -74.3543 c -1.937 -7.6575 -7.3543 -17.7992 -4.9882 -25.7244 c 4.6457 -15.5236 30.1142 -37.2047 44.248 -44.437 c 18.7087 -9.5827 47.3858 -2.6693 66.8858 1.2165 c 33.5945 6.7008 64.4685 6.7795 92.4567 30.4843 c 32.6535 27.6575 41.2992 73.1535 72.252 100.819 c 19.4173 17.3425 41.315 32.0118 59.3425 50.8504 c 6.3779 6.6614 15.4843 17.5984 25.8976 12.3071 c 27.0433 -13.7441 -28.5039 -65.7559 -38.315 -79.2087 c -18.626 -25.5591 -20.5472 -57.5551 -33.3386 -85.752 c -22.7598 -50.1535 -67.4528 -71.5236 -119.984 -76.0748 c -6.4843 -0.5591 -54.0394 0.9646 -44.7795 -9.9764 c 13.685 -16.1299 41.4528 -24.7205 60.2126 -33.2244 c 20.6496 -9.3701 43.0157 -23.7835 65.1732 -28.748 c 51.7598 -11.5906 97.8583 24.3386 133.772 55.0394 c 30.6142 26.1614 51.6378 48.3583 89.1811 64.311 c 10.8583 4.6181 25.6417 13.8425 37.6457 8.8307 c 10.7874 -4.5078 15.9331 -16.2874 7.5787 -25.626 c -11.7283 -13.1142 -32.6378 -17.2402 -46.9213 -27.1299 c -18.9843 -13.1457 -32.8425 -33.1654 -51.4685 -47.2323 c -4.9055 -3.7086 -33.0472 -20.1378 -29.1732 -27.6181 c 3.567 -6.8622 29.3976 -1.7677 36.0315 -1.7598 c 26.5827 0.031 54.1969 -2.1221 80.6063 1.2559 c 11.1339 1.4252 27.5276 5.6811 36.1732 -4.0315 c 25.0394 -28.1339 -43.2717 -27.626 -55.0354 -29.3228 c -66.7323 -9.6142 -134.547 -21.8583 -202.374 -15.1299 c -47.7323 4.7323 -87.9488 23.1299 -132.059 40.7795 c -11.0079 4.4094 -23.9055 2.5315 -34.2992 7.685 c -16.0354 7.9449 -27.3031 24.2283 -42.878 33.374 c -53.748 31.5472 -102.299 60.0551 -150.921 98.8465 c -25.622 20.4449 -55.0512 34.311 -78.8228 57.2047 c -13.4134 12.9173 -17.5118 30.0394 -28.6063 44.2992 c -20.1693 25.9173 -51.8622 58.3898 -76.9882 79.248 c -13.4449 11.1614 -30.563 -9.2047 -44.1457 4.1457 c -15.6575 15.374 -4.8189 37.7008 -12.5197 55.5236 c -11.7126 27.1142 -38.878 52.2283 -56.9567 75.4606 c -8.9173 11.4606 -17.748 27.5709 -29.9252 35.7559 c -15.1457 10.1693 -33.2874 11.9685 -46.4606 26.5039 c -3.2401 3.5748 -8.1653 14.2402 -14.3031 12.5984 c -7.0315 -1.874 -9.8779 -15.8898 -12.0551 -21.6929 c -10.5157 -28.1575 -0.5 -50.2913 1.937 -78.8898 c 1.063 -12.4449 -7.685 -25.8661 -21.3189 -18.3189 c -31.0079 17.1654 -35.5354 57.1575 -30.063 88.6339 c 4.2874 24.752 19.2756 47.4488 24.8504 72.0315 c 5.3859 23.7205 -7.4606 84.311 -22.8976 102.902 c -50.2835 60.5866 -105.37 115.937 -154.028 178.366 c -21.815 27.9685 -36.3071 61.4921 -58.0866 89.1732 c -32.4488 41.2283 -71.2244 76.874 -102.457 120.059 c -24.6614 34.1299 -41.315 73.5433 -65.1024 108.047 c -50.1299 72.7362 -107.465 141.547 -149.909 219.524 c -32.7402 60.1811 -49.6496 125.866 -76.3189 188.654 c -50.4409 118.764 -113.689 234.016 -176.528 346.437 c -27.6457 49.4409 -52.311 109.28 -86.0079 154.35 c -24.252 32.4331 -48.1417 25.9843 -84.4685 29.6024 c -53.0945 5.315 -117.512 2.5197 -168.071 19.5 c -57.1969 19.2087 -108.819 62.9921 -156.067 99.0079 c -65.8583 50.1811 -136.5 97.7913 -192.996 158.984 c -84.5472 91.5669 -128.846 204.362 -172.598 318.894 c -63.6614 166.614 -119.984 343.657 -204.74 500.787 c -34.5748 64.0748 -109.374 193.953 -128.72 264.252 c -2.3543 8.5394 -6.4409 20.1024 -9.0826 31.9606 c -13.9933 21.2621 -34.9933 51.2621 -116.9933 249.2621 c -33 118 -133 423 -142.0148 499.0335 c -12.3386 23.1614 -20.3819 56.185 -29.0591 71.0079 c -38.2835 65.3937 -63.1142 140.579 -70.0079 216.091 c -5.6103 61.3819 -0.02 124.307 -6.3819 185.224 c -4.2205 40.374 -2.315 81.2913 -0.874 121.768 c 0.4094 11.6457 5.0945 35.811 21.9685 32.1378 c 14.4409 -3.1378 15.315 -25.811 17.2362 -37.2835 c 6.689 -40.1142 14.2165 -79.9528 21.0433 -120.051 c 17.252 -101.394 48.7087 -205.839 85.1693 -301.846 c 15.2598 -40.2283 43.1969 -81.4016 53.752 -122.512 c 45.1684 -91.5697 77.1684 -170.5697 207.1684 -412.5697 c 148 92 214 129 461 177 c -409.3736 398.7389 -401.0271 403.7626 -392.7712 408.6562 c -40.9252 40.1811 -84.6575 101.535 -113.764 124.004 c -78.0669 60.2638 -107.071 136.063 -168.039 215.709 c -30.1654 39.4134 -41.6575 89.4213 -69.0472 130.343 c -17.1142 25.5709 -42.7205 44.2638 -61.6732 68.6024 c -30.6299 39.3583 -51.622 88.6654 -61.9646 137.201 c -11.1102 52.1378 -12.2441 108.441 -6.2599 161.213 c 5.7835 50.8701 19.7087 103.075 11.1654 154.354 c -20.374 122.331 -92.8346 232.248 -115.508 355.012 c -5.5197 29.8583 -9.6889 60.6417 -12.2953 90.8937 c -0.9094 10.5827 2.1457 26.2087 16.3622 24.3031 c 26.5827 -3.5826 53.6811 -62.3583 63.1811 -84.3268 c 35.811 -82.8189 87.7598 -162.602 131.441 -241.819 c 29.122 -52.7913 76.1654 -102.236 84.3622 -164.646 c 12.6063 -95.9213 -31.815 -197.894 -6.7401 -291.555 c 14.9724 -55.9921 52.4803 -99.315 80.2441 -149.205 c 31.8504 -57.248 51.9173 -124.874 89.0787 -178.366 c 41.6614 -59.9724 49.8268 -131.587 98.7717 -185.335 c 23.0197 -25.3031 65.2165 -96.8583 89.9016 -142.205 c 6.7874 2.2481 13.8976 4.063 21.4528 5.2874 c 46.5472 7.563 27.2008 -42.5 18.7638 -65.3425 c -3.567 -9.6889 -2.6621 -17.7785 8.7126 -22.4173 c 61.6253 -79.3612 206.6253 -112.3612 281.6253 -238.3612 c 22 -54 44 -65 86 -31 c -112.4005 431.4715 -129.7981 513.8573 -133.0934 535.3143 c -17.1535 111.717 -3.3977 226.776 -24.8346 337.858 c -5.1811 26.8071 -32.9961 28.5394 -43.6811 51.4528 c -49.1378 105.406 -113.724 202.374 -185.449 294.984 c -57.3819 74.1063 -117.067 149.209 -156.598 234.961 c -31.5748 68.5157 -48.0709 141.85 -66.9528 214.378 c -16.9803 65.189 -37.1654 129.709 -52.1732 195.512 c -3.6536 16.0039 -14.4409 56.8898 2.5039 67.9173 c 11.0433 7.1851 20.3583 -4.0472 24.937 -13.0512 c 12.5866 -24.7323 21.5906 -51.4882 32.0354 -77.1614 c 49.9409 -122.795 147.374 -210.157 221.429 -317.28 c 20.0669 -29.0197 38.6575 -58.7244 59.1693 -87.4685 c 2.8465 -3.9763 16.0866 -29.2559 22.3622 -25.5709 c 8.6103 5.0433 -3.4134 35.6063 -5.2126 42.7244 c -11.0276 43.2874 -17.8346 89.4724 -23.4094 133.772 c -21.1654 168.209 -40.4252 336.315 -64.1929 504.217 c -5.7283 40.3898 -13.878 71.6378 -8.3701 113.193 c 2.0394 15.4016 11.8858 39.7913 32.0512 29.6024 c 14.7323 -7.4252 26.378 -28.0079 37.6811 -39.8937 c 16.2756 -17.0984 40.063 -43.8346 49.4252 -65.4094 c 7.1378 -16.4134 2.8307 -43.185 6.2284 -61.5 c 11.3701 -61.0394 20.0472 -122.713 32.4803 -183.508 c 35.3819 -172.929 89.2677 -340.606 126.878 -512.795 c 21.2835 -97.5 32.2598 -194.657 45.3819 -293.272 c 9.6732 -72.7835 39.3071 -149.394 37.1654 -222.953 c -0.8228 -27.9567 -33.0512 -25.2638 -38.5197 -48.0906 c -4.3583 -18.1969 4.2165 -45.2913 7.7834 -63.3858 c 5.5237 -27.8858 5.9016 -56.2205 10.9449 -84.0354 c 6.8741 -37.9724 20.6654 -74.5197 36.3071 -109.764 c 5.2599 -11.8543 22.4803 -65.3858 33.8701 -109.587 c 22.5669 6.4607 46.0157 9.8426 70.6772 8.1929 c 57.7953 -3.874 6.2599 -76.437 -6.8779 -97.5512 c -3.6024 -5.7952 -25.126 -32.2756 39.0537 -381.802 c 86 31 136 37 216 41 c 80 22 127 47 209 77 c -94.5652 397.5933 -101.2621 392.4713 -118.1794 415.7823 c -41.2126 56.7717 -114.232 162.697 -144.992 203.031 c -42.189 55.3268 -87.5709 110.433 -133.205 162.913 c -22.9646 26.4252 -49.7559 47.9488 -67.5039 78.9055 c -7.2559 12.6575 -12.0079 26.689 -7.6851 41.1614 c 4.0119 13.4449 15.8307 24.6811 10.7717 39.4449 c -6.811 19.8465 -20.685 37.2008 -28.8465 56.5984 c -30.0157 71.1378 -56.7008 146.705 -56.7165 224.669 c -0.02 42.9764 -0.2755 86.2638 15.7087 126.909 c 23.1535 58.8976 70.1969 99.815 104.858 150.925 c 16.1024 23.752 25.1063 49.4606 39.1378 73.4882 c 4.3386 7.4449 13.0827 13.1732 21.6772 8.9528 c 23.752 -11.6811 10.0984 -81.7913 7.3583 -103.024 c -5.4882 -42.4803 -13.878 -81.1181 -39.2756 -116.622 c -39.3268 -54.9134 -96.3701 -93.5709 -86.4567 -168.071 c 8.8858 -66.8858 54.6063 -106.331 85.5472 -162.929 c 18.3504 -33.563 20.1181 -74.2756 41.0079 -106.331 c 21.2992 -32.6732 48.2756 -59.185 72.8543 -89.1811 c 63.1969 -77.0906 131.61 -155.76 187.28 -238.39 c 14.0787 -20.8937 53.3819 -81.815 82.8976 -128.988 c 10.6417 87.8189 28.5591 216.768 37.9961 266.189 c 23.6142 123.74 70.6772 271.972 29.0512 396.173 c -12.7598 38.1063 -38.7598 65.1535 -60.8307 97.7559 c -30.8386 45.5512 -57.9173 94.2598 -72.9252 147.492 c -13.7362 48.7244 -19.1732 99.1811 -9.3268 149.209 c 3.6182 18.3701 10.752 47.9016 35.6181 45.2953 c 21.6614 -2.2835 17.7165 -38.4016 22.0906 -53.8701 c 16.9291 -59.9567 36.874 -113.331 63.4055 -169.787 c 41.2638 -87.7913 115.488 -152.965 151.453 -245.252 c 56.0157 -143.717 -11.0079 -284.264 -53.2677 -421.894 c -8.1811 -26.6378 -23.6693 -129.992 -33.6969 -197.909 c 12.6339 5.3032 26.4213 9.5236 38.689 6.4606 c 37.5591 -9.4015 10.9055 -73.1496 -0.8582 -93.248 c -2.437 -4.1496 -50.636 -88.8591 -5.4016 -26.4961 c -71.2344 -202.363 -51.2344 -231.363 -39.2344 -360.363 c 204 45 237 63 282 92 c -4 80 -11.8284 371.7449 -4.1236 374.8788 c 0.01 3.2047 0.024 6.4566 0.024 9.7322 c 0 45.8583 -0.7047 214.547 -4.9094 260.114 c -6.7047 72.4961 -9.1063 145.28 -15.2795 217.807 c -5.7126 67.0591 -16.3622 134.976 -16.689 202.374 c -0.2362 53.7165 1.9212 107.669 5.4882 161.213 c 1.7008 25.4173 9.2441 58.8622 4.9567 83.815 c -2.4016 13.9961 -25.9291 6.7048 -36.1693 10.4803 c -17.4567 6.4292 -30.1339 24.3346 -39.752 39.4803 c -53.3898 83.9646 -97.1929 176.492 -137.031 267.543 c -12.9843 29.7047 -22.0394 67.0394 -42.2756 92.6102 c -42.1063 53.2362 -103.52 88.7874 -142.811 145.78 c -11.9724 17.374 -63.6811 72.0472 -33.8543 91.9921 c 9.9645 6.6733 24.815 3.8071 35.5669 0.8937 c 30.1339 -8.1968 62.3622 -22.811 90.8976 -35.6378 c 34.248 -15.4173 72.4449 -24.252 101.083 -49.7717 c 18.2677 -16.2756 26.1575 -36.9921 38.6575 -57.2126 c 30.8898 -49.9921 55.4488 -104.961 81.3268 -157.783 c 16.9134 -34.5079 29.5354 -73.8819 43.8543 -109.76 c 4.7834 -11.9567 13.3071 -35.5039 26.7717 -39.6181 c 45.6181 -13.9606 34.2165 57.6417 37.2165 84.2087 c 2.9685 26.2205 12.2953 53.5591 13.9094 78.8898 c 4.2677 67.9685 -1.8347 137.598 -1.5276 205.803 c 0.122 25.2283 1.5079 54.8307 9.6378 78.874 c 3.5354 10.4449 13.6024 23.6181 26.122 17.5118 c 20.5787 -10.0512 29.9094 -65.7717 38.7087 -86.0945 c 12.5354 -29 28.2638 -56.0118 33.9567 -87.4685 c 14.1496 -78.1181 1.2323 -159.961 6.8268 -238.39 c 5.1771 -72.3898 18.248 -153.236 38.4843 -222.953 c 6.2756 -21.5748 4.9055 -48.122 18.1772 -66.8858 c 17.5276 -24.748 58.4685 -42.5512 85.3425 -55.9449 c 10.1535 -5.059 26.2402 -12.811 37.7283 -8.7637 c 12.4173 4.3897 23.8583 24.748 39 16.878 c 16.9134 -8.7835 1.7322 -32.7913 17.8031 -43.9409 c 45.7244 -31.6772 102.472 -34.6417 154.146 -49.1181 c 52.8937 -14.7992 97.2953 -46.7874 152.638 -56.3543 c 11.748 -2.0434 29.2441 -11.1142 40.8701 -8.252 c 16.5669 4.0669 4.4921 30.7874 1.6811 40.8543 c -9.5197 34.0433 -18.2992 69.7165 -23.8228 104.614 c -1.937 12.2283 -2.126 34.5433 -14.2323 41.6102 c -17.1339 9.996 -49.7362 -10.0866 -67.9528 -12.0079 c -30.3386 -3.189 -64.9134 12.5197 -90.8937 26.874 c -67.1969 37.1142 -109.539 97.8425 -153.598 157.906 c -49.8386 67.9646 -102.748 138.984 -125.937 221.236 c -10.1496 36.0157 -41.9646 106.984 -16.5669 141.902 c 12.5039 17.185 27.3898 2.2834 35.6575 -9.8583 c 20.5787 -30.1693 33.5984 -64.8976 52.685 -96.0276 c 36.6339 -59.7835 88.4252 -105.028 135.402 -156.067 c 42.7205 -46.4252 80.1417 -97.3465 122.591 -144.063 c 20.6654 -22.7402 43.8346 -48.6378 71.5354 -62.8031 c 7.7165 -3.9449 21.3504 -11.8504 30.1299 -7.5275 c 9.9488 4.8858 5.559 20.6457 4.7874 29.1693 c -2.5394 27.9213 -2.3347 56.0157 -4.9922 84.0394 c -6.9094 73.0433 -16.189 147.61 -30.9724 219.524 c -5.7283 27.8858 -9.6574 56.252 -15.6417 84.0354 c -3.7047 17.185 -11.2323 31.7441 -10.6496 49.7362 c 1.2008 36.3937 6.2087 74.6024 8.7284 111.476 c 0.7205 10.5315 4.563 27.4409 18.5748 26 c 12.5039 -1.2678 19.9449 -20.1693 25.7756 -29.4291 c 19.3976 -30.8031 42.189 -58.878 62.3071 -89.1811 c 17.2362 -25.9488 40.2717 -49.1693 54.1102 -77.1772 c 35.7402 -72.3386 52.2913 -157.457 73.5906 -234.961 c 12.5039 -45.4646 12.8465 -106.091 35.1063 -147.492 c 12.0236 -22.3307 42.4134 -38.4685 66.4252 -43.9055 c 18.4528 -4.1851 46.1181 -5.8819 49.2913 -29.8386 c 8.248 -62.6693 -70.9685 -44.0079 -99.6811 -70.2165 c -12.9646 -11.8504 -4.4921 -47.4882 -4.4921 -63.5591 c 0 -13.9764 -4.937 -43.8858 9.3464 -52.7008 c 13.4803 -8.3189 30.3228 19.0039 37.4764 26.9764 c 29.4803 32.878 51.9961 71.689 81.0157 104.429 c 11.2323 12.6732 28.8661 18.8465 37.7323 0.1378 c 7.6654 -16.1732 1.2008 -34.6457 -0.4803 -51.4016 c -5.748 -57.4882 -38.0906 -108.079 -48.689 -164.642 c -7.5472 -40.2008 -2.248 -83.5236 -19.2638 -121.768 c -4.5787 -10.2717 -11.8307 -21.3858 -23.4094 -24.3543 c -13.9409 -3.567 -34.815 7.8543 -35.6181 -15.1063 c -1.1496 -32.2795 22.0866 -69.0157 31.5551 -99.4567 c 21.9331 -70.5906 56.2087 -221.059 78.5039 -291.736 c 8.9055 -28.2402 23.9488 -60.685 30.1063 -92.2441 c 11.0065 -30.9257 19.0065 -16.9257 22.0065 -47.9257 c 36.9582 -86.2716 24 -63 32 -75 c 11 -16 15.8676 -22.6968 21.5448 -21.6141 c 90.4552 -333.3859 104.4552 -380.3859 115.1855 -421.0866 c 37.8858 -69.5748 92.8543 -167.307 107.543 -190.89 c 11.3386 -18.2283 22.8622 -50.7992 43.1339 -60.0236 c 35.2283 -16.0354 71.2756 -0.3622 104.583 11.437 c 57.2126 20.2559 114.394 39.874 171.504 59.9409 c 76.2323 26.7874 189.579 7.0669 262.398 -22.2598 c 45.7047 -18.3858 83.3504 -24.6969 120.276 -60.5079 c 10.874 -10.5472 31.3189 -32.311 16.4646 -48.7559 c -9.622 -10.6535 -30.4921 8.8465 -40.6969 11.9016 c -25.5906 7.6496 -70.4724 5.3347 -96.0433 -1.563 c -52.8898 -14.2677 -101.098 -44.1772 -152.638 -63.2126 c -20.4094 -7.5315 -41.3819 -8.3701 -61.7402 -14.4252 c -67.4173 -20.0669 -135.417 -40.0118 -205.803 -46.9764 c -37.7323 -3.7204 -81.189 1.063 -114.906 19.4843 c -5.5591 3.0197 -31.0591 26.6496 -36.2047 21.7283 c -7.563 -7.2362 13.374 -47.2638 16.8386 -55.4449 c 24.2677 -57.3701 60.5945 -106.299 97.5 -156.067 c 61.4173 -82.8189 111.685 -180.028 120.327 -284.697 c 5.5748 -67.315 -9.2756 -129.244 -17.7677 -195.512 c -6.311 -49.2402 -5.8307 -99.6457 -5.7598 -149.209 c 0.051 -34.4567 2.0236 -69.3386 10.2717 -102.902 c 6.996 -28.5236 21.0079 -59.5315 21.6102 -89.1811 c 0.3779 -18.7638 -20.4803 -29.1929 -37.0276 -26.2756 c -28.1614 4.9725 -51.2992 31.0748 -70.3346 50.2835 c -56.4409 56.9724 -90.5197 141.492 -117.067 216.094 c -16.5 46.4094 -19.811 92.3386 -26.5 140.634 c -17.7126 127.681 -15.5866 256.74 -34.1614 384.165 c -11.3858 78.0866 -29.9803 163.579 -60.0433 236.673 c -21.9685 53.3898 -54.8307 102.15 -76.2835 156.071 c -17.1417 43.0512 -101.409 208.756 -206.2033 492.1911 c -128 2 -196 16 -316 10 c -144 -9 -228 -21 -380 -27 c -109 -67 -154 -62 -193 -66 c 32.2145 -342.6754 29.6948 -536.4742 40.4074 -599.5612 c 6.756 -39.8228 25.7087 -77.0551 30.4252 -116.622 c 6.3426 -53.063 -21.5236 -98.7165 -23.1535 -149.209 c -2.4724 -76.0945 20.4921 -153.39 21.3504 -229.815 c 1.3544 -120.323 -24.8346 -248.78 20.2559 -365.299 c 13.2205 -34.1811 35.6535 -63.4567 51.9646 -96.0433 c 56.2874 -112.386 117.358 -222.043 191.382 -324.138 c 33.2717 -45.9134 69.8504 -91.5 98.252 -140.634 c 9.8977 -17.1339 26.1535 -37.7638 26.2913 -58.311 c 0.2914 -38.126 -41.2953 -44.6929 -66.6299 -26.8937 c -48.6693 34.2165 -82.3543 96.0787 -116.894 143.516 c -4.8385 6.6378 -32.7244 56.937 -43.1496 43.2165 c -6.5511 -8.6575 -1.1692 -35.8425 -1.1692 -46.6457 c 0 -37.6811 -2.004 -76.2874 -10.0984 -113.193 c -13.1063 -59.8189 -34.5787 -116.315 -61.0236 -171.504 c -29.8898 -62.3583 -65.6496 -123.02 -70.8976 -193.799 c -2.5748 -34.8976 -3.5 -71.7047 2.5708 -106.331 c 2.7638 -15.7953 13.9094 -30.5433 14.7835 -46.2874 c 0.689 -12.8465 -10.8031 -20.9094 -22.8268 -16.9961 Z M 4704.1351 6051.53 c 18.7087 -35.1929 88.9646 -123.02 110.969 -156.205 c 47.5236 -71.6024 92.5945 -154.815 114.823 -238.39 c 38.311 -144.047 43.1496 -293.425 114.717 -427.043 c 30.4606 -56.8858 66.4252 -101.461 113.469 -145.52 c 35.3268 -33.0984 74.378 -56.7165 101.717 -98.0157 c 52.8583 -79.8504 83.4213 -181.535 146.209 -253.772 c 24.6772 -28.4016 71.4646 -57.9488 110.358 -37.2165 c 27.5787 14.6969 -4.6457 75.6181 -11.1457 97.1929 c -15.9331 52.874 -20.8386 107.429 -32.3622 161.213 c -9.2795 43.374 -25.5197 85.0472 -34.815 128.626 c -12.5551 58.878 -21.9173 120.516 -37.4724 178.362 c -13.1732 48.9646 -33 96.0945 -49.2559 144.063 c -6.622 19.5 -7.5472 41.0591 -15.437 60.0276 c -17.1142 41.1102 -67.1417 52.2205 -79.0276 97.7559 c -4.2008 16.1378 -1.7835 33.6496 14.4921 41.8307 c 11.2835 5.6417 30.4567 6.0354 32.8937 21.6772 c 2.0905 13.4646 -7.2559 29.9961 -10.6496 42.8228 c -10.4094 39.4134 -23.7362 76.7323 -38.0748 114.909 c -37.0118 98.563 -77.2283 194.449 -109.043 294.984 c -8.4764 26.7835 -41.7205 90.8976 -36.4997 140.1681 c 7 45 -65 60 -62 98 c -16 49 58 79 26 174 c -287 -45 -359 -82 -501 -170 c 94.3031 -217.9213 99.6417 -212.6614 117.6496 -246.5433 Z M 5273.9621 6258.731 c 32.1654 -96.8465 87.8937 -231.811 99.3858 -318.815 c 5.5197 -41.8307 12.0709 -83.3858 17.6654 -125.197 c 8.4882 -63.4055 15.622 -135.437 74.0866 -174.094 c 25.7598 -17.0276 57.9331 -17.5276 87.4685 -22.5354 c 43.6811 -7.4252 105.783 -32.689 135.484 16.5669 c 22.4843 37.2677 22.2992 95.0984 22.2992 137.185 c 0 124.823 -40.5787 238.598 -68.7402 358.445 c -7.5709 32.248 -23.6654 150.417 -28.8031 235.437 c -2.0079 33.2913 2.2598 30.563 -11.8083 271.2765 c -103 -55 -137 -64 -195 -81 c -85 -11 -126 -28 -201 -40 c 43.7966 -214.8159 54.3596 -213.3002 68.962 -257.2687 Z"
            style="fill: rgb(16, 14, 12); stroke: rgb(0, 0, 0);"/>
</g>
</svg>