<svg xmlns:cc="http://creativecommons.org/ns#"
     xmlns="http://www.w3.org/2000/svg"
     version="1.1" width="235.16647" height="338.20911"
     viewBox="0 0 235.16647 338.20911"
>
    <path d="m 36.955477,338.2091 c -0.359,-4.1281 2.3333,-8.9742 3.7691,-12.8631 0.6582,-0.1794 1.3163,-0.3589 1.9744,-0.5384 1.376,-4.9658 6.3418,-8.376 10.3503,-11.1281 0,-2.5726 0,-5.0854 0.0598,-7.5982 -1.0171,-1.8546 -2.0342,-3.6495 -3.0512,-5.4443 -0.5983,-2.5128 -1.1966,-5.0256 -1.7949,-7.5384 -0.9572,-7.1794 -0.2393,-13.94 0.2992,-21.1792 -3.7094,-7.4785 -7.1794,-15.1964 -10.0512,-23.0339 -1.2564,-0.6581 -2.453,-1.3162 -3.6495,-1.9145 -2.2735,0.359 -4.1282,1.4957 -6.4615,1.4957 -4.1281,-6.3418 0.4188,-10.2904 1.0171,-16.6921 -1.2564,0 -2.5128,0 -3.7692,0.0599 -0.5384,-1.5556 -1.0769,-3.1111 -1.5555,-4.6068 0,-4.4871 1.735,-8.5554 1.735,-13.1024 -2.6923,-1.2564 -5.3247,-2.453 -7.9571,-3.6495 -0.718,-3.7692 -0.718,-3.7692 -1.9146,-13.4614 -0.9572,-2.6324 -1.9145,-5.205 -2.8119,-7.7777 -1.9743,0.7778 -3.4699997,1.5556 -5.5639997,1.5556 -1.3162,-1.3162 0.4786,-9.6324 0.7179,-11.5469 -2.9914,-1.1965 -5.564,-3.2307 -8.25630005,-5.0255 -0.3589,-3.3504 1.73500005,-6.4615 1.73500005,-9.8119 -0.2991,-0.8974 -0.5982,-1.7948 -0.89740005,-2.6923 0,-21.7176 0,-21.7176 0.41880005,-30.991 1.3162,-1.8547 2.6325,-3.7093 3.9487,-5.564 -0.359,-0.1795 -0.6581,-0.359 -0.9573,-0.4786 -0.3589,-5.2051 1.2564,-10.8888 1.9744,-16.0939 0.2393,-6.2819 0.4786,-13.222 5.2648997,-18.0083 5.8631,-8.7947 16.7519,-15.3758 26.0851,-19.6835 0.6581,-0.8974 0.9572,-1.5555 2.094,-1.9145 0.2991,-1.3162 1.4358,-1.0769 1.6752,-2.2136 1.4358,-1.3761 2.8717,-2.6923 4.3674,-4.0085 4.9658,0 10.0512,4.4273 12.3845,8.376 7.1195,4.0683 15.5553,4.3076 20.4612,11.3075 0.4787,1.1367 0.9573,2.3333 1.4359,3.5299 5.0256,3.4102 13.2221,1.9145 18.9057,1.9145 2.213703,2.2136 2.034203,6.8802 2.034203,9.8118 1.1966,0.7179 2.3931,1.4359 3.5897,2.2137 0.5983,4.2478 0.5983,4.2478 1.1367,5.6836 0.8376,0.1197 1.6752,0.2393 2.5727,0.4188 1.9743,2.8718 2.7521,4.4872 5.923,5.9829 0.7777,3.829 0.7777,3.829 0.7777,6.5212 -3.111,8.1965 -9.4528,13.1623 -14.6579,20.0425 -2.034203,6.7008 -1.735003,14.9571 -2.213603,21.957 0.8974,4.188 0.8974,4.188 1.4957,5.0854 4.128103,2.2136 8.316103,4.0683 12.683603,5.7435 15.4955,2.6324 30.991,5.3845 46.3669,8.6153 4.4272,0.1196 8.8545,0.2991 13.2818,0.4786 -0.0598,-5.6239 -0.3589,-11.0682 -1.0769,-16.6323 -0.5384,-9.6921 -0.8974,-17.8288 -5.7435,-26.4441 -0.8376,0.1197 -1.6752,0.2992 -2.5128,0.4787 -0.1795,3.111 -0.3589,6.2819 -0.5384,9.4528 -1.5556,0.1197 -3.1111,0.2393 -4.6068,0.359 -8.9144,-0.8974 -9.9315,-5.6239 -6.8204,-13.4015 0.3589,-2.3932 1.5555,-9.6922 0,-11.2477 -2.6923,0 -5.5042,1.7948 -7.9572,2.7521 -1.0171,1.376 -1.9743,2.7521 -2.9316,4.1879 -2.2136,0.4787 -2.2136,0.4787 -5.9828,0.4188 -3.2906,-3.2905 -3.2307,-5.9828 -3.3504,-10.6494 1.7949,-5.4444 4.3077,-5.3247 9.0939,-7.1794 -0.7179,-1.0171 -1.4359,-2.0341 -2.1538,-3.0512 0,-3.5299 1.735,-7.4786 2.6923,-10.8888 0.1196,-4.0085 0.2991,-7.8375 -0.2992,-11.7861 -1.9743,-3.4102 -3.9486,-6.7606 -5.923,-10.111 0,-3.9487 -0.5384,-9.2136 4.0085,-11.0084 -0.1795,-0.4786 -0.3589,-0.8974 -0.5384,-1.3162 -0.8376,0.2393 -1.6752,0.4786 -2.453,0.7179 -1.4957,3.3504 -5.1452,3.8888 -8.3161,2.1538 -0.5385,-1.1367 -1.4957,-1.6752 -2.6325,-2.3333 -0.9572,-6.282 -3.7093,-9.8716 -9.1537,-13.0425 -1.4957,-2.2735 -1.2564,-8.8546 0.5983,-11.0084 -1.9145,-1.6154 -2.1538,-3.7692 -2.6325,-6.1624 -0.7179,-1.2563 -1.4358,-2.4529 -2.0939,-3.6495 -2.8718,-11.6665 8.7349,-20.4014 16.4527,-27.3415 C 135.07378,0.4187 143.15058,0 151.70608,0 c 1.9145,0.8974 3.829,1.7948 5.8033,2.7521 1.3761,1.735 2.7521,3.47 4.188,5.2648 5.8033,2.453 9.2734,10.8888 11.0084,16.5725 0,5.6837 -2.3333,10.5896 -4.547,15.7348 -0.7777,3.8888 -0.8375,5.5042 1.2564,8.7948 1.6154,0.0598 4.6666,-0.5385 7.4187,-0.4787 0.4787,0.7778 0.6582,1.2564 1.4958,1.4957 5.923,7.2991 11.6066,14.9571 17.2903,22.4955 0.2992,2.6324 0.5983,5.2649 0.9573,7.8973 1.5555,1.1367 3.3504,2.2136 4.3674,3.8888 5.5042,3.2906 11.4871,7.7179 15.9742,12.205 0.8974,2.3931 1.7948,5.1452 3.5897,6.9401 2.3931,4.7862 4.7862,9.6323 7.2392,14.4784 0.7778,4.7264 0.7778,4.7264 1.0769,9.8717 -0.7179,2.6923 -1.4359,5.3845 -2.094,8.1366 -3.4102,5.4444 -8.1965,11.1879 -9.2135,17.6494 5.5042,6.2819 10.6494,13.0425 14.8374,20.4014 0.7777,0.4188 1.6153,0.8974 2.4529,1.376 0.1197,5.2649 0.2393,10.5298 0.359,15.8545 -2.2136,4.547 -4.7264,6.8803 -8.4358,10.1708 -2.094,0 -4.188,0.0599 -6.2819,0.1197 -1.0171,-1.4957 -1.9744,-2.9914 -2.9316,-4.4273 0.0598,-3.1709 0.1196,-6.3418 0.1795,-9.5127 -0.5983,-2.0341 -1.1368,-4.0683 -1.6752,-6.0426 -4.4872,-2.2735 -9.5726,-7.2393 -14.5981,-7.0598 -0.9573,2.1538 -1.8547,4.3675 -2.7521,6.5811 1.735,9.2734 4.2478,18.487 6.6409,27.6407 -0.7179,9.5127 -14.7178,12.6238 -21.8971,15.5553 -4.7265,3.2906 -9.5127,7.1196 -14.1793,10.2307 -7.7777,0.0598 -15.5554,0.1196 -23.2732,0.1795 0.4188,12.9827 0.4188,12.9827 0.7179,40.8028 -4.7264,9.3332 -9.4529,18.6665 -14.1793,28.0595 0,6.3418 3.9487,13.7605 6.0427,19.6237 1.9743,4.3674 5.7435,10.2306 6.2221,14.957 -35.9568,0 -71.913603,0 -107.810503,0 z"
          style="fill: rgb(16, 14, 12); fill-rule: evenodd;"
    />
</svg>