<svg xmlns:cc="http://creativecommons.org/ns#"
     xmlns="http://www.w3.org/2000/svg"
     xml:space="preserve"
     width="7.9573951in"
     height="6.7242107in"
     style="clip-rule:evenodd;fill-rule:evenodd;image-rendering:optimizeQuality;shape-rendering:geometricPrecision;text-rendering:geometricPrecision"
     viewBox="0 0 7957.3951 6724.2107"
     version="1.1"
>
<g transform="translate(-183.10079,-2150.0561)">
    <path d="M 2614.72 3430.93 c -25.689 5.2441 -37.3346 65.8819 -45.2756 87.3583 c -32.3622 87.4646 -73.9331 173.091 -110.531 258.969 c -11.4764 26.8976 -20.0866 54.7953 -29.878 82.3228 c -2.8976 8.1457 -5.0748 25.1772 -12.8465 30.1142 c -12.5197 7.9567 -41.9291 -49.9409 -59.374 -12.7244 c -6.1221 13.0669 -3.7205 30.3189 -5.9331 44.3504 c -5.9685 37.7835 -11.8504 75.4764 -18.1457 113.193 c -10.752 64.5709 -20.0315 129.224 -30.3031 193.795 c -11.0276 69.2362 -22.811 140.839 -2.433 214.6917 c 17 83 53.3345 177.1073 65.2873 272.3793 c 9.0551 72.1181 9.504 149.449 -3.311 221.24 c -8.3661 46.8701 -25.122 91.8228 -33.2362 138.917 c -4.5787 26.5472 -15.1614 55.2559 -13.7362 82.3189 c 0.4803 9.2953 2.8977 28.2126 48.9961 29.1448 c 11.3543 -2.3307 13.4488 -17.7835 15.0433 -27.0945 c 4.8189 -28.5394 8.3347 -57.5748 14.9213 -85.752 c 29.4961 -126.142 49.9724 -245.492 32.7913 -375.594 c -11.5945 -87.7913 -45.7559 -171.5595 -57.7559 -257.5595 c -22.2165 -61.2635 -13.1259 -124.0665 -4.2086 -188.3465 c 8.6102 -62.1378 15.9646 -123.776 29.0866 -185.224 c 6.9803 -32.7205 9.8937 -66.5433 16.2244 -99.4724 c 2.8976 -9.9571 4.8976 -12.9571 15.8976 -10.9571 c 9 2 9 1 13 4 c 1 2 20.2008 28.0516 36.8229 10.9216 c 11.9528 -12.3504 7.063 -44.4567 8.8819 -60.5591 c 4.2362 -37.5945 19.4134 -73.3189 33.374 -108.047 c 37.7992 -93.9843 79.7323 -186.106 118.646 -279.551 c 8.6968 -20.878 23.4646 -48.6969 25.2752 -70.7645 c 2.1102 -10.6732 0.5783 -9.4535 -19.4217 -20.4535 Z M 2854 3332 c -238.8655 -18.1632 -243.9088 -74.0136 -245.1923 -81.2498 c -8.8347 -49.2441 -18.9173 -99.4961 -38.5197 -145.776 c -6.1063 -14.4331 -23.0866 -42.5433 -42.7756 -32.7835 c -19.5157 9.6693 -14.8504 49.3189 -14.1299 67.0827 c 2.6732 66.2992 -1.0315 132.823 1.7126 198.945 c 0.8425 20.3386 -1.5748 39.9016 -4.0473 60.0236 c -0.4449 3.5433 -1.0945 18.5866 -7.3386 17.4882 c -5.5748 -0.9764 -6.1732 -13.3583 -6.8937 -17.4882 c -3.3976 -19.4173 -6.6023 -38.874 -9.8779 -58.311 c -12.0748 -71.748 -27.374 -139.476 -58.5866 -205.803 c -7.563 -16.0866 -31.8504 -60.5551 -55.189 -51.063 c -19.5197 7.937 -12.811 51.563 -12.1102 68.2126 c 2.9842 70.6732 13.5669 142.028 18.6614 212.665 c 1.4724 20.5079 2.8622 41.189 3.3779 61.7402 c 0.1182 4.5748 1.4056 17.7047 -4.3385 19.8189 c -5.7284 2.1102 -8.252 -13.252 -9.0748 -16.3898 c -5.1772 -20.0669 -11.0787 -39.9488 -16.2244 -60.0236 c -19.3937 -75.6142 -44.7598 -145.366 -84.8425 -212.665 c -8.1103 -13.6299 -45.189 -78.1929 -65.0512 -35.7047 c -19.6181 42.0315 8.7126 101.465 17.0315 143.752 c 16.8583 85.6811 23.4606 183.677 23.685 270.976 c 0.2559 102.906 -6.2756 206.701 -20.3583 308.705 c -14.5433 105.421 -37.1142 210.417 -36.0827 317.28 c 1.4409 151.217 31.1648 302.5684 61.2441 449.339 c 6.5511 94.689 -16.9291 179.685 -27.8189 272.689 c -10.8228 92.3031 4.1496 186.803 4.1496 279.551 c 0 32.4843 9.8622 80.1614 -7.8386 109.626 c -6.5238 32.4545 -13.0476 64.9089 -19.5714 97.3634 c 185 1.6667 370 3.3333 555 5 Z"
          style="fill: rgb(16, 14, 12); stroke: rgb(0, 0, 0);"/>
</g>
</svg>