<svg
        xmlns:cc="http://creativecommons.org/ns#"
        xmlns="http://www.w3.org/2000/svg"
        xml:space="preserve"
        width="7.4496751in"
        height="4.3595557in"
        style="fill-rule:evenodd;image-rendering:optimizeQuality;shape-rendering:geometricPrecision;text-rendering:geometricPrecision"
        viewBox="0 0 7449.6751 4484.1201"
        version="1.1"
>
  <g transform="translate(-157.46027,-3444.0138)">
  <path d="M 7487.71 3444.7 c -84.0457 4.2971 -166.45 10.2095 -249.493 25.8781 c -168.217 31.7371 -327.425 93.4705 -485.124 157.505 c -113.989 46.2819 -231.893 92.6324 -341.322 148.796 c -95.7257 49.1276 -187.832 105.79 -282.415 156.632 c -34.9257 18.7771 -73.2533 31.8514 -109.15 48.7162 c -63.6914 29.9276 -126.446 64.5905 -188.853 97.2381 c -169.326 88.5829 -334.617 184.632 -504.187 272.514 c -93.8019 48.6171 -197.478 78.781 -294.541 119.234 c -79.2495 33.0324 -154.251 75.9581 -233.897 108.297 c -182.91 74.2743 -368.853 145.737 -542.305 240.869 c -130.446 71.5505 -253.874 156.103 -382.903 229.676 c -50.8876 29.0248 -100.716 60.8686 -152.469 88.3314 c -44.7886 23.7333 -93.1962 41.9429 -136.872 67.4476 c -121.025 70.64 -239.844 131.021 -372.51 177.295 c -52.0114 18.141 -105.756 40.6324 -161.131 45.7943 c -27.8933 2.5981 -57.1238 -9.7905 -83.1619 -18.0724 c -54.1638 -17.2038 -105.394 -38.6362 -161.131 -51.44 c -61.6114 -14.1562 -123.032 -35.7943 -185.387 -45.6343 c -141.764 -22.3505 -287.855 -35.0857 -421.021 -93.1467 c -26.6667 -11.6267 -45.6381 -46.0686 -65.9429 -66.7543 c -29.04 -29.5962 -69.5314 -51.3219 -109.051 -62.8952 c -57.0362 -16.701 -117.989 -11.5733 -174.99 -27.3638 c -25.0705 -6.9448 -38.7048 -19.4971 -60.64 -31.3143 c -23.3752 -12.5943 -51.3714 -21.6914 -76.2362 -30.8305 c -57.1124 -20.9943 -123.92 -30.2705 -183.653 -42.621 c -163.021 -33.7143 -334.709 -42.4343 -460.77 -165.608 c -64.339 -62.8686 -97.8552 -150.51 -122.145 -235.432 c -7.5467 -26.381 -19.8248 -54.0076 -22.8914 -81.4324 c -1.7638 -15.76 13.6533 -14.9219 19.6952 -26.1181 c 6.4152 -11.8857 2.3352 -34.1752 -0.6629 -46.6514 c -7.5352 -31.3905 -27.1276 -62.5867 -46.0571 -88.3619 c -9.5238 -12.9638 -28.08 -31.0019 -31.8362 -46.7771 c -5.3638 -22.5371 69.1924 -24.3314 48.1295 -58.9105 c -14.0343 -23.0476 -35.1657 -27.059 -57.4438 -37.7714 c -49.2076 -23.6571 -98.2857 -33.9086 -149.002 -52.4305 c -38.4381 -14.0419 -77.8324 -25.3143 -116.084 -39.8895 c -89.4819 -34.099 -189.398 -74.461 -282.411 -27.8705 c -23.3524 11.699 -43.981 29.0705 -58.8457 50.541 c -9.6419 13.9238 -16.5676 36.0076 -31.299 45.3143 c -13.2914 8.4 -35.1162 8.8876 -50.1981 15.9352 c -38.6248 18.0457 -72.2324 45.5619 -98.2095 79.0895 c -12.1333 15.661 -39.5162 58.4571 -17.0781 76.2705 c 11.3638 9.021 36.2895 1.5162 49.4514 0.3048 c 29.12 -2.6819 66.4648 -4.1524 93.5581 8.2247 c 30.2743 13.8248 40.0838 72.9181 61.501 98.8533 c 29.9467 36.2743 75.1467 65.1352 115.223 89.04 c 42.6781 25.4552 77.2305 38.7733 89.8667 91.1505 c 4.1981 17.4057 12.0876 37.52 12.1486 55.4438 c 0.221 64.0648 -35.1771 123.029 -49.8057 183.653 c -16.1105 66.7657 -15.12 140.297 -4.6323 207.912 c 26.2476 169.223 96.1867 335.394 172.75 486.861 c 45.3105 89.6267 89.5733 180.187 146.347 263.352 c 140.91 206.438 321.432 386.663 513.486 545.49 c 53.299 44.061 124.815 74.64 185.387 107.577 c 80.5638 43.8171 157.173 92.019 242.564 126.827 c 76.8762 31.3257 176.792 41.2343 235.093 102.187 c 45.6914 47.7676 78.3505 103.783 110.438 160.941 c 11.0705 19.699 30.2667 42.3124 36.0724 64.1067 c 3.8971 14.5905 -12.5257 56.7771 -19.1276 71.0362 c -2.5296 5.4591 -6.2019 16.461 -12.6819 18.3124 c 11.1464 97.9792 32.1464 153.9792 79.1464 223.9792 c 511 -145 588 -171 721 -213 c -41.3419 -110.9821 -61.4219 -66.6468 -75.4714 -70.3535 c -9.3409 -2.4609 -12.1448 -23.8743 -14.6933 -31.7067 c -9.0971 -28.1029 -3.5848 -85.5886 -27.2724 -104.667 c -21.8286 -17.6 -40.5943 24.4838 -47.5581 14.2248 c -18.7124 -27.5276 -33.5771 -107.992 -18.4343 -138.259 c 11.4705 -22.9562 34.9295 -35.8819 52.1486 -53.7295 c 12.1829 -12.6133 23.0095 -35.2229 39.9543 -41.84 c 47.7524 -18.6095 104.114 21.3257 152.469 22.7467 c 19.4933 0.5752 53.3829 -2.579 64.819 -20.9638 c 6.5638 -10.5524 1.7486 -31.101 13.3219 -37.6305 c 13.2533 -7.4667 36.9029 -4.2781 51.8057 -5.9962 c 32.5371 -3.7257 61.5733 -16.72 82.419 -42.7771 c 18.9029 -23.6305 25.4171 -57.3295 17.7752 -86.6286 c -2.9448 -11.28 -12.5257 -23.1848 -13.0476 -34.6514 c -0.5867 -12.7543 11.92 -22.1257 10.4838 -36.3848 c -2.32 -22.941 -16.3543 -64.1257 4.6438 -80.5829 c 28.3276 -22.1943 71.9695 -17.8286 100.282 -38.5867 c 14.1905 -10.4114 -1.4743 -32.8838 15.7676 -38.5676 c 29.021 -9.5809 61.0019 11.8514 91.8095 -3.1352 c 24.5143 -11.9543 16.3886 -38.099 34.7733 -50.8152 c 22.1943 -15.3714 52.5333 2.4914 72.9257 -24.1524 c 12.6133 -16.4457 -4.2628 -40.0419 8.7657 -53.0019 c 8.6286 -8.6095 22.7657 -9.8248 32.5371 -17.3257 c 20.7924 -15.9733 33.5962 -38.5143 50.8876 -57.4514 c 10.3619 -11.3486 25.261 -16.6705 34.2514 -29.68 c 14.1562 -20.5143 -7.9352 -38.099 0.1219 -55.3752 c 8.0038 -17.1505 35.0171 -12.7505 42.9524 -32.9867 c 4.141 -10.5867 1.68 -22.0914 4.8838 -32.9219 c 4.0229 -13.5657 14.8152 -25.3638 15.6457 -39.8476 c 0.6591 -11.7981 -11.1924 -23.5657 -8.2819 -34.6362 c 3.9848 -15.1086 23.0781 -18.5714 26.2667 -36.4 c 2.72 -15.0743 -10.6895 -41.1162 -5.4743 -51.9771 c 10.9143 -22.6819 43.1771 -18.6286 55.6 -38.1714 c 8.6781 -13.6686 -7.4514 -28.8114 3.7067 -41.1467 c 19.0057 -20.9829 53.3638 -28.8495 77.4476 -42.381 c 66.3733 -37.3029 134.19 -72.7162 202.712 -105.741 c 131.055 -63.1505 256.789 -137.55 386.37 -203.25 c 17.0667 -8.6629 36.5752 -11.6267 53.7105 -19.8019 c 50.6248 -24.2057 100.853 -51.9086 149.002 -80.739 c 69.9467 -41.8781 137.691 -87.9429 207.912 -129.566 c 59.4286 -35.2267 121.592 -66.2933 180.19 -103.387 c 172.446 -109.162 339.916 -225.204 511.112 -335.813 c 86.8724 -56.1333 174.663 -112.743 263.356 -165.707 c 43.8514 -26.1829 90.9257 -48.9333 133.356 -77.1467 c 11.6457 -7.741 18.9219 -19.8552 31.2381 -27.4933 c 122.876 -76.2133 256.667 -131.65 382.907 -201.695 c 125.284 -69.52 244.552 -151.653 369.04 -222.884 c 77.6229 -44.4114 163.992 -85.4629 249.493 -112.59 c 94.2895 -29.92 191.973 -43.181 287.611 -66.7657 c 68.9562 -17.0057 136.579 -41.0133 202.712 -66.5752 c 52.7771 -20.4038 97.9429 -50.3886 155.935 -50.3886 c 15.8705 0 64.5029 7.9695 74.7619 -5.7143 c 14.6552 -19.5352 -35.1886 -37.0705 -47.04 -42.4038 c -2.8609 -1.2838 -20.9638 -7.0933 -14.5029 -12.3314 c 5.44 -4.4038 20.1143 -2.2324 26.6286 -1.5772 c 24.6743 2.4762 58.7886 10.0076 79.699 23.5048 c 8.7162 5.6267 30.5638 23.2343 39.3333 8.5524 c 9.5962 -16.0648 -30.8762 -36.7352 -41.0629 -43.92 c -44.4952 -31.3562 -120.503 -57.8933 -174.994 -55.1086 Z M 2289.93 6645.02 c -54.0571 8.1257 -52.9676 70.2019 -47.1124 111.455 c 1.6305 11.539 3.1391 33.9429 11.68 42.64 c 6.0305 6.1333 7.52 -8.56 7.6229 -11.4857 c 0.7466 -19.1619 8.9752 -68.541 37.2495 -36.0724 c 11.1771 12.819 13.4629 32.5905 18.9371 48.2324 c 18.0724 51.6686 22.3352 106.781 36.5067 159.402 c 4.4876 16.6324 7.52 50.2438 20.0305 62.3733 c 7.4666 7.2229 19.9924 4.8152 29.4362 5.6991 c 17.9848 1.68 34.6324 8.4381 51.9771 12.941 c 18.419 4.8 46.5371 15.3524 65.5771 11.2267 c 12.5638 -2.72 13.3752 -21.379 15.421 -31.6 c 6.7238 -33.6838 7.92 -68.419 14.6743 -102.225 c 8.2133 -41.0971 -18.5714 -59.2534 -41.981 -90.0952 c -45.4781 -59.9276 -89.939 -124.19 -159.379 -158.964 c -17.779 -8.9067 -39.7638 -26.6667 -60.64 -23.5277 Z"
        style="fill: rgb(16, 14, 12); stroke: rgb(19, 21, 22); stroke-width: 0.967619;"/>
 </g>
</svg>