<svg xmlns:cc="http://creativecommons.org/ns#"
     xmlns="http://www.w3.org/2000/svg"
     xml:space="preserve"
     width="7.9573951in"
     height="6.7242107in"
     style="clip-rule:evenodd;fill-rule:evenodd;image-rendering:optimizeQuality;shape-rendering:geometricPrecision;text-rendering:geometricPrecision"
     viewBox="0 0 7957.3951 6724.2107"
     version="1.1"
>
<g transform="translate(-183.10079,-2150.0561)">
    <path
            d="M 6039 6488 c -115 -7 -115.8497 -18.5696 -156.271 -27.0853 c -66.2756 -13.9724 -132.224 -29.9134 -197.98 -46.6457 c -98.9163 -25.0897 -197.8327 -50.1793 -296.749 -75.269 c -89.6667 -27 -179.3333 -54 -269 -81 c -96 -41 -141.3333 -53.3333 -212 -80 c -68 -44 -119 -99 -204 -132 c -60 -24 -214.365 -60.1203 -217.0067 -48.2621 c -15.5709 -6.9094 -31.0748 -13.9724 -46.4764 -21.2913 c -75.2717 -35.7756 -161.283 -67.6772 -222.799 -126.157 c -5.6615 -5.3701 -12.9488 -13.189 -8.2835 -21.3543 c 12.7913 -22.4488 35.0197 -26.4094 29.9606 -57.0945 c -3 -18.2283 -36.5669 -53.9173 -27.7323 -69.8346 c 15.1614 -27.3386 58 -30.0827 69.6142 -63.937 c 6.6535 -19.3976 -2.2126 -43.937 -13.2756 -60.0236 c -5.2835 -7.685 -19.1417 -18.7638 -17.0315 -29.122 c 4.5787 -22.6378 43.185 -32.5354 52.685 -54.9173 c 8.1811 -19.2598 -1.9016 -43.4921 -14.7638 -58.2087 c -5.6772 -6.5157 -19.1575 -14.4921 -19.122 -24.1299 c 0.051 -10.2559 14.4921 -18.0748 20.8189 -24.5591 c 11.7992 -12.0709 22.8976 -29.9252 21.8661 -47.4528 c -1.3386 -22.5709 -12.1063 -46.0512 -26.0157 -63.4567 c -7.185 -9.0039 -24.7323 -22.2441 -25.7087 -34.2677 c -1.0276 -12.7598 22.2087 -26.9921 30.0984 -35.1063 c 20.4606 -21.0433 25.6063 -52.9606 9.4488 -78.1181 c -22.0197 -34.3346 -60.4724 -65.0354 -96.4331 -83.5748 c -9.8307 -5.0591 -49.3425 -15.126 -52.0866 -25.8976 c -2.4527 -9.6221 33.2874 -22.5157 40.0787 -26.685 c 32.3819 -19.8937 68.0866 -44.7087 66.5945 -86.7992 c -1.559 -43.9882 -41.4528 -80.8976 -78.5984 -99.2795 c -10.7874 -5.3347 -53.2874 -14.3386 -55.8425 -26.5 c -3.0866 -14.8701 35.5709 -41.7953 45.4488 -50.7638 c 37.6102 -34.0945 89.0118 -80.622 100.965 -132.161 c 12.2283 -52.685 -62.1693 -65.0512 -99.1457 -72.8346 c -8.4212 -1.7677 -38.0039 0.1024 -40.563 -10.5157 c -3.1378 -13.0315 30.3425 -31.7087 38.8465 -38.4331 c 29.7756 -23.4961 68.9094 -59.6142 73.1457 -99.4528 c 2.8662 -26.8583 -18.6063 -35.315 -40.5591 -41.2992 c -44.1969 -12.0236 -107.102 -15.5748 -152.638 -11.0787 c -8.7126 0.8583 -61.9646 11.1457 -63.6299 -1.1142 c -1.0787 -7.9252 14.1181 -18.815 19.0394 -23.6339 c 21.7441 -21.2323 45.6181 -39.7559 66.7323 -61.7913 c 72.4606 -75.6181 139.244 -155.469 195.614 -243.535 c 17.9213 -27.9882 49.6496 -79.4921 29.7244 -113.157 c -17.185 -29.0354 -49.1535 -20.2717 -74.2638 -9.3661 c -62.752 27.3031 -122.949 64.1417 -183.508 96.0591 c -18.7598 9.8976 -37.2677 20.4961 -56.5945 29.2441 c -3.5669 1.6102 -17.3386 9.2756 -20.685 4.5787 c -4.4921 -6.311 15.2323 -22.2795 18.9685 -25.7598 c 23.4449 -21.9213 45.2441 -46.7205 66.5079 -70.7795 c 57.9528 -65.6024 117.823 -130.433 162.965 -205.803 c 18.2126 -30.4331 38.9803 -73.7165 25.0039 -109.756 c -12.2795 -31.7047 -48.622 -24.1575 -70.9685 -9.8346 c -62.0472 39.7717 -118.677 87.3898 -181.791 125.76 c -19.7598 12.0157 -38.811 25.3583 -58.311 37.8504 c -2.7795 1.7795 -17.2008 12.5079 -19.4646 5.6456 c -2.9015 -8.7283 14.2677 -22.0669 19.2402 -27.3701 c 21.6772 -23.1181 42.0866 -48.6929 61.4685 -73.748 c 36.2362 -46.8386 68.4646 -96.622 103.913 -144.063 c 40.2323 -53.8622 85.1142 -108.52 110.48 -171.504 c 10.6693 -26.4567 25.1102 -51.2244 32.7244 -78.8898 c 2.7953 -10.1732 6.5355 -23.9961 -1.4921 -32.8228 c -17.4409 -19.1575 -53.1654 12.6575 -66.7677 23.3386 c -57.5906 45.2283 -109.091 99.6811 -164.642 147.528 c -16.0354 13.815 -33.7008 25.4094 -49.7362 39.1339 c -2.3504 2.0119 -13.5157 14.0079 -17.2008 10.1102 c -4.1693 -4.4015 9.689 -20.815 12.0906 -24.3583 c 16.5157 -24.3819 31.6772 -49.6535 48.5866 -73.748 c 60.5079 -86.1969 108.819 -175.512 144.921 -274.406 c 7.9724 -21.878 23.0669 -92.7874 -3.3465 -106.303 c -28.126 -14.3858 -68.8228 40.7047 -84.8071 58.2835 c -71.7913 78.9921 -145.433 158.087 -213.677 240.102 c -19.8425 23.8465 -37.7638 48.3228 -59.7835 70.3189 c -3.4842 3.4685 -16.7913 20.4843 -22.7244 17.7756 c -4.6299 -2.1181 13.1535 -32.6457 15.126 -36.6417 c 18.7441 -37.8583 42.2402 -74.0039 58.0197 -113.193 c 14.1496 -35.1654 32.8425 -69.1378 45.8268 -104.618 c 37.0276 -101.228 60.626 -209.016 84.8228 -313.85 c 7.5315 -32.5906 28.5039 -66.0433 30.5276 -99.4685 c 0.8229 -13.6969 -1.1141 -31.7717 -14.6811 -38.815 c -11.8307 -6.1378 -23.0984 1.941 -31.8976 9.5906 c -21.3189 18.5236 -37.8346 42.6457 -56.6811 63.5236 c -82.0827 90.9173 -133.311 199.972 -203.61 298.413 c -19.9803 27.9843 -36.5472 59.4134 -53.8189 89.185 c -1.9527 3.3583 -13.2047 29.4882 -18.4882 25.7362 c -6.4803 -4.6102 3.9449 -31.6181 5.5591 -37.7441 c 9.8425 -37.4567 21.5079 -74.7795 33.9764 -111.476 c 45.4646 -133.756 82.9724 -275.398 104.803 -415.035 c 5.1811 -33.1496 6.3976 -67.6614 6.0709 -101.189 c -0.1181 -13.0157 -2.6418 -29.5472 -17.252 -34.0394 c -24.9016 -7.6614 -59.7362 54.5118 -71.1575 71.7717 c -57.5039 86.9528 -95.063 187.961 -140.957 281.264 c -13.189 26.8268 -24.4567 54.6102 -35.6063 82.3228 c -1.8504 4.6299 -8.7992 26.1614 -16.4134 23.4055 c -7.7835 -2.815 1.8897 -25.3622 3.1574 -30.2677 c 8.5906 -33.1811 14.7992 -65.7677 20.5472 -99.4724 c 20.063 -117.587 42.7362 -237.307 46.6654 -356.724 c 0.8386 -25.685 21.3858 -105.091 -15.3858 -113.11 c -25.8622 -5.6457 -53.6457 54.937 -62.2205 73.6654 c -40.6299 88.7126 -72.5118 180.776 -105.819 272.689 c -9.5157 26.2756 -21.4528 51.2441 -31.6929 77.1772 c -1.9015 4.8189 -6.3779 23.8465 -13.874 22.6339 c -9.0905 -1.4685 -4.6653 -23.9843 -3.9252 -29.4961 c 4.1497 -31.6378 2.9292 -64.1654 3.1693 -96.0394 c 0.9449 -123.087 -5.4015 -235.831 -29.685 -356.728 c -5.7441 -28.5551 -14.0827 -55.8071 -29.689 -80.6024 c -6.4134 -10.1654 -15.2283 -24.4646 -29.4803 -18.2165 c -13.4803 5.9213 -17.4252 25.811 -19.2441 38.7953 c -4.937 35.2598 -6.1378 71.1693 -11.4016 106.331 c -21.8504 145.709 -48.5039 290.63 -82.7008 433.902 c -9.8267 41.1772 -20.4764 82.185 -29.7402 123.484 c -1.7126 7.6653 -5.3819 36.5866 -15.1063 38.0669 c -9.7756 1.4882 -6.7598 -30.9724 -6.7598 -36.3543 c 0 -40.1575 2.6614 -79.9094 -0.4606 -120.051 c -10.7362 -137.748 -9.6063 -274.866 -54.2638 -408.177 c -10.5315 -31.437 -31.9685 -121.295 -79.0315 -113.654 c -17.4567 2.8307 -18.2283 18.9016 -19.2244 33.0472 c -2.1103 30.5669 2.2834 61.9724 4.0157 92.6102 c 5.6575 100.075 3.3071 198.232 -2.1968 298.417 c -2.2284 40.752 -10 80.8661 -10.0512 121.768 c -0.051 39.0315 -6.8583 82.0394 -15.6929 120.051 c -1.6811 7.2244 -4.3544 33.2441 -13.7717 34.6378 c -9.3268 1.3819 -10.1535 -25.5984 -11.0945 -31.2087 c -5.8819 -34.7992 -9.6575 -71.1614 -13.0512 -106.331 c -4.8701 -50.6063 -17.7874 -99.5079 -27.2362 -149.209 c -13.3071 -69.8346 -26.7205 -143.417 -48.9291 -210.949 c -10.9409 -33.2677 -24.748 -110.799 -77.7087 -92.315 c -22.4331 7.8386 -22.3307 41.9134 -21.8307 61.4449 c 1.559 62.7441 11.5079 126.13 17.4252 188.654 c 5.5197 58.1693 14.5079 116.512 16.2756 174.933 c 3.5472 116.287 -9.504 233.37 -27.0472 348.15 c -6.5866 43.0512 -17.1339 82.8268 -26.9606 125.197 c -7.2251 49.6908 -4.2251 61.6908 -3.2251 84.6908 c 5 28 14 134 12 145 c -2 22 -17 50 -25 71 c -39 93 -81 185 -119 279 c -14 35 -29 71 -33 108 c -2 17 3 49 -9 61 c -17 17 -36 -9 -37 -11 c -4 -3 -4 -2 -13 -4 c -11 -2 -13 1 -16 11 c -6 33 -9 67 -16 99 c -13 62 -20 124 -29 186 c -9 64 -18 127 4 188 c 12 86 46 170 58 257 c 17 131 -4 250 -33 376 c -7 29 -10 57 -15 86 c -2 9 -3 25 -15 27 c -45 -1 -128.7278 56.172 -146.4286 85.6366 c -15.3819 25.622 -61.7559 33.9567 -86.4882 48.2756 c -52.7717 30.5276 -105.457 63.8858 -166.358 76.1654 c -56.6457 11.4213 -114.921 2.9685 -171.5 11.5945 c -31.2441 4.7677 -63.126 6.7559 -92.6142 18.8307 c -48.185 19.7402 -94.1457 52.7559 -145.776 62.5315 c -23.1063 4.374 -47.3307 -2.4724 -70.3189 -5.2835 c -35.2756 -4.2874 -71.5669 -5.8661 -106.331 -14.2677 c -50.9567 -12.3307 -95.4252 -43.0315 -140.634 -68.122 c -57.6299 -31.9843 -117.118 -60.5236 -174.933 -91.8898 c -44.752 -24.2677 -86.7087 -53.374 -133.772 -73.7323 c -92.2087 -39.9094 -198.925 -44.8465 -289.839 0.9292 c -32.185 16.189 -62.0709 32.9961 -89.1811 57.0394 c -31.9173 28.2992 -67.5748 62.9606 -89.437 99.8346 c -13.3071 22.4291 -17.8386 50.5906 -32.6457 71.7717 c -15.252 21.815 -57.1969 24.8346 -80.2913 35.2953 c -45.0118 20.3937 -88.5 50.7126 -123.823 85.1693 c -15.7559 15.3661 -41.7638 31.5748 -39.937 56.4409 c 2.3189 31.5748 28.1693 38.5709 55.7126 39.5315 c 45.0551 1.5787 88.7835 -0.6496 133.772 -3.7205 c 19.6575 -1.3386 50.0512 -10.2756 68.6024 -6.0905 c 19.6535 4.4606 40.4724 27.063 58.311 37.1299 c 44.0433 24.8189 89.2441 47.252 137.201 63.4055 c 72.2323 24.3543 149.098 18.2165 216.094 56.6811 c 63.3701 36.3937 124.382 79.5787 190.37 111.051 c 63.3661 30.2362 132.618 48.0354 190.366 90.0394 c 47.1299 34.2638 88.1772 75.9921 133.772 112.161 c 39.3937 31.248 83.063 55.8425 121.768 88 c 68.0787 56.5433 140.535 121.594 221.24 159.65 c 85.6614 40.3898 184.795 54.9685 277.835 70.4724 c 24.626 4.1141 57.8465 -3.2756 80.6063 4.4409 c 15.3504 5.2126 29.6693 16.9606 44.5906 23.8386 c 34.7283 16 70.9528 30.5945 106.331 45.0039 c 56.0669 22.8425 117.909 38.0394 171.504 66.2165 c 63.2165 33.2205 112.661 74.9961 181.795 98.0472 c 87.7402 29.2402 186.13 56.6142 277.835 69.063 c 51.3622 6.9803 102.937 13.0551 154.35 19.9488 c 23.4646 3.1378 49.2047 2.7244 71.9449 9.6732 c 6.4173 1.9725 12.5039 6.7559 5.9882 12.8622 c -10.0157 9.3465 -25.6575 12.689 -36.7717 21.0079 c -33.7677 25.3307 -61.4488 70.6772 -44.4882 113.295 c 20.685 52 48.2953 123.74 97.6535 155.055 c 50.4921 32.0551 134.169 30.4921 192.083 41.248 c 37.2677 6.9095 80.1811 31.5394 118.323 23.6142 c 52.4606 -10.9055 1.6457 -66.5748 -18.8504 -80.3819 c -5.4685 -3.6693 -20.1496 -9.7244 -20.1496 -17.6299 c 0 -9.5551 18.8661 -10.5472 25.2953 -11.3189 c 18.8504 -2.248 69.8898 -4.5275 70.7283 -31.6614 c 0.4803 -15.7953 -19.4488 -19.9291 -31.2835 -22.5866 c -35.6378 -8.0275 -73.2638 -12.6063 -109.76 -13.5157 c -7.3425 -0.189 -42.5669 -4.9882 -29.5669 -19.1024 c 11.8661 -12.8976 49.0827 -12.1969 65.5827 -13.8425 c 63.7992 -6.3779 123.378 -0.9409 186.937 0.3622 c 48.3661 0.9922 97.2441 -3.3819 145.78 -3.3819 c 80.4488 0 151.642 4.7166 226.382 -31.8465 c 23.8386 -11.6614 48.4173 -25.2441 66.1654 -45.3465 c 23.8583 -27.0276 40.8189 -63.937 69.3583 -86.2638 c 42.8386 -33.5433 118.9008 -55.3288 169.886 -42.2953 c 54.3542 126.8199 63.0148 34.9665 92.8464 44.5362 c 17.1684 6.4303 33.4646 19.5709 49.3661 31.0315 c 63.4409 45.6535 132.264 89.5906 200.661 127.307 c 8.7677 4.8307 17.1142 9.8544 25.3701 14.748 c 56.0041 26.4255 63.1143 28.2404 70.6695 29.4648 c 46.5472 7.563 27.2008 -42.5 18.7638 -65.3425 c -3.567 -9.6889 -7.3071 -25.0748 8.7126 -22.4173 c 31.5551 5.2481 58.3465 20.5827 87.4331 32.4843 c 60.5079 24.7598 119.854 52.3898 177.276 83.7008 c 141.6301 62.0747 165.0789 65.4566 189.7404 63.8069 c 57.7953 -3.874 6.2599 -76.437 -6.8779 -97.5512 c -3.6024 -5.7952 -25.126 -32.2756 -5.0236 -28.3819 c 49.9567 9.6733 101.067 42.2402 147.39 62.6496 c 67.4528 29.7165 134.957 59.0394 202.315 88.626 c 250.5713 5.0138 234.6737 -17.5059 247.6067 -17.3327 c 114.2552 -195.7877 380.7656 -574.363 342.7656 -587.363 Z"
            style="fill: rgb(16, 14, 12); stroke: rgb(0, 0, 0);"/>
</g>
</svg>