<?xml version="1.0" standalone="no"?>
<!DOCTYPE svg PUBLIC "-//W3C//DTD SVG 20010904//EN"
 "http://www.w3.org/TR/2001/REC-SVG-20010904/DTD/svg10.dtd">
<svg version="1.0" xmlns="http://www.w3.org/2000/svg"
 width="1024.000000pt" height="1024.000000pt" viewBox="0 0 1024.000000 1024.000000"
 preserveAspectRatio="xMidYMid meet">
<metadata>
Created by potrace 1.16, written by Peter Selinger 2001-2019
</metadata>
<g transform="translate(0.000000,1024.000000) scale(0.100000,-0.100000)"
fill="#000000" stroke="none">
<path d="M6275 9860 c-288 -26 -588 -115 -841 -250 l-90 -48 -150 34 c-919
209 -1456 98 -1714 -353 -117 -204 -209 -574 -255 -1023 -15 -146 -17 -156
-44 -185 -55 -58 -60 -80 -73 -299 l-12 -204 -170 -36 c-430 -93 -815 -230
-967 -344 -103 -76 -168 -158 -184 -231 -40 -182 67 -323 350 -461 195 -96
539 -201 880 -271 61 -12 113 -25 116 -28 4 -3 -4 -42 -17 -86 -31 -107 -52
-231 -65 -395 -34 -409 69 -847 282 -1207 39 -65 81 -132 95 -150 13 -17 24
-34 24 -36 0 -2 -42 -7 -94 -10 -52 -4 -141 -17 -198 -29 -124 -27 -178 -27
-294 2 -490 122 -830 363 -1058 750 -28 47 -60 105 -70 128 -10 23 -22 42 -25
42 -9 0 -145 -216 -196 -312 -168 -316 -274 -674 -315 -1060 -13 -126 -13
-452 1 -576 61 -568 254 -1057 587 -1492 101 -131 339 -362 487 -473 910 -678
2379 -976 3710 -752 176 30 474 102 630 152 852 274 1378 761 1517 1406 18 82
22 136 22 277 1 206 -16 314 -76 490 -83 241 -201 424 -403 626 l-132 131 101
36 101 36 230 4 c190 4 255 9 375 31 339 60 562 158 726 321 59 58 90 99 115
150 32 65 34 76 34 170 0 89 -3 106 -27 150 -49 95 -152 170 -268 196 -25 6
-90 10 -145 10 -124 0 -237 -27 -431 -104 -143 -56 -219 -77 -280 -77 l-35 0
20 29 c34 47 89 171 106 236 20 77 19 207 -1 276 -12 40 -28 66 -65 102 l-50
48 16 104 c45 307 23 642 -60 886 -14 40 -25 78 -25 84 0 7 31 17 73 25 112
19 439 103 588 150 454 144 708 292 781 457 25 56 22 158 -7 213 -48 93 -193
192 -385 264 -235 87 -688 189 -987 222 -35 4 -63 9 -63 13 0 32 -95 464 -109
495 -15 35 -71 96 -98 107 -5 2 -35 105 -67 229 -111 428 -244 799 -341 956
-156 249 -391 396 -710 443 -106 15 -270 20 -370 11z m300 -184 c254 -16 477
-140 616 -343 95 -138 201 -440 358 -1016 22 -81 43 -162 46 -180 l6 -32 -98
-32 c-511 -166 -1244 -257 -2068 -257 -389 0 -420 1 -615 27 -291 39 -297 43
-75 49 215 7 437 27 429 40 -3 4 -22 8 -42 8 -93 0 -808 102 -912 130 -40 11
54 7 220 -10 166 -17 465 -9 685 17 l60 7 -115 13 c-206 23 -637 88 -647 97
-2 1 61 0 139 -2 147 -5 486 14 523 28 17 7 14 9 -13 9 -160 3 -1001 125
-1022 148 -3 3 14 3 38 -1 103 -16 507 -46 617 -46 125 0 428 20 421 28 -3 2
-139 19 -303 38 -329 37 -504 63 -663 99 -122 27 -103 30 65 10 232 -28 496
-38 686 -25 220 14 265 24 159 34 -239 23 -669 89 -728 112 -20 8 -26 12 -12
9 14 -3 120 -8 236 -12 204 -6 489 8 553 27 l26 8 -25 1 c-64 2 -705 133 -719
146 -1 2 71 1 161 -2 175 -6 577 13 593 28 5 5 1 9 -12 9 -11 0 -150 29 -309
65 -159 36 -354 80 -434 98 -157 35 -164 44 -18 27 129 -15 562 -25 683 -15
114 9 119 6 -105 60 -80 19 -185 45 -235 59 l-90 24 174 1 c96 1 176 3 178 5
4 4 -231 50 -352 68 -121 18 -414 15 -505 -5 -118 -26 -227 -85 -295 -159 -96
-103 -159 -267 -172 -446 -3 -45 -8 -80 -10 -78 -12 11 -20 207 -13 285 19
205 74 336 189 452 128 129 287 185 551 196 298 12 578 -37 1455 -251 761
-186 945 -208 1093 -134 116 58 116 157 0 270 -125 122 -384 189 -673 174
-133 -6 -323 -35 -427 -64 -65 -18 -70 -19 -130 -2 -72 19 -73 18 58 71 116
46 276 94 384 114 97 18 271 33 325 28 17 -1 66 -4 110 -7z m1029 -1714 c-46
-40 -120 -93 -299 -215 -88 -60 -151 -106 -140 -103 11 4 52 14 90 22 133 28
324 90 373 122 12 8 22 12 22 8 0 -18 -362 -286 -443 -328 -22 -11 -37 -21
-35 -23 6 -7 307 63 388 90 42 14 99 40 126 57 42 26 46 27 29 7 -90 -104
-274 -235 -530 -377 -33 -18 -51 -31 -40 -28 11 3 88 17 170 31 192 33 278 53
334 77 24 10 46 17 48 15 10 -11 -208 -140 -304 -180 -185 -78 -343 -115 -643
-149 -136 -15 -978 -15 -1050 0 l-45 10 70 1 c233 4 794 78 1020 135 55 14 7
15 -545 10 -623 -6 -927 2 -1215 32 -82 8 -151 17 -153 19 -2 2 128 1 290 -2
487 -9 974 20 1372 82 88 14 161 26 163 28 2 2 -43 7 -99 10 -323 20 -718 53
-718 59 0 5 22 8 49 8 70 0 333 27 496 51 316 46 322 45 -380 46 -747 0 -921
11 -485 31 376 16 686 46 985 94 72 11 134 24 138 28 4 4 -56 10 -135 13 -133
6 -465 41 -474 50 -2 2 71 12 163 21 522 53 817 101 1148 186 105 26 210 57
235 68 59 27 61 26 24 -6z m763 -633 c354 -79 644 -215 669 -313 5 -21 1 -35
-16 -58 l-23 -31 52 29 c63 34 121 95 121 128 0 13 -9 35 -21 50 -11 14 -17
26 -12 26 19 0 81 -61 87 -86 52 -207 -647 -461 -1749 -633 -749 -118 -1543
-170 -2380 -157 -399 6 -532 12 -910 41 -1116 87 -2147 345 -2204 552 -12 41
12 87 59 116 l35 22 -23 -29 c-46 -60 -19 -107 97 -165 144 -72 419 -152 696
-202 61 -11 119 -22 130 -24 13 -3 11 -1 -5 7 -14 6 -82 38 -153 71 -70 33
-126 61 -125 63 2 1 41 -9 88 -22 127 -37 341 -90 460 -113 95 -19 442 -72
458 -70 4 0 -60 20 -143 44 -184 55 -367 117 -361 123 3 2 85 -16 183 -41 98
-25 236 -56 308 -67 131 -21 420 -51 485 -49 l35 1 -40 10 c-22 5 -107 26
-190 45 -156 37 -528 147 -555 164 -11 8 -9 9 10 5 138 -26 438 -70 621 -91
210 -23 641 -45 629 -32 -3 4 -73 20 -155 37 -198 40 -307 68 -273 69 15 1
101 -6 190 -14 531 -47 1230 -47 1778 0 690 60 1280 187 1606 345 46 22 93 40
106 40 13 0 61 -11 108 -25 46 -13 86 -22 88 -20 2 2 -32 20 -75 41 -43 20
-80 39 -82 41 -3 1 6 14 18 27 l22 23 92 -22 c51 -12 164 -41 251 -64 88 -22
161 -39 163 -37 5 5 -333 151 -399 172 -43 13 -58 22 -58 36 0 10 6 18 13 18
37 -1 470 -120 577 -159 46 -17 85 -29 88 -27 9 10 -299 154 -405 190 -62 21
-113 40 -113 42 0 6 -2 6 147 -27z m-524 -1341 c27 -55 47 -193 54 -364 6
-161 -5 -320 -38 -539 -10 -71 -19 -134 -19 -138 0 -5 15 7 33 27 71 75 127
52 127 -50 0 -104 -61 -236 -157 -342 l-48 -53 -70 21 c-159 50 -239 132 -282
293 -25 91 -24 396 1 532 47 258 183 542 299 626 52 38 77 34 100 -13z m-2238
-143 c97 -27 254 -107 335 -172 193 -153 320 -377 377 -661 22 -109 24 -372 5
-449 -46 -176 -434 -323 -855 -323 -468 0 -861 155 -1244 491 -92 81 -253 254
-253 272 0 15 136 -3 257 -33 164 -42 334 -121 481 -226 l22 -17 -18 44 c-52
120 -77 294 -62 431 37 337 251 582 570 653 84 19 301 13 385 -10z m1637 -882
c9 -10 19 -49 23 -88 31 -305 244 -483 631 -526 124 -14 128 -2 -43 -120 -57
-38 -103 -72 -103 -74 0 -3 24 5 53 16 28 12 68 27 87 34 19 7 112 49 205 93
346 162 484 210 640 219 133 8 202 -11 261 -71 69 -69 72 -161 7 -260 -43 -65
-54 -68 -18 -5 26 46 33 106 15 140 -22 41 -66 52 -180 46 -192 -11 -364 -78
-750 -292 -367 -203 -534 -278 -720 -324 -376 -91 -885 -26 -1275 163 -103 49
-235 137 -235 156 0 4 35 16 78 25 244 54 454 182 580 353 65 87 109 170 168
312 58 141 73 163 124 184 37 15 43 14 102 -4 35 -11 86 -23 113 -26 44 -5 58
-1 115 29 75 40 101 44 122 20z m-5330 -601 c40 -59 108 -131 171 -184 l48
-41 -35 64 c-27 51 -76 182 -76 206 0 3 18 -11 41 -32 103 -93 269 -183 464
-251 l119 -41 -77 -36 c-65 -30 -181 -102 -264 -162 -20 -15 -25 -14 -85 16
-172 86 -310 225 -389 392 l-30 62 6 -120 c7 -138 27 -262 54 -343 11 -31 18
-58 16 -60 -5 -5 -52 82 -85 158 -17 41 -43 116 -57 165 -42 150 -43 405 -2
512 9 25 14 17 79 -115 38 -78 84 -163 102 -190z m3845 -439 c83 -82 168 -136
326 -205 128 -55 360 -133 433 -144 l49 -8 -35 -7 c-45 -10 -271 6 -379 26
-347 67 -606 245 -638 439 l-5 35 58 3 c57 3 60 2 89 -32 17 -19 62 -67 102
-107z m-1972 103 c146 -39 254 -85 490 -206 353 -181 514 -242 1035 -390 157
-44 425 -128 595 -186 765 -260 918 -307 1120 -340 190 -31 337 0 380 80 44
82 -7 230 -144 410 -45 59 -85 115 -88 123 -15 40 98 -28 218 -130 174 -148
325 -367 403 -585 49 -137 69 -262 69 -437 1 -184 -14 -277 -71 -450 l-36
-110 -11 152 c-5 83 -13 155 -17 159 -5 4 -8 -9 -8 -29 0 -98 -70 -379 -117
-471 l-20 -39 -6 124 c-4 68 -15 158 -25 199 l-18 75 -7 -105 c-9 -136 -46
-298 -91 -394 -19 -42 -36 -76 -38 -76 -2 0 -1 44 0 97 2 54 0 132 -4 173 l-7
75 -14 -70 c-25 -121 -81 -277 -128 -357 -44 -76 -73 -110 -61 -72 24 77 36
364 16 394 -7 12 -10 8 -10 -14 0 -45 -67 -233 -115 -323 -44 -82 -113 -181
-154 -217 -26 -23 -26 -23 -2 40 23 59 47 188 56 289 l6 70 -24 -55 c-40 -92
-115 -221 -174 -298 -52 -68 -167 -182 -184 -182 -4 0 3 20 17 44 27 49 54
123 89 247 13 47 27 94 31 105 3 10 -8 -3 -26 -29 -109 -169 -252 -330 -353
-399 -32 -22 -61 -38 -63 -35 -2 2 10 21 27 43 43 55 101 181 138 300 17 56
31 105 31 109 0 4 -22 -26 -48 -66 -45 -69 -116 -159 -187 -238 -47 -52 -181
-149 -264 -190 -128 -64 -133 -61 -42 25 178 167 257 335 316 664 5 29 -1 22
-31 -35 -98 -191 -231 -351 -392 -472 -107 -80 -322 -171 -442 -186 l-45 -6
62 33 c92 49 155 100 232 184 72 79 83 99 34 64 -53 -37 -208 -110 -293 -136
-248 -79 -519 -72 -905 23 -141 35 -196 55 -125 46 211 -28 273 -34 400 -40
209 -9 486 16 629 58 41 11 33 12 -110 14 -183 2 -346 21 -567 69 -278 60
-530 148 -789 277 -129 64 -203 106 -470 261 -61 35 -64 47 -4 17 117 -60 462
-200 691 -280 363 -126 612 -180 918 -197 135 -7 163 5 54 24 -183 31 -582
171 -797 279 -121 61 -365 200 -365 208 0 2 26 -7 58 -20 283 -114 665 -224
832 -240 l65 -6 -75 32 c-140 61 -375 185 -525 278 -195 122 -315 200 -315
206 0 3 26 -8 58 -23 174 -88 696 -301 708 -289 2 1 -32 24 -76 51 -249 151
-575 384 -1015 723 -96 73 -314 238 -366 276 l-24 18 25 -12 c69 -33 432 -250
615 -368 196 -126 487 -311 489 -311 2 0 -90 93 -203 206 -113 113 -199 203
-191 198 8 -4 33 -19 55 -34 59 -40 229 -141 320 -190 44 -24 92 -52 108 -62
15 -11 27 -17 27 -15 0 11 -177 175 -313 291 -176 149 -478 388 -594 470 -46
31 -83 60 -83 62 0 8 226 -114 350 -189 114 -70 380 -247 411 -273 8 -8 19
-14 23 -14 4 0 -51 63 -121 141 -181 198 -193 214 -113 152 36 -28 110 -82
165 -120 55 -38 125 -86 155 -108 43 -30 26 -9 -80 95 -152 149 -291 267 -463
389 -65 46 -117 84 -117 86 0 8 141 -76 257 -153 72 -48 172 -114 222 -147 50
-33 128 -84 173 -113 l83 -54 -110 112 c-218 222 -414 369 -716 538 -263 148
-262 153 9 32 264 -119 558 -291 832 -488 40 -29 -171 184 -270 271 l-65 58
85 -52 c133 -81 283 -180 308 -202 12 -11 22 -16 22 -10 0 13 -187 189 -280
264 -133 107 -312 219 -530 333 -80 42 -142 76 -138 76 12 0 147 -55 231 -94
158 -74 435 -244 712 -436 l90 -62 -115 117 c-119 122 -266 246 -382 323 -38
25 -68 47 -68 49 0 8 339 -177 485 -264 l90 -54 -65 62 c-150 142 -202 181
-486 366 -16 11 -15 11 8 3 34 -12 489 -245 541 -277 20 -13 37 -21 37 -19 0
8 -203 172 -271 219 -94 66 -161 104 -273 154 -235 105 -424 156 -652 175
-431 35 -917 -111 -1264 -380 -25 -19 7 17 71 80 220 216 464 362 744 442 155
45 252 56 450 52 156 -3 193 -7 280 -30z m-130 -1982 c72 -39 173 -97 225
-129 52 -32 130 -78 172 -103 43 -25 76 -47 74 -49 -5 -5 -258 111 -347 160
-77 42 -385 238 -441 280 -31 24 158 -71 317 -159z"/>
<path d="M7661 5744 c-135 -121 -265 -639 -210 -839 36 -132 141 -161 242 -67
86 81 124 185 134 367 7 133 -6 223 -51 356 -18 55 -31 99 -29 99 2 0 15 -24
29 -52 l25 -53 -6 55 c-14 117 -38 170 -77 170 -10 0 -36 -16 -57 -36z m38
-188 c63 -67 16 -235 -59 -211 -79 25 -57 232 26 235 6 0 21 -11 33 -24z"/>
<path d="M5340 5703 c-135 -23 -276 -110 -349 -218 -28 -41 -84 -165 -78 -171
2 -2 16 9 30 26 23 25 152 100 173 100 4 0 -2 -10 -14 -23 -50 -53 -102 -216
-102 -322 0 -77 26 -183 64 -260 87 -176 264 -286 461 -287 93 0 144 12 235
55 127 62 234 205 261 352 15 78 6 195 -20 268 -25 70 -16 67 40 -18 23 -36
44 -65 45 -65 1 0 -6 32 -16 71 -74 287 -346 503 -629 498 -42 -1 -87 -4 -101
-6z m219 -153 c105 -53 110 -213 9 -270 -119 -67 -258 19 -246 150 11 115 130
175 237 120z"/>
<path d="M6799 4539 c-23 -23 -20 -54 7 -96 42 -66 159 -88 214 -41 32 28 25
62 -20 101 -67 57 -163 74 -201 36z"/>
<path d="M4151 3746 c2 -2 133 -71 291 -154 158 -83 299 -158 315 -167 l28
-17 -30 26 c-51 45 -198 146 -265 183 -87 47 -366 154 -339 129z"/>
</g>
</svg>
