<?xml version="1.0" encoding="UTF-8"?>
<svg
        version="1.1"
        xmlns="http://www.w3.org/2000/svg"
        viewBox="0 0 512 512"
        style="enable-background:new 0 0 512 512;"
        xml:space="preserve">
<g>
    <path d="M198.306,239.795c3.243,3.413,8.661,3.541,12.066,0.29c3.405-3.251,3.541-8.653,0.282-12.066c-19.524-20.48-45.85-31.753-74.121-31.753c-56.465,0-102.4,45.935-102.4,102.4c0,6.289,0.572,12.578,1.698,18.679 c0.759,4.113,4.343,6.989,8.38,6.989c0.512,0,1.033-0.051,1.562-0.145c4.634-0.853,7.697-5.308,6.844-9.941c-0.947-5.086-1.417-10.334-1.417-15.582c0-47.053,38.281-85.333,85.333-85.333C160.094,213.333,182.033,222.737,198.306,239.795z"/>
    <path d="M193.766,188.518c-2.628,3.917-1.587,9.216,2.321,11.844c3.917,2.637,9.216,1.587,11.844-2.321c22.272-33.178,59.383-52.975,99.268-52.975c65.869,0,119.467,53.589,119.467,119.467c0,10.829-1.451,21.547-4.292,31.863c-1.254,4.54,1.408,9.242,5.956,10.496c0.751,0.213,1.519,0.307,2.27,0.307c3.746,0,7.177-2.483,8.226-6.263c3.251-11.793,4.907-24.047,4.907-36.403C443.733,189.252,382.481,128,307.2,128C261.623,128,219.213,150.622,193.766,188.518z"/>
    <path d="M468.625,283.247c-3.857-2.714-9.173-1.801-11.896,2.048c-2.722,3.849-1.809,9.173,2.039,11.896c22.647,16,36.164,42.069,36.164,69.743c0,47.053-38.281,85.333-85.333,85.333H68.267c-28.237,0-51.2-22.963-51.2-51.2c0-28.237,22.963-51.2,51.2-51.2c4.71,0,8.533-3.823,8.533-8.533s-3.823-8.533-8.533-8.533C30.626,332.8,0,363.426,0,401.067c0,37.641,30.626,68.267,68.267,68.267H409.6c56.456,0,102.4-45.935,102.4-102.4C512,333.722,495.778,302.438,468.625,283.247z"/>
</g>
</svg>
