<?xml version="1.0" encoding="UTF-8"?>
<svg
        version="1.1"
        xmlns="http://www.w3.org/2000/svg"
        viewBox="0 0 512 512"
        style="enable-background:new 0 0 512 512;"
        xml:space="preserve">
<g>
    <path d="M381.235,206.191c-3.951,2.577-5.06,7.859-2.492,11.81c9.02,13.841,13.79,29.935,13.79,46.532c0,4.71,3.814,8.533,8.533,8.533c4.71,0,8.533-3.823,8.533-8.533c0-19.917-5.726-39.228-16.555-55.851C390.468,204.732,385.186,203.614,381.235,206.191z"/>
    <path d="M97.493,242.671c-12.638,8.823-22.016,21.777-26.402,36.489c-1.34,4.514,1.229,9.267,5.743,10.615c0.811,0.239,1.638,0.358,2.441,0.358c3.678,0,7.074-2.398,8.175-6.101c3.285-11.025,10.325-20.745,19.814-27.366 c3.866-2.697,4.804-8.021,2.108-11.878C106.684,240.922,101.376,239.966,97.493,242.671z"/>
</g>
</svg>
