<?xml version="1.0" encoding="UTF-8"?>
<svg
        version="1.1"
        xmlns="http://www.w3.org/2000/svg"
        viewBox="0 0 512 512"
        style="enable-background:new 0 0 512 512;"
        xml:space="preserve">
<g>
    <path d="M246.605,128.862c2.185,0,4.369-0.836,6.033-2.5l24.141-24.132c3.337-3.336,3.337-8.738,0-12.075c-3.328-3.328-8.73-3.328-12.066,0l-24.141,24.141c-3.337,3.328-3.337,8.73,0,12.066C242.236,128.026,244.42,128.862,246.605,128.862z"/>
    <path d="M204.578,102.306c1.067,0.444,2.176,0.657,3.268,0.657c3.345,0,6.519-1.98,7.885-5.274l6.537-15.761c1.801-4.361-0.265-9.353-4.617-11.153c-4.369-1.809-9.353,0.265-11.153,4.617l-6.537,15.77C198.161,95.514,200.226,100.506,204.578,102.306z"/>
    <path d="M32.734,160.435l15.761,6.528c1.075,0.444,2.176,0.657,3.268,0.657c3.345,0,6.528-1.988,7.885-5.274c1.801-4.352-0.265-9.344-4.617-11.153l-15.77-6.528c-4.378-1.809-9.353,0.265-11.145,4.617C26.308,153.634,28.373,158.626,32.734,160.435z"/>
    <path d="M71.62,126.362c1.673,1.664,3.849,2.5,6.033,2.5c2.185,0,4.369-0.836,6.033-2.5c3.337-3.336,3.337-8.738,0-12.066L59.546,90.155c-3.328-3.328-8.73-3.328-12.066,0c-3.328,3.337-3.328,8.738,0,12.075L71.62,126.362z"/>
    <path d="M8.533,213.342l34.133-0.009c4.71,0,8.533-3.814,8.533-8.525c0-4.719-3.823-8.533-8.533-8.533H8.533c-4.719,0-8.533,3.823-8.533,8.533S3.814,213.342,8.533,213.342z"/>
    <path d="M108.527,97.698c1.365,3.285,4.54,5.265,7.893,5.265c1.084,0,2.193-0.205,3.26-0.649c4.352-1.809,6.426-6.801,4.617-11.153l-6.537-15.77c-1.801-4.352-6.793-6.426-11.145-4.617c-4.352,1.801-6.426,6.793-4.617,11.153L108.527,97.698z"/>
    <path d="M162.133,93.875c4.71,0,8.533-3.823,8.533-8.533V51.2c0-4.71-3.823-8.533-8.533-8.533c-4.719,0-8.533,3.823-8.533,8.533v34.142C153.6,90.052,157.414,93.875,162.133,93.875z"/>
</g>
</svg>
