<!-- sample rectangle -->
<svg width="220" height="220" xmlns="http://www.w3.org/2000/svg">
  <path xmlns="http://www.w3.org/2000/svg" d="M165.25,95.69l-49.39-49.39c-2.92-2.92-7.69-2.92-10.61,0l-49.39,49.39c-2.92,2.92-5.3,8.68-5.3,12.8v45c0,4.12,3.38,7.5,7.5,7.5h29.5v-74.67c0-1.66,1.34-3,3-3h40c1.66,0,3,1.34,3,3v12c0,1.66-1.34,3-3,3h-25v6h25c1.66,0,3,1.34,3,3v12c0,1.66-1.34,3-3,3h-25v6h25c1.66,0,3,1.34,3,3v12c0,1.66-1.34,3-3,3h-28c-1.66,0-3-1.34-3-3s1.34-3,3-3h25v-6h-25c-1.66,0-3-1.34-3-3v-12c0-1.66,1.34-3,3-3h25v-6h-25c-1.66,0-3-1.34-3-3v-12c0-1.66,1.34-3,3-3h25v-6h-34v71.67h69.5c4.12,0,7.5-3.38,7.5-7.5v-45c0-4.12-2.39-9.89-5.3-12.8Z" class="cls-1"/>
</svg>