<?xml version="1.0" standalone="no"?>
<!DOCTYPE svg PUBLIC "-//W3C//DTD SVG 1.1//EN" "http://www.w3.org/Graphics/SVG/1.1/DTD/svg11.dtd">
<svg width="20mm" height="20mm" viewBox="-11 -11 22 22" xmlns="http://www.w3.org/2000/svg" version="1.1">
<title>OpenSCAD Model</title>
<path d="
M 0.627899,9.98026 L 1.25333,9.92114 L 1.87381,9.82286 L 2.48689,9.68582 L 3.09016,9.51056 L 3.68124,9.29776
 L 4.25778,9.04826 L 4.81754,8.76306 L 5.35826,8.44327 L 5.87784,8.09016 L 6.37424,7.70512 L 6.84546,7.28967
 L 7.28967,6.84546 L 7.70512,6.37424 L 8.09016,5.87784 L 8.44327,5.35826 L 8.76306,4.81754 L 9.04826,4.25778
 L 9.29776,3.68124 L 9.34854,3.54021 L 7.40588,3.01967 L 7.2386,3.40622 L 7.16521,3.55028 L 0.505981,-7.98386
 L 1.00266,-7.9369 L 1.0878,-7.92342 L 1.60803,-9.86496 L 1.25333,-9.92114 L 0.627899,-9.98026 L 0,-10
 L -0.627899,-9.98026 L -1.25333,-9.92114 L -1.87381,-9.82286 L -2.48689,-9.68582 L -3.09016,-9.51056 L -3.68124,-9.29776
 L -4.25778,-9.04826 L -4.81754,-8.76306 L -5.35826,-8.44327 L -5.87784,-8.09016 L -6.37424,-7.70512 L -6.84546,-7.28967
 L -7.28967,-6.84546 L -7.70512,-6.37424 L -8.09016,-5.87784 L -8.44327,-5.35826 L -8.76306,-4.81754 L -9.04826,-4.25778
 L -9.29776,-3.68124 L -9.51056,-3.09016 L -9.68582,-2.48689 L -9.82286,-1.87381 L -9.92114,-1.25333 L -9.98026,-0.627899
 L -10,-0 L -9.98026,0.627899 L -9.92114,1.25333 L -9.82286,1.87381 L -9.68582,2.48689 L -9.51056,3.09016
 L -9.29776,3.68124 L -9.04826,4.25778 L -8.76306,4.81754 L -8.44327,5.35826 L -8.09016,5.87784 L -7.70512,6.37424
 L -7.28967,6.84546 L -6.84546,7.28967 L -6.37424,7.70512 L -5.87784,8.09016 L -5.35826,8.44327 L -4.81754,8.76306
 L -4.25778,9.04826 L -3.68124,9.29776 L -3.09016,9.51056 L -2.48689,9.68582 L -1.87381,9.82286 L -1.25333,9.92114
 L -0.627899,9.98026 L 0,10 z
M -7.2386,3.40622 L -7.4382,2.94499 L -7.60844,2.47212 L -7.74866,1.98952 L -7.85829,1.49904 L -7.9369,1.00266
 L -7.98421,0.502319 L -8,-0 L -7.98421,-0.502319 L -7.9369,-1.00266 L -7.85829,-1.49904 L -7.74866,-1.98952
 L -7.60844,-2.47212 L -7.4382,-2.94499 L -7.2386,-3.40622 L -7.01045,-3.85402 L -6.75461,-4.28661 L -6.47212,-4.70227
 L -6.16409,-5.09938 L -5.83174,-5.47636 L -5.47636,-5.83174 L -5.09938,-6.16409 L -4.70227,-6.47212 L -4.28661,-6.75461
 L -3.85402,-7.01045 L -3.40622,-7.2386 L -2.94499,-7.4382 L -2.47212,-7.60844 L -1.98952,-7.74866 L -1.49904,-7.85829
 L -1.00266,-7.9369 L -0.505981,-7.98386 L -7.16521,3.55028 z
M -0.764267,-6.93642 L 0.764282,-6.93642 L 0,-5.61267 z
M -1.70177,-5.31262 L 1.70178,-5.31262 L 0,-2.36507 z
M -2.63927,-3.68884 L -1.1107,-3.68884 L -1.87497,-2.36508 z
M 1.1107,-3.68884 L 2.63925,-3.68884 L 1.87497,-2.36508 z
M -3.57677,-2.06505 L 3.57677,-2.06505 L 0,4.1301 z
M -4.51427,-0.441238 L -2.9857,-0.441223 L -3.74998,0.882507 z
M 2.9857,-0.441238 L 4.51427,-0.441238 L 3.75,0.882507 z
M -5.45175,1.18253 L -2.04822,1.18253 L -3.74997,4.1301 z
M 2.04822,1.18254 L 5.45177,1.18253 L 3.74998,4.1301 z
M -6.38925,2.80632 L -4.8607,2.80634 L -5.62497,4.1301 z
M -2.63928,2.80632 L -1.11073,2.80632 L -1.875,4.13008 z
M 1.11072,2.80632 L 2.63928,2.80634 L 1.875,4.1301 z
M 4.8607,2.80634 L 6.38927,2.80632 L 5.62498,4.1301 z
M -0.502319,7.98421 L -1.00266,7.9369 L -1.49904,7.85829 L -1.98952,7.74866 L -2.47212,7.60844 L -2.94499,7.4382
 L -3.40622,7.2386 L -3.85402,7.01045 L -4.28661,6.75461 L -4.70227,6.47212 L -5.09938,6.16409 L -5.47636,5.83174
 L -5.83174,5.47636 L -6.16409,5.09938 L -6.47212,4.70227 L -6.65707,4.43011 L 6.65707,4.43011 L 6.47212,4.70227
 L 6.16409,5.09938 L 5.83174,5.47636 L 5.47636,5.83174 L 5.09938,6.16409 L 4.70227,6.47212 L 4.28661,6.75461
 L 3.85402,7.01045 L 3.40622,7.2386 L 2.94499,7.4382 L 2.47212,7.60844 L 1.98952,7.74866 L 1.49904,7.85829
 L 1.00266,7.9369 L 0.502319,7.98421 L 0,8 z
M 6.32732,-7.74152 L 5.87784,-8.09016 L 5.35826,-8.44327 L 4.81754,-8.76306 L 4.25778,-9.04826 L 3.68124,-9.29776
 L 3.54021,-9.34854 L 3.01967,-7.40588 L 3.40622,-7.2386 L 3.85402,-7.01045 L 4.28661,-6.75461 L 4.70227,-6.47212
 L 4.90257,-6.31676 z
M 9.34854,-3.54021 L 9.29776,-3.68124 L 9.04826,-4.25778 L 8.76306,-4.81754 L 8.44327,-5.35826 L 8.09016,-5.87784
 L 7.74152,-6.32732 L 6.31676,-4.90257 L 6.47212,-4.70227 L 6.75461,-4.28661 L 7.01045,-3.85402 L 7.2386,-3.40622
 L 7.40588,-3.01967 z
M 9.92114,1.25333 L 9.98026,0.627899 L 10,-0 L 9.98026,-0.627899 L 9.92114,-1.25333 L 9.86496,-1.60803
 L 7.92342,-1.08781 L 7.9369,-1.00266 L 7.98421,-0.502319 L 8,-0 L 7.98421,0.502319 L 7.9369,1.00266
 L 7.92342,1.08781 L 9.86496,1.60803 z
" stroke="black" fill="white" stroke-width="0.5"/>
</svg>
