solid OpenSCAD_Model
  facet normal 1 -0 0
    outer loop
      vertex 6.5 -9.75 48
      vertex 6.5 -2.75 -2
      vertex 6.5 -2.75 48
    endloop
  endfacet
  facet normal 1 0 0
    outer loop
      vertex 6.5 -2.75 -2
      vertex 6.5 -9.75 48
      vertex 6.5 -9.75 -2
    endloop
  endfacet
  facet normal 1 -0 0
    outer loop
      vertex 6.5 2.75 48
      vertex 6.5 9.75 -2
      vertex 6.5 9.75 48
    endloop
  endfacet
  facet normal 1 0 0
    outer loop
      vertex 6.5 9.75 -2
      vertex 6.5 2.75 48
      vertex 6.5 2.75 -2
    endloop
  endfacet
  facet normal 0 0 -1
    outer loop
      vertex 6.5 -9.75 -2
      vertex 5.5 -8.75 -2
      vertex 6.5 -2.75 -2
    endloop
  endfacet
  facet normal 0 0 -1
    outer loop
      vertex 6.5 -9.75 -2
      vertex 1 -8.75 -2
      vertex 5.5 -8.75 -2
    endloop
  endfacet
  facet normal -0 0 -1
    outer loop
      vertex 1 -8.75 -2
      vertex -30.5 -9.75 -2
      vertex 1 8.75 -2
    endloop
  endfacet
  facet normal 0 0 -1
    outer loop
      vertex -30.5 -9.75 -2
      vertex 1 -8.75 -2
      vertex 6.5 -9.75 -2
    endloop
  endfacet
  facet normal -0 0 -1
    outer loop
      vertex 6.5 -2.75 -2
      vertex 5.5 -8.75 -2
      vertex 5.5 -2.75 -2
    endloop
  endfacet
  facet normal 0 0 -1
    outer loop
      vertex 5.5 8.75 -2
      vertex 6.5 2.75 -2
      vertex 5.5 2.75 -2
    endloop
  endfacet
  facet normal 0 0 -1
    outer loop
      vertex 6.5 2.75 -2
      vertex 5.5 8.75 -2
      vertex 6.5 9.75 -2
    endloop
  endfacet
  facet normal 0 0 -1
    outer loop
      vertex 1 8.75 -2
      vertex 6.5 9.75 -2
      vertex 5.5 8.75 -2
    endloop
  endfacet
  facet normal 0 0 -1
    outer loop
      vertex 1 8.75 -2
      vertex -30.5 9.75 -2
      vertex 6.5 9.75 -2
    endloop
  endfacet
  facet normal 0 0 -1
    outer loop
      vertex -30.5 9.75 -2
      vertex 1 8.75 -2
      vertex -30.5 -9.75 -2
    endloop
  endfacet
  facet normal 0 0 1
    outer loop
      vertex 6.5 9.75 48
      vertex 1 2.75 48
      vertex 6.5 2.75 48
    endloop
  endfacet
  facet normal 0 0 1
    outer loop
      vertex 1 2.75 48
      vertex 0 9.75 48
      vertex 1 -2.75 48
    endloop
  endfacet
  facet normal -0 0 1
    outer loop
      vertex 0 9.75 48
      vertex 1 2.75 48
      vertex 6.5 9.75 48
    endloop
  endfacet
  facet normal -0 0 1
    outer loop
      vertex 1 -2.75 48
      vertex 6.5 -9.75 48
      vertex 6.5 -2.75 48
    endloop
  endfacet
  facet normal 0 0 1
    outer loop
      vertex 1 -2.75 48
      vertex 0 -9.75 48
      vertex 6.5 -9.75 48
    endloop
  endfacet
  facet normal 0 0 1
    outer loop
      vertex 0 -9.75 48
      vertex 1 -2.75 48
      vertex 0 9.75 48
    endloop
  endfacet
  facet normal -1 0 0
    outer loop
      vertex 0 -9.75 0
      vertex 0 9.75 48
      vertex 0 9.75 0
    endloop
  endfacet
  facet normal -1 -0 0
    outer loop
      vertex 0 9.75 48
      vertex 0 -9.75 0
      vertex 0 -9.75 48
    endloop
  endfacet
  facet normal 0 -1 0
    outer loop
      vertex -30.5 -9.75 28
      vertex -28.5 -9.75 0
      vertex -28.5 -9.75 28
    endloop
  endfacet
  facet normal 0 -1 -0
    outer loop
      vertex -28.5 -9.75 0
      vertex -30.5 -9.75 -2
      vertex 0 -9.75 0
    endloop
  endfacet
  facet normal 0 -1 0
    outer loop
      vertex -30.5 -9.75 -2
      vertex -28.5 -9.75 0
      vertex -30.5 -9.75 28
    endloop
  endfacet
  facet normal 0 -1 0
    outer loop
      vertex 0 -9.75 0
      vertex 6.5 -9.75 48
      vertex 0 -9.75 48
    endloop
  endfacet
  facet normal 0 -1 0
    outer loop
      vertex 0 -9.75 0
      vertex 6.5 -9.75 -2
      vertex 6.5 -9.75 48
    endloop
  endfacet
  facet normal 0 -1 0
    outer loop
      vertex 6.5 -9.75 -2
      vertex 0 -9.75 0
      vertex -30.5 -9.75 -2
    endloop
  endfacet
  facet normal 0 1 0
    outer loop
      vertex 6.5 9.75 48
      vertex 0 9.75 0
      vertex 0 9.75 48
    endloop
  endfacet
  facet normal 0 1 0
    outer loop
      vertex -30.5 9.75 -2
      vertex 0 9.75 0
      vertex 6.5 9.75 -2
    endloop
  endfacet
  facet normal 0 1 -0
    outer loop
      vertex 6.5 9.75 -2
      vertex 0 9.75 0
      vertex 6.5 9.75 48
    endloop
  endfacet
  facet normal 0 1 -0
    outer loop
      vertex -28.5 9.75 0
      vertex -30.5 9.75 28
      vertex -28.5 9.75 28
    endloop
  endfacet
  facet normal 0 1 0
    outer loop
      vertex -28.5 9.75 0
      vertex -30.5 9.75 -2
      vertex -30.5 9.75 28
    endloop
  endfacet
  facet normal 0 1 0
    outer loop
      vertex 0 9.75 0
      vertex -30.5 9.75 -2
      vertex -28.5 9.75 0
    endloop
  endfacet
  facet normal -1 0 0
    outer loop
      vertex 5.5 -8.75 -2
      vertex 5.5 -2.75 47
      vertex 5.5 -2.75 -2
    endloop
  endfacet
  facet normal -1 -0 0
    outer loop
      vertex 5.5 -2.75 47
      vertex 5.5 -8.75 -2
      vertex 5.5 -8.75 47
    endloop
  endfacet
  facet normal -1 0 0
    outer loop
      vertex 5.5 2.75 -2
      vertex 5.5 8.75 47
      vertex 5.5 8.75 -2
    endloop
  endfacet
  facet normal -1 -0 0
    outer loop
      vertex 5.5 8.75 47
      vertex 5.5 2.75 -2
      vertex 5.5 2.75 47
    endloop
  endfacet
  facet normal 0 0 -1
    outer loop
      vertex 1 -8.75 47
      vertex 5.5 -2.75 47
      vertex 5.5 -8.75 47
    endloop
  endfacet
  facet normal -0 0 -1
    outer loop
      vertex 5.5 -2.75 47
      vertex 1 -8.75 47
      vertex 1 -2.75 47
    endloop
  endfacet
  facet normal 0 0 -1
    outer loop
      vertex 1 2.75 47
      vertex 5.5 8.75 47
      vertex 5.5 2.75 47
    endloop
  endfacet
  facet normal -0 0 -1
    outer loop
      vertex 5.5 8.75 47
      vertex 1 2.75 47
      vertex 1 8.75 47
    endloop
  endfacet
  facet normal 1 -0 0
    outer loop
      vertex 1 2.75 47
      vertex 1 8.75 -2
      vertex 1 8.75 47
    endloop
  endfacet
  facet normal 1 0 0
    outer loop
      vertex 1 -2.75 47
      vertex 1 2.75 47
      vertex 1 -2.75 48
    endloop
  endfacet
  facet normal 1 0 0
    outer loop
      vertex 1 2.75 47
      vertex 1 -2.75 47
      vertex 1 8.75 -2
    endloop
  endfacet
  facet normal 1 0 0
    outer loop
      vertex 1 -8.75 -2
      vertex 1 -2.75 47
      vertex 1 -8.75 47
    endloop
  endfacet
  facet normal 1 0 0
    outer loop
      vertex 1 -2.75 47
      vertex 1 -8.75 -2
      vertex 1 8.75 -2
    endloop
  endfacet
  facet normal 1 0 0
    outer loop
      vertex 1 2.75 48
      vertex 1 -2.75 48
      vertex 1 2.75 47
    endloop
  endfacet
  facet normal 0 1 -0
    outer loop
      vertex 5.5 -8.75 -2
      vertex 1 -8.75 47
      vertex 5.5 -8.75 47
    endloop
  endfacet
  facet normal 0 1 0
    outer loop
      vertex 1 -8.75 47
      vertex 5.5 -8.75 -2
      vertex 1 -8.75 -2
    endloop
  endfacet
  facet normal 0 -1 0
    outer loop
      vertex 1 8.75 -2
      vertex 5.5 8.75 47
      vertex 1 8.75 47
    endloop
  endfacet
  facet normal 0 -1 -0
    outer loop
      vertex 5.5 8.75 47
      vertex 1 8.75 -2
      vertex 5.5 8.75 -2
    endloop
  endfacet
  facet normal 0 1 0
    outer loop
      vertex 6.5 -2.75 48
      vertex 5.5 -2.75 47
      vertex 1 -2.75 48
    endloop
  endfacet
  facet normal 0 1 -0
    outer loop
      vertex 6.5 -2.75 -2
      vertex 5.5 -2.75 47
      vertex 6.5 -2.75 48
    endloop
  endfacet
  facet normal 0 1 0
    outer loop
      vertex 5.5 -2.75 47
      vertex 6.5 -2.75 -2
      vertex 5.5 -2.75 -2
    endloop
  endfacet
  facet normal 0 1 0
    outer loop
      vertex 1 -2.75 48
      vertex 5.5 -2.75 47
      vertex 1 -2.75 47
    endloop
  endfacet
  facet normal 0 -1 0
    outer loop
      vertex 5.5 2.75 47
      vertex 1 2.75 48
      vertex 1 2.75 47
    endloop
  endfacet
  facet normal 0 -1 0
    outer loop
      vertex 1 2.75 48
      vertex 5.5 2.75 47
      vertex 6.5 2.75 48
    endloop
  endfacet
  facet normal 0 -1 0
    outer loop
      vertex 6.5 2.75 -2
      vertex 5.5 2.75 47
      vertex 5.5 2.75 -2
    endloop
  endfacet
  facet normal 0 -1 0
    outer loop
      vertex 5.5 2.75 47
      vertex 6.5 2.75 -2
      vertex 6.5 2.75 48
    endloop
  endfacet
  facet normal 1 -0 0
    outer loop
      vertex -28.5 -9.75 28
      vertex -28.5 9.75 0
      vertex -28.5 9.75 28
    endloop
  endfacet
  facet normal 1 0 0
    outer loop
      vertex -28.5 9.75 0
      vertex -28.5 -9.75 28
      vertex -28.5 -9.75 0
    endloop
  endfacet
  facet normal -0 0 1
    outer loop
      vertex -30.5 9.75 28
      vertex -28.5 -9.75 28
      vertex -28.5 9.75 28
    endloop
  endfacet
  facet normal 0 0 1
    outer loop
      vertex -28.5 -9.75 28
      vertex -30.5 9.75 28
      vertex -30.5 -9.75 28
    endloop
  endfacet
  facet normal -1 0 0
    outer loop
      vertex -30.5 -9.75 -2
      vertex -30.5 9.75 28
      vertex -30.5 9.75 -2
    endloop
  endfacet
  facet normal -1 -0 0
    outer loop
      vertex -30.5 9.75 28
      vertex -30.5 -9.75 -2
      vertex -30.5 -9.75 28
    endloop
  endfacet
  facet normal -0 0 1
    outer loop
      vertex -28.5 9.75 0
      vertex 0 -9.75 0
      vertex 0 9.75 0
    endloop
  endfacet
  facet normal 0 0 1
    outer loop
      vertex 0 -9.75 0
      vertex -28.5 9.75 0
      vertex -28.5 -9.75 0
    endloop
  endfacet
endsolid OpenSCAD_Model
