<?xml version="1.0" encoding="UTF-8"?>
<svg version="1.1" xmlns="http://www.w3.org/2000/svg" width="860" height="838">

<path d="M0 0 C283.8 0 567.6 0 860 0 C860 276.54 860 553.08 860 838 C576.2 838 292.4 838 0 838 C0 561.46 0 284.92 0 0 Z M226.53125 43.99609375 C222.85538444 45.04111305 219.2783464 45.62452639 215.5 46.1875 C184.38933098 51.3887609 153.47078346 65.53531893 128 84 C127.37061523 84.45568359 126.74123047 84.91136719 126.09277344 85.38085938 C115.35020417 93.21852435 105.52388126 101.73137988 96 111 C95.13632813 111.82371094 94.27265625 112.64742188 93.3828125 113.49609375 C73.52403415 132.77079038 58.34299117 157.46709293 48 183 C47.68933594 183.76570312 47.37867187 184.53140625 47.05859375 185.3203125 C39.0677736 205.31408008 34.95888067 225.72066842 32 247 C31.89469971 247.71897461 31.78939941 248.43794922 31.6809082 249.17871094 C30.69530205 256.7045116 30.71273496 264.2967568 30.6875 271.875 C30.68488159 272.62945404 30.68226318 273.38390808 30.67956543 274.16122437 C30.6751755 286.13020992 31.39472253 297.92248366 32.75 309.8125 C32.82850189 310.52863464 32.90700378 311.24476929 32.98788452 311.98260498 C34.07179299 321.64375234 36.14929166 330.70731539 39 340 C39.38559574 341.47186544 39.76047478 342.94665043 40.1171875 344.42578125 C48.66273191 379.02389247 64.82067038 412.12433983 87 440 C87.73863281 440.93070312 88.47726563 441.86140625 89.23828125 442.8203125 C97.65821101 453.26160709 106.77289329 462.95958139 116.25024414 472.43554688 C117.96464101 474.15217635 119.67082027 475.87672364 121.37695312 477.6015625 C122.46826271 478.6957987 123.56004152 479.78956719 124.65234375 480.8828125 C125.16063217 481.39828644 125.66892059 481.91376038 126.19261169 482.44485474 C128.63359434 485.18870131 128.63359434 485.18870131 132 486 C131.67 486.99 131.34 487.98 131 489 C130.14390792 499.1485825 130.33355175 509.42895034 134 519 C134.35191406 519.98226563 134.70382813 520.96453125 135.06640625 521.9765625 C137.79319086 529.08600092 141.28257424 535.0386283 146 541 C146.64582031 541.83402344 147.29164063 542.66804688 147.95703125 543.52734375 C158.44721812 556.15838508 173.65353078 564.24212027 190 566 C192.31170807 566.06400078 194.62502904 566.08633991 196.9375 566.0625 C198.65259766 566.04896484 198.65259766 566.04896484 200.40234375 566.03515625 C201.25957031 566.02355469 202.11679688 566.01195312 203 566 C202.94199219 566.8971875 202.88398438 567.794375 202.82421875 568.71875 C202.11404035 588.36025542 209.86975441 604.5340915 223 619 C234.15874206 630.99326337 250.62311309 637.22482963 266.7421875 638.234375 C269.51069307 638.24740326 272.2389372 638.19151881 275 638 C274.94199219 638.98097656 274.88398438 639.96195313 274.82421875 640.97265625 C274.11736945 658.32949254 280.34402807 673.33849752 291 687 C302.97429615 699.54160629 318.42359295 708.81813815 336 710 C339.66854801 710.07278865 343.33138008 710.06069408 347 710 C346.95359375 711.07636719 346.9071875 712.15273438 346.859375 713.26171875 C346.38346971 728.93053997 350.08768946 739.94363846 359 753 C359.51820313 753.77472656 360.03640625 754.54945313 360.5703125 755.34765625 C370.01107791 768.73497114 385.28217039 777.6058762 401.2578125 780.61328125 C422.97862379 782.85791624 441.02943464 779.61786085 458.5625 765.8125 C461.53156755 763.35413209 464.39861275 760.84913841 467 758 C467 757.34 467 756.68 467 756 C467.66 756 468.32 756 469 756 C469 755.34 469 754.68 469 754 C469.66 754 470.32 754 471 754 C471.53625 753.319375 472.0725 752.63875 472.625 751.9375 C474.49078365 749.62982023 476.01879654 748.06029554 478.25 746.19921875 C484.24874938 741.00995391 489.82985969 735.39324868 495.44433594 729.79589844 C497.35683717 727.89307096 499.27977482 726.00122712 501.203125 724.109375 C515.22442189 710.21062034 527.0373276 695.95240311 531 676 C531 675.01 531 674.02 531 673 C531.63164063 673.144375 532.26328125 673.28875 532.9140625 673.4375 C552.4392233 677.4888302 571.29442159 673.80117292 588 663 C599.51797303 654.61740321 607.92787132 643.2669558 613 630 C613.39316406 628.98035156 613.78632812 627.96070313 614.19140625 626.91015625 C617.00552773 618.82078266 617.45991033 611.52111634 617 603 C618.14662109 603.06960938 618.14662109 603.06960938 619.31640625 603.140625 C636.86002709 603.7317458 652.87744946 597.54784448 666 586 C666.75023437 585.35546875 667.50046875 584.7109375 668.2734375 584.046875 C677.59825188 575.45404263 683.42715444 564.0724571 687 552 C687.22429688 551.25492188 687.44859375 550.50984375 687.6796875 549.7421875 C689.30610812 543.52614155 689.19459229 537.3891135 689 531 C689.81339844 531.05800781 690.62679687 531.11601563 691.46484375 531.17578125 C707.94547516 531.82462501 723.68414467 526.58057472 736.1875 515.6875 C737.80764781 514.14157697 739.41255937 512.57949017 741 511 C742.04994141 510.00226563 742.04994141 510.00226563 743.12109375 508.984375 C753.67564931 498.20350343 760.24804545 481.89786182 761.28125 466.9296875 C762.11414114 462.37594573 763.84419701 460.22034457 767.0625 457.125 C768.07141315 456.09088039 769.07790208 455.05439047 770.08203125 454.015625 C770.57912598 453.50837891 771.0762207 453.00113281 771.58837891 452.47851562 C777.80033073 445.97218905 783.01922471 438.46636451 788 431 C788.42265137 430.37577148 788.84530273 429.75154297 789.28076172 429.10839844 C805.26599294 405.35032767 816.15771514 379.54301626 823.3125 351.875 C823.65837158 350.55520142 823.65837158 350.55520142 824.01123047 349.20874023 C828.06785557 332.62605562 829.50271423 316.00153784 829.39111328 298.97094727 C829.3750235 296.06674133 829.39108369 293.16393019 829.41015625 290.25976562 C829.42930362 273.34355264 827.69611496 256.55245242 823.8125 240.0625 C823.6052832 239.17320801 823.39806641 238.28391602 823.18457031 237.36767578 C814.19713131 200.4830714 796.03270176 166.42295743 771 138 C770.39800781 137.28714844 769.79601562 136.57429688 769.17578125 135.83984375 C747.80477689 110.63965217 719.98789983 92.32795548 690 79 C689.35063477 78.70996094 688.70126953 78.41992188 688.03222656 78.12109375 C653.27128254 62.81962557 616.43823339 60.32510211 579 61 C577.68201416 61.02102783 577.68201416 61.02102783 576.33740234 61.04248047 C565.73940841 61.26737774 555.68001774 63.28663364 545.36181641 65.51220703 C543.23908333 65.95062141 541.11944142 66.33471382 538.98046875 66.68359375 C530.81598054 68.03733484 523.04026648 70.03642412 515.125 72.4375 C514.17391357 72.7260083 513.22282715 73.0145166 512.24291992 73.31176758 C506.02937083 75.24811314 500.00583275 77.49650118 494 80 C493.03803711 80.39360718 493.03803711 80.39360718 492.05664062 80.79516602 C473.15059875 88.58953665 453.87234253 97.95783619 438 111 C434.034144 109.38916538 431.33289636 106.61546383 428.3125 103.6875 C411.56476108 87.91363418 392.1194734 74.68091737 371.22607422 65.03027344 C369.65771467 64.30440403 368.09467705 63.56698046 366.53564453 62.82128906 C344.92777839 52.52570545 322.13095203 45.81197761 298.31005859 43.26025391 C296.13088459 43.01474561 293.96923776 42.71232052 291.80078125 42.38671875 C271.38241248 39.47392208 246.47620512 38.26865731 226.53125 43.99609375 Z " fill="#F6F6F6" transform="translate(0,0)"/>
</svg>
