<?xml version="1.0" encoding="UTF-8"?>
<svg version="1.1" xmlns="http://www.w3.org/2000/svg" width="860" height="838">

<path d="M0 0 C283.8 0 567.6 0 860 0 C860 276.54 860 553.08 860 838 C576.2 838 292.4 838 0 838 C0 561.46 0 284.92 0 0 Z M226.53125 43.99609375 C222.85538444 45.04111305 219.2783464 45.62452639 215.5 46.1875 C184.38933098 51.3887609 153.47078346 65.53531893 128 84 C127.37061523 84.45568359 126.74123047 84.91136719 126.09277344 85.38085938 C115.35020417 93.21852435 105.52388126 101.73137988 96 111 C95.13632813 111.82371094 94.27265625 112.64742188 93.3828125 113.49609375 C73.52403415 132.77079038 58.34299117 157.46709293 48 183 C47.68933594 183.76570312 47.37867187 184.53140625 47.05859375 185.3203125 C39.0677736 205.31408008 34.95888067 225.72066842 32 247 C31.89469971 247.71897461 31.78939941 248.43794922 31.6809082 249.17871094 C30.69530205 256.7045116 30.71273496 264.2967568 30.6875 271.875 C30.68488159 272.62945404 30.68226318 273.38390808 30.67956543 274.16122437 C30.6751755 286.13020992 31.39472253 297.92248366 32.75 309.8125 C32.82850189 310.52863464 32.90700378 311.24476929 32.98788452 311.98260498 C34.07179299 321.64375234 36.14929166 330.70731539 39 340 C39.38559574 341.47186544 39.76047478 342.94665043 40.1171875 344.42578125 C48.66273191 379.02389247 64.82067038 412.12433983 87 440 C87.73863281 440.93070312 88.47726563 441.86140625 89.23828125 442.8203125 C97.65821101 453.26160709 106.77289329 462.95958139 116.25024414 472.43554688 C117.96464101 474.15217635 119.67082027 475.87672364 121.37695312 477.6015625 C122.46826271 478.6957987 123.56004152 479.78956719 124.65234375 480.8828125 C125.16063217 481.39828644 125.66892059 481.91376038 126.19261169 482.44485474 C128.63359434 485.18870131 128.63359434 485.18870131 132 486 C131.67 486.99 131.34 487.98 131 489 C130.14390792 499.1485825 130.33355175 509.42895034 134 519 C134.35191406 519.98226563 134.70382813 520.96453125 135.06640625 521.9765625 C137.79319086 529.08600092 141.28257424 535.0386283 146 541 C146.64582031 541.83402344 147.29164063 542.66804688 147.95703125 543.52734375 C158.44721812 556.15838508 173.65353078 564.24212027 190 566 C192.31170807 566.06400078 194.62502904 566.08633991 196.9375 566.0625 C198.65259766 566.04896484 198.65259766 566.04896484 200.40234375 566.03515625 C201.25957031 566.02355469 202.11679688 566.01195312 203 566 C202.94199219 566.8971875 202.88398438 567.794375 202.82421875 568.71875 C202.11404035 588.36025542 209.86975441 604.5340915 223 619 C234.15874206 630.99326337 250.62311309 637.22482963 266.7421875 638.234375 C269.51069307 638.24740326 272.2389372 638.19151881 275 638 C274.94199219 638.98097656 274.88398438 639.96195313 274.82421875 640.97265625 C274.11736945 658.32949254 280.34402807 673.33849752 291 687 C302.97429615 699.54160629 318.42359295 708.81813815 336 710 C339.66854801 710.07278865 343.33138008 710.06069408 347 710 C346.95359375 711.07636719 346.9071875 712.15273438 346.859375 713.26171875 C346.38346971 728.93053997 350.08768946 739.94363846 359 753 C359.51820313 753.77472656 360.03640625 754.54945313 360.5703125 755.34765625 C370.01107791 768.73497114 385.28217039 777.6058762 401.2578125 780.61328125 C422.97862379 782.85791624 441.02943464 779.61786085 458.5625 765.8125 C461.53156755 763.35413209 464.39861275 760.84913841 467 758 C467 757.34 467 756.68 467 756 C467.66 756 468.32 756 469 756 C469 755.34 469 754.68 469 754 C469.66 754 470.32 754 471 754 C471.53625 753.319375 472.0725 752.63875 472.625 751.9375 C474.49078365 749.62982023 476.01879654 748.06029554 478.25 746.19921875 C484.24874938 741.00995391 489.82985969 735.39324868 495.44433594 729.79589844 C497.35683717 727.89307096 499.27977482 726.00122712 501.203125 724.109375 C515.22442189 710.21062034 527.0373276 695.95240311 531 676 C531 675.01 531 674.02 531 673 C531.63164063 673.144375 532.26328125 673.28875 532.9140625 673.4375 C552.4392233 677.4888302 571.29442159 673.80117292 588 663 C599.51797303 654.61740321 607.92787132 643.2669558 613 630 C613.39316406 628.98035156 613.78632812 627.96070313 614.19140625 626.91015625 C617.00552773 618.82078266 617.45991033 611.52111634 617 603 C618.14662109 603.06960938 618.14662109 603.06960938 619.31640625 603.140625 C636.86002709 603.7317458 652.87744946 597.54784448 666 586 C666.75023437 585.35546875 667.50046875 584.7109375 668.2734375 584.046875 C677.59825188 575.45404263 683.42715444 564.0724571 687 552 C687.22429688 551.25492188 687.44859375 550.50984375 687.6796875 549.7421875 C689.30610812 543.52614155 689.19459229 537.3891135 689 531 C689.81339844 531.05800781 690.62679687 531.11601563 691.46484375 531.17578125 C707.94547516 531.82462501 723.68414467 526.58057472 736.1875 515.6875 C737.80764781 514.14157697 739.41255937 512.57949017 741 511 C742.04994141 510.00226563 742.04994141 510.00226563 743.12109375 508.984375 C753.67564931 498.20350343 760.24804545 481.89786182 761.28125 466.9296875 C762.11414114 462.37594573 763.84419701 460.22034457 767.0625 457.125 C768.07141315 456.09088039 769.07790208 455.05439047 770.08203125 454.015625 C770.57912598 453.50837891 771.0762207 453.00113281 771.58837891 452.47851562 C777.80033073 445.97218905 783.01922471 438.46636451 788 431 C788.42265137 430.37577148 788.84530273 429.75154297 789.28076172 429.10839844 C805.26599294 405.35032767 816.15771514 379.54301626 823.3125 351.875 C823.65837158 350.55520142 823.65837158 350.55520142 824.01123047 349.20874023 C828.06785557 332.62605562 829.50271423 316.00153784 829.39111328 298.97094727 C829.3750235 296.06674133 829.39108369 293.16393019 829.41015625 290.25976562 C829.42930362 273.34355264 827.69611496 256.55245242 823.8125 240.0625 C823.6052832 239.17320801 823.39806641 238.28391602 823.18457031 237.36767578 C814.19713131 200.4830714 796.03270176 166.42295743 771 138 C770.39800781 137.28714844 769.79601562 136.57429688 769.17578125 135.83984375 C747.80477689 110.63965217 719.98789983 92.32795548 690 79 C689.35063477 78.70996094 688.70126953 78.41992188 688.03222656 78.12109375 C653.27128254 62.81962557 616.43823339 60.32510211 579 61 C577.68201416 61.02102783 577.68201416 61.02102783 576.33740234 61.04248047 C565.73940841 61.26737774 555.68001774 63.28663364 545.36181641 65.51220703 C543.23908333 65.95062141 541.11944142 66.33471382 538.98046875 66.68359375 C530.81598054 68.03733484 523.04026648 70.03642412 515.125 72.4375 C514.17391357 72.7260083 513.22282715 73.0145166 512.24291992 73.31176758 C506.02937083 75.24811314 500.00583275 77.49650118 494 80 C493.03803711 80.39360718 493.03803711 80.39360718 492.05664062 80.79516602 C473.15059875 88.58953665 453.87234253 97.95783619 438 111 C434.034144 109.38916538 431.33289636 106.61546383 428.3125 103.6875 C411.56476108 87.91363418 392.1194734 74.68091737 371.22607422 65.03027344 C369.65771467 64.30440403 368.09467705 63.56698046 366.53564453 62.82128906 C344.92777839 52.52570545 322.13095203 45.81197761 298.31005859 43.26025391 C296.13088459 43.01474561 293.96923776 42.71232052 291.80078125 42.38671875 C271.38241248 39.47392208 246.47620512 38.26865731 226.53125 43.99609375 Z " fill="#F6F6F6" transform="translate(0,0)"/>
<path d="M0 0 C0.88392426 -0.0033284 1.76784851 -0.0066568 2.67855835 -0.01008606 C4.5391183 -0.01511715 6.39968716 -0.01749558 8.26025391 -0.01733398 C11.05777463 -0.01950935 13.85489309 -0.03767569 16.65234375 -0.05664062 C27.13364091 -0.09026212 37.1004929 0.47958345 47.4609375 2.16796875 C48.55269287 2.30485107 49.64444824 2.4417334 50.76928711 2.58276367 C59.11847021 3.66719563 66.73183017 5.9701897 74.6484375 8.79296875 C75.27823517 9.01450623 75.90803284 9.2360437 76.55691528 9.46429443 C104.31672308 19.23318548 128.29336768 32.77889542 150.4609375 52.16796875 C152.45219898 53.84548346 154.45534459 55.50755207 156.4609375 57.16796875 C155.05798077 60.34109266 153.40211858 62.47443226 150.95121765 64.91819763 C149.85988525 66.01365402 149.85988525 66.01365402 148.74650574 67.13124084 C147.94803726 67.92251877 147.14956879 68.71379669 146.3269043 69.52905273 C145.48608307 70.37016602 144.64526184 71.2112793 143.77896118 72.07788086 C141.47455616 74.38113168 139.16577335 76.67988304 136.85497642 78.97671771 C134.43405984 81.38510867 132.01882762 83.79918653 129.60298157 86.21266174 C125.02309202 90.78633455 120.43813131 95.35488844 115.85132295 99.92162138 C110.64981231 105.10085034 105.45390993 110.28568967 100.25850809 115.47104537 C91.37069844 124.34148037 82.47870375 133.2076976 73.58195496 142.06916809 C71.5413122 144.10179726 69.50101683 146.13477411 67.4609375 148.16796875 C66.9462623 148.68054796 66.4315871 149.19312717 65.90131569 149.72123909 C63.99900754 151.61864352 62.12002697 153.52835988 60.2734375 155.48046875 C58.4609375 157.16796875 58.4609375 157.16796875 56.4609375 157.16796875 C56.4609375 157.82796875 56.4609375 158.48796875 56.4609375 159.16796875 C55.8009375 159.16796875 55.1409375 159.16796875 54.4609375 159.16796875 C54.4609375 159.82796875 54.4609375 160.48796875 54.4609375 161.16796875 C53.8009375 161.16796875 53.1409375 161.16796875 52.4609375 161.16796875 C52.4609375 161.82796875 52.4609375 162.48796875 52.4609375 163.16796875 C50.81640625 164.75390625 50.81640625 164.75390625 48.6484375 166.54296875 C46.39842893 168.40363157 44.55743465 170.03669578 42.82421875 172.39453125 C42.37433594 172.97976562 41.92445313 173.565 41.4609375 174.16796875 C40.8009375 174.16796875 40.1409375 174.16796875 39.4609375 174.16796875 C39.4609375 174.82796875 39.4609375 175.48796875 39.4609375 176.16796875 C38.8009375 176.16796875 38.1409375 176.16796875 37.4609375 176.16796875 C37.4609375 176.82796875 37.4609375 177.48796875 37.4609375 178.16796875 C36.8009375 178.16796875 36.1409375 178.16796875 35.4609375 178.16796875 C35.4609375 178.82796875 35.4609375 179.48796875 35.4609375 180.16796875 C34.8009375 180.16796875 34.1409375 180.16796875 33.4609375 180.16796875 C33.4609375 180.82796875 33.4609375 181.48796875 33.4609375 182.16796875 C32.8009375 182.16796875 32.1409375 182.16796875 31.4609375 182.16796875 C31.4609375 182.82796875 31.4609375 183.48796875 31.4609375 184.16796875 C30.02651458 185.36888096 28.58764779 186.56510717 27.12109375 187.7265625 C25.42977619 189.1950241 24.09959711 190.72702692 22.7109375 192.48046875 C21.5971875 193.81078125 21.5971875 193.81078125 20.4609375 195.16796875 C19.8009375 195.16796875 19.1409375 195.16796875 18.4609375 195.16796875 C18.4609375 195.82796875 18.4609375 196.48796875 18.4609375 197.16796875 C17.8009375 197.16796875 17.1409375 197.16796875 16.4609375 197.16796875 C16.4609375 197.82796875 16.4609375 198.48796875 16.4609375 199.16796875 C14.88671875 200.68359375 14.88671875 200.68359375 12.7734375 202.41796875 C10.10744617 204.66872603 7.75083659 206.8684642 5.5859375 209.60546875 C4.8846875 210.45109375 4.1834375 211.29671875 3.4609375 212.16796875 C2.8009375 212.16796875 2.1409375 212.16796875 1.4609375 212.16796875 C1.4609375 212.82796875 1.4609375 213.48796875 1.4609375 214.16796875 C0.8009375 214.16796875 0.1409375 214.16796875 -0.5390625 214.16796875 C-0.5390625 214.82796875 -0.5390625 215.48796875 -0.5390625 216.16796875 C-1.1990625 216.16796875 -1.8590625 216.16796875 -2.5390625 216.16796875 C-2.5390625 216.82796875 -2.5390625 217.48796875 -2.5390625 218.16796875 C-3.1990625 218.16796875 -3.8590625 218.16796875 -4.5390625 218.16796875 C15.57938023 242.1315746 42.80663616 261.88959967 74.87646484 265.00244141 C80.33880608 265.35228718 85.8018047 265.35254431 91.2734375 265.35546875 C92.46775391 265.36771484 93.66207031 265.37996094 94.89257812 265.39257812 C105.50641307 265.40991155 115.54746118 264.03633616 125.7109375 260.98046875 C126.4220166 260.7676123 127.1330957 260.55475586 127.86572266 260.33544922 C153.52350589 252.36800251 172.53771171 236.62160657 191.07898331 217.7142868 C193.58507789 215.15998032 196.1018237 212.61659954 198.62155151 210.07574463 C205.77284474 202.8607324 212.90479813 195.62673329 220.03027344 188.38623047 C224.41258024 183.93465369 228.80682396 179.49515056 233.20855331 175.06278229 C234.87917925 173.37535699 236.54497348 171.68313407 238.20584488 169.98610687 C240.51299706 167.62885207 242.83484789 165.28708137 245.16064453 162.94824219 C245.84427567 162.24192154 246.5279068 161.53560089 247.23225403 160.80787659 C247.86541031 160.17725815 248.49856659 159.54663971 249.15090942 158.89691162 C249.69686327 158.34245235 250.24281712 157.78799309 250.80531502 157.21673203 C252.4609375 156.16796875 252.4609375 156.16796875 254.3283962 156.39017314 C256.94856097 157.34581825 258.26451158 158.59441178 260.23722076 160.56393528 C260.97771463 161.2959892 261.71820849 162.02804313 262.48114157 162.7822805 C263.28775181 163.5949008 264.09436206 164.40752109 264.92541504 165.24476624 C265.78764002 166.10160568 266.64986501 166.95844513 267.53821802 167.84124941 C269.93270503 170.22388281 272.32026328 172.61309726 274.70513463 175.00533283 C277.27786093 177.58277881 279.85917188 180.15160231 282.43937683 182.72155762 C287.49463854 187.75960032 292.54166081 192.80582029 297.58570135 197.85509504 C301.68635879 201.95979092 305.78974447 206.06174016 309.89509583 210.16174126 C310.4790002 210.74489721 311.06290457 211.32805315 311.66450301 211.92888049 C312.85067752 213.11352354 314.03685547 214.29816315 315.22303683 215.48279934 C326.35411045 226.60013582 337.47556917 237.72705207 348.59404141 248.85698914 C358.76319632 259.03606986 368.94372898 269.20368184 379.12980944 279.36582298 C389.58795376 289.79957363 400.03868208 300.2406979 410.48131132 310.68997759 C416.34441238 316.55657127 422.21034228 322.42026618 428.0839386 328.27635384 C433.08595751 333.26364714 438.08086776 338.25792996 443.06681073 343.26129688 C445.61012603 345.81312299 448.15651693 348.36166071 450.71173668 350.90157127 C453.48423346 353.65766259 456.24100839 356.42914767 458.99645996 359.20228577 C460.20637533 360.39779363 460.20637533 360.39779363 461.44073343 361.61745316 C468.68209417 368.95478878 472.56117044 375.90921646 472.7109375 386.35546875 C472.60174504 396.12819376 469.76738596 403.64274598 463.4609375 411.16796875 C455.14236749 418.78917361 446.74250415 421.58776341 435.58203125 421.4375 C419.79499087 420.0741636 408.4765597 405.45861857 398.01855469 394.9050293 C396.58886629 393.46985622 395.15870787 392.03515124 393.7281189 390.60087585 C390.66537642 387.52847286 387.60572226 384.4530395 384.54842377 381.37521935 C379.71284294 376.50766904 374.86897286 371.64842428 370.02374268 366.79048157 C357.99798178 354.7307334 345.98167248 342.66157975 333.97009277 330.58770752 C324.6182314 321.18739312 315.2632013 311.79028763 305.89757657 302.40368301 C301.08082851 297.57541778 296.27110568 292.74029475 291.46654463 287.89990366 C288.47953165 284.8937038 285.48628486 281.89377184 282.49126053 278.8955555 C281.10431566 277.50459139 279.71995802 276.11104198 278.33839798 274.71472931 C276.45177417 272.8086885 274.55608921 270.91213504 272.65789795 269.0176239 C272.11411774 268.46374093 271.57033754 267.90985796 271.01007915 267.33919066 C266.23567941 262.6087867 261.77434884 259.74025813 254.9609375 259.73046875 C250.01946087 259.88468037 247.17897425 260.72198346 243.4609375 264.16796875 C239.34782085 268.60580514 238.97736347 272.39521554 238.83203125 278.19140625 C240.82693369 287.63311843 249.17012457 294.29170847 255.74951172 300.81298828 C256.9020753 301.96634386 258.05398447 303.12035372 259.20529175 304.27496338 C262.31842321 307.39320562 265.44075992 310.50207598 268.56501913 313.60916376 C271.84199856 316.87104289 275.11080865 320.14108976 278.38064575 323.41012573 C283.87163898 328.89743269 289.36822476 334.37908434 294.86865234 339.85693359 C301.91599716 346.87540796 308.9540588 353.90311501 315.98921013 360.93380928 C322.05394246 366.99455239 328.12292451 373.05103492 334.19258738 379.10683966 C336.13564655 381.04581326 338.07812896 382.98536325 340.02053452 384.92499161 C343.07967699 387.9792153 346.14146828 391.03076015 349.2052803 394.08029938 C350.32552915 395.19605291 351.44496222 396.31262625 352.56349182 397.4301033 C358.03000661 402.890324 363.52347181 408.21687302 369.4609375 413.16796875 C370.56086968 414.36375558 371.63173934 415.58815592 372.6484375 416.85546875 C375.668553 420.42097756 378.98840843 423.55280363 382.4609375 426.66796875 C391.16177351 434.51311716 399.68129907 442.40443804 400.76953125 454.63671875 C401.18549662 464.22180038 399.86406895 470.95366151 394.4609375 479.16796875 C394.05488281 479.79316406 393.64882813 480.41835938 393.23046875 481.0625 C388.34744898 487.64541062 380.3165428 491.48182385 372.4609375 493.16796875 C362.43380232 494.33913814 354.47804263 491.87346281 346.55610776 485.85096478 C343.46015701 483.36406769 340.66998872 480.64035294 337.88265991 477.81674194 C337.27160861 477.20598836 336.6605573 476.59523477 336.03098929 475.9659735 C334.00594336 473.93955016 331.9881175 471.90609327 329.97021484 469.87255859 C328.511255 468.40975638 327.05183615 466.94741183 325.59199524 465.48548889 C322.45987875 462.34706993 319.33089193 459.20557572 316.20429611 456.06165695 C311.25919501 451.08943691 306.30640803 446.12492059 301.35244751 441.16152954 C290.84100621 430.62792316 280.33804696 420.08587785 269.8359375 409.54296875 C258.49018841 398.15316365 247.14299229 386.76482317 235.78601611 375.38621104 C230.86243945 370.45267518 225.94377946 365.51430499 221.02883506 360.57217002 C217.97138089 357.4997926 214.90978473 354.43156848 211.84705162 351.36445427 C210.42873804 349.94239841 209.01215361 348.51861552 207.59744072 347.09297752 C205.66465088 345.14573406 203.72575082 343.20478098 201.7852478 341.26522827 C201.22843051 340.70122106 200.67161322 340.13721385 200.09792268 339.55611551 C194.13524184 333.62181441 194.13524184 333.62181441 186.4609375 330.63671875 C180.29921482 330.70090336 176.25408139 330.86642936 171.4609375 335.16796875 C170.8628125 335.68359375 170.2646875 336.19921875 169.6484375 336.73046875 C167.24562063 339.63914181 167.24431833 342.8047754 167.1484375 346.41796875 C167.11105469 347.330625 167.07367188 348.24328125 167.03515625 349.18359375 C168.0320179 356.17077082 172.85747296 360.99635623 177.692276 365.74661255 C178.31427696 366.36976565 178.93627792 366.99291876 179.5771274 367.63495529 C181.65122395 369.70930879 183.73582067 371.77276949 185.82055664 373.83642578 C187.31445634 375.32620273 188.80767961 376.81665824 190.30027771 378.30773926 C193.50983876 381.51121577 196.72404519 384.7099304 199.94194221 387.90503311 C205.02943977 392.95670011 210.10597599 398.01928688 215.18101501 403.08346558 C225.03666463 412.91500158 234.90356911 422.73519842 244.77152252 432.55438232 C257.3372166 445.05921605 269.89729373 457.56967771 282.44834417 470.08920944 C287.49552335 475.12299381 292.54790278 480.15148284 297.60442173 485.17588449 C300.74661986 488.29999052 303.88472244 491.42818609 307.02176857 494.5574646 C308.4781032 496.00845362 309.93617296 497.45770348 311.39609146 498.90508652 C313.38755861 500.87989798 315.3727761 502.86078975 317.35658264 504.84329224 C317.93653978 505.41537733 318.51649692 505.98746243 319.11402851 506.57688344 C326.59259376 514.08536393 328.90430818 521.30885634 328.89697266 531.90991211 C328.65750904 540.86728406 325.3929919 549.14515272 319.19921875 555.70703125 C315.94281422 558.44387461 312.30548319 560.38276232 308.4609375 562.16796875 C307.70296875 562.53535156 306.945 562.90273438 306.1640625 563.28125 C298.3364704 565.84897168 287.40042564 565.28905603 279.9609375 561.7578125 C271.99856208 556.69423938 265.2072926 550.27946631 259.171875 543.06640625 C252.04700458 535.16072812 243.03133808 530.43661717 233.4609375 526.16796875 C232.71457031 525.82765625 231.96820313 525.48734375 231.19921875 525.13671875 C223.45427554 522.09351906 214.67382709 521.92103845 206.4609375 521.16796875 C206.43515625 520.40355469 206.409375 519.63914062 206.3828125 518.8515625 C205.32075272 498.79311522 198.4398061 481.55185501 183.8984375 467.60546875 C169.81323862 455.45062093 152.95441434 449.521757 134.4609375 449.16796875 C134.44675781 448.34296875 134.43257813 447.51796875 134.41796875 446.66796875 C133.64887699 428.04347637 126.82720798 410.72770767 113.625 397.30078125 C99.09094228 383.95317722 81.76181894 378.69310652 62.4609375 377.16796875 C62.36296875 376.0078125 62.265 374.84765625 62.1640625 373.65234375 C61.30575419 364.36148023 60.11206096 355.8441576 56.4609375 347.16796875 C56.10128906 346.30945313 55.74164063 345.4509375 55.37109375 344.56640625 C47.89802967 328.31186283 34.59863094 318.11239425 18.4609375 311.16796875 C17.47996094 310.73226563 16.49898437 310.2965625 15.48828125 309.84765625 C-0.00524818 304.00951473 -18.56294459 305.60652579 -33.5390625 312.16796875 C-47.69306644 318.77317059 -58.33524054 330.80848189 -69.2109375 341.7421875 C-70.2697367 342.80285919 -71.32876239 343.86330483 -72.38800049 344.92353821 C-75.13224869 347.6715463 -77.87347705 350.42254644 -80.61401367 353.17425537 C-83.42830134 355.99890024 -86.24553662 358.82060213 -89.0625 361.64257812 C-94.55752093 367.14822071 -100.04934412 372.65703839 -105.5390625 378.16796875 C-131.18547392 356.46124618 -151.48857452 330.72739955 -165.5390625 300.16796875 C-165.84682617 299.50168457 -166.15458984 298.83540039 -166.47167969 298.14892578 C-174.88629279 279.78537356 -180.8459953 261.04018748 -184.5390625 241.16796875 C-184.735 240.18828125 -184.9309375 239.20859375 -185.1328125 238.19921875 C-195.34502824 185.93670292 -184.70098177 129.43929791 -155.06054688 85.36914062 C-146.11144043 72.42223053 -135.68768684 60.20282145 -123.5390625 50.16796875 C-122.67023438 49.41128906 -121.80140625 48.65460938 -120.90625 47.875 C-108.52469779 37.2268651 -94.88819054 28.8947335 -80.5390625 21.16796875 C-79.65863281 20.68585938 -78.77820313 20.20375 -77.87109375 19.70703125 C-70.40605586 15.78069641 -62.48490507 12.94845382 -54.5390625 10.16796875 C-53.56791504 9.82717285 -53.56791504 9.82717285 -52.57714844 9.47949219 C-35.64516498 3.63464381 -17.93892727 0.02419179 0 0 Z " fill="#FEFEFE" transform="translate(253.5390625,75.83203125)"/>
<path d="M0 0 C0.84997559 0.22139648 1.69995117 0.44279297 2.57568359 0.67089844 C22.79632526 6.07027982 42.21125983 15.51899517 59 28 C59.57669434 28.42023438 60.15338867 28.84046875 60.74755859 29.2734375 C67.69792628 34.35203443 74.09497503 39.71171619 80 46 C80.825 46.825 81.65 47.65 82.5 48.5 C83.325 49.325 84.15 50.15 85 51 C85.804375 51.73476562 85.804375 51.73476562 86.625 52.484375 C98.25747227 63.43828638 107.28254283 77.0994895 115 91 C115.38671875 91.68594238 115.7734375 92.37188477 116.171875 93.07861328 C120.82246069 101.36624386 124.87499271 109.50620375 127.83203125 118.55859375 C128.78638248 121.37057847 129.83973364 124.06141535 130.9765625 126.80078125 C148.88016394 171.17021381 144.33346719 227.68430372 126 271 C118.76375413 287.53999057 110.38923033 302.29370378 99.62890625 316.79296875 C98.37259464 318.49516554 97.17352759 320.23970861 96 322 C95.34 322 94.68 322 94 322 C92.81487394 320.62518301 91.69813134 319.1915784 90.60546875 317.7421875 C83.71989192 309.14107272 75.79715957 301.53596518 67.98803711 293.78222656 C65.30324834 291.11581166 62.62666559 288.44136339 59.95117188 285.765625 C58.23484775 284.05421326 56.51806685 282.34325946 54.80078125 280.6328125 C54.00690506 279.84004913 53.21302887 279.04728577 52.39509583 278.23049927 C48.40406674 274.27336069 44.37042191 270.53269259 40 267 C36.73686258 263.91324839 33.77888741 260.61710992 30.8125 257.25 C27.72400201 253.78822328 24.55190956 250.61847661 21.0625 247.5625 C16.4554109 243.5268328 12.43658252 239.13147581 8.37109375 234.55859375 C5.74684948 231.72683098 2.94821289 229.28552269 -0.00390625 226.80859375 C-2.35351483 224.67969204 -4.40608672 222.38026039 -6.5 220 C-9.8019004 216.25067227 -13.2154415 212.93874475 -17.0234375 209.71484375 C-21.53868641 205.79746377 -25.72095762 201.56682691 -29.5 196.9375 C-31.49143366 194.59756545 -33.29960394 192.82852098 -35.625 190.875 C-39.20925465 187.83176492 -42.36650519 184.49567378 -45.5 181 C-49.17162395 176.90516314 -52.95496376 173.17185961 -57.171875 169.640625 C-59.7550575 167.32238429 -61.90982208 164.6971434 -64.14894104 162.05220032 C-65.80242262 160.2190467 -67.45518232 158.68956985 -69.35131836 157.11791992 C-75.17916306 152.0836562 -80.51871912 146.55879407 -85.92883492 141.08519936 C-87.91511416 139.0766677 -89.90553104 137.07232262 -91.89720154 135.06913757 C-97.55421719 129.37873487 -103.20692173 123.68410298 -108.84936523 117.97924805 C-112.31451428 114.4763638 -115.78701157 110.98090854 -119.26426506 107.49004173 C-120.58148526 106.16479809 -121.89592949 104.83678899 -123.2074604 103.50591469 C-125.04228913 101.64447807 -126.88634062 99.79265112 -128.73266602 97.94262695 C-129.26532578 97.39761032 -129.79798553 96.85259369 -130.3467865 96.2910614 C-134.3633114 92.2955791 -138.75023909 88.66035142 -144.44140625 87.50390625 C-149.37739329 87.64025948 -152.64399925 88.4501459 -157 91 C-157.66 91 -158.32 91 -159 91 C-159 91.66 -159 92.32 -159 93 C-159.66 93 -160.32 93 -161 93 C-161.33 93.99 -161.66 94.98 -162 96 C-163.77734375 97.71875 -163.77734375 97.71875 -165.9375 99.5 C-168.50975192 101.62876021 -170.12260763 103.18391145 -172 106 C-172.66 106 -173.32 106 -174 106 C-174 106.66 -174 107.32 -174 108 C-174.66 108 -175.32 108 -176 108 C-176 108.66 -176 109.32 -176 110 C-176.66 110 -177.32 110 -178 110 C-178 110.66 -178 111.32 -178 112 C-179.50390625 113.4453125 -179.50390625 113.4453125 -181.5625 115.125 C-185.31756613 118.29312862 -188.45265657 121.69430236 -191.5546875 125.49609375 C-192.03164063 125.99238281 -192.50859375 126.48867187 -193 127 C-193.66 127 -194.32 127 -195 127 C-195 127.66 -195 128.32 -195 129 C-196.57421875 130.55078125 -196.57421875 130.55078125 -198.6875 132.3125 C-201.96801164 135.06170467 -204.9927229 137.95332626 -208 141 C-209.17075038 142.16129113 -210.34270544 143.32136856 -211.515625 144.48046875 C-212.76045512 145.71610709 -214.00524615 146.95178482 -215.25 148.1875 C-215.88679687 148.81591797 -216.52359375 149.44433594 -217.1796875 150.09179688 C-217.78554688 150.69443359 -218.39140625 151.29707031 -219.015625 151.91796875 C-219.56508789 152.46219482 -220.11455078 153.0064209 -220.68066406 153.56713867 C-222.10726152 154.9838063 -222.10726152 154.9838063 -223 157 C-223.66 157 -224.32 157 -225 157 C-225 157.66 -225 158.32 -225 159 C-225.66 159 -226.32 159 -227 159 C-227 159.66 -227 160.32 -227 161 C-227.66 161 -228.32 161 -229 161 C-229 161.66 -229 162.32 -229 163 C-230.50390625 164.4453125 -230.50390625 164.4453125 -232.5625 166.125 C-235.47260164 168.59014761 -238.04319027 171.0836023 -240.5 174 C-254.96683309 190.8995965 -277.4371828 203.43264245 -299.78515625 205.22314453 C-320.03799934 206.27605472 -335.31882648 202.6342554 -353 193 C-353.66 192.67 -354.32 192.34 -355 192 C-353.40331752 188.05549341 -350.67740755 185.39756638 -347.70838928 182.454422 C-347.16316209 181.90607482 -346.61793489 181.35772765 -346.05618566 180.79276389 C-344.22716886 178.95576748 -342.39108328 177.12600539 -340.55493164 175.29614258 C-339.24203652 173.98053736 -337.92956725 172.66450706 -336.61749268 171.3480835 C-333.04935449 167.77081499 -329.47490252 164.19991794 -325.89903188 160.63038087 C-322.15222212 156.88863521 -318.41029557 153.14201127 -314.66758728 149.39616394 C-308.3737035 143.09863857 -302.07560923 136.80534713 -295.77514648 130.5144043 C-288.50976347 123.25987312 -281.25156865 115.99821005 -273.99713045 108.73273546 C-267.75947814 102.48597619 -261.51789758 96.24316203 -255.27308172 90.00356406 C-251.54776823 86.28135584 -247.82378839 82.55784032 -244.10334969 78.83075905 C-240.5973595 75.31894758 -237.08642879 71.81214829 -233.5717926 68.30899048 C-232.28947159 67.02929208 -231.00880859 65.74792953 -229.73002434 64.46469688 C-222.46116841 57.17291127 -215.09634086 50.37748938 -207 44 C-205.41461117 42.68998361 -203.83099289 41.37781828 -202.25 40.0625 C-172.51890253 16.3999335 -135.44308151 0.91159337 -98 -5 C-96.19402344 -5.31517578 -96.19402344 -5.31517578 -94.3515625 -5.63671875 C-62.33913535 -10.99746961 -31.13076081 -8.21668813 0 0 Z " fill="#FEFEFE" transform="translate(654,103)"/>
<path d="M0 0 C7.5750031 5.79394286 14.58626858 12.13836131 16 22 C16.80700784 31.92864188 16.56893478 41.28556035 10.12451172 49.34570312 C0.79550459 59.37261712 -8.84212993 69.09951348 -18.5065918 78.80175781 C-21.06205114 81.36835718 -23.60558105 83.94646078 -26.14680576 86.52714348 C-28.13485828 88.54150508 -30.13190362 90.54677294 -32.13136101 92.5498085 C-33.52352098 93.94908307 -34.90603755 95.35793146 -36.28822327 96.76705933 C-45.20573793 105.65440217 -53.99568267 111.85462354 -66.875 112.375 C-72.7358545 112.27243505 -76.95792373 110.90423593 -82 108 C-83.546875 107.13375 -83.546875 107.13375 -85.125 106.25 C-93.43754258 99.74453189 -98.9150297 91.5186538 -100.4453125 80.9140625 C-100.91610005 68.7049721 -95.60115214 60.06452534 -87.55831909 51.35632324 C-84.60001806 48.30321304 -81.61332524 45.28150534 -78.609375 42.2734375 C-77.49833302 41.15595285 -76.38743482 40.03832524 -75.27667236 38.92056274 C-72.95702159 36.58899933 -70.6333386 34.26154209 -68.30712891 31.93652344 C-65.34734923 28.97694698 -62.40157764 26.00384234 -59.45916367 23.02701378 C-57.17189111 20.71735936 -54.87543837 18.41699875 -52.57642365 16.11903763 C-51.48729913 15.02757531 -50.40136317 13.93292042 -49.31890106 12.83485031 C-36.10912001 -0.54752192 -18.5286391 -11.56113088 0 0 Z " fill="#FCFCFC" transform="translate(337,492)"/>
<path d="M0 0 C7.50532467 5.64009605 12.5436793 11.84194391 14.265625 21.234375 C15.15668685 32.45220717 13.52615953 40.84166981 6.47842407 49.6529541 C2.08613993 54.77693224 -2.68189591 59.53326254 -7.44140625 64.3125 C-8.57336277 65.45344743 -9.7052534 66.59446024 -10.83708191 67.73553467 C-13.19769486 70.11253084 -15.56257044 72.48519457 -17.92993164 74.85546875 C-20.94414746 77.87507928 -23.94184161 80.91054566 -26.93587208 83.95015335 C-29.26354196 86.30772516 -31.60254342 88.65380682 -33.94470787 90.99697113 C-35.05426961 92.11070344 -36.15976514 93.22850384 -37.26084328 94.35062408 C-46.15169257 103.39786547 -54.58959698 110.29159699 -67.796875 110.546875 C-78.22424014 110.546875 -85.19881384 107.62091889 -92.7578125 100.44921875 C-99.97236991 92.36492221 -102.22589409 83.34747817 -102.046875 72.70703125 C-100.95879326 60.61572297 -91.53098264 51.72117599 -83.34375 43.578125 C-82.55792542 42.79038696 -81.77210083 42.00264893 -80.96246338 41.19104004 C-79.3143452 39.5415695 -77.6637333 37.89458717 -76.01074219 36.25 C-73.47094045 33.72099758 -70.94209776 31.18138363 -68.4140625 28.640625 C-66.80793332 27.03581589 -65.20118467 25.43162648 -63.59375 23.828125 C-62.83543884 23.06576538 -62.07712769 22.30340576 -61.2958374 21.51794434 C-60.59460754 20.8230188 -59.89337769 20.12809326 -59.17089844 19.41210938 C-58.55390076 18.79670288 -57.93690308 18.18129639 -57.3012085 17.54724121 C-55.734375 16.234375 -55.734375 16.234375 -53.734375 16.234375 C-53.48816406 15.66460938 -53.24195313 15.09484375 -52.98828125 14.5078125 C-48.1013345 5.64736699 -37.52491357 -2.1213642 -27.953125 -5.29296875 C-17.90206727 -7.43412718 -8.57493996 -5.53696123 0 0 Z " fill="#FCFCFC" transform="translate(482.734375,636.765625)"/>
<path d="M0 0 C6.53382463 5.25546763 12.74288173 11.43593561 13.703125 20.078125 C13.75984375 20.81546875 13.8165625 21.5528125 13.875 22.3125 C13.99101562 23.75882812 13.99101562 23.75882812 14.109375 25.234375 C14.15578125 26.31203125 14.2021875 27.3896875 14.25 28.5 C14.29898438 29.50417969 14.34796875 30.50835937 14.3984375 31.54296875 C12.6101471 44.4213287 5.11837761 52.09111132 -3.73046875 60.77734375 C-4.97848979 62.02500014 -6.22532003 63.27384869 -7.47102356 64.52381897 C-10.0717512 67.12583376 -12.68406493 69.7154098 -15.3059082 72.29614258 C-18.64717462 75.5862869 -21.96107607 78.90246012 -25.26711559 82.22795773 C-27.83407787 84.80526934 -30.41333646 87.36998349 -32.99654579 89.93100166 C-34.22256704 91.14872541 -35.44525577 92.36981485 -36.66435814 93.59446526 C-46.60436918 103.55376425 -55.44821134 110.6523213 -70.08032227 110.765625 C-79.08548657 110.54197435 -86.11313932 106.50564273 -92.625 100.4375 C-99.37703017 93.08311029 -102.69176434 83.98490814 -102.43359375 73.9921875 C-100.72534311 59.15851737 -89.07582316 50.08578247 -79.12890625 40.078125 C-78.56058516 39.50572838 -77.99226406 38.93333176 -77.40672112 38.34358978 C-74.40485983 35.32101669 -71.39983954 32.30162447 -68.39233398 29.28466797 C-65.30296452 26.18419152 -62.22546528 23.07220002 -59.15039158 19.95755386 C-56.76604281 17.54699491 -54.37278802 15.14542684 -51.97709465 12.74614716 C-50.83872265 11.60293033 -49.70370647 10.45636093 -48.57226753 9.30628204 C-33.88570295 -5.60733615 -19.38585411 -10.46836122 0 0 Z " fill="#FDFDFD" transform="translate(267.125,421.6875)"/>
<path d="M0 0 C0.73484619 0.01877197 1.46969238 0.03754395 2.22680664 0.05688477 C13.65920718 0.5698367 20.6812867 5.35714704 28.5 13.5625 C35.19722576 21.47246664 35.29450257 30.64669517 34.5 40.5625 C31.81126016 53.71747546 19.07068244 63.17035277 9.96484375 72.3359375 C9.43145449 72.87340229 8.89806522 73.41086708 8.34851265 73.96461868 C5.53464013 76.79913513 2.71765898 79.63052009 -0.10180664 82.45947266 C-2.99381322 85.36261373 -5.87392751 88.27727064 -8.75168705 91.19452477 C-10.9884832 93.45753303 -13.23418464 95.71154564 -15.48232841 97.96327591 C-16.54813598 99.03392235 -17.61059342 100.10791563 -18.66945076 101.18543625 C-27.34527194 110.00484415 -34.60304045 115.75498741 -47.4375 116 C-56.80594635 116.0546352 -63.7205095 113.76719181 -70.87109375 107.4765625 C-75.43792759 102.70024087 -78.19873858 97.7121986 -80.5 91.5625 C-80.83 90.9025 -81.16 90.2425 -81.5 89.5625 C-82.29757428 79.83470873 -82.02069809 71.13564337 -75.68406677 63.32380676 C-69.60738453 56.68486178 -63.36819288 50.21770113 -57.03515625 43.82421875 C-56.50426329 43.28800211 -55.97337032 42.75178547 -55.42638969 42.19931984 C-52.62342168 39.36989728 -49.81697306 36.54397553 -47.00805664 33.72045898 C-44.70573226 31.40474568 -42.41092412 29.0819527 -40.12231445 26.75268555 C-37.32857564 23.90937039 -34.52251738 21.07877258 -31.70742607 18.25660133 C-30.64794428 17.19046375 -29.59267355 16.12012205 -28.54200935 15.04529381 C-20.31327593 6.63796037 -12.33869389 -0.48707272 0 0 Z " fill="#FDFDFD" transform="translate(390.5,559.4375)"/>
</svg>
